<svg xmlns="http://www.w3.org/2000/svg" width="179" height="186" fill="none" viewBox="0 0 179 186">
  <g class="geo_export_f87ffb26-fc15-43a4-aea3-61b7f9af450c">
    <g class="Bay Area Water Background">
      <path fill="#fff" d="M82.388 107.152l-5.365-9.67L69.36 72.94l13.028-12.645 45.21 8.925-1.533 11.9-23.754 5.95 23.754 18.595-5.364 35.7-28.352-7.438-9.962-26.775z"/>
      <path fill="#fff" d="M82.388 107.152l-5.365-9.67L69.36 72.94l13.028-12.645 45.21 8.925-1.533 11.9-23.754 5.95 23.754 18.595-5.364 35.7-28.352-7.438-9.962-26.775z"/>
    </g>
    <g class="data-sf-gov-bay-area-boundaries">
      <path fill="#000" d="M93.885 92.215l.583-.105.385.019.188-.058.712.087.415-.221.386-.125-.04-.153.326-.163.366.086.267-.029.148.096.277.317.267.048-.01.24.247.105.05.22.247.02.079.23-.08.106.07.259.524.47.257-.134.583.182.544.288.188.278.306.336.079.278-.217.144-.089.26.662.786.218.384.385.067.267.374.376.345-.04.116.524.44.277.058.089.288-.228.413.099.374-.069.192.059.259.346.115.336.307.327.039.444.22.702-.412.682.383.208.288.128.278.267.288 3.707.327 1.513.115 2.046.172 1.146.969.643.327.326.278.277.096 1.245 1.593-.988.758-.049.105-.03.614.81.787.574.086.277.422.494.259.84.211.89.931.82-.23.534-.173 1.246-.364 1.69-.48 1.749-.499.801-.259 4.488-1.334 2.422-.7 6.158-1.9.406.058.266-.269 1.859-.566 3.212-.816 2.027-.767 2.926-1.084.188-.125-.03.422.01 4.001.02 1.583-.03.912.01 3.991v6.304l-.02 1.823.04 6.188v.71l.474.317.356.633.475.249.761.269.079-.077.484.279.425-.068.613.068.336-.106.425.307-.267.384.346.499.158.441-.039.326.198.24.603-.009.286.239.158.317.248.086.207.269.336.288-.257.7-.02-.019-4.576-.009-2.037-.01-.356.01-7.413-.039h-2.165l-1.898-.077-2.017-.028h-1.848l-1.572-.02-.731.02-5.289-.058-.306.24-.109.24-.218.163-.079.182-.197.029-.149.269-.207.163-.287-.087-.257.096-.158.25-.346.029-.306.182-.692.259-1.048.691-.208.096-.247-.269h-.198l-.029-.326-.257-.01-.01-.134-.297-.096-.099-.125-.276-.096.019-.307-.237-.009-.049.124.039.413-.365.058-.584-.154-.731.24-.455.115-.069-.086-.86-.173.138-.163.544-.432-.099-.096-.573.461-.455-.298-.524-.077-1.384.202-1.502-.163-.979.269-.267-.509.119-.499-.297-1.238 1.276-.096.326.173.158.662.079-.364-.168-.423-.297-.239-1.166.086-.04-.192-.494-.307-.484-.058-.574-.143-.444-.144.187-.403-.098-.336-.257.115-.386.46-1.166.365-.238-.019-.267-.326-.148-.653.069-.163.02-.643-.148-1.007-.722-1.593-.603-1.602-.128.192-.168-.01-.089-.173-.188-.575-.129-.115-.247-.682-.158-.287-.128-.048-.06-.49-.099-.307.06-.153.138-.893-.128-.278v-.278l-.07-.403-.168-.413-.197-1.237-.069-1.094-.089-.489-.228-.912-.267-.719-.118-.538-.277-.201-.218-.461-.306-.307-.257-.077-.563-.853-.396.095-.267-.268.129-.067.128.268.129-.076.099-.384-.159-.039-.069-.431-.108-.346-.544.087-.257-.682.178-.268-.831.259-.098.153.049.691-.217.25-2.195-1.939-.267-.057-.435-.394.109-.191.395.096-1.077-1.344v-.345l.662-.441 1.088.047.8.058.257.077.564.575.346.845.148.038-.386-.988-.346-.72.455.355.04.211.217.068-.425-.662-.079-.682-.148-.259.099-.201-.514.259-.149-.576-.395-.422-.504-.249-.326-.288-.267-.384.059-.211-.089-.182-.237-.269-.485-.182-.405.182-.425-.211-.01-.298-.287.096-.207-.028-.336-.259-.494-.269-.514-.01-.129.125-.425.096h-.731l-.505-.106-1.136-.287-.356-.202.356-.077.168-.518-.248-.077-.326.231-.553.22-.119-.172.653-.557.79.029.188-.355.514-.48.356.02.01-.192-.297-.106-.514.048-.751.125-.01-.135.643-.22.267-.346.227-.144.385.202.712-.086v-.23l.336.114-.178-.297-.128-.374-.89-.01v-.077l.603-.096-.01-.076.386-.087-.158-.566-.07-.096.05-.326-.227-1.007-.198.21-.09-.556-.335.077-.317.202-.168-.125.475-.135-.109-.23-.168-.115-.207.038-.307-.259.415-.153.208.297.474-.115-.217-.633-.445-1.132.563-.279-.286-.44zm-1.127 10.909l-.346-.681.01-.911 2.194.652.643.01.405-.144.682-.029.257.077.178.239.247.116.198.249.474.25.218.009.217.125-.118.249.257-.038.247.058.296.268.297.039.415.287.653.355.375.413.02.806-.623.537-.247.039-1.058-.413-1.136-.518-.771-.413.01-.383-.406-.096-.128-.087-.307-.009-.158.067-.237-.087-.86-.23.06-.125-.396-.191-.613-.077-.188-.259-.405-.01-.158-.134-.198-.01zm6.228.183l-.139-.02-.524-.585.139-.038.266.134.248.278.01.231zm12.336 25.512l.158-.211.218-.058.059.374-.129.134-.217-.048-.089-.191z" class="Vector"/>
      <path fill="#000" fill-rule="evenodd" d="M127.178 77.88l.257-.162.247-.25.326-.508.158-.336.05-.24.672.115.524.46.385.75.089.623.198.595.287.393.158.345.306.288.415.26.337.287.375.154.307.028.444-.096.416.039.237.134.464.096.86-.048.94-.403.523-.086.712-.02.85-.21.465-.27.465-.412.662-.364.563-.211.742-.49.622-.777.554-.47.217-.259.129-.365.01-.412-.04-.672-.128-.508.197-.681.475-.394.85-.201.998.527.277.25.544.115.287-.096.128-.134.277-.816.119-.105.583-.096 1.127-.039 1.502.326.297.221.188.422.079.346.049.729.287.413-.109.182-.662.336.019.46-.247.384.089.767-.089.605-.029.604.158.49.178.105.148-.096-.01-.21-.178-.26.03-.316.277-.154.276.125.149.336-.07.585.238.192.197-.125.129.086-.02.346.158.23.277.25.109.22-.178.183-.682-.288-.208.038-.01.22.327.164.069.144-.228.144-.405-.039-.217.106-.119.25.04.22.178.173.434-.01.178.086-.108.365h-.534l-.079.201.197.135-.009.144-.297.441-.079.499.158.23.405.077.139.173-.168.105-.376-.01.04.24.296.212.148.172-.019.413.059.144.247.22.237.116-.029.259-.564.124.06.24.494-.124.207.182-.326.403-.02.307.346.182.188.46-.069.356.306.422-.088.24.039.326.208.307-.712.23-.079.144.079.307.148.173v.25l-.593.44.01.221.287.221.059.278-.059.413-.079.105-.445.183-.119.153.168.432-.346.537-.099.355.119.442.346.335-.089.279-.316.191.079.308.217-.183.485-.134.444.681.119-.029-.059-.307.178-.201.316.086.277-.21.247.508.514-.24-.01.633.079.144.227-.125.238.087-.05.21-.148.097-.01.21-.188.173.079.384-.187.154-.139.24-.405.134-.188.019-.109.134.129.509-.079.115.138.24-.198.02-.069.248-.138.087-.188.125-2.926 1.084-2.026.767-3.213.816-1.858.566-.267.269-.406-.058-6.158 1.9-2.422.7-4.488 1.334-.8.259-1.75.499-1.69.48-1.246.364-.534.173-.82.23-.89-.931-.84-.211-.494-.259-.277-.422-.573-.086-.811-.787.03-.614.049-.106.989-.758-1.246-1.592-.277-.096-.326-.278-.642-.327-1.147-.969-2.046-.172-1.513-.116-3.707-.326-.266-.288-.129-.278-.208-.288-.682-.383-.701.412-.445-.22-.326-.039-.337-.307-.346-.115-.059-.26.069-.191-.099-.374.228-.413-.089-.288-.277-.057-.524-.442.04-.115-.376-.345-.267-.374-.385-.067-.218-.384-.662-.787.089-.259.217-.144-.079-.278-.306-.336-.188-.278-.544-.288-.583-.182-.257.134-.524-.47-.069-.26.08-.105-.08-.23-.247-.02-.05-.22-.247-.105.01-.24-.267-.048-.276-.317-.149-.096-.267.029-.365-.086-.327.163.04.153-.386.125-.415.22-.712-.086-.187.058-.386-.02-.583.106-.297-.201-.425.383-.385-.566.593-.24-.237-.335-.81-.269-.268.134h-.237l-.91.106.02-.115.326-.01-.01-.47h-.494l-.059.46-.435-.019-.109-.738-.088-.183-.307-.019-.07-.115-.385-.374-.286.096.346.192.474.374.198 1.16-.346.078-.267-.048.01-.125-.415-.355-.257-.125-.455.288-.267-.22.237-.922-.336-.192-.01-.259-.79-.575-.613-.03-.02-.105-.307-.326.198-.269-.099-.412-.751-.422.296-.307-.296-.413-.158-.058-.247-.422-.129-.076-.03-.27.149-.085.316.067.356.201.306-.067.198.086.119.25-.03.317.969.345.247-.26-.277-.181.227-.116.188.02-.04-.413.544-.105.178-.346-.098-.365.168-.46.87.163.365-.336.02-.124.297-.48.227-.643-.08-.317-.246-.192-.139-.22-.168-.7.09-.519.217-.048.158.317.385.086.435.01.653.45.623.154.326-.028.227-.154.742-.7.138-.039.435.096.385-.038.366.028.287-.431.356-.211.197-.336.524-.202.564-1.16.089-.327.247.02.415-.145.128-.259.08-.758.148-.086.237.048.405-.125.475-.431.454-.039.455.087.623.048.128-.096.732.038.613.23.198-.01.177.116.87.134.524.413.346.336.307.537.099.384.415.508.959.509.721.163.376-.163.188-.173.514-.067.435-.374.346-.125.177-.211.416-.346 1.275-.48.336-.067.336-.201.524-.106.633-.22.217-.394.158.096.228-.086.741.211.346.029.85-.46.82-.231.317-.01.8.077.386.115.198-.134.326.058.109-.135.82.154.672.086.969-.038.86.076.534.135.514.182.632.297.742.221.781.115.405.02.682-.039.89-.115.712-.192.316-.134zm21.49 20.236l.02.412.188.298.425.316.385-.047.336-.442.277-.067.672-.038.475-.25.089-.211-.089-.336-.406-1.142-.306-.374-.168-.335-.287-.058-.711-.01-.228.451.148.288-.089.144-.434.048-.02.307-.099.374.03.173-.267.02.059.479zm-58.381-6.17l.168-.086.504.672-.465-.115-.04-.336-.167-.135z" class="Vector_2" clip-rule="evenodd"/>
      <path fill="#000" fill-rule="evenodd" d="M41.316 54.767l.128-.163.07-.029.405-.115.099-.096-.09-.576.317.03.218-.212.276-.01.188-.278.514-.029.287.144.158-.086.218-.585.336.019.375.269.386.076.425.192.198-.124.642.278.218-.202.524-.105.306.393.296-.192.05-.259-.198-.105-.108-.192.237-.144.178-.211.355-.058.258.067.02.154-.258.115.168.307.514-.269.149.02.118.23 2.234 1.89 3.588 2.974 1.434 1.2.148.144 3.796 3.185.85.71 1.255-.01.129.03.514.316.07.259.256.134.04.125.237.105.158-.172.297.24.84.144.158-.03.564.47.336.03.672-.02.277.221.03.115.306-.077.454.212.168.21.248.116.78.105.159.144.563-.01.326-.316.307-.048.405.029.099.125.257-.03.465.058.217-.441.277-.201.366-.116.089.24.306-.057.217-.115.327.24.089-.145.375.106.07.25.335-.116.287.211-.247.509.297.163.02.413.079.134.296.067.277-.125.227.03.05.133-.455.442v.316l.237.144.395.125.356-.144.554.691.346.317.702.431.464.46.366.596.138.69.258.644.385.48.138.085-.098.077.573.192.425.365-.07.518v.432l.228.307.267 1.87-.346.73-.168.528-.148.191-.08.595.1.183-.139.086-.415 1.468-.04.365.129.566-.09.364-.207.192.445.02.534.124.553.547.307.182.296.01.416.288.188-.077.286.096.138.336.327.25.316.45.08-.02.217.385.069.297-.722.595-.76-.46-.06-.068-.386.192-.207.346.03.105-.189.451v.115l-.474.038-.07.096-.79.039-.03.25.396.172v.73l.128.21.178.758.287.048.336.365-.554.192-.267.355-.662-.23-.109-.183-.187-.086-.277.21.138 1.047.623.69.465.068.187-.048.593.527.287.039.158.547-.296.057-.01.269.336.25.494.517.307.039.306.297.643-.029.375.586.03.163.465.384-.06.192-.188-.077-.217.21.05.231-.396.173-.099.23-.731-.086-.248.067.03.336.317.355.03.268-.426-.259-.435-.364-.267-.509-.089-.297.198-.336-.089-.211-.386-.442-.513-.326-.218-.288-.475.087-.494-.077.05-.173-.188-.057-.148.297-.01.374.227.279.306.72-.088.153-.307-.25-.217-.259-.514-.124.178-.183-.248-.22-.237.268-.237-.153.05-.317-.347-.105-.079-.307-.118.057.197.326-.04.346.347.431.306.106.198.374.712.566h.188l.148.125.05.22.355.317.277-.01.03.135.237.201.425.212.217-.106.03.297-.158.461-.02.393.099.01.138.393.356.566-.07.451-.138-.144-.306.048-.05.49.05.22-.415-.086-.208.038-.375-.019-.277.355-.316.029-.396.125-.079-.173-.455-.153-.375-.077-.574.048-.138.22-.287.327.139.297-.218.02-.079-.47-.346-.317.139-.164-.257-.431-.198-.135-.702-.24.01-.172-.218-.509-.257-.076.04-.144-.287-.125.01-.25-.138-.019-.099-.345-.346-.202-.089.058-.465-.26-.148-.258-.366-.039-.079.154-.276-.25-.277-.105-.139-.297-.474-.595-.376-.384h-.178l-.77-.26-.317.106-.474-.374-.129.048-.218-.134.12-.413-.159-.096-.188-.326-.632-.633-.762-.46-.415-.183-.712-.182-.543.028-.415-.047-.168-.077.652-.183.633.077.365.087.92.422-.208-.326-.168-.039-.306-.278-.425-.173-.248-.192-.197-.336-.366-.124-.06-.192-.385-.413-.227-.01-.336-.48-.406-.057-.227-.22-.395-.096-.05.144.148.22.1.394.197.297h.218l.148.115-.04.547.297.49.188.076-.02.317-.119.105-.702.355-.543.442-.04.23-.158.048-.366-.105-.188-.116-.217-.355-.277-.086-.079.432-.366-.048-.692-.279-.217-.393-.089-.604-.237-.605-.267-.49.385-.344-.444-.298-.505-.23-.336-.346-.138-.076-.554-.087-.276-.134-.159-.336L59 87.85l-.405-.172-.148-.221-.297.01-.138-.087.03-.23-.06-.298-.583-1.4-.435-.672-.297-.355-.632-.49-.178.068-.484-.71-.238-.403-.296-.202-.109.02-.455-.442-.583-.384-.188-.172-.237-.106-.386-.316-.563-.346-.662-.288-1.147-.441L49.56 80l-1.196-.106h-.672l-.277-.057h-.376l-.217-.192.01-.25.376.355.425.068.395-.077.237.067.208-.096.197.086.317.02.118-.077.623.077.139-.163-.08-.26-.177.02-.228.192h-.356l-.415-.106-.128-.163.128-.23.178-.566-.198-.154.119-.278-.208-.173-.148.01-.02.441-.237.48.06.201-.05.288-.099.096-.296-.115-.07.125h-.365l-.05-.144-.514-.077-.069-.307.07-.288-.357-.25-.069-.162.149-.308.158-.489.583-.355.247-.115v-.163l.208-.211-.139-.202.376-.25-.396-.239-.306.441-.089.24-.168.125-.277-.154-.089-.518.05-.307-.139-.172.257-.48-.197-.46.227-.145.089-.316-.03-.154-.356.23.05.221-.218.317.08.096-.277.47.059.115-.02.451-.178.432.04.21-.208.327-.306-.029-.366.048-.109-.134.1-.211-.08-.125.08-.547-.248-.288v.336l-.099.46.109.231-.138.201.553.327.188.345-.07.499-.405-.25-.257-.2-.05.2.16.27.325.085.267.202.139.25.355.374.12.23.315.096-.286.374-.445.038-.81.23-.357.154-.365.25-.465.393-.287.346-.425.7-.158.49.04.556.445.153.158.144.435.115.168-.029.138.27-.089.085-.464-.019-.05-.163-.376-.086-.425-.01-.197.087-.346-.24-.307.172-.108-.134-.337.115-.365-.01-.148-.2-.337-.01-.138.153-.761-.144.267-.393.336.057.099-.191.138-.039.445-.902v-.057l.692-1.785.168-.326.277-.816.395-.96.435-1.227.267-.653.128-.48.129-.23.05-.24.167-.441.277-.883.544-1.487.227-.806.149-.614.148-.374.188-.816.217-1.314-.07-.288v-.585l-.197-.24.02-.288-.099-.153-.03-.413-.168-.23-.563-.269-.287-.22.119-.365-.07-1.065-.138-.374-.227-.211-.08-.23-.266-.193-.227-.354-.149-.125-.059-.23.03-.461-.109-.211-.257-.144-.168-.393-.198-.173-.138-.336-.247-.412.178-.03.444.164.218.278.168.115.079.25.227.21.119.221.435.298.079.22.208.221.435.576.177.336.346.23.356.134-.03.202.218.01.148.297-.267.585.475-.058.415.308.188.297.218.115.148.22-.04.231.257.278.04.202.296.134-.01.25.11.057.059.26.118.018.297.374.02.356.454.172.178.26-.03.124-.257.278.218.02.316.268-.01.336.356.259.297.393-.109.221.237.345.326.039.168.21.03.174.297.201.02.25.247.096.118.182.603.537.03.096.277.24.098.211 1.038 1.084.01.135.485.46.188.067.187.288.218.22.178-.23.326-.048.148.058.158-.413-.316-.24-.257-.354-.257-.24-.178-.298-.287-.374-.267.02-.286.143-.188-.326.119-.326-.248-.307-.326.028-.435-.287-.04-.154.159-.316-.03-.317-.385-.317-.218-.23-.128-.374.05-.192-.436-.326-.227-.077-.267-.47-.217-.029-.09-.269-.246-.22-.257-.46.039-.24-.504-.394-.198-.614-.03-.25-.405-.499-.168-.355-.168-.46-.296-.182-.09-.307-.157-.317-.06-.326-.296-.451-.02-.748.227-.71-.375.335-.03.154-.297.326-.267-.01-.069-.24-.316-.364-.366-.144-.188.163-.178.269-.276.01-.01-.356.118-.287-.069-.346.05-.393-.129-.22-.346-.24-.316.134v.23l-.316-.067-.366.028-.06-.163.238-.489.108-.499.07-.556h-1.137l-1.434-3.56v-.585l-.128-.173zm4.863 15.937l-.197-.048-.139.086-.207.307-.277.106-.287.335-.267.039.08.384.286.383.158.068.327-.154-.06-.125-.395-.46.04-.25.385-.048.148-.124.129-.269-.03-.134.306-.096zm36.15 23.554l.02-.172-.139-.307-.296-.135-.04.317.238.25.217.047zm-3.796-14.315l-.237.039v.21l.247-.028-.01-.22zM85.7 95.391l.04.287-.08.154.168.585-.504-.22-.405-.068-.277.183-.632-.23-.1-.336-.187-.125.385-.163.198-.528.109.163.207-.067-.01-.192.297-.259.465.154.326.662zm-19.701-4.51l-.01-.192.366.125-.139.134-.217-.067z" class="Vector_3" clip-rule="evenodd"/>
      <path fill="#000" d="M109.859 34.235l-.01.134-.217.336-.07 1.305.168.163.01.182-.247.451-.237.835-.148.23-.564 1.986-.227.586-.178 1.036-.069.105.029.624.099.46.406.528.138.413.247.01.198.422.197.191v.269l.811 1.008.03.086.435.422.296.413.237.45.623 1.478h.119l.207.269v.23l.277.72-.069.412.168.633.277.595.138-.01.119.365-.05.432-.247.182-.217.442.257.24-3.015.01-2.244.018-3.519-.029-.85.03-1.127-.01-.02.163.158.364.208.202-.089.364.267.375-.228.326-.108.355.138.048.01.288.366.46.029.24.435.413-.039.153.207.403-.553.01-.129-.115-.682.105-.356-.029-.099-.086-.316.643-.03.345.297.307.336.068.425-.077.475.076.267.183-.109.163.039.173-.079.201-.326-.02-.099.145-.277.01-.158-.154-.356-.115-.098.326.168.125.049.24.316.019.079.345.198.058.445.94.069.49.129.373-.218.212-.01.268.178.23-.079.125-.346.163-.148-.096-.316.317.079.326-.079.115.049.48-.069.211-.425.384.158.211-.465.144.198.384-.059.307-.109.124.474.663.327-.01.108.115-.029.269.425.028.267.346-.336.508.079.212.188.191-1.424.01-2.906-.02-.504.02-.93-.029h-2.095l-3.114-.019-5.08-.048-.06-.269 1.196-.25.771.097.722.278.306-.115.168-.768-.227-1.362.099-.154.622.144.178-.191-.05-.797-.227-.345.159-.173.583.48.099-.115-.05-.71-.148-.135-.366-.537-.138-.115.089-.22-.06-.221-.069-.816.09-.211-.693-2.063-.276.01-.01.153-.307.067.06-.268-.257-.096-.277-.413-.267-.163-.099-.211-.316-.345.05-.375-.01-.326.118-.163-.06-.173.09-.172-.198-.096-.544.201-.227-.192-.237-.556-.12-.125.199-.288.099-.48-.129-.412.06-.125-.149-.364.138-.317.544-.211-.128-.422-.425-.47-.139-.518-.109-.144-.326.01-.02-.461-.178-.173-.128-.269.129-.316-.178-.211-.248-.163-.187-.03-.386-.67-.158-.058-.01-.298-.425-.403-.287-.153-.217-.288-.208-.087h-.375l-.445-.355-.109-.268-.257-.22.06-.24.266-.346.267-.067.168-.413-.494-.336.03-.096-.495-.403-.415-.21-.326-.672.158-.24-.207-.26.02-.2-.366-.154-.02-.24-1.513-1.362-.158-.096.307-.442-.05-.182.208-.307.326.25.129-.538.415-.528v-.537l-.228-.374-.415-.154-.277-.019-.118-.192-.277.096-.761-.163-.208-.48.139-.192-.05-.249-.178-.02-.385-.345-.317-.038-.178.106-.523.047v-.326l-.139-.307v-.21l-.356-.356-.168-.403-.178-.163-.03-.316-.296-.432.218-.26.316.077.138-.374-.207-.057-.316-.336-.198-.048-.129-.336.07-.211.296-.058-.109-.642-.257-.173-.257-.029-.158-.326-.346.01-.356-.125-.128.134-.238-.02v-.287l-.247-.134.01-.288-.207-.307-.119-.384-.237-.182-.198-.394-.178-.278-.227.029-.198-.326-.128.048-.514-.307-.317-.039-.227-.288-.336-.076-.257.105-.307-.01-.444-.172.04-.509-.436-.393h-.455l-.02-.23.139-.634-.198-.134-.178-.364.03-.202-.415-.441-.445-.758.119-.394.227-.21.198-.356v-.268l.336-.24.118-.192-.03-.307.406-.297-.138-.355-.218-.077-.089-.883.485-.7.059-.298.207-.22.04-1.373-.277-.307 2.68-.786 5.377-1.535 1.107-.327 3.291-.92 3.668-5.959.988-.46-.464-.327-.09-.873-.167-.029L87.4 6.698l1.423.183.445-1.42-.642-1.593-1.67-2.072.671-.816.119.125.277.575.356.288v.125l.435.307.187.01.267.191.149.24.375.135.346.24.593.335.336.135.1-.03.385-.498.395-.086.227-.125.208.105h.218l.276-.335.158-.03.317.231.178.288.168.125.642-.154.238-.115.108.23.485.115.484-.057.129-.067.385 1.093.099.365.217.24.169.326.148.547.05.326.365.72.168.115.109.365.286.345.02.201.148.106-.01.345.11.077.197.413.109.556.099.25.079.47.138 1.18.247.508.188.106.138.23.09.307.286.096.316.403.119.278.089.394.089.067.356.73-.257.162.257 1.056.148.47-.089.432.277.44.286.059.169.124.484-.201.079.21.208.174.187.297v.182l.178.298-.059.288-.227.287.267.384.108.346.376.355.128.23.663.585.573-.134.563.307.396.796.01.355-.228.125v.153l.366.423-.099.297-.316.096-.287.192.149.47.009.509.178.153.386-.153.257-.327.198-.048.247-.192.049.317.257.297.178.308.069.316.188.24.158-.02.228.49.019.192.218.48-.03.24.139.326.148.125.178.623-.079.173.109.47.118.163.297 1.21.118.239.06.403.138.45.059.413.257.816-.079.393.257.288-.099.154.109.47.158.086-.01.163.356.413.119.355z" class="Vector_4"/>
      <path fill="#000" d="M88.715 105.053l-.05.067.1.604-.05.259-.188.183-.227-.048-.07.182.811-.058.425.701-.296.009-.08.394.06.182h.227l.158.134.307-.431.484.537.237.153-.188 1.277-.306-.192-.207.211-.406-.231-.227-.019-.208-.412-.217-.077-.04.182-.267-.038-.02.153.603.432-.375.441.079.173-.455-.038-.524.124-1.107.01h-4.23l-.702-.01-2.323.02-.188-.845-.119-.614-.109-1.381-.108-.969-.08-.211-.108-1.181-.01-.69-.099-.576-.099-.336.159-.249.365-.24.178-.211.386-.077.247.134.316-.019.544-.249.158-.375.138-.498.139-.26.148-.757.158.095.435.106.494.374 1.355-.278-.08.201.376-.124.484-.077.178.182.08-.278.464.038.178.125.227-.182.159-.269.296.115.168-.086.148.221.327.076.286.202.168.24.159-.115.237.345.118.374.514.739.178.144-.05.326.09.403-.04.614h-.138l.178.489-.109.125-.069.326.395.077.05.202zm1.038-6.457l.316.633-.079.326-.534.278.257.336.653-.24-.248.729-.385-.048-.405-.316.079-.374-.584-1.094.09-.346.375-.182.346.115.119.183zm-48.309 12.54l-.237-.192-.306-.039.385-.259h.158l.12.336-.12.154zm50.968-8.693l.346.681-.326-.086-.02-.595zm-6.673-6.764l-.04-.288.13.125-.09.163z" class="Vector_5"/>
      <path fill="#000" fill-rule="evenodd" d="M79.443 109.927l2.323-.019.702.009h4.23l1.108-.009-.04.115.316 1.861.119.758.089.106.474.009v.758l-.494-.009-.069.105-.346.029.01.24.435.077-.03-.202h.366l.02.23.553.039-.01.278-.405.029v.125l.356.326-.198.153.08.173-.159.144-.079.249-.93.039-.286.547.158.028.198-.259.08.394-.11.172.425-.057.386.374-.395-.01-.238.231.02.23.267.134.395-.144.544.24.09-.077.256.125.09-.172.187.182-.247.537.306.221.702.345-.267.518-1.028-.451-.099.068-.375.681-.02.134.494.23.297.269.237.365.336.335.998.058.03.259.534-.106.119.192-1.029-.028-.187-.154-.238.163 1.463.115.04-.508.237-.01v.48l1.028-.403.425.106.07.46-.169.134.505.586.355.307.198-.067.455.038-.02.365.218.115.296-.432.336-.106.445.211.01.25.405.086.218-.038.494-.24.346.067.662.537.247.231.386.671-.07.317.05.096.366.173.543.028.633.394.04.412.474-.028.069.335.732-.086.761.202.188.45-.178.797.455.316.474.279.119-.346.138.269.257.71.722.537.781.384 1.413-.681.514.24.386.518.257 1.132.059 1.027.227.594.208.125.178.25-.603.498.138.538-.178.211-.237-.086-.059.143-.415-.191-.406-.048-.178-.24-.316-.087-.158.154-.415-.106-.218.288-.237.096-.316-.019-.198.096-.188.374-.336.182-.217.269-.06.182-.296.087-.228.192-.079.364-.336.192-.197.192.079.345-.109.288.207.211.03.221-.178.105.228.183-.02.153-.336.087-.139.259-.059.307.148.364.05.653.138.268-.059.519.01.393-.267.297-.198.451-.188.192-.108.278-.04.499-.089.211.099.547.425.643.02.298.435.575.296.259-.01.077.247.451.574.662-.267.048-.346-.192-.227.441-.465.317.425.336.079.355.247.201.415-.297.435.057.178.202.168.403.346.125-.336.844.405.202.119-.058.425.326.119.355v1.343l-.01 2.543.089 1.353-.119.7.02.643-1.582.029-.603-.01h-2.847l-1.818.01-.01.959.01 1.372-.396.02h-1.601l-1.503.287-2.224-.019.188 1.564.267 2.092 1.581 2.916.129.25-.287.585-.286-.355-.475-.297-.237-.202-.583-.172-.08.124-.276-.019-.267.106-.564.326-.177-.413-.208-.086-.237.01-.1-.298.09-.403.04-.835-.159-.316-.316-.317-.03-.249-.237-.202-.247.058-.247-.135-.148-.191-.346-.087.02-.48-.1-.335-.069-.47-.276-.653-.159-.23-.247-.135-.267-.345-.375-.269-.574-.201-.583.058-.208-.221-.069-.653-.534-.335-.039-.739.03-.326-.139-.077-.079-.288.01-.595.06-.182-.149-.346.01-.191-.277-.336-.316-.633-.139-.672.01-.518.1-.374.197-.317.099-.605.01-.402.118-.096.228-1.296.188-1.765.148-1.689.237-1.967-.02-.623.07-.806-.1-.49-.504-.307-.01-.623-.069-.394-.207-.326-.218-.057-.158-.538-.257-.326-.227-.393.069-.317-.119-.489-.207-.24-.109-.317.03-.23-.307-.192-.05-.249-.118-.096-.128-.403-.01-.24-.158-.24-.159-.413-.286-.614-.178-2.389-.109-.383-.356-1.392-1.206-1.64-.336-.221-.188.096-.197-.259-.475-.086-.237.009-.425.125-.267.23.07.346-.337.028-.06-.278.04-.288-.949-1.151-.355-.71-.08-.25.07-.153-.01-.336-.198-.748.227-.71.139-.115.079-.567-.129-.575.06-.777-.228-.115-.188-.576.149-.192.089-.518-.02-.835-.267-.317.445-.134.079-.211.218.019.266.144.149-.019.316-.317.128-.422-.138-.115v-.182l.287-.135.079-.316-.099-.173.07-.211-.04-.259.079-.201.197-2.14.01-1.094-.05-.767-.088-.221.03-.7-.11-1.171-.276-1.353-.158-.681zm18.228 15.37l-.405-.143-.159.297h.435l.129-.154z" class="Vector_6" clip-rule="evenodd"/>
      <path fill="#000" d="M119.655 133.021l.455-.115.731-.24.583.153.366-.057-.039-.413.049-.124.237.009-.019.307.276.096.099.125.297.096.01.134.257.01.029.326h.198l.247.269.208-.096 1.048-.691.691-.259.307-.183.346-.028.158-.25.257-.096.287.087.207-.164.149-.268.197-.029.079-.182.218-.163.109-.24.306-.24 5.288.057.732-.019 1.572.019h1.848l2.017.029 1.898.077h2.165l7.413.038.356-.009 2.037.009 4.576.01.02.019-.138.259-.139-.086-.197.057-.346.394-.257-.019.197.892.534.259.287.288.029.316.267.096.05.173.375.01.099.499-.059.259.099.316.02.327-.169.115-.444.623-.03.298.089.268-.267.135.484.777.208-.086.554.853.049.528-.198.278.119.24.395.087.079.191.178.077.267-.153.149.057.187-.163.317-.153.346.172.573.058.346.269.524.124.148.307.119.509-.149.211-.365.23-.02.211-.247.854-.237.135-.089.393.286.556-.069.758.89 1.305-.158.288.069.23-.129.058.198.278.138.777.139.202-.247.105-.406.307-.642.691-.02.298h-.326l-.317.086-.197.192-.218.086-.326-.172-.188-.26-.464.25.079.336-.326.326-.079.259-.307-.01-.079.135.386.547-.07 1.266-.178.211.168.499-.059.566.583.921-.049.211.207.125.327.441.435.173.148.269.198-.125.395.393.277.106.089.23.039.47.317.336v.48l.118.652.277.384.109.489-.099.394.158.115.05.307-.178.278.079.192-.159.413.346.22.01.528.079.413.139.268.267.096.089.374.197.029.307.23.109-.201.504-.163.138.048.138-.566-.168-.24.05-.259-.099-.23.129-.221.247-.019.197-.346.277-.182.089-.297.593-.317.099-.297.277-.087.188.106.187-.048.218.172.385.192.238.279.089.259.316.057.297.25.187.076.267.375.396-.039.326-.115.375-.029.178-.192.425.317.267-.144.149.173.227-.01.158-.23.376-.307-.03-.249.257-.231.129-.355.286-.23.158.058.178.316.188.087.168.498.277.202.376.672.178.412.504.058.524.105.375-.077.109.096.356-.009.168.441-.049.288.365 1.036.504.509.159.211-.04.144.109.316.336.259-.326.653-.159.086-.237.403.099.365-.385.182.069.537-.06.202-.603.326-.355.058-.178.297.257.413.138-.096.356-.01.474.441.356.24.129.47.257.116.286.307.475.096-.059.201.168.374-.06.307-.316.336-.425-.192-.356-.029-.03.24-.158.259.099 1.142-.889.259-.208.403-.168.086-.307-.048-.257-.115.06.336.128.394.238.364.098.038.475.73.158.153-.346.163.119.144.089.528.158.307-.198.096-.445.086-.108.288-.169.125-.118.547.059.374.158.269.336.364.159.278.395.394.217.115.396.019.257.355-.02.221-10.112.076-2.274-.019-2.481-.009-.168.019-.999-1.027-.227-.23-.178-.365-.81-.46-.178-.288.049-.192-.237-.057-.346.201-.484.096-.218.317.178.355-.336.144-.267-.116-1.334-.47-.969 1.065-.307.72-.158.019-.138.345-.208.106.168.221-.019.259-.109.086v.432l-.149.268-1.551 1.305-.485.518v.471l-.949.46-.405.384-.168 1.247-.682-.048-.129.067-.296.307-.495-.594.03-1.727h-.692l-.01-.643-1.285.009-1.344-1.324-.099.058-.326-.067-.109.115-.395.019-.396.249.089.384-.365-.009-.228-.461-.326-.412-.069-.279.089-.096-.06-.422-.365-.019-.366-.115-.089-.307.119-.374-.109-.365-.148-.115-.287.067-.208-.173-.158.01-.267-.23-.721.086-.425-.115-.366-.413.029-.47.188-.47-.01-.221-.326-.096h-.425l-.02-.287-.326-.116-.079-.22h-.296l-.238-.24-.968.441-.139.106-.306.038.168-.326.336-.077.109-.297-.099-.106.83-.892-.296-.125-.297-.288-.099.202-.642-.509.375-.652.04.192.356-.058-.999-.566-.415-.633-.128-.086-.109-.279-.504-.767-.109-.288-.148-.058-.228.173-.326-.144.02-.278-.544-.029-.731-.393-.277-.355-.544-.278-.168.067-.435-.394-.316-.105-.217.019-.297-.25.059-.211-.089-.153-.395-.24.109-.355-.228-.163-.306-.47-.742-.039-.168-.249-.355-.096-.159-.163-.227-.048v-.211l-.395-.221-.445.077-.158-.077-.366-.029.059-.383-.692.134-1.127-.518-.217.278-.148-.163-.228-.019-.277-.24-.029-.134-.257.048-.208-.164-.237-.096-.366-.038-1.067-.758-.406-.163-.118.106-1.196-.499-.633-.144-.554-.336-.494-.48-.109-.201-.197-.135-.504.077-.267-.048-.327-.153-.247-.048-.158-.202-.069-.307-.257-.269-.237-.671-.613-.192-.336-.029-.198-.326-.178.058-.168-.173-.158.038-.306-.057.039-.24-.158-.163.059-.259-.148-.307-.01-.163-.208-.164-.098-.527.168-.336-.099-.125-.346-.134-.316-.24-.267-.499-.307-.451-.415-.345-.119-.317h-.375l-.247.25-.208-.058-.138-.336-.534-.528-.198-.124-.118-.211-.376.096-.415-.068-.238-.23-.049-.345-.425-.326-.386-.144-.118-.605-.218-.269-.711-1.036-.445-.46-.316.048-.366-.221-.267-.393-.247-.231-.415-.211-.257-.422-.198-.077.148-.374-.158-.422-.129-.163-.118-.355-.425-.326-.119.057-.405-.201.336-.845-.346-.124-.168-.403-.178-.202-.435-.057-.415.297-.247-.201-.079-.355-.425-.336.464-.317.228-.441.346.192.266-.048-.573-.662-.247-.451.01-.077-.297-.259-.435-.576-.019-.297-.425-.643-.099-.547.089-.211.039-.499.109-.278.188-.192.197-.451.267-.297-.009-.394.059-.518-.139-.268-.049-.653-.148-.364.059-.308.138-.259.337-.086.019-.153-.227-.183.178-.105-.03-.221-.207-.211.108-.288-.079-.345.198-.192.336-.192.079-.365.227-.192.297-.086.059-.182.218-.269.336-.182.188-.374.197-.096.317.019.237-.096.217-.288.416.106.158-.154.316.087.178.239.405.048.416.192.059-.144.237.087.178-.211-.138-.538.603-.499.197.25.267.009.228.202.365-.182.03.364-.257.317-.138-.058-.139.173.455-.067.069-.115.376.249.415.106.346.172.455-.086.227.173.296.086.455-.115.267.441.326-.038.771-.298.05.173.247-.163.692-.221.445.125-.159-.249-.494-.183.712-.604.435.029.306.547.119.796.692-.029.445.576.86.268.049-.048-.87-.326-.454-.556-.663.019-.019-.71-.198-.595 2.184-.278.93.336.395.019zm-9.529.297l.267-.076.227.393-.356-.086-.138-.231z" class="Vector_7"/>
      <path fill="#000" d="M86.787 67.93l5.081.049 3.114.02h2.096l.929.028.504-.02 2.906.02 1.424-.01-.188-.192-.079-.21.336-.51-.267-.345-.425-.028.029-.269-.108-.115-.326.01-.475-.663.109-.124.059-.307-.198-.384.465-.144-.158-.211.425-.384.069-.211-.049-.48.079-.115-.079-.326.316-.317.148.096.346-.163.079-.125-.178-.23.01-.269.218-.21-.129-.375-.069-.49-.445-.94-.197-.057-.08-.345-.316-.02-.049-.24-.168-.124.099-.326.355.115.159.153.276-.01.099-.143.326.019.079-.202-.039-.172.109-.163-.267-.183-.475-.076-.425.076-.336-.067-.296-.307.029-.345.317-.643.098.086.356.03.682-.107.129.116.553-.01-.207-.403.039-.153-.435-.413-.029-.24-.366-.46-.01-.288-.138-.048.108-.355.228-.326-.267-.375.089-.364-.208-.202-.158-.364.02-.163 1.127.01.85-.03 3.519.03 2.244-.02 3.015-.01-.257-.24.217-.44.247-.183.05-.432-.119-.364-.138.01-.277-.596-.168-.633.069-.412-.277-.72v-.23l-.207-.269h-.119l-.623-1.478-.237-.45-.296-.413-.435-.422-.03-.087-.811-1.007v-.269l-.197-.192-.198-.422-.247-.01-.138-.412-.406-.528-.099-.46-.029-.624.069-.105.178-1.037.227-.585.564-1.986.148-.23.237-.835.247-.45-.01-.183-.168-.163.07-1.305.217-.336.01-.134.643.038.336-.269.128.125.583-.029.692.106.939-.23.247-.096.396.46.721.605.198.441.168.269.366.316.544.24.346.23.642.096.524-.47.198-.038.247-.182.306-.442h.218l.326-.172.119-.202.217-.048v-.173l.257-.096.148-.143.01-.27.119-.239.346-.144.099-.307.524-.345h.217l.435-.24.534-.154.217-.182.109-.269.188-.115.425.067.445.212.425.076.356-.029.771.039.652-.26.633-.153.326-.374.217-.096.327.077.771-.048.276.182.277-.01.089-.163.257-.019.465.221.296-.01.771.269.485.317.652.076.831.307.494-.067.83-.067.781.422.178-.019.079-.374.297-.288.178.02.425-.231.207.163v.307l.129.182.276-.067.465-.288.554-.086.296-.144.564-.556.316.019.148.125.514.048.218.076.692-.23.168-.01.099.192.217.077.069.22.129.04.306.45.455.038-.04.288-.029 3.426.148.01-.01 2.772v3.32l-.01.7-.01 3.54.02.384-.02 1.526.01.403-.02.969v1.218l.02.202-.029 1.381 2.916.03h.563l2.461.028h1.671l-.316.297.079.23-.168.27v.249l-.267.316-.148.308.098.546-.118.327.326.499.04.23-.257.777.187.576.099.585-.029.336-.099.172-.01 1.008-.079.422.049.422-.02.653.06.297-.04.211-.415.71-.257.614.01.317-.178.508-.148.173-.633.24-.613-.115-.257.105-.534.307-.276.327-.712.326-.593.115-.257.307-.139.317-.267.259-.385.585-.277.326-.405.297-.02.48-.089.25-.03.355-.237.767-.118.643-.277.71-.316.595-.505.69-.098.634-.05 1.286-.188.47-.227.182-.307.077-.721.125-.336-.03-.237-.095-.495-.326-.128-.01-.959.624-.85.441-1.097.71-1.157.71-.287.115h-.385l-.425-.105-.514-.192-.791-.326-.326-.298-.297-.355-.247-.21-.296-.116-.406.23-.692.211-.296.192-.069.365-.05.24-.158.336-.326.508-.247.25-.257.162v-.844l-.346.25-.593.268-.366-.019-.356-.364-.514-.096-.227-.154-.257-.47-.04-.393.128-.5.228-.047-.089-.269.148-.144-.296-.317-.702.048-.307.135-.405.067-.109-.077-.257.135-.415-.02-.277.192-.365.106-.277-.087-.099.154-.336-.154.158-.268-.761-.02.049.164-.385.422-.247.067-.178-.077-.168-.585-.218.201-.138-.086-.079-.307-.168-.192-.415-.124-.188.076-.92-.45-.098-.01-.712-.518.039-.144-.158-.298.326-.077.287-.182.405-.029.425-.115.346-.048.168-.134-.158-.163.158-.202.524-.23.02-.125-.316-.738-.148-.394-.257-.25-.277-.393-.307-.288-.375.154-.89.153-.306-.01-.445-.153-.297.087-.385-.077-.416.086-.059.202-.435-.154-.336.077-.247-.029-.158-.163-.307.173.06.355-.06.46-.217.144.059.355-.118.183v.355l-.139.594-.889.931-.939.93-.801.768-1.295 1.507-.376.623-.257.797-.197.316-.435.125-.386.067-.899-.038.049-.211-.297-.154-.178.135.05.172-.287.03-.059-.145.089-.422-.208-.23v-.192l-.267-.01-.217-.096-.366-.307-.02-.268-.296-.135-.307-.288.01-.086-.405-.45-.168.047-.208.844-.089.145-.504-.164-.029-.278-.455-.307-.178.202-.198-.068-1.028.135-.326-.106-.079-.153-.326-.183-.336-.335.02-.183-.159-.268-.326-.307-.138-.394-.05-.278-.148.086-.731-.94-.188-.144-.356-.566-.158-.537-.218-.067-.04-.173-.207-.384-.099-.058.01-.335-.385.182.385.595h-.277l.208.336 1.028 1.43.573.67.593.99-.286.594-.129-.201-.198-.02-.217.375-.9.134.1-.134-.07-.317-.207-.326-.317-.298-.277-.182-.257-.384-.276-.336-.603-.998-.495-.489.06-.096-.761-.739-2.69-1.832-.503-.297-3.806-1.584-.198-.297zm30.832 6.784l.108.048-.059.413-.346.192.129.153-.277.067-.514.23-.613-.066-.178-.106.138-.288-.257-.47v-.192l-.247-.038-.346.307h-.168l-.197-.326.108-.135-.217-.384.395.068.277.172.346-.048h.534l.583.096.801.307zm5.486 2.898l-.277-.067.089-.202.504-.019.514-.24.089-.269-.079-.71.277-.172.128.048.05.412.336.576.198.115.435.067.197.135.327.335-.435.25h-1.384l-.02-.106-.307.01-.286-.067-.287.048-.069-.144zm-7.078-1.765l-.484.316-.336-.029-.85-.144-.06-.355.317.02.365-.135.327.096.444.22.277.01zm3.144-.538l-.425.039-.366-.202-.04-.144.336-.268.495.575zm-3.035-1.746l-.277-.201.425-.192.267.249-.059.182-.356-.038zm4.567 1.813l-.336.192-.119-.048.188-.297.02-.211.227.067.02.297zm-.949.518l-.247.02-.158-.26.108-.105.336.288-.039.057zm4.814-1.103l.316.355-.168.096-.158-.211.01-.24z" class="Vector_8"/>
      <path fill="#000" d="M69.923 19.642l.277.307-.04 1.372-.207.22-.06.298-.484.7.09.883.217.077.138.355-.405.297.03.307-.12.192-.335.24v.268l-.198.355-.227.212-.119.393.445.758.415.441-.03.202.178.364.198.135-.138.633.02.23h.454l.435.394-.04.508.445.173.307.01.257-.106.336.077.227.287.317.039.514.307.128-.048.198.326.227-.029.178.279.198.393.237.182.119.384.207.307-.01.288.248.134v.288l.237.02.128-.135.356.125.346-.01.158.326.257.029.257.173.11.643-.297.057-.07.211.129.336.198.048.316.336.207.057-.138.375-.316-.077-.218.259.297.432.03.316.177.163.168.403.356.355v.211l.139.307v.327l.524-.048.178-.106.316.038.385.346.178.02.05.248-.139.192.208.48.761.163.277-.096.119.192.276.02.415.153.228.374v.537l-.415.528-.129.537-.326-.249-.208.307.05.182-.307.442.158.096 1.513 1.362.02.24.365.153-.02.202.208.259-.158.24.326.671.415.212.495.403-.03.095.494.336-.168.413-.267.067-.267.345-.059.24.257.22.109.27.445.355h.375l.208.086.217.288.287.153.425.403.01.298.158.057.386.672.188.029.247.163.177.21-.128.318.129.268.177.173.02.46.326-.01.11.145.138.518.425.47.128.422-.543.211-.139.317.148.364-.059.125.129.413-.1.48-.197.287.119.125.237.556.227.192.544-.201.198.096-.09.172.06.173-.119.163.01.326-.05.375.317.345.099.211.267.163.277.413.257.096-.06.268.307-.067.01-.153.276-.01.692 2.063-.089.211.07.816.059.22-.089.221.138.115.366.537.148.135.05.71-.1.115-.582-.48-.158.173.227.345.05.797-.179.192-.622-.144-.1.153.228 1.363-.168.767-.306.115-.722-.278-.771-.096-1.196.25-.119.067.05.403.168.288.079.278-.188.575-.237.413-.237.25-.524.431-.188.22-.396.193-.158.192-.276.192-.317.134-.128.201-.297.173-.623-.106-.148-.268-.375.173-.623.134-.495.038-.514.096-.86.317-.04.201-.73-.201-.139-.087-.385-.48-.258-.642-.138-.69-.366-.596-.464-.46-.702-.432-.346-.317-.554-.69-.356.143-.395-.124-.237-.144v-.317l.455-.441-.05-.135-.227-.028-.277.124-.297-.067-.079-.134-.02-.413-.296-.163.247-.508-.287-.211-.336.115-.069-.25-.375-.105-.09.144-.326-.24-.217.115-.306.058-.09-.24-.365.115-.277.201-.218.442-.464-.058-.257.029-.099-.125-.405-.029-.307.048-.326.317-.563.01-.159-.144-.78-.106-.248-.115-.168-.211-.454-.211-.307.077-.03-.115-.276-.221-.672.019-.336-.029-.564-.47-.158.029-.84-.144-.297-.24-.158.173-.237-.106-.04-.125-.257-.134-.069-.259-.514-.316-.128-.03-1.256.01-.85-.71-3.796-3.185-.148-.144-1.434-1.2-3.588-2.974-2.234-1.89-.118-.23-.149-.02-.514.27-.168-.308.257-.115-.02-.153-.257-.068-.355.058-.178.211-.237.144.108.192.198.105-.05.26-.296.192-.306-.394-.524.106-.218.201-.642-.278-.198.125-.425-.192-.386-.077-.375-.269-.336-.019-.218.585-.158.087-.287-.144-.514.029-.188.278-.276.01-.218.21-.316-.028.089.575-.099.096-.405.115-.07.03-.128.162-.257-.182-.692-.681-.573-.394-.119-.143-.435-.154-.662-.125-.623.087-.316.182-.129.25-.168-.02.297-.556.267-.125.197.077.485-.048-.1-.442.15-.22-.209-.355-.326-.24-.365-.528-.663-.172-.089.23.129.47.227.23.01.653-.138.172.01.26-.336.153-.01.105.257.384.02.24.246.067.159.211-.08.25-.395.125-.247-.135-.099-.23-.168-.058-.03-.345-.504-.94-.217-.317-.198-.125.336-.278.356-1.055.04-.7.03-1.344-.06-.278-.316-.643-.09-.288-.207-.201-.197-.288-.02-.192-.178-.077-.02-.336-.316-.902-.485-.364-.227.173-.109-.116.04-.46-.168-.46v-.279l-.109-.288-.297-.537-.306-.24-.089-.211-.405-.115-.129-.297-.069-.365-.208-.096-.177-.374-.04-.346-.109-.278-.178-.02-.118-.747-.11-.25-.404-.336-.346-.105-.317-.173-.197-.22-.534-.279-.03-.173-.524-.364-.247-.029-.069-.413-.415-.316-.277-.087-.218-.259-.266-.201-.188-.048-.09-.192-.177-.077-.534-.383-.504-.202-.237-.24-.277-.125-.356-.076-.385-.25-.356.048-.287-.125-.356-.24-.207-.009.01-.24-.277-.125-.01-.24-.583-.115-.682-.019-.258-.163.07-.307-.326-.125.01-.172-.485-.317.01-.182-.346-.135-.702-.575-.07-.432-.276-.01-.207-.345-.317-.077-.346-.259-.336-.096.08-.259-.208.029-.248-.086-.158-.375-.425-.527-.474-.154-.237-.153-.228-.03-.04-.306-.118-.01-.395-.22-.238.048-.158-.451-.306-.173.109-.096-.139-.46.168-.317-.415-.72.01-.115-.168-.211-.593-.556-.277.134-.188-.02-.108-.24-.208-.191-.395-.173-.228-.268.09-.144.276-.01-.04-.163.1-.22-.08-.145-.395-.163-.475-.499-.198-.422-.425-.211-.197-.201v-.183l.168-.038-.257-.384-.366-.163.138-.211-.267-.269-.247-.163-.197-.48.02-.134-.228-.23-.178-.087.168-.268-.128-.086-.158-.432-.465-.547-.06-.24-.237-.192v-.173l-.266-.028-.317-.288-.405-.077-.06-.326.08-.087-.07-.556-.207-.134-.08-.192-.197-.125-.01-.307-.089-.182-.316-.279-.227-.067-.337-.259-.049-.297-.158-.106-.08-.307-.276-.192-.119-.24-.217-.067-.178-.163-.583-.163-.554-.46-.237-.106-.03-.144-.316-.134-.237-.509-.139-.096-1.008-.412-.237.096-.277-.144-.277-.317-.02-.134-.276-.278-.267-.02-.168-.307.079-.192-.04-.23-.395-.182.07-.345-.15-.528.347.374.217.144.356.412.158-.076.06-.394.168-.431.494.01.168-.538.138-.067.445.028.03-.402.227-.03 1.394.049 2.58.124.989.02 1.976-.01 2.215-.048.593.01-.01-2.802 1.364-.029 4.26-.029.99-.028.75-.087h1.572l3.233-.048 3.054.01h2.007l.464-.029-.03-2.878.801.01.613-.02 1.424.067 1.384.039.02-1.324 1.433.01 2.63-.058.681.048.9.105.612.01 1.434-.029 2.402.077.455.019.84-.01 1.532.02 2.145-.01 1.67.02h1.908l1.127.009.139.115.158-.086.06.287-.11.211.416.125.138.192-.079.269.257.172.682-.028.09-.23.207.038v.201l.346.605.148.01.247.287.455.048.395.48.425.21.04.28.197.085-.03.173.406.26.119.258.415.25.425.153.198.47-.149.691-.01.394.327.287.128.23.257.049.277.403-.05.297.248.336.237.02.188.44.197.173.09.202.02.335.227.48.642.26.237.364-.286.45.089.193-.06.24.119.527.247.029.474.278.02.24.159.154.177.431-.079.202.149.355.266.316.317.048.405.24.425-.01.336.164.228-.202.553.23.366-.009.247-.086.573.076.208.682.247.163.168.307-.079.47.287.297.138.058.06.297.504.595.079.144-.149.653z" class="Vector_9"/>
    </g>
  </g>
</svg>
