<svg width="24" height="24" viewBox="0 0 24 24" fill="none" xmlns="http://www.w3.org/2000/svg">
<path d="M19.95 2.02002H4.726C3.457 2.02002 2.442 3.03502 2.442 4.30402V19.612C2.442 20.881 3.457 21.896 4.726 21.896H20.034C21.303 21.896 22.318 20.881 22.318 19.612V4.30402C22.318 3.03502 21.219 2.02002 19.95 2.02002ZM12.423 8.19402C14.537 8.19402 16.229 9.88602 16.229 12C16.229 14.114 14.537 15.806 12.423 15.806C10.309 15.806 8.617 14.114 8.617 12C8.617 9.88602 10.309 8.19402 12.423 8.19402ZM19.95 18.851C19.95 19.274 19.612 19.612 19.189 19.612H5.403C4.98 19.612 4.642 19.274 4.642 18.851V10.393H6.418C6.333 10.901 6.249 11.408 6.249 12C6.249 15.383 8.955 18.089 12.338 18.089C15.721 18.089 18.427 15.383 18.427 12C18.427 11.492 18.342 10.985 18.258 10.393H19.95V18.851ZM19.95 7.34802C19.95 7.77102 19.612 8.10902 19.189 8.10902H16.905C16.482 8.10902 16.144 7.77102 16.144 7.34802V5.06402C16.144 4.64102 16.482 4.30302 16.905 4.30302H19.189C19.612 4.30302 19.95 4.64102 19.95 5.06402V7.34802Z" fill="black"/>
</svg>
