<?xml version="1.0"?>
<svg xmlns="http://www.w3.org/2000/svg" version="1.2" baseProfile="tiny" width="800" height="923" viewBox="0 0 800 923" stroke-linecap="round" stroke-linejoin="round">
<g id="unnamed">
<path d="M 374.86 854.46 374.75 853.05 375.53 850.8 378.11 848.88 380.24 848.72 383.3 848.05 385.18 848.58 390.94 851.36 394.52 854.25 395.97 856.61 395.99 858.51 394.82 861.21 393.38 862.26 390.36 863.53 386.89 863.84 384.46 863.49 379.53 861.74 377.13 859.85 375.59 857.5 374.86 854.46 Z M 448.89 877.79 448.6 876.48 448.83 874.36 449.74 872.75 451.48 871.37 453.15 870.92 456.33 870.97 459.13 872.11 460.54 873.39 462.72 876.48 463.18 877.93 466.32 882.42 467.95 883.54 470.32 886.02 472.98 888.08 478.01 893.14 478.58 894.58 478.58 896.31 477.58 898.3 475.96 899.7 473.67 900.41 471.76 900.01 469.45 901.69 467.27 901.86 464.39 900.32 461.78 897.56 459.43 896.1 458.27 894.63 457.55 892.74 454.9 888.97 453.98 885.55 452.66 883.75 451.92 882.07 451.21 878.9 449.25 878.9 448.89 877.79 Z M 415.54 832.79 415.43 831.01 417.91 829.54 421.96 829.09 423.74 829.47 425.19 830.55 426.43 832.79 426.69 835.26 425.31 839.39 424.12 840.19 421.73 840.84 418.27 840.76 416.55 839.55 415.41 837.31 415.54 832.79 Z M 449.9 836.83 449.4 834.09 449.75 832.79 451.26 830.82 453.72 829.84 456.27 830.16 460.58 830 462.89 831.34 464.77 831.59 467.25 833.77 473.22 836.03 475.9 838.15 476.96 839.71 477.29 841.37 480.67 844.76 482.03 847.73 482.35 850.06 481.97 852.09 480.95 853.8 479.29 855.04 477.58 855.79 475.64 856.06 472.92 855.41 471.2 854.46 465.84 854.13 463.4 853.4 460.98 851.58 459.68 849.87 458.71 847.53 458.26 843.86 456.73 843.56 454.1 842.19 450.42 837.85 449.9 836.83 Z M 387.71 780.53 390.08 780.11 393.19 780.47 395.44 779.86 397.4 779.99 399.04 780.77 400.28 781.99 401.2 784.53 400.96 786.67 399.25 788.74 394.47 790.72 390.42 790.51 387.36 789.14 385.84 787.97 384.3 789.93 382.72 791.07 377.37 792.29 374.7 792.15 372.2 793.56 369.24 794.74 366.63 794.53 362.93 794.77 360.32 795.76 357.33 794.7 354.03 792.02 353.55 793.49 352.18 795.2 350.52 796.23 348.16 796.42 346.61 797.08 345.19 798.44 341.24 799.75 338.66 801.06 335.89 800.84 333.55 799.66 331.3 798.03 329.63 797.18 328.27 795.33 326.91 794.62 325.62 792.96 325.09 790.69 323.63 789.34 321.06 789.35 318.37 790.03 316.17 789.44 314.93 788.54 310.68 788.63 308.3 787.23 306.67 785.1 306.08 782.55 306.32 781.65 304.26 781.08 302.43 779.34 301.78 776.4 302.33 774.63 303.42 773.31 305.18 772.41 308.32 772.45 310.31 773.92 312.67 772.02 314.38 771.46 318.77 772.56 319.65 773.24 320.57 775.08 321.92 776.13 323.72 776.72 324.73 777.59 325.74 779.51 327.18 781.01 328.87 780.72 331.71 780.94 333.49 779.59 337.42 779.06 338.75 779.48 340.49 778.37 343.2 777.98 345.18 778.24 346.61 779.26 347.33 780.37 348.08 778.09 349.35 775.93 350.71 774.77 352.18 774.32 356.25 774.66 359.86 775.36 362.68 776.51 364.5 775.99 366.33 776.08 367.82 776.91 370.36 777.58 373.3 779.78 376.43 777.15 380.19 776.28 382.28 776.6 384.31 777.71 387.71 780.53 Z M 102.19 428.76 101.9 426.83 102.26 425.21 104.55 422.83 106.18 422.21 107.96 422.33 109.87 423.11 111.54 424.48 112.69 426.57 115.49 427.31 119.16 431.08 120.26 434.45 119.23 437.78 118.16 438.89 115.23 440.07 113.21 439.55 111.17 438.25 110.01 436.84 109.52 435.18 108.14 432.88 106.39 432.85 105.08 432.33 102.75 429.97 102.19 428.76 Z M 27.64 57.34 25.99 51.72 25.8 49.2 24.3 47.67 23.65 46.05 23.51 42.53 22.65 41.37 21.87 39.07 21.85 34.99 19.91 33.6 16.73 32.05 15.01 30.55 12.68 29.56 9.7 26.5 7.94 25.57 6.88 24.45 4.32 20.18 4.18 18.7 4.62 16.86 6.45 14.22 7.23 13.85 10.01 13.75 12.73 14.97 14.12 16.63 16.19 16.55 16.88 12.04 15.81 10.28 15.68 8.49 16.21 6.46 15.92 5.14 14.5 2.72 12.81 2.16 21.86 2.15 30.43 2.33 38.7 2.4 50.94 2.4 52.76 2.49 59.14 2.29 64.61 2.5 67.17 2.01 71.79 1.91 80.91 1.92 88.5 2.06 101.12 1.39 104.06 1.08 111.91 1.67 125.08 1.57 136.79 1.56 144.2 1.45 152.69 1.15 163.27 1 172.27 1.2 179.74 1.23 192.73 1.58 203.39 1.68 226 2.12 242.95 2.38 247.17 2.25 255.01 2.26 268.08 2.67 285.13 2.61 301.69 2.72 309.05 2.65 321.51 2.76 332.88 2.55 346.74 2.51 346.74 14.96 346.82 27.89 346.82 41.43 346.72 53.69 346.68 79.4 346.69 104.98 346.78 128.04 346.99 148.71 347.02 168.46 346.85 208.25 346.6 231.3 346.62 245.87 346.5 257.45 346.21 269.13 346.18 279.22 346.61 306.4 359.61 317.86 388.23 343.23 394.81 349.22 398.1 352.03 416.32 368.33 423.74 375.13 427.69 378.54 441.41 391.01 445.85 394.91 452.99 401.54 456.82 404.92 472.2 418.99 481.58 427.52 502.52 446.67 508.29 452.15 510.51 453.95 523.12 465.83 525.57 467.92 533.22 475.14 539.49 480.82 549.07 489.87 557.55 497.79 559.18 499.21 571.39 510.69 578 516.83 617.54 554.18 625.86 562.25 635.85 571.63 655.14 590.08 678.66 612.7 700.07 633.43 719.6 652.43 724.53 657.37 732.73 665.23 750.4 682.52 760.59 692.65 760.9 694.41 760.47 696.69 760.87 698.02 760.79 701.55 760.33 703.57 760.99 705.65 763.76 707.76 764.54 708.98 765.34 711.97 766.82 714.74 768.54 716.19 769.6 717.57 773.07 719.8 773.56 721.84 774.67 724.03 774.12 724.89 775.33 726.25 775.61 728.38 776.73 729.41 775.84 730.97 778.19 733.24 780.07 736.97 780.28 739.07 779.62 743.69 780.82 744.71 783.25 744.3 784.24 745.55 786.23 746.6 786.99 748.19 789.17 749.07 791.38 751.29 792.01 752.29 794.06 752.72 795.8 753.85 797.32 756.78 798.78 758.15 799 762.38 796.75 762.21 796.76 762.96 792.03 767.62 791.73 769 789.85 770.22 787.33 770.51 785.37 772.93 784.41 773.68 782.6 773.89 781.18 775.37 779.32 776.16 777.37 776.39 775.96 778.28 775.56 781.02 775.9 782.89 775.64 784.31 773.48 786.05 773.96 786.98 772.25 788.25 770.89 789.96 769.19 790.54 768.15 792.49 768.25 793.37 769.76 794.39 770.27 795.54 768.97 796.11 770.55 797.86 770.58 798.89 768.6 800.53 769.34 802.64 768.72 803.61 770.34 807.97 770.54 809.54 769.93 811.1 771.15 812.49 771.15 814.56 769.04 815.58 768.41 817.08 769.47 818.35 768.32 819.05 769.05 820.32 768.48 821.32 769.18 822.49 767.75 824.33 768.11 826.39 769.02 827.88 766.41 829.78 766.18 831.24 764 832.62 763.19 834.24 761.4 836.81 760.88 839.43 759.83 840.49 758.68 840.83 757.49 840.26 753.91 841.3 753.59 841.99 754.89 843.65 755.53 845.62 755.39 847.85 754.7 849.32 753.05 851.04 753.66 852.37 755.89 853.13 757.23 854.02 757.43 855.36 756.27 856.32 757.43 858.14 757.1 860.17 757.37 861.58 757.05 863.95 755.7 866.84 754.85 869.94 754.96 870.79 756.3 871.17 756.46 872.37 757.44 873.64 757.71 875.41 758.71 875.79 760.12 874.74 761.72 876.4 763.32 876.57 764.85 875.65 769.33 876.15 770.39 877.3 771.64 881.67 773.3 881.51 773.38 882.89 772.35 884.76 773.74 887.36 773.28 893.13 771.33 895.14 770.09 895.76 768.44 898.08 768.81 901.21 767.86 901.88 765.91 901.9 764.58 903.24 762.01 903.28 761.94 903.83 756.26 902.95 755.29 902.28 753.94 904.73 712.98 908.07 691.17 909.92 651.6 913.47 613.49 917.09 589.08 919.5 568.34 921.63 562.26 922.12 561.87 918.09 560.84 913.66 558.63 914.25 556.71 913.46 554.21 910.44 553.31 907.38 552.95 903.54 552.59 896.83 551.69 893.57 551.87 891.84 553.13 887.81 549.08 871.98 544.47 862.56 541.98 859.34 539.43 856.6 537.88 854.14 533.98 850.13 529.79 847.38 527.64 845.28 523.03 841.22 520.88 841.1 519.05 839.12 517.1 836.37 516.88 835.58 515.1 833.63 506.03 828.23 500.92 824.21 498.35 822.67 493.5 818.57 491.23 814.53 488.15 815.05 482.66 815.14 479.79 817.66 476.32 818.02 474.3 817.66 471.17 815.5 467.88 814.15 464.92 811.9 463.49 809.29 463.32 806.86 463.57 804.7 466.7 801.37 466.44 800.47 464.16 796.68 462.3 793.98 460.57 790.78 457.95 787.56 452.66 787.6 448.72 788.34 444.83 788.24 443.37 788.69 440.85 790.64 438.96 791.32 437.32 791.15 434.85 789.57 433.53 787.96 432.5 787.6 427.48 787.06 424.94 786.41 421.7 785.02 414.8 783.63 411.55 782.66 407 780.59 404.46 776.52 401.77 773.3 400.86 771.48 398.46 765.27 397.9 764.28 394.82 763.13 392.81 761.04 390.75 760.52 387.79 759.04 386.46 757.82 385.17 755.94 383.75 755.08 380.94 754.25 378.71 752.69 376.19 752.03 373.57 752.22 372.44 753.36 369.24 754.96 367.35 754.74 362.34 752.35 359.18 753.38 356.25 753.25 354.51 752.81 352.25 751.45 346.61 749.16 344.81 748.24 343.23 747.94 339.69 748.24 336.26 747.05 331.89 747.24 331.04 747.03 328.13 747.48 324.54 747.46 321.66 748.2 318.35 748.32 315.18 749.23 311.9 749.93 308.04 748.82 306.3 747.29 305.38 745.41 305.37 744.18 304.02 742.47 303.54 740.83 300.84 739.37 297.14 739.4 296.08 738.95 293.89 737.22 292.39 735.22 291.71 733.36 292.14 728.87 292.6 727.58 293.74 726.17 295.42 721.36 292.92 717.66 292.53 716.48 292.71 714.37 293.24 713.26 294.76 708 291.7 705.72 290.83 704.7 290.09 702.6 290.59 700.04 290.71 697.86 291.55 696.34 293.1 690.1 293.64 685.52 293.5 683.51 290.73 682.12 289.12 682.52 287.09 682.41 284.95 681.84 283.29 680.43 281.33 679.83 279.16 677.81 275.9 675.16 274.94 673.53 273.89 672.67 272.62 669.85 272.54 668.67 273.31 665.45 275.06 661.62 275.46 659.95 274.7 655.75 272.67 655.4 270.36 654.01 268.4 654.06 266.35 653.17 264.23 650.59 263.16 649.8 260.44 646.49 257.91 644.04 255.85 639.79 254.01 637.67 252.58 637.36 250.54 636.08 247.5 635.32 244.61 633.75 243.36 632.09 242.74 629.95 241.3 628.49 240.33 626.05 240.3 624.07 238.73 620.42 236.51 618.46 234.38 615.44 232.41 614.33 230.91 613.06 229.51 611.09 227.77 607.45 226.25 603.44 224.11 601.96 221.71 601.03 219.56 598.21 217.55 591.91 214.9 588.29 213.42 585.77 210.12 582.62 207.67 581.06 203.99 579.72 201.67 578 199.27 574.33 196.53 572.13 195.59 570.66 195.16 568.76 195.29 567.25 194.6 563.89 194.71 561.44 193.89 557.97 192.88 556.49 192.47 553.48 191.4 551.81 190.73 549.41 191.08 546.67 189.54 544.47 189.01 542.54 189.13 540.98 191.46 536.95 192.34 536.08 187.16 514.2 186.54 510.8 182.36 509.34 179.16 507.67 176.29 505.84 173.06 503.5 171.94 502.12 171.11 499.73 170.04 499.03 168.22 496.84 166.48 496.93 163.42 495.79 161.94 493.07 161.82 491.51 160.86 490.75 159.93 489.08 158.06 487.63 156.63 484.94 156.01 481.61 155.48 480.69 155.1 477.95 155.27 475.91 156.5 469.1 156.41 468.26 154.83 464.53 153.59 462.24 153.1 459.36 151.74 458.92 150.24 457.78 148.61 455.71 148.08 453.69 147.73 449.22 147.2 447.66 147.2 444.68 148.66 440.14 147.6 428.34 147.07 425.5 145.21 422.98 143.65 421.75 140.95 420.39 140.32 419.72 137.22 420.01 134.39 418.83 132.34 417.03 131.57 415.3 129.64 414.59 127.73 412.84 126.84 410.24 123.84 407.45 122.84 407.13 121.98 408.85 120.55 410.13 118.91 410.68 113.57 410.58 111.44 410 110.06 408.96 108.83 406.54 108.74 404.09 109.04 403.06 110.38 401.34 113.47 392.68 114.16 390.3 113.2 388.83 112.3 385.55 111.29 383.75 107.52 379.29 106.74 378.71 104.93 375.86 104.4 374.38 104.94 370.99 103.7 369.42 102.6 366.8 100.77 365.37 98.32 361.52 97.07 360.69 94.54 359.99 91.64 357.91 90.33 355.94 87.47 354.8 85.64 352.16 84.9 350.49 82.49 347.64 82.1 346.77 80.12 344.49 79.01 342.14 77.62 340.86 75.92 337.96 72.92 336.06 70.72 334.33 69.65 332.09 66.51 330.32 64.4 327.74 62.65 326.47 61.88 325.16 59.94 323.42 58.39 320.49 54.78 316.9 53.1 312.27 52.84 310.21 53.82 307.36 55.41 305.86 56.44 305.5 56.53 302.28 55.27 299.43 54.67 297.21 53.03 293.72 52.89 292.35 50.6 288.14 50.05 286.5 49.74 283.36 48.99 281.82 47.73 277.47 47.35 274.59 46.42 272.78 46.13 269.05 46.63 267.54 46.48 265.57 46.88 263.98 46.86 261.25 47.86 258.3 48.37 255.73 49.54 255.08 50.93 251.64 49.79 248.73 49.48 246.2 49.63 243.38 49.19 239.08 47.41 237.63 46.22 235.4 45.58 230.82 45.81 228.47 45.08 226.55 42.91 225.01 41.45 223.32 40.22 221.13 39.49 218.8 37.43 217.09 36.93 215.72 35.45 213.34 32.11 209.19 29.8 208.53 28.71 207.54 27.29 205.3 26.97 203.97 27.06 201.12 26.09 199.76 22.38 198.19 20.34 196.99 17.19 192.93 15.98 192.53 12.44 189.55 7.88 185.25 5.68 182.49 5.08 179.47 5.17 177.26 5.89 174.23 5.17 172.2 5.05 169.56 3.88 168.4 1.26 163.77 1 161.93 1.47 159.95 3.27 156.58 3.65 152.86 4.64 150.94 6.4 146.03 9.73 138.64 11.73 134.66 15.09 128.59 15.27 127.32 16.57 125.38 19.18 120.59 20.23 118.31 21.6 114.53 22.93 110.02 24.08 104.84 22.37 103.58 20.9 100.75 20.34 98.27 19.09 95.54 18.7 91.25 19.33 88.77 21.25 86.79 23.09 86.08 24.57 80.69 24.96 77.72 25.78 75.34 22.57 74.78 21.21 73.93 19.96 72.4 19.48 69.79 20.04 67.68 21.82 65.78 23.63 65.07 25.73 65.09 27.38 65.84 27.9 60.64 27.64 57.34 Z"/>
</g>
</svg>