<?xml version="1.0"?>
<svg xmlns="http://www.w3.org/2000/svg" version="1.2" baseProfile="tiny" width="800" height="859" viewBox="0 0 800 859" stroke-linecap="round" stroke-linejoin="round">
<g id="geo_export_f87ffb26-fc15-43a4-aea3-61b7f9af450c">
<path d="M 419.79 424.4 422.44 423.92 424.15 424.01 425.01 423.75 428.2 424.14 430.09 423.1 431.81 422.53 431.67 421.83 433.11 421.05 434.76 421.44 435.96 421.31 436.65 421.75 437.88 423.23 439.08 423.44 439.05 424.58 440.15 425.05 440.39 426.1 441.49 426.18 441.86 427.23 441.49 427.75 441.8 428.92 444.16 431.1 445.3 430.49 447.94 431.36 450.38 432.67 451.24 433.97 452.61 435.54 452.99 436.8 451.99 437.49 451.58 438.71 454.6 442.36 455.56 444.1 457.28 444.45 458.48 446.19 460.19 447.75 460.02 448.32 462.39 450.36 463.63 450.62 464 451.97 463.01 453.88 463.42 455.62 463.15 456.49 463.39 457.7 464.93 458.22 466.48 459.66 467.92 459.83 469.94 460.87 473.1 458.96 476.16 460.74 477.12 462.05 477.67 463.35 478.9 464.7 495.58 466.22 502.42 466.74 511.61 467.52 516.76 472.04 519.68 473.56 521.12 474.86 522.39 475.3 527.99 482.68 523.53 486.2 523.32 486.67 523.18 489.54 526.86 493.18 529.43 493.57 530.67 495.53 532.9 496.73 536.67 497.74 540.69 502.04 544.4 501 546.8 500.17 552.39 498.48 560.02 496.27 567.88 493.92 571.51 492.75 591.7 486.54 602.61 483.29 630.37 474.48 632.18 474.76 633.38 473.52 641.78 470.87 656.23 467.09 665.36 463.53 678.54 458.49 679.39 457.9 679.26 459.88 679.28 478.45 679.4 485.8 679.23 490.01 679.3 508.55 679.3 537.82 679.2 546.27 679.4 574.98 679.4 578.27 681.53 579.75 683.14 582.69 685.24 583.86 688.7 585.07 689.05 584.72 691.24 586.02 693.13 585.72 695.91 586.02 697.42 585.55 699.31 586.97 698.14 588.75 699.69 591.04 700.38 593.12 700.2 594.63 701.13 595.72 703.84 595.67 705.11 596.8 705.84 598.25 706.95 598.68 707.86 599.89 709.4 601.23 708.24 604.48 708.13 604.41 687.51 604.37 678.34 604.32 676.73 604.37 643.36 604.19 633.61 604.19 625.06 603.85 615.99 603.72 607.66 603.67 600.59 603.59 597.28 603.7 573.47 603.41 572.06 604.54 571.59 605.65 570.59 606.4 570.26 607.25 569.34 607.4 568.68 608.64 567.76 609.37 566.47 608.99 565.32 609.45 564.59 610.59 563.02 610.73 561.65 611.59 558.53 612.76 553.8 616 552.88 616.43 551.79 615.2 550.86 615.2 550.75 613.68 549.61 613.63 549.54 613 548.21 612.54 547.76 611.98 546.52 611.54 546.63 610.12 545.56 610.07 545.32 610.64 545.49 612.54 543.85 612.84 541.2 612.11 537.94 613.23 535.88 613.75 535.57 613.36 531.7 612.54 532.31 611.8 534.79 609.81 534.34 609.34 531.73 611.5 529.7 610.12 527.34 609.73 521.09 610.68 514.33 609.94 509.93 611.16 508.73 608.82 509.25 606.48 507.91 600.77 513.64 600.3 515.12 601.12 515.84 604.19 516.18 602.51 515.42 600.52 514.09 599.43 508.83 599.82 508.66 598.91 506.43 597.49 504.27 597.23 501.69 596.58 499.67 595.89 500.53 594.03 500.08 592.47 498.91 593.03 497.2 595.15 491.95 596.84 490.88 596.75 489.65 595.24 488.99 592.21 489.3 591.43 489.41 588.49 488.72 583.81 485.46 576.41 482.75 568.96 482.2 569.87 481.43 569.79 481 569.01 480.19 566.34 479.61 565.8 478.5 562.63 477.79 561.29 477.19 561.09 476.91 558.81 476.49 557.4 476.74 556.66 477.39 552.55 476.79 551.26 476.81 549.94 476.5 548.1 475.74 546.19 474.82 540.42 474.54 535.34 474.13 533.09 473.1 528.84 471.9 525.5 471.38 523.03 470.11 522.08 469.15 519.95 467.75 518.52 466.58 518.17 464.07 514.18 462.29 514.66 461.09 513.4 461.67 513.1 462.25 514.31 462.8 513.97 463.25 512.19 462.53 512.02 462.22 510.02 461.74 508.41 459.3 508.81 458.13 505.64 458.96 504.42 455.22 505.59 454.74 506.33 454.98 509.54 453.98 510.67 444.1 501.69 442.89 501.43 440.94 499.61 441.45 498.7 443.2 499.13 438.36 492.92 438.36 491.32 441.35 489.28 446.26 489.49 449.86 489.75 451.03 490.1 453.57 492.79 455.11 496.69 455.76 496.89 454.04 492.28 452.47 488.97 454.55 490.6 454.73 491.57 455.71 491.91 453.79 488.84 453.41 485.67 452.77 484.44 453.19 483.5 450.89 484.72 450.21 482.07 448.42 480.07 446.15 478.94 444.71 477.6 443.51 475.82 443.75 474.86 443.37 473.99 442.31 472.73 440.11 471.91 438.29 472.73 436.37 471.78 436.34 470.39 435.03 470.82 434.11 470.69 432.6 469.52 430.34 468.25 428.05 468.2 427.45 468.81 425.56 469.25 422.26 469.22 420 468.74 414.88 467.39 413.27 466.48 414.88 466.13 415.6 463.7 414.51 463.35 413.04 464.4 410.52 465.44 410.01 464.65 412.96 462.05 416.53 462.18 417.36 460.53 419.66 458.31 421.27 458.4 421.34 457.53 419.96 457.05 417.66 457.27 414.3 457.83 414.23 457.22 417.15 456.18 418.32 454.57 419.35 453.92 421.1 454.83 424.32 454.44 424.32 453.4 425.83 453.92 425.01 452.53 424.43 450.79 420.42 450.75 420.43 450.41 423.12 449.97 423.09 449.58 424.84 449.19 424.12 446.58 423.81 446.14 424.01 444.62 423.02 439.93 422.13 440.93 421.72 438.32 420.2 438.71 418.76 439.62 418.04 439.06 420.17 438.4 419.66 437.36 418.9 436.84 417.97 437.01 416.6 435.8 418.49 435.1 419.42 436.45 421.54 435.93 420.58 432.97 418.56 427.75 421.1 426.45 419.79 424.4 Z M 414.75 475.04 413.17 471.87 413.2 467.61 423.09 470.65 426.01 470.69 427.82 470.04 430.88 469.91 432.05 470.26 432.87 471.39 433.97 471.91 434.86 473.08 436.99 474.21 437.99 474.25 438.95 474.86 438.4 475.99 439.56 475.82 440.7 476.08 442 477.34 443.37 477.51 445.23 478.86 448.15 480.51 449.86 482.42 449.93 486.15 447.15 488.63 446.02 488.84 441.26 486.89 436.16 484.49 432.68 482.6 432.72 480.79 430.89 480.37 430.3 479.94 428.92 479.9 428.2 480.25 427.17 479.81 423.29 478.77 423.53 478.16 421.75 477.29 419 476.95 418.15 475.73 416.33 475.69 415.64 475.08 414.75 475.04 Z M 442.79 475.86 442.17 475.77 439.8 473.08 440.42 472.86 441.62 473.52 442.76 474.82 442.79 475.86 Z M 498.33 594.24 499.05 593.29 500.05 592.99 500.32 594.76 499.7 595.37 498.74 595.15 498.33 594.24 Z"/>
<path d="M 569.76 357.87 570.92 357.12 572.03 355.95 573.5 353.6 574.21 352.05 574.43 350.93 577.46 351.48 579.81 353.58 581.57 357.06 581.95 359.98 582.85 362.74 584.14 364.58 584.85 366.16 586.24 367.5 588.09 368.68 589.64 370.04 591.31 370.76 592.68 370.86 594.72 370.42 596.55 370.62 597.62 371.25 599.73 371.68 603.6 371.47 607.85 369.6 610.21 369.19 613.41 369.09 617.22 368.11 619.31 366.85 621.42 364.97 624.41 363.27 626.92 362.3 630.28 360 633.06 356.39 635.55 354.21 636.56 353.02 637.14 351.33 637.19 349.43 636.98 346.3 636.42 343.96 637.32 340.78 639.44 338.95 643.29 338.03 647.79 340.46 649.01 341.61 651.45 342.17 652.77 341.69 653.34 341.09 654.57 337.31 655.13 336.83 657.74 336.36 662.83 336.17 669.57 337.7 670.94 338.75 671.77 340.68 672.11 342.27 672.33 345.67 673.66 347.59 673.15 348.42 670.14 350.01 670.24 352.11 669.13 353.92 669.54 357.46 669.13 360.28 668.99 363.08 669.7 365.34 670.5 365.85 671.19 365.39 671.15 364.41 670.36 363.21 670.46 361.73 671.72 361.02 672.99 361.63 673.66 363.17 673.33 365.88 674.38 366.78 675.3 366.21 675.87 366.6 675.76 368.2 676.48 369.27 677.73 370.45 678.21 371.44 677.42 372.31 674.34 370.95 673.41 371.13 673.39 372.16 674.84 372.91 675.17 373.6 674.11 374.24 672.32 374.1 671.33 374.56 670.8 375.75 670.96 376.76 671.75 377.54 673.74 377.53 674.53 377.89 674.03 379.61 671.64 379.61 671.29 380.54 672.19 381.17 672.12 381.85 670.79 383.88 670.43 386.22 671.12 387.26 672.96 387.61 673.6 388.44 672.85 388.92 671.14 388.87 671.32 390 672.67 390.94 673.33 391.75 673.25 393.66 673.51 394.35 674.64 395.38 675.71 395.91 675.54 397.1 673.02 397.66 673.29 398.8 675.5 398.23 676.46 399.05 674.96 400.91 674.89 402.35 676.44 403.19 677.27 405.34 676.96 406.98 678.38 408.93 677.97 410.06 678.12 411.58 679.06 412.98 675.85 414.06 675.49 414.72 675.87 416.16 676.55 416.97 676.52 418.1 673.86 420.17 673.92 421.21 675.19 422.23 675.47 423.51 675.18 425.4 674.86 425.91 672.82 426.74 672.29 427.47 673.07 429.47 671.51 431.98 671.08 433.63 671.6 435.65 673.16 437.22 672.73 438.51 671.33 439.4 671.67 440.83 672.65 439.96 674.85 439.36 676.84 442.52 677.36 442.38 677.12 440.98 677.9 440.01 679.33 440.44 680.59 439.45 681.71 441.82 684.01 440.69 683.96 443.61 684.32 444.31 685.36 443.72 686.4 444.12 686.21 445.08 685.51 445.55 685.49 446.52 684.65 447.33 684.98 449.11 684.14 449.81 683.51 450.93 681.71 451.57 680.87 451.63 680.37 452.29 680.96 454.64 680.58 455.15 681.21 456.28 680.31 456.38 680.02 457.5 679.39 457.9 678.54 458.49 665.36 463.53 656.23 467.09 641.78 470.87 633.38 473.52 632.18 474.76 630.37 474.48 602.61 483.29 591.7 486.54 571.51 492.75 567.88 493.92 560.02 496.27 552.39 498.48 546.8 500.17 544.4 501 540.69 502.04 536.67 497.74 532.9 496.73 530.67 495.53 529.43 493.57 526.86 493.18 523.18 489.54 523.32 486.67 523.53 486.2 527.99 482.68 522.39 475.3 521.12 474.86 519.68 473.56 516.76 472.04 511.61 467.52 502.42 466.74 495.58 466.22 478.9 464.7 477.67 463.35 477.12 462.05 476.16 460.74 473.1 458.96 469.94 460.87 467.92 459.83 466.48 459.66 464.93 458.22 463.39 457.7 463.15 456.49 463.42 455.62 463.01 453.88 464 451.97 463.63 450.62 462.39 450.36 460.02 448.32 460.19 447.75 458.48 446.19 457.28 444.45 455.56 444.1 454.6 442.36 451.58 438.71 451.99 437.49 452.99 436.8 452.61 435.54 451.24 433.97 450.38 432.67 447.94 431.36 445.3 430.49 444.16 431.1 441.8 428.92 441.49 427.75 441.86 427.23 441.49 426.18 440.39 426.1 440.15 425.05 439.05 424.58 439.08 423.44 437.88 423.23 436.65 421.75 435.96 421.31 434.76 421.44 433.11 421.05 431.67 421.83 431.81 422.53 430.09 423.1 428.2 424.14 425.01 423.75 424.15 424.01 422.44 423.92 419.79 424.4 418.49 423.44 416.57 425.23 414.82 422.62 417.49 421.49 416.43 419.92 412.76 418.7 411.55 419.31 410.49 419.31 406.41 419.79 406.51 419.27 407.95 419.22 407.92 417.05 405.68 417.05 405.41 419.18 403.45 419.09 402.97 415.66 402.6 414.83 401.19 414.74 400.88 414.18 399.13 412.48 397.86 412.92 399.4 413.79 401.57 415.53 402.42 420.92 400.88 421.27 399.68 421.05 399.71 420.49 397.84 418.84 396.7 418.25 394.67 419.57 393.43 418.57 394.49 414.31 392.98 413.39 392.95 412.18 389.38 409.52 386.63 409.39 386.57 408.91 385.16 407.39 386.05 406.13 385.6 404.21 382.21 402.25 383.58 400.86 382.24 398.95 381.52 398.64 380.42 396.68 379.8 396.33 379.7 395.11 380.36 394.71 381.76 394.99 383.41 395.97 384.75 395.61 385.67 396.05 386.19 397.2 386.05 398.64 390.41 400.25 391.54 399.08 390.31 398.21 391.3 397.68 392.16 397.77 391.99 395.85 394.43 395.38 395.25 393.76 394.77 392.07 395.56 389.93 399.47 390.67 401.12 389.15 401.19 388.54 402.53 386.32 403.56 383.36 403.21 381.88 402.08 380.96 401.46 379.96 400.71 376.69 401.12 374.3 402.08 374.08 402.8 375.56 404.55 375.95 406.47 376 409.43 378.09 412.24 378.78 413.72 378.65 414.71 377.96 418.08 374.69 418.69 374.51 420.65 374.99 422.37 374.78 424.01 374.91 425.32 372.9 426.93 371.94 427.82 370.38 430.19 369.46 432.7 364.06 433.11 362.53 434.24 362.62 436.1 361.97 436.68 360.79 437.02 357.26 437.71 356.87 438.77 357.08 440.59 356.52 442.76 354.51 444.78 354.29 446.84 354.73 449.66 354.95 450.21 354.51 453.5 354.69 456.28 355.73 457.14 355.69 457.96 356.21 461.88 356.87 464.24 358.78 465.79 360.31 467.16 362.84 467.64 364.58 469.5 366.98 473.82 369.33 477.05 370.07 478.76 369.33 479.62 368.5 481.92 368.2 483.88 366.45 485.42 365.89 486.25 364.93 488.1 363.32 493.87 361.09 495.38 360.79 496.89 359.83 499.26 359.35 502.07 358.3 503.07 356.52 503.79 356.95 504.82 356.56 508.15 357.52 509.69 357.65 513.54 355.52 517.21 354.47 518.65 354.38 522.26 354.77 523.97 355.3 524.86 354.69 526.34 354.95 526.86 354.29 530.52 355.02 533.55 355.42 537.91 355.26 541.79 355.6 544.2 356.24 546.5 357.06 549.39 358.45 552.69 359.46 556.21 360.01 558.07 360.12 561.15 359.94 565.13 359.38 568.35 358.48 569.76 357.87 Z M 666.57 451.76 666.65 453.69 667.5 455.07 669.42 456.54 671.12 456.32 672.67 454.27 673.89 453.95 676.94 453.8 679.07 452.62 679.48 451.66 679.07 450.1 677.23 444.8 675.85 443.05 675.11 441.51 673.84 441.24 670.59 441.18 669.6 443.27 670.27 444.61 669.87 445.29 667.89 445.5 667.81 446.93 667.38 448.67 667.49 449.45 666.3 449.56 666.57 451.76 Z M 403.59 423.14 404.35 422.75 406.61 425.88 404.52 425.31 404.35 423.79 403.59 423.14 Z" fill-rule="evenodd"/>
<path d="M 183.04 250.64 183.59 249.88 183.92 249.71 185.74 249.18 186.18 248.73 185.77 246.05 187.19 246.2 188.19 245.21 189.42 245.17 190.29 243.89 192.6 243.74 193.9 244.41 194.6 244.04 195.59 241.32 197.08 241.42 198.78 242.66 200.51 242.98 202.45 243.91 203.32 243.31 206.24 244.59 207.18 243.65 209.55 243.19 210.95 245 212.26 244.14 212.5 242.91 211.62 242.4 211.14 241.53 212.2 240.87 212.97 239.87 214.61 239.6 215.77 239.94 215.82 240.63 214.68 241.16 215.43 242.58 217.75 241.36 218.43 241.44 218.96 242.52 229.04 251.29 245.17 265.07 251.62 270.66 252.31 271.33 269.41 286.11 273.25 289.41 278.89 289.35 279.44 289.48 281.8 290.96 282.11 292.16 283.27 292.78 283.45 293.38 284.48 293.84 285.22 293.05 286.54 294.16 290.33 294.83 291.03 294.69 293.56 296.86 295.07 297 298.11 296.92 299.37 297.93 299.51 298.46 300.88 298.14 302.91 299.1 303.7 300.06 304.79 300.61 308.3 301.13 309.02 301.76 311.59 301.74 313.05 300.28 314.42 300.03 316.25 300.19 316.68 300.75 317.84 300.61 319.95 300.89 320.93 298.84 322.17 297.91 323.81 297.37 324.19 298.49 325.59 298.22 326.59 297.68 328.04 298.77 328.45 298.11 330.12 298.61 330.46 299.77 331.94 299.23 333.25 300.24 332.13 302.59 333.47 303.35 333.54 305.27 333.91 305.87 335.26 306.17 336.52 305.59 337.53 305.72 337.76 306.38 335.69 308.4 335.72 309.87 336.79 310.52 338.57 311.12 340.15 310.45 342.66 313.64 344.18 315.12 347.37 317.13 349.45 319.26 351.09 322.06 351.72 325.25 352.88 328.22 354.64 330.45 355.22 330.83 354.81 331.23 357.39 332.1 359.31 333.8 359 336.2 359 338.2 360.03 339.6 361.23 348.32 359.65 351.68 358.9 354.12 358.25 355.04 357.87 357.78 358.31 358.65 357.7 359.05 355.81 365.84 355.64 367.54 356.22 370.16 355.81 371.86 354.88 372.73 356.91 372.82 359.28 373.43 361.78 375.95 363.15 376.78 364.53 376.82 366.38 378.17 367.24 377.83 368.51 378.26 369.13 379.83 370.6 381.01 372.05 383.1 372.39 382.97 373.38 384.75 373.69 386.14 370.43 388.93 367 386.75 366.72 386.45 365.01 387.36 364.08 388.98 364.18 389.45 363.33 391.54 363.36 392.07 361.23 392.24 360.89 392.68 357.32 392.89 357.18 394.03 358.97 394.85 358.97 398.21 359.55 399.19 360.37 402.73 361.65 402.92 363.19 404.65 360.68 405.52 359.48 407.17 356.5 406.08 356.02 405.26 355.16 404.84 353.89 405.82 354.54 410.7 357.32 413.87 359.41 414.18 360.27 413.96 362.95 416.44 364.25 416.61 364.94 419.14 363.6 419.4 363.57 420.66 365.08 421.79 367.31 424.23 368.68 424.4 370.05 425.79 372.97 425.66 374.65 428.36 374.79 429.1 376.89 430.88 376.61 431.79 375.79 431.45 374.79 432.4 375.03 433.49 373.25 434.27 372.77 435.36 369.51 434.93 368.37 435.27 368.51 436.84 369.92 438.45 370.05 439.71 368.17 438.49 366.18 436.84 364.97 434.45 364.6 433.06 365.49 431.53 365.08 430.53 363.33 428.49 361.04 426.99 360.07 425.66 357.94 426.05 355.71 425.7 355.91 424.88 355.09 424.62 354.4 426.01 354.37 427.75 355.36 429.01 356.77 432.36 356.36 433.1 354.99 431.93 353.99 430.71 351.69 430.14 352.48 429.27 351.38 428.27 350.32 429.53 349.25 428.79 349.46 427.32 347.91 426.84 347.54 425.4 346.99 425.71 347.88 427.18 347.71 428.79 349.29 430.79 350.66 431.32 351.57 433.04 354.75 435.67 355.6 435.67 356.26 436.23 356.5 437.27 358.1 438.74 359.34 438.69 359.46 439.31 360.56 440.23 362.46 441.24 363.45 440.74 363.58 442.1 362.85 444.27 362.78 446.1 363.22 446.14 363.84 447.97 365.42 450.58 365.11 452.66 364.49 452.01 363.12 452.23 362.88 454.49 363.12 455.53 361.27 455.1 360.31 455.31 358.62 455.23 357.39 456.83 355.95 457.01 354.16 457.57 353.82 456.75 351.79 456.05 350.08 455.7 347.5 455.92 346.88 456.96 345.58 458.44 346.2 459.83 345.24 459.92 344.86 457.75 343.31 456.27 343.93 455.53 342.8 453.53 341.87 452.88 338.72 451.79 338.78 450.97 337.79 448.62 336.62 448.27 336.83 447.58 335.52 447.01 335.56 445.84 334.94 445.75 334.49 444.19 332.95 443.23 332.54 443.49 330.44 442.27 329.76 441.1 328.11 440.93 327.76 441.62 326.53 440.45 325.26 439.97 324.68 438.58 322.51 435.84 320.83 434.06 320.01 434.06 316.56 432.86 315.14 433.33 312.99 431.61 312.43 431.84 311.42 431.23 311.97 429.29 311.26 428.84 310.39 427.34 307.55 424.39 304.14 422.26 302.27 421.43 299.03 420.56 296.62 420.71 294.73 420.5 293.97 420.12 296.93 419.29 299.79 419.65 301.42 420.05 305.56 422.01 304.62 420.5 303.85 420.3 302.46 418.99 300.57 418.2 299.44 417.31 298.57 415.77 296.92 415.16 296.66 414.3 294.93 412.37 293.88 412.33 292.38 410.09 290.55 409.85 289.51 408.8 287.76 408.38 287.53 409.05 288.2 410.04 288.64 411.89 289.53 413.28 290.51 413.28 291.17 413.82 291.01 416.36 292.32 418.6 293.16 418.96 293.07 420.43 292.54 420.93 289.4 422.57 286.93 424.62 286.77 425.67 286.04 425.93 284.41 425.41 283.58 424.87 282.57 423.23 281.35 422.83 280.97 424.83 279.33 424.63 276.21 423.34 275.23 421.5 274.84 418.69 273.75 415.89 272.58 413.62 274.28 412 272.32 410.63 270.01 409.57 268.49 407.96 267.87 407.63 265.4 407.23 264.16 406.59 263.44 405.05 262.67 404.14 260.85 403.34 260.2 402.33 258.84 402.36 258.22 401.94 258.37 400.9 258.11 399.52 255.46 393.03 253.51 389.87 252.17 388.25 249.3 385.97 248.51 386.27 246.36 383 245.28 381.13 243.95 380.18 243.43 380.27 241.4 378.22 238.76 376.46 237.94 375.66 236.84 375.14 235.12 373.7 232.57 372.06 229.62 370.74 224.44 368.7 220.14 367.71 214.79 367.22 211.76 367.25 210.48 366.98 208.8 366.98 207.82 366.07 207.86 364.93 209.55 366.56 211.45 366.88 213.24 366.5 214.31 366.81 215.24 366.36 216.17 366.79 217.58 366.86 218.12 366.53 220.93 366.86 221.53 366.09 221.16 364.92 220.38 364.98 219.35 365.91 217.74 365.88 215.89 365.38 215.3 364.64 215.91 363.6 216.7 360.93 215.81 360.24 216.33 358.95 215.38 358.14 214.71 358.18 214.65 360.22 213.56 362.47 213.83 363.41 213.63 364.74 213.15 365.17 211.82 364.63 211.51 365.24 209.88 365.21 209.66 364.55 207.34 364.19 207.03 362.76 207.34 361.46 205.71 360.27 205.4 359.51 206.1 358.12 206.8 355.83 209.43 354.17 210.56 353.67 210.53 352.89 211.48 351.92 210.85 350.96 212.54 349.81 210.76 348.7 209.38 350.73 208.97 351.88 208.25 352.45 206.97 351.72 206.59 349.34 206.81 347.92 206.2 347.1 207.33 344.89 206.43 342.76 207.46 342.06 207.88 340.6 207.72 339.89 206.14 340.95 206.35 342 205.39 343.45 205.74 343.89 204.48 346.06 204.75 346.59 204.66 348.71 203.84 350.7 204.02 351.69 203.09 353.2 201.74 353.09 200.1 353.31 199.58 352.69 200.03 351.67 199.67 351.09 200.04 348.58 198.91 347.23 198.93 348.81 198.47 350.91 198.97 352 198.35 352.94 200.81 354.44 201.69 356.06 201.35 358.39 199.53 357.23 198.38 356.25 198.16 357.23 198.88 358.45 200.33 358.83 201.54 359.78 202.15 360.96 203.75 362.68 204.32 363.75 205.72 364.2 204.42 365.94 202.43 366.12 198.8 367.2 197.2 367.88 195.52 369.07 193.45 370.89 192.15 372.48 190.23 375.74 189.54 378.01 189.7 380.6 191.7 381.28 192.44 381.95 194.37 382.49 195.14 382.38 195.75 383.6 195.38 383.99 193.25 383.92 193.03 383.18 191.35 382.79 189.45 382.71 188.55 383.14 186.99 381.99 185.61 382.8 185.12 382.2 183.59 382.72 181.98 382.69 181.28 381.76 179.79 381.69 179.15 382.39 175.71 381.74 176.91 379.91 178.42 380.19 178.87 379.29 179.52 379.11 181.5 374.95 181.51 374.65 184.63 366.38 185.38 364.89 186.63 361.09 188.4 356.64 190.37 350.92 191.57 347.92 192.16 345.69 192.75 344.61 192.94 343.51 193.72 341.46 194.96 337.35 197.4 330.47 198.45 326.71 199.11 323.84 199.77 322.12 200.63 318.33 201.57 312.22 201.29 310.88 201.26 308.17 200.38 307.05 200.49 305.73 200.02 305.01 199.89 303.1 199.12 302.04 196.6 300.79 195.32 299.79 195.85 298.1 195.52 293.12 194.92 291.41 193.87 290.43 193.53 289.34 192.34 288.48 191.32 286.83 190.62 286.22 190.38 285.17 190.49 283.01 189.99 282.04 188.87 281.4 188.11 279.56 187.2 278.74 186.6 277.18 185.48 275.26 186.29 275.13 188.26 275.89 189.26 277.19 190.03 277.72 190.36 278.89 191.38 279.86 191.93 280.89 193.88 282.27 194.24 283.29 195.19 284.33 197.13 286.98 197.92 288.55 199.49 289.63 201.11 290.25 200.95 291.17 201.95 291.24 202.62 292.61 201.41 295.32 203.57 295.05 205.41 296.5 206.25 297.88 207.23 298.41 207.92 299.42 207.74 300.49 208.89 301.79 209.06 302.73 210.4 303.32 210.34 304.5 210.86 304.77 211.1 305.96 211.66 306.07 213.01 307.78 213.08 309.43 215.14 310.25 215.93 311.44 215.78 312.01 214.62 313.31 215.62 313.4 217.05 314.65 216.99 316.19 218.59 317.4 219.92 319.22 219.46 320.24 220.53 321.86 221.97 322.05 222.75 323.01 222.85 323.8 224.19 324.74 224.3 325.92 225.4 326.34 225.92 327.19 228.68 329.68 228.78 330.15 230.06 331.26 230.49 332.22 235.17 337.27 235.21 337.9 237.38 340.01 238.22 340.32 239.09 341.67 240.06 342.68 240.86 341.62 242.32 341.42 242.99 341.67 243.73 339.77 242.31 338.64 241.13 337.01 239.96 335.89 239.16 334.48 237.89 332.77 236.66 332.84 235.38 333.5 234.52 332 235.07 330.51 233.95 329.05 232.49 329.22 230.55 327.88 230.37 327.17 231.07 325.66 230.95 324.23 229.19 322.75 228.22 321.67 227.65 319.95 227.85 319.06 225.9 317.54 224.86 317.2 223.68 314.99 222.71 314.88 222.29 313.62 221.19 312.57 220.04 310.45 220.22 309.34 217.92 307.5 217.06 304.69 216.89 303.5 215.08 301.21 214.31 299.56 213.59 297.43 212.21 296.58 211.84 295.12 211.11 293.67 210.83 292.15 209.54 290.06 209.42 286.6 210.45 283.29 208.78 284.86 208.63 285.57 207.31 287.09 206.1 287.04 205.77 285.92 204.34 284.22 202.72 283.55 201.84 284.31 201.05 285.55 199.82 285.63 199.79 283.96 200.3 282.64 199.99 281.04 200.21 279.22 199.65 278.19 198.05 277.07 196.67 277.67 196.66 278.77 195.21 278.45 193.59 278.6 193.31 277.8 194.37 275.56 194.88 273.23 195.2 270.66 190.05 270.66 183.59 254.12 183.59 251.42 183.04 250.64 Z M 204.94 324.56 204.06 324.35 203.4 324.77 202.49 326.18 201.23 326.66 199.94 328.24 198.73 328.39 199.1 330.16 200.37 331.97 201.1 332.28 202.59 331.58 202.32 330.99 200.53 328.87 200.71 327.69 202.45 327.48 203.12 326.91 203.67 325.63 203.55 325.03 204.94 324.56 Z M 367.75 433.87 367.82 433.06 367.21 431.66 365.9 431.01 365.7 432.49 366.79 433.66 367.75 433.87 Z M 350.66 367.46 349.6 367.63 349.6 368.59 350.69 368.46 350.66 367.46 Z M 382.93 439.14 383.1 440.45 382.76 441.19 383.51 443.88 381.25 442.88 379.43 442.58 378.16 443.4 375.34 442.32 374.89 440.8 374.04 440.19 375.79 439.45 376.65 437.01 377.16 437.75 378.09 437.45 378.05 436.53 379.39 435.36 381.45 436.06 382.93 439.14 Z M 294.19 418.22 294.18 417.34 295.79 417.9 295.19 418.52 294.19 418.22 Z" fill-rule="evenodd"/>
<path d="M 491.77 155.34 491.7 155.94 490.74 157.52 490.43 163.57 491.19 164.32 491.22 165.2 490.09 167.26 489.06 171.16 488.37 172.21 485.83 181.42 484.8 184.13 484.01 188.95 483.71 189.44 483.84 192.33 484.29 194.48 486.11 196.93 486.73 198.81 487.86 198.9 488.72 200.83 489.61 201.75 489.61 202.97 493.28 207.66 493.42 208.05 495.38 210.03 496.72 211.91 497.75 214.01 500.56 220.88 501.11 220.88 502.04 222.11 502.04 223.2 503.31 226.53 502.96 228.46 503.75 231.39 504.99 234.15 505.61 234.1 506.16 235.81 505.91 237.78 504.78 238.65 503.82 240.71 504.99 241.8 491.4 241.85 481.3 241.93 465.46 241.8 461.6 241.93 456.52 241.89 456.45 242.63 457.17 244.34 458.1 245.26 457.69 246.96 458.89 248.71 457.89 250.2 457.38 251.86 458 252.08 458.06 253.44 459.71 255.58 459.82 256.67 461.77 258.6 461.63 259.3 462.56 261.18 460.06 261.22 459.47 260.69 456.38 261.18 454.8 261.04 454.36 260.65 452.92 263.62 452.78 265.24 454.12 266.64 455.66 266.95 457.55 266.6 459.68 266.95 460.88 267.82 460.4 268.56 460.61 269.35 460.23 270.31 458.75 270.22 458.34 270.88 457.07 270.92 456.35 270.22 454.77 269.66 454.29 271.19 455.08 271.75 455.28 272.89 456.73 272.98 457.07 274.55 457.96 274.86 459.95 279.18 460.3 281.45 460.85 283.2 459.88 284.21 459.85 285.43 460.64 286.52 460.3 287.09 458.72 287.83 458.07 287.4 456.62 288.88 457 290.37 456.62 290.89 456.86 293.12 456.56 294.12 454.63 295.91 455.32 296.87 453.23 297.53 454.12 299.32 453.88 300.76 453.4 301.33 455.53 304.39 457 304.34 457.48 304.91 457.34 306.13 459.23 306.26 460.47 307.88 458.92 310.24 459.3 311.2 460.16 312.11 453.74 312.16 440.66 312.07 438.36 312.16 434.17 312.02 424.77 312.02 410.73 311.94 387.83 311.72 387.56 310.45 392.95 309.32 396.45 309.75 399.68 311.02 401.05 310.5 401.8 306.96 400.77 300.63 401.22 299.89 404.04 300.59 404.83 299.67 404.62 296 403.59 294.39 404.31 293.6 406.95 295.83 407.4 295.26 407.16 291.98 406.47 291.37 404.83 288.88 404.21 288.31 404.62 287.31 404.34 286.26 404.04 282.5 404.45 281.5 401.32 271.93 400.09 271.97 400.05 272.72 398.65 273.02 398.92 271.75 397.75 271.32 396.52 269.38 395.3 268.66 394.87 267.69 393.44 266.05 393.67 264.33 393.61 262.81 394.16 262.04 393.91 261.24 394.3 260.46 393.41 260.02 390.96 260.97 389.92 260.07 388.85 257.47 388.35 256.89 389.23 255.57 389.64 253.33 389.1 251.4 389.34 250.86 388.69 249.15 389.33 247.69 391.77 246.7 391.18 244.75 389.25 242.55 388.64 240.13 388.15 239.48 386.68 239.52 386.59 237.4 385.77 236.57 385.21 235.33 385.81 233.88 384.98 232.89 383.9 232.13 383.01 231.99 381.28 228.91 380.58 228.62 380.54 227.26 378.62 225.38 377.33 224.64 376.36 223.33 375.41 222.93 373.72 222.93 371.71 221.28 371.22 220.05 370.07 219.01 370.32 217.89 371.53 216.3 372.76 215.98 373.48 214.05 371.29 212.52 371.39 212.04 369.16 210.2 367.31 209.19 365.83 206.08 366.55 204.99 365.62 203.76 365.69 202.84 364.05 202.14 363.98 201 357.15 194.69 356.42 194.26 357.83 192.2 357.59 191.36 358.55 189.92 360.02 191.1 360.57 188.57 362.46 186.14 362.48 183.64 361.44 181.9 359.58 181.2 358.31 181.11 357.76 180.23 356.53 180.67 353.1 179.91 352.17 177.69 352.79 176.81 352.58 175.63 351.78 175.57 350.02 173.94 348.62 173.75 347.83 174.24 345.44 174.49 345.43 172.95 344.84 171.54 344.82 170.58 343.21 168.91 342.48 167.07 341.68 166.29 341.53 164.81 340.19 162.79 341.17 161.6 342.62 161.95 343.22 160.23 342.28 159.98 340.85 158.42 339.97 158.18 339.39 156.63 339.7 155.64 341.06 155.37 340.53 152.41 339.41 151.58 338.22 151.46 337.51 149.97 335.99 149.98 334.35 149.41 333.76 150.04 332.72 149.96 332.73 148.61 331.62 148.01 331.63 146.64 330.72 145.23 330.2 143.46 329.1 142.6 328.24 140.76 327.4 139.49 326.4 139.61 325.51 138.08 324.9 138.3 322.62 136.91 321.19 136.74 320.15 135.37 318.66 135.05 317.47 135.53 316.11 135.48 314.12 134.7 314.27 132.32 312.32 130.49 310.26 130.5 310.19 129.4 310.81 126.49 309.91 125.85 309.13 124.17 309.26 123.25 307.36 121.18 305.39 117.66 305.93 115.86 306.93 114.87 307.84 113.2 307.84 111.98 309.35 110.87 309.85 109.97 309.74 108.55 311.56 107.15 310.94 105.5 309.95 105.15 309.57 101.06 311.73 97.81 312.01 96.45 312.97 95.39 313.14 89.02 311.87 87.61 323.95 83.96 348.16 76.83 353.15 75.34 367.99 71.03 384.5 43.4 388.93 41.24 386.84 39.74 386.46 35.69 385.71 35.56 390.61 27.55 397 28.38 399.02 21.82 396.11 14.42 388.59 4.81 391.62 1 392.17 1.58 393.41 4.28 394.99 5.61 395.01 6.19 396.95 7.61 397.83 7.63 398.99 8.52 399.69 9.64 401.37 10.27 402.95 11.38 405.61 12.94 407.1 13.56 407.56 13.42 409.3 11.12 411.09 10.73 412.08 10.16 413.03 10.64 414.03 10.64 415.25 9.07 415.99 8.93 417.39 9.99 418.19 11.34 418.98 11.92 421.84 11.22 422.9 10.66 423.41 11.75 425.61 12.27 427.76 12 428.37 11.72 430.08 16.76 430.55 18.46 431.53 19.59 432.28 21.11 432.96 23.65 433.18 25.15 434.79 28.49 435.57 29 436.06 30.72 437.36 32.32 437.45 33.27 438.1 33.75 438.06 35.36 438.55 35.68 439.46 37.62 439.93 40.22 440.36 41.34 440.73 43.52 441.37 49.01 442.46 51.39 443.33 51.85 443.95 52.92 444.33 54.34 445.62 54.8 447.07 56.68 447.61 57.94 448 59.78 448.39 60.11 449.98 63.5 448.82 64.25 449.97 69.14 450.67 71.34 450.26 73.33 451.51 75.36 452.79 75.64 453.55 76.22 455.76 75.29 456.1 76.25 457.01 77.07 457.89 78.45 457.87 79.3 458.67 80.66 458.41 82 457.4 83.36 458.59 85.11 459.06 86.7 460.78 88.36 461.34 89.45 464.32 92.17 466.93 91.54 469.45 92.98 471.22 96.64 471.28 98.3 470.27 98.86 470.26 99.59 471.89 101.56 471.43 102.91 470.02 103.37 468.72 104.27 469.4 106.45 469.44 108.8 470.26 109.51 471.99 108.8 473.14 107.31 474.03 107.06 475.13 106.16 475.37 107.65 476.52 109.01 477.35 110.46 477.65 111.91 478.49 113.02 479.19 112.93 480.24 115.22 480.3 116.12 481.29 118.33 481.17 119.44 481.77 120.94 482.44 121.56 483.25 124.43 482.88 125.25 483.37 127.4 483.91 128.19 485.24 133.77 485.78 134.9 486.05 136.76 486.68 138.87 486.97 140.79 488.08 144.54 487.77 146.37 488.9 147.72 488.45 148.44 488.93 150.61 489.68 151.01 489.61 151.77 491.21 153.69 491.77 155.34 Z"/>
<path d="M 396.52 483.98 396.31 484.28 396.76 487.11 396.52 488.28 395.66 489.15 394.67 488.93 394.36 489.75 398 489.49 399.92 492.75 398.55 492.79 398.2 494.62 398.48 495.44 399.51 495.44 400.19 496.09 401.6 494.09 403.8 496.57 404.83 497.26 404 503.21 402.62 502.32 401.66 503.31 399.88 502.23 398.85 502.15 397.89 500.21 396.92 499.86 396.73 500.7 395.52 500.52 395.46 501.26 398.17 503.25 396.47 505.29 396.85 506.12 394.77 505.9 392.44 506.51 387.46 506.55 368.37 506.55 365.22 506.5 354.75 506.59 353.89 502.69 353.37 499.82 352.89 493.4 352.38 488.93 352.03 487.93 351.55 482.46 351.48 479.25 351.07 476.6 350.63 475.04 351.31 473.86 352.96 472.73 353.78 471.79 355.53 471.43 356.6 472.04 358.04 471.95 360.48 470.78 361.19 469.06 361.82 466.72 362.45 465.54 363.12 462 363.84 462.48 365.8 462.96 368.03 464.7 374.11 463.39 373.76 464.35 375.44 463.74 377.64 463.39 378.43 464.26 378.81 462.96 380.89 463.12 381.67 463.73 382.72 462.87 383.41 461.61 384.78 462.13 385.54 461.74 386.19 462.79 387.66 463.13 388.97 464.05 389.69 465.18 390.41 464.65 391.51 466.26 392.03 467.98 394.32 471.43 395.15 472.08 394.91 473.6 395.32 475.47 395.15 478.29 394.49 478.34 395.32 480.59 394.84 481.16 394.53 482.68 396.28 483.03 396.52 483.98 Z M 401.19 454.02 402.63 456.92 402.26 458.46 399.85 459.75 401.02 461.31 403.93 460.18 402.84 463.57 401.12 463.35 399.26 461.89 399.64 460.14 397 455.05 397.41 453.49 399.09 452.62 400.64 453.14 401.19 454.02 Z M 183.59 512.21 182.54 511.29 181.17 511.11 182.89 509.93 183.59 509.91 184.13 511.5 183.59 512.21 Z M 413.17 471.87 414.75 475.04 413.26 474.64 413.17 471.87 Z M 383.1 440.45 382.93 439.14 383.51 439.71 383.1 440.45 Z"/>
<path d="M 354.75 506.59 365.22 506.5 368.37 506.55 387.46 506.55 392.44 506.51 392.26 507.03 393.67 515.66 394.19 519.17 394.6 519.69 396.73 519.74 396.73 523.25 394.49 523.2 394.22 523.67 392.67 523.83 392.68 524.94 394.63 525.29 394.49 524.33 396.14 524.33 396.25 525.42 398.76 525.61 398.72 526.89 396.86 527.02 396.9 527.58 398.48 529.1 397.58 529.84 397.93 530.62 397.24 531.31 396.86 532.44 392.68 532.61 391.4 535.19 392.13 535.3 393.02 534.09 393.36 535.95 392.88 536.73 394.77 536.47 396.52 538.2 394.73 538.16 393.67 539.24 393.77 540.28 394.94 540.94 396.76 540.24 399.2 541.37 399.57 541.02 400.74 541.59 401.15 540.76 402.01 541.63 400.88 544.14 402.25 545.14 405.41 546.74 404.21 549.17 399.61 547.05 399.16 547.39 397.45 550.51 397.38 551.16 399.57 552.24 400.91 553.46 401.98 555.15 403.49 556.71 407.98 557.01 408.16 558.18 410.56 557.7 411.07 558.61 406.44 558.44 405.62 557.75 404.52 558.48 411.14 559.05 411.28 556.66 412.37 556.65 412.37 558.84 416.98 557.01 418.93 557.49 419.24 559.61 418.49 560.26 420.75 562.94 422.33 564.37 423.23 564.07 425.28 564.25 425.2 565.92 426.18 566.45 427.49 564.48 429.01 563.99 431.02 564.94 431.06 566.1 432.91 566.54 433.87 566.32 436.1 565.24 437.64 565.54 440.66 568.01 441.76 569.09 443.51 572.21 443.17 573.68 443.41 574.14 445.04 574.91 447.5 575.05 450.34 576.89 450.51 578.79 452.68 578.66 452.99 580.22 456.28 579.83 459.68 580.78 460.55 582.84 459.75 586.54 461.81 588.01 463.94 589.31 464.45 587.71 465.07 588.96 466.24 592.25 469.5 594.76 473.03 596.53 479.38 593.38 481.68 594.46 483.43 596.88 484.57 602.12 484.84 606.92 485.87 609.64 486.8 610.25 487.62 611.42 484.91 613.72 485.51 616.22 484.72 617.2 483.67 616.78 483.37 617.47 481.5 616.57 479.7 616.32 478.9 615.22 477.46 614.83 476.73 615.55 474.89 615.05 473.92 616.39 472.83 616.82 471.4 616.73 470.53 617.2 469.69 618.94 468.16 619.76 467.16 621.01 466.92 621.88 465.55 622.27 464.57 623.14 464.18 624.86 462.7 625.73 461.8 626.62 462.15 628.23 461.67 629.57 462.6 630.52 462.73 631.56 461.91 632.04 462.94 632.9 462.84 633.64 461.36 634.02 460.72 635.21 460.47 636.64 461.1 638.36 461.35 641.35 461.97 642.59 461.69 645.02 461.72 646.86 460.54 648.21 459.64 650.3 458.79 651.22 458.31 652.52 458.15 654.82 457.72 655.8 458.17 658.32 460.11 661.29 460.17 662.68 462.15 665.36 463.49 666.55 463.46 666.92 464.57 669.03 467.13 672.07 465.94 672.33 464.4 671.4 463.34 673.48 461.26 674.94 463.18 676.48 463.53 678.15 464.64 679.07 466.52 677.71 468.47 677.96 469.25 678.88 470.04 680.76 471.59 681.36 470.06 685.27 471.89 686.19 472.43 685.95 474.37 687.42 474.88 689.08 474.89 695.33 474.82 707.11 475.24 713.4 474.71 716.63 474.78 719.65 467.68 719.77 464.97 719.74 452.13 719.74 443.96 719.78 443.9 724.22 443.93 730.6 442.17 730.68 434.93 730.68 428.17 732.02 418.18 731.93 419 739.17 420.2 748.9 427.33 762.44 427.89 763.58 426.6 766.3 425.33 764.65 423.2 763.29 422.14 762.32 419.47 761.55 419.14 762.1 417.87 762.03 416.69 762.53 414.14 764.02 413.34 762.11 412.4 761.7 411.34 761.75 410.91 760.39 411.31 758.49 411.47 754.62 410.79 753.17 409.32 751.69 409.23 750.52 408.12 749.6 407.03 749.86 405.92 749.25 405.26 748.34 403.7 747.96 403.77 745.75 403.35 744.18 403.04 741.99 401.79 738.94 401.08 737.87 399.94 737.28 398.76 735.64 397.04 734.44 394.49 733.5 391.84 733.74 390.9 732.72 390.61 729.7 388.18 728.12 388.03 724.73 388.13 723.21 387.55 722.85 387.17 721.5 387.2 718.76 387.46 717.92 386.79 716.32 386.84 715.42 385.63 713.86 384.21 710.91 383.57 707.79 383.59 705.39 384.07 703.65 384.94 702.16 385.37 699.37 385.43 697.49 385.98 697.08 387.01 691.06 387.83 682.85 388.52 675.01 389.56 665.89 389.46 663.01 389.8 659.24 389.36 657 387.08 655.55 387.03 652.67 386.7 650.83 385.78 649.32 384.81 649.06 384.09 646.55 382.93 645.04 381.93 643.23 382.2 641.76 381.69 639.51 380.76 638.39 380.28 636.92 380.39 635.84 379.01 634.93 378.81 633.81 378.26 633.33 377.67 631.47 377.64 630.35 376.92 629.27 376.23 627.32 374.93 624.47 374.14 613.4 373.62 611.63 372.04 605.19 366.62 597.57 365.08 596.53 364.25 596.97 363.36 595.76 361.22 595.38 360.13 595.41 358.24 596 357.01 597.05 357.32 598.65 355.84 598.78 355.57 597.49 355.74 596.19 351.45 590.82 349.87 587.53 349.49 586.36 349.8 585.67 349.77 584.12 348.89 580.62 349.9 577.32 350.52 576.8 350.9 574.16 350.28 571.52 350.56 567.88 349.53 567.36 348.7 564.68 349.39 563.81 349.77 561.38 349.7 557.53 348.5 556.06 350.49 555.45 350.83 554.45 351.83 554.54 353.03 555.19 353.68 555.1 355.12 553.63 355.67 551.68 355.05 551.16 355.09 550.29 356.36 549.69 356.7 548.21 356.29 547.43 356.56 546.44 356.39 545.22 356.77 544.31 357.63 534.39 357.7 529.27 357.46 525.72 357.08 524.72 357.18 521.47 356.7 516 355.47 509.76 354.75 506.59 Z M 436.85 577.93 435.03 577.23 434.31 578.62 436.27 578.62 436.85 577.93 Z" fill-rule="evenodd"/>
<path d="M 535.88 613.75 537.94 613.23 541.2 612.11 543.85 612.84 545.49 612.54 545.32 610.64 545.56 610.07 546.63 610.12 546.52 611.54 547.76 611.98 548.21 612.54 549.54 613 549.61 613.63 550.75 613.68 550.86 615.2 551.79 615.2 552.88 616.43 553.8 616 558.53 612.76 561.65 611.59 563.02 610.73 564.59 610.59 565.32 609.45 566.47 608.99 567.76 609.37 568.68 608.64 569.34 607.4 570.26 607.25 570.59 606.4 571.59 605.65 572.06 604.54 573.47 603.41 597.28 603.7 600.59 603.59 607.66 603.67 615.99 603.72 625.06 603.85 633.61 604.19 643.36 604.19 676.73 604.37 678.34 604.32 687.51 604.37 708.13 604.41 708.24 604.48 707.59 605.7 706.97 605.29 706.1 605.54 704.54 607.4 703.39 607.3 704.25 611.46 706.68 612.66 707.96 614 708.09 615.47 709.3 615.91 709.51 616.72 711.2 616.73 711.67 619.07 711.39 620.26 711.84 621.71 711.94 623.24 711.16 623.75 709.17 626.66 709.03 628.03 709.44 629.32 708.25 629.92 710.43 633.51 711.36 633.12 713.83 637.09 714.07 639.56 713.18 640.81 713.73 641.93 715.48 642.32 715.86 643.23 716.64 643.6 717.87 642.87 718.5 643.13 719.36 642.37 720.79 641.68 722.34 642.5 724.92 642.75 726.5 644.01 728.87 644.57 729.53 646.01 730.06 648.35 729.38 649.35 727.73 650.41 727.64 651.36 726.55 655.36 725.45 655.95 725.06 657.79 726.37 660.39 726.05 663.87 730.03 669.96 729.35 671.3 729.67 672.37 729.08 672.63 729.95 673.92 730.61 677.52 731.2 678.44 730.1 678.92 728.28 680.38 725.37 683.56 725.27 684.97 723.82 684.95 722.4 685.34 721.5 686.23 720.54 686.65 719.06 685.83 718.23 684.63 716.13 685.8 716.47 687.37 715 688.89 714.64 690.07 713.25 690.03 712.9 690.63 714.66 693.18 714.35 699.08 713.52 700.03 714.29 702.36 714.04 704.99 716.65 709.28 716.44 710.24 717.36 710.8 718.84 712.89 720.78 713.65 721.48 714.91 722.34 714.32 724.11 716.18 725.38 716.67 725.8 717.7 725.94 719.92 727.38 721.45 727.39 723.7 727.91 726.74 729.16 728.49 729.67 730.79 729.22 732.59 729.93 733.14 730.12 734.56 729.35 735.85 729.72 736.75 728.99 738.66 730.52 739.66 730.57 742.14 730.93 744.04 731.58 745.27 732.78 745.73 733.17 747.47 734.04 747.59 735.43 748.65 735.92 747.74 738.21 747 738.82 747.2 739.46 744.56 738.68 743.47 738.93 742.25 738.48 741.17 739.04 740.14 740.16 740.09 741.05 738.49 742.29 737.64 742.71 736.23 745.35 734.79 745.82 733.41 747.06 733 747.91 733.46 748.77 733.25 749.73 734.08 751.48 734.96 752.51 736.24 752.95 737.43 754.35 737.72 755.71 738.89 756.56 739.23 757.75 740.98 759.52 740.77 761.01 740.23 762.68 740.13 763.5 739.21 765.42 740.68 766.6 740.02 767.27 740.84 768.28 740.77 769.01 739.7 770.71 738.31 770.56 737.13 771.71 736.06 772.28 734.43 773.58 733.34 774.3 733.6 775.13 735.08 775.95 735.47 776.73 737.8 777.97 738.73 779.65 741.86 780.44 743.77 782.73 744.02 785.09 744.55 786.78 744.15 787.24 744.63 788.88 744.58 789.64 746.6 789.42 747.96 791.07 752.78 793.3 755.1 794.04 756.1 793.84 756.78 794.36 758.22 795.87 759.45 794.37 762.45 793.66 762.88 792.6 764.73 793.06 766.43 791.33 767.27 791.62 769.78 791.38 770.69 788.65 772.2 787.06 772.51 786.25 773.89 787.42 775.77 788.04 775.33 789.64 775.29 791.77 777.32 793.37 778.43 793.96 780.64 795.11 781.18 796.4 782.61 798.52 783.03 798.28 783.98 799 785.71 798.75 787.15 797.34 788.69 795.39 787.81 793.8 787.65 793.66 788.79 792.97 789.99 793.41 795.29 789.42 796.5 788.45 798.37 787.72 798.75 786.31 798.52 785.19 797.98 785.42 799.57 786.04 801.38 787.08 803.07 787.52 803.27 789.69 806.65 790.38 807.33 788.84 808.1 789.35 808.79 789.75 811.24 790.45 812.66 789.56 813.09 787.57 813.5 787.09 814.84 786.33 815.42 785.82 817.94 786.07 819.67 786.76 820.93 788.28 822.62 789 823.93 790.8 825.75 791.75 826.28 793.55 826.37 794.7 828.01 794.6 829.03 749.07 829.37 738.83 829.29 727.66 829.27 726.91 829.33 722.41 824.56 721.35 823.53 720.56 821.81 716.92 819.7 716.1 818.33 716.32 817.44 715.27 817.17 713.73 818.12 711.53 818.59 710.54 820.05 711.36 821.71 709.85 822.36 708.65 821.81 702.64 819.62 698.25 824.56 696.88 827.91 696.15 828 695.55 829.61 694.61 830.1 695.37 831.13 695.3 832.34 694.78 832.72 694.78 834.74 694.13 835.99 687.13 842.04 684.93 844.45 684.93 846.64 680.67 848.74 678.85 850.54 678.1 856.34 675.04 856.11 674.43 856.42 673.09 857.84 670.89 855.09 670.99 847.07 667.9 847.07 667.83 844.1 662.07 844.15 656.03 837.96 655.58 838.24 654.07 837.92 653.59 838.48 651.8 838.56 650.02 839.72 650.44 841.5 648.81 841.45 647.75 839.34 646.31 837.4 645.97 836.12 646.38 835.69 646.14 833.71 644.49 833.62 642.81 833.07 642.44 831.65 642.95 829.93 642.47 828.21 641.82 827.7 640.52 828 639.58 827.22 638.86 827.27 637.66 826.19 634.4 826.58 632.5 826.03 630.84 824.15 631 821.94 631.83 819.79 631.79 818.76 630.32 818.29 628.4 818.29 628.31 816.95 626.83 816.42 626.47 815.41 625.17 815.41 624.06 814.29 619.74 816.32 619.11 816.82 617.71 817.01 618.49 815.51 619.99 815.16 620.47 813.75 620.03 813.29 623.76 809.13 622.42 808.54 621.08 807.2 620.65 808.14 617.78 805.78 619.45 802.74 619.62 803.64 621.22 803.37 616.72 800.75 614.87 797.83 614.29 797.44 613.8 796.15 611.54 792.58 611.02 791.25 610.37 790.95 609.34 791.76 607.87 791.08 607.97 789.79 605.5 789.66 602.2 787.85 600.96 786.2 598.54 784.89 597.78 785.23 595.83 783.38 594.38 782.91 593.42 783 592.07 781.83 592.34 780.86 591.92 780.15 590.17 779.04 590.63 777.39 589.63 776.62 588.24 774.47 584.88 774.27 584.15 773.09 582.56 772.68 581.84 771.91 580.8 771.7 580.79 770.72 579.04 769.67 577.04 770.04 576.29 769.69 574.67 769.56 574.95 767.76 571.82 768.4 566.75 766 565.75 767.28 565.09 766.54 564.06 766.42 562.83 765.34 562.67 764.7 561.52 764.94 560.6 764.15 559.51 763.72 557.86 763.54 553.05 760.01 551.23 759.28 550.69 759.74 545.32 757.43 542.49 756.78 539.97 755.23 537.75 752.97 537.24 752.05 536.36 751.44 534.1 751.79 532.9 751.57 531.45 750.83 530.32 750.62 529.59 749.69 529.29 748.26 528.13 747.01 527.05 743.92 524.29 743.03 522.77 742.9 521.91 741.38 521.08 741.61 520.36 740.85 519.65 741.02 518.24 740.72 518.44 739.64 517.73 738.87 517.97 737.66 517.29 736.24 517.27 735.47 516.32 734.74 515.87 732.28 516.66 730.72 516.22 730.16 514.64 729.52 513.23 728.4 511.99 726.07 510.62 724 508.77 722.41 508.23 720.93 506.54 720.94 505.44 722.06 504.51 721.8 503.87 720.28 501.48 717.82 500.58 717.23 500.03 716.26 498.33 716.68 496.48 716.37 495.41 715.34 495.17 713.7 493.29 712.19 491.53 711.54 490.99 708.74 490.02 707.49 486.83 702.66 484.81 700.55 483.37 700.77 481.75 699.73 480.55 697.92 479.42 696.84 477.56 695.85 476.4 693.92 475.5 693.56 476.16 691.79 475.47 689.83 474.88 689.08 474.37 687.42 472.43 685.95 471.89 686.19 470.06 685.27 471.59 681.36 470.04 680.76 469.25 678.88 468.47 677.96 466.52 677.71 464.64 679.07 463.53 678.15 463.18 676.48 461.26 674.94 463.34 673.48 464.4 671.4 465.94 672.33 467.13 672.07 464.57 669.03 463.46 666.92 463.49 666.55 462.15 665.36 460.17 662.68 460.11 661.29 458.17 658.32 457.72 655.8 458.15 654.82 458.31 652.52 458.79 651.22 459.64 650.3 460.54 648.21 461.72 646.86 461.69 645.02 461.97 642.59 461.35 641.35 461.1 638.36 460.47 636.64 460.72 635.21 461.36 634.02 462.84 633.64 462.94 632.9 461.91 632.04 462.73 631.56 462.6 630.52 461.67 629.57 462.15 628.23 461.8 626.62 462.7 625.73 464.18 624.86 464.57 623.14 465.55 622.27 466.92 621.88 467.16 621.01 468.16 619.76 469.69 618.94 470.53 617.2 471.4 616.73 472.83 616.82 473.92 616.39 474.89 615.05 476.73 615.55 477.46 614.83 478.9 615.22 479.7 616.32 481.5 616.57 483.37 617.47 483.67 616.78 484.72 617.2 485.51 616.22 484.91 613.72 487.62 611.42 488.49 612.54 489.72 612.59 490.74 613.53 492.36 612.67 492.53 614.4 491.36 615.87 490.74 615.57 490.09 616.39 492.15 616.09 492.46 615.52 494.14 616.69 496.03 617.17 497.58 617.99 499.64 617.6 500.67 618.38 502 618.81 504.06 618.25 505.26 620.32 506.71 620.11 510.21 618.72 510.41 619.54 511.55 618.81 514.64 617.77 516.66 618.33 515.94 617.17 513.71 616.34 516.9 613.53 518.89 613.66 520.23 616.21 520.78 619.89 523.9 619.76 525.89 622.44 529.77 623.69 530.01 623.48 526.07 621.97 524.04 619.37 521.05 619.46 520.95 616.17 520.06 613.4 529.91 612.13 534.08 613.68 535.88 613.75 Z M 492.94 615.13 494.14 614.79 495.17 616.6 493.56 616.22 492.94 615.13 Z"/>
<path d="M 387.83 311.72 410.73 311.94 424.77 312.02 434.17 312.02 438.36 312.16 440.66 312.07 453.74 312.16 460.16 312.11 459.3 311.2 458.92 310.24 460.47 307.88 459.23 306.26 457.34 306.13 457.48 304.91 457 304.34 455.53 304.39 453.4 301.33 453.88 300.76 454.12 299.32 453.23 297.53 455.32 296.87 454.63 295.91 456.56 294.12 456.86 293.12 456.62 290.89 457 290.37 456.62 288.88 458.07 287.4 458.72 287.83 460.3 287.09 460.64 286.52 459.85 285.43 459.88 284.21 460.85 283.2 460.3 281.45 459.95 279.18 457.96 274.86 457.07 274.55 456.73 272.98 455.28 272.89 455.08 271.75 454.29 271.19 454.77 269.66 456.35 270.22 457.07 270.92 458.34 270.88 458.75 270.22 460.23 270.31 460.61 269.35 460.4 268.56 460.88 267.82 459.68 266.95 457.55 266.6 455.66 266.95 454.12 266.64 452.78 265.24 452.92 263.62 454.36 260.65 454.8 261.04 456.38 261.18 459.47 260.69 460.06 261.22 462.56 261.18 461.63 259.3 461.77 258.6 459.82 256.67 459.71 255.58 458.06 253.44 458 252.08 457.38 251.86 457.89 250.2 458.89 248.71 457.69 246.96 458.1 245.26 457.17 244.34 456.45 242.63 456.52 241.89 461.6 241.93 465.46 241.8 481.3 241.93 491.4 241.85 504.99 241.8 503.82 240.71 504.78 238.65 505.91 237.78 506.16 235.81 505.61 234.1 504.99 234.15 503.75 231.39 502.96 228.46 503.31 226.53 502.04 223.2 502.04 222.11 501.11 220.88 500.56 220.88 497.75 214.01 496.72 211.91 495.38 210.03 493.42 208.05 493.28 207.66 489.61 202.97 489.61 201.75 488.72 200.83 487.86 198.9 486.73 198.81 486.11 196.93 484.29 194.48 483.84 192.33 483.71 189.44 484.01 188.95 484.8 184.13 485.83 181.42 488.37 172.21 489.06 171.16 490.09 167.26 491.22 165.2 491.19 164.32 490.43 163.57 490.74 157.52 491.7 155.94 491.77 155.34 494.67 155.53 496.16 154.28 496.76 154.82 499.39 154.71 502.49 155.2 506.7 154.12 507.83 153.7 509.59 155.82 512.88 158.62 513.75 160.68 514.52 161.93 516.17 163.39 518.59 164.49 520.17 165.57 523.06 166.03 525.4 163.84 526.29 163.66 527.44 162.83 528.8 160.78 529.76 160.76 531.26 159.98 531.76 159.05 532.77 158.79 532.75 158.03 533.94 157.56 534.57 156.91 534.65 155.64 535.17 154.55 536.74 153.88 537.16 152.45 539.52 150.83 540.5 150.83 542.48 149.73 544.87 149.03 545.84 148.16 546.35 146.94 547.18 146.39 549.12 146.68 551.12 147.69 553.03 148.04 554.61 147.88 558.09 148.09 561.04 146.86 563.87 146.16 565.34 144.44 566.33 143.97 567.81 144.32 571.26 144.12 572.53 144.97 573.77 144.91 574.16 144.15 575.31 144.09 577.42 145.07 578.77 145.05 582.24 146.28 584.39 147.78 587.33 148.14 591.1 149.55 593.33 149.22 597.05 148.92 600.59 150.9 601.38 150.81 601.75 149.05 603.06 147.74 603.88 147.79 605.77 146.73 606.73 147.52 606.7 148.93 607.29 149.79 608.57 149.45 610.65 148.14 613.11 147.7 614.46 147.04 616.99 144.49 618.43 144.58 619.09 145.15 621.42 145.34 622.38 145.72 625.51 144.63 626.26 144.63 626.7 145.48 627.67 145.86 628.01 146.89 628.6 147.04 629.95 149.13 632 149.31 631.84 150.66 631.69 166.54 632.36 166.6 632.31 179.44 632.3 194.89 632.26 198.14 632.22 214.56 632.34 216.33 632.21 223.43 632.29 225.29 632.19 229.79 632.18 235.43 632.25 236.38 632.14 242.76 645.3 242.91 647.8 242.9 658.92 243.05 666.42 243.03 664.99 244.42 665.36 245.51 664.62 246.76 664.6 247.91 663.4 249.36 662.72 250.8 663.17 253.35 662.65 254.83 664.11 257.17 664.27 258.22 663.15 261.84 663.99 264.51 664.44 267.21 664.27 268.78 663.84 269.56 663.8 274.26 663.42 276.22 663.67 278.18 663.59 281.2 663.84 282.58 663.69 283.55 661.79 286.85 660.64 289.72 660.69 291.18 659.89 293.54 659.23 294.35 656.34 295.44 653.58 294.93 652.46 295.4 650.06 296.83 648.79 298.36 645.61 299.85 642.93 300.38 641.75 301.83 641.12 303.3 639.94 304.49 638.21 307.21 636.95 308.71 635.13 310.09 635.04 312.31 634.64 313.49 634.51 315.11 633.41 318.7 632.91 321.66 631.65 324.99 630.23 327.75 627.97 330.95 627.53 333.88 627.3 339.84 626.46 342.01 625.42 342.86 624.03 343.24 620.78 343.81 619.28 343.69 618.22 343.21 615.99 341.73 615.38 341.69 611.09 344.55 607.26 346.61 602.31 349.91 597.11 353.19 595.83 353.72 594.07 353.72 592.16 353.23 589.83 352.36 586.29 350.85 584.82 349.45 583.5 347.8 582.38 346.82 581.04 346.3 579.21 347.36 576.1 348.34 574.73 349.25 574.43 350.93 574.21 352.05 573.5 353.6 572.03 355.95 570.92 357.12 569.76 357.87 569.76 353.95 568.22 355.12 565.52 356.35 563.88 356.26 562.28 354.6 559.97 354.12 558.94 353.43 557.78 351.24 557.62 349.41 558.17 347.11 559.2 346.89 558.82 345.63 559.5 344.96 558.16 343.48 554.97 343.7 553.62 344.35 551.8 344.65 551.3 344.31 550.11 344.91 548.25 344.82 547.02 345.72 545.35 346.23 544.12 345.81 543.69 346.53 542.16 345.83 542.89 344.57 539.45 344.47 539.67 345.21 537.93 347.18 536.83 347.51 536.03 347.15 535.26 344.42 534.3 345.36 533.65 344.96 533.28 343.52 532.55 342.65 530.66 342.08 529.81 342.44 525.7 340.31 525.23 340.29 522.03 337.88 522.21 337.23 521.49 335.85 522.95 335.49 524.26 334.64 526.09 334.52 528 333.96 529.57 333.74 530.33 333.1 529.59 332.37 530.32 331.44 532.69 330.36 532.77 329.79 531.32 326.37 530.67 324.54 529.52 323.37 528.28 321.54 526.88 320.23 525.19 320.94 521.19 321.63 519.81 321.57 517.81 320.86 516.45 321.27 514.72 320.93 512.87 321.34 512.58 322.27 510.65 321.52 509.13 321.91 507.99 321.78 507.29 321.01 505.92 321.81 506.17 323.47 505.91 325.62 504.95 326.28 505.19 327.91 504.68 328.74 504.68 330.42 504.05 333.18 500.02 337.49 495.81 341.79 492.19 345.36 486.35 352.33 484.67 355.25 483.5 358.96 482.61 360.4 480.65 361.01 478.94 361.31 474.89 361.14 475.11 360.17 473.79 359.41 472.96 360.05 473.17 360.86 471.9 361.01 471.62 360.31 472.01 358.36 471.08 357.3 471.08 356.39 469.91 356.34 468.91 355.91 467.27 354.51 467.2 353.25 465.86 352.64 464.45 351.29 464.52 350.89 462.7 348.8 461.91 349.02 460.98 352.94 460.57 353.6 458.34 352.86 458.17 351.55 456.14 350.11 455.32 351.07 454.46 350.76 449.83 351.37 448.35 350.89 448.01 350.15 446.53 349.32 445.02 347.75 445.09 346.93 444.4 345.66 442.93 344.27 442.28 342.43 442.07 341.13 441.38 341.52 438.09 337.16 437.26 336.5 435.65 333.89 434.93 331.4 433.95 331.05 433.8 330.27 432.84 328.48 432.39 328.22 432.46 326.64 430.71 327.52 432.46 330.27 431.19 330.27 432.15 331.84 436.78 338.47 439.36 341.56 442 346.18 440.73 348.93 440.15 347.97 439.26 347.89 438.29 349.63 434.21 350.28 434.66 349.63 434.38 348.19 433.42 346.66 432.01 345.27 430.74 344.44 429.61 342.65 428.34 341.08 425.63 336.46 423.43 334.19 423.67 333.76 420.27 330.31 408.13 321.8 405.89 320.45 388.73 313.07 387.83 311.72 Z M 526.72 343.17 527.18 343.39 526.95 345.32 525.39 346.21 525.94 346.9 524.7 347.22 522.38 348.3 519.64 347.97 518.82 347.52 519.47 346.15 518.31 343.99 518.31 343.08 517.2 342.93 515.62 344.33 514.85 344.33 513.98 342.8 514.45 342.18 513.47 340.44 515.24 340.71 516.49 341.54 518.08 341.32 520.49 341.31 523.1 341.76 526.72 343.17 Z M 551.4 356.65 550.17 356.3 550.57 355.38 552.85 355.31 555.17 354.16 555.55 352.94 555.21 349.63 556.45 348.85 557.04 349.05 557.26 350.96 558.75 353.66 559.67 354.16 561.62 354.51 562.52 355.1 563.96 356.69 562.04 357.82 555.8 357.83 555.67 357.32 554.3 357.37 553.01 357.06 551.74 357.3 551.4 356.65 Z M 519.53 348.44 517.34 349.9 515.84 349.78 512.03 349.1 511.76 347.45 513.16 347.53 514.83 346.91 516.27 347.37 518.27 348.39 519.53 348.44 Z M 533.7 345.95 531.77 346.11 530.15 345.17 529.95 344.5 531.49 343.26 533.7 345.95 Z M 520.02 337.82 518.79 336.9 520.71 336.01 521.88 337.18 521.65 338.02 520.02 337.82 Z M 540.59 346.27 539.1 347.16 538.54 346.9 539.41 345.56 539.47 344.56 540.49 344.89 540.59 346.27 Z M 536.33 348.67 535.21 348.77 534.51 347.56 534.97 347.07 536.5 348.37 536.33 348.67 Z M 557.99 343.53 559.43 345.18 558.69 345.62 557.98 344.64 557.99 343.53 Z"/>
<path d="M 311.87 87.61 313.14 89.02 312.97 95.39 312.01 96.45 311.73 97.81 309.57 101.06 309.95 105.15 310.94 105.5 311.56 107.15 309.74 108.55 309.85 109.97 309.35 110.87 307.84 111.98 307.84 113.2 306.93 114.87 305.93 115.86 305.39 117.66 307.36 121.18 309.26 123.25 309.13 124.17 309.91 125.85 310.81 126.49 310.19 129.4 310.26 130.5 312.32 130.49 314.27 132.32 314.12 134.7 316.11 135.48 317.47 135.53 318.66 135.05 320.15 135.37 321.19 136.74 322.62 136.91 324.9 138.3 325.51 138.08 326.4 139.61 327.4 139.49 328.24 140.76 329.1 142.6 330.2 143.46 330.72 145.23 331.63 146.64 331.62 148.01 332.73 148.61 332.72 149.96 333.76 150.04 334.35 149.41 335.99 149.98 337.51 149.97 338.22 151.46 339.41 151.58 340.53 152.41 341.06 155.37 339.7 155.64 339.39 156.63 339.97 158.18 340.85 158.42 342.28 159.98 343.22 160.23 342.62 161.95 341.17 161.6 340.19 162.79 341.53 164.81 341.68 166.29 342.48 167.07 343.21 168.91 344.82 170.58 344.84 171.54 345.43 172.95 345.44 174.49 347.83 174.24 348.62 173.75 350.02 173.94 351.78 175.57 352.58 175.63 352.79 176.81 352.17 177.69 353.1 179.91 356.53 180.67 357.76 180.23 358.31 181.11 359.58 181.2 361.44 181.9 362.48 183.64 362.46 186.14 360.57 188.57 360.02 191.1 358.55 189.92 357.59 191.36 357.83 192.2 356.42 194.26 357.15 194.69 363.98 201 364.05 202.14 365.69 202.84 365.62 203.76 366.55 204.99 365.83 206.08 367.31 209.19 369.16 210.2 371.39 212.04 371.29 212.52 373.48 214.05 372.76 215.98 371.53 216.3 370.32 217.89 370.07 219.01 371.22 220.05 371.71 221.28 373.72 222.93 375.41 222.93 376.36 223.33 377.33 224.64 378.62 225.38 380.54 227.26 380.58 228.62 381.28 228.91 383.01 231.99 383.9 232.13 384.98 232.89 385.81 233.88 385.21 235.33 385.77 236.57 386.59 237.4 386.68 239.52 388.15 239.48 388.64 240.13 389.25 242.55 391.18 244.75 391.77 246.7 389.33 247.69 388.69 249.15 389.34 250.86 389.1 251.4 389.64 253.33 389.23 255.57 388.35 256.89 388.85 257.47 389.92 260.07 390.96 260.97 393.41 260.02 394.3 260.46 393.91 261.24 394.16 262.04 393.61 262.81 393.67 264.33 393.44 266.05 394.87 267.69 395.3 268.66 396.52 269.38 397.75 271.32 398.92 271.75 398.65 273.02 400.05 272.72 400.09 271.97 401.32 271.93 404.45 281.5 404.04 282.5 404.34 286.26 404.62 287.31 404.21 288.31 404.83 288.88 406.47 291.37 407.16 291.98 407.4 295.26 406.95 295.83 404.31 293.6 403.59 294.39 404.62 296 404.83 299.67 404.04 300.59 401.22 299.89 400.77 300.63 401.8 306.96 401.05 310.5 399.68 311.02 396.45 309.75 392.95 309.32 387.56 310.45 387.06 310.77 387.25 312.63 388.01 313.99 388.36 315.27 387.52 317.93 386.44 319.86 385.39 321.01 383.01 323.03 382.17 324.04 380.42 324.94 379.7 325.82 378.43 326.7 377 327.33 376.42 328.28 375.11 329.07 372.32 328.56 371.63 327.32 369.96 328.12 367.13 328.77 364.9 328.95 362.58 329.36 358.72 330.84 358.55 331.78 355.22 330.83 354.64 330.45 352.88 328.22 351.72 325.25 351.09 322.06 349.45 319.26 347.37 317.13 344.18 315.12 342.66 313.64 340.15 310.45 338.57 311.12 336.79 310.52 335.72 309.87 335.69 308.4 337.76 306.38 337.53 305.72 336.52 305.59 335.26 306.17 333.91 305.87 333.54 305.27 333.47 303.35 332.13 302.59 333.25 300.24 331.94 299.23 330.46 299.77 330.12 298.61 328.45 298.11 328.04 298.77 326.59 297.68 325.59 298.22 324.19 298.49 323.81 297.37 322.17 297.91 320.93 298.84 319.95 300.89 317.84 300.61 316.68 300.75 316.25 300.19 314.42 300.03 313.05 300.28 311.59 301.74 309.02 301.76 308.3 301.13 304.79 300.61 303.7 300.06 302.91 299.1 300.88 298.14 299.51 298.46 299.37 297.93 298.11 296.92 295.07 297 293.56 296.86 291.03 294.69 290.33 294.83 286.54 294.16 285.22 293.05 284.48 293.84 283.45 293.38 283.27 292.78 282.11 292.16 281.8 290.96 279.44 289.48 278.89 289.35 273.25 289.41 269.41 286.11 252.31 271.33 251.62 270.66 245.17 265.07 229.04 251.29 218.96 242.52 218.43 241.44 217.75 241.36 215.43 242.58 214.68 241.16 215.82 240.63 215.77 239.94 214.61 239.6 212.97 239.87 212.2 240.87 211.14 241.53 211.62 242.4 212.5 242.91 212.26 244.14 210.95 245 209.55 243.19 207.18 243.65 206.24 244.59 203.32 243.31 202.45 243.91 200.51 242.98 198.78 242.66 197.08 241.42 195.59 241.32 194.6 244.04 193.9 244.41 192.6 243.74 190.29 243.89 189.42 245.17 188.19 245.21 187.19 246.2 185.77 246.05 186.18 248.73 185.74 249.18 183.92 249.71 183.59 249.88 183.04 250.64 181.87 249.76 178.73 246.59 176.19 244.78 175.62 244.14 173.68 243.43 170.67 242.82 167.89 243.22 166.45 244.08 165.88 245.25 165.11 245.15 166.46 242.54 167.67 241.99 168.55 242.34 170.75 242.13 170.31 240.06 170.96 239.03 170.04 237.38 168.57 236.27 166.91 233.85 163.9 233.03 163.51 234.1 164.11 236.29 165.12 237.36 165.15 240.37 164.54 241.19 164.61 242.36 163.09 243.09 163.02 243.58 164.2 245.38 164.29 246.5 165.4 246.81 166.12 247.78 165.76 248.93 163.98 249.48 162.87 248.89 162.43 247.81 161.67 247.55 161.52 245.93 159.25 241.58 158.27 240.11 157.39 239.51 158.91 238.24 160.48 233.36 160.68 230.1 160.79 223.87 160.54 222.57 159.13 219.6 158.73 218.23 157.79 217.31 156.91 215.98 156.81 215.07 155.99 214.72 155.93 213.18 154.49 208.99 152.31 207.3 151.3 208.09 150.78 207.56 150.94 205.41 150.22 203.31 150.19 201.99 149.71 200.64 148.38 198.19 147.02 197.07 146.62 196.08 144.77 195.53 144.18 194.18 143.87 192.47 142.95 192.03 142.15 190.29 141.98 188.69 141.49 187.39 140.68 187.31 140.15 183.83 139.66 182.65 137.85 181.11 136.26 180.62 134.83 179.83 133.94 178.79 131.56 177.52 131.4 176.72 129.07 175.03 127.94 174.88 127.65 172.98 125.75 171.48 124.5 171.09 123.52 169.9 122.32 168.98 121.48 168.72 121.09 167.86 120.27 167.5 117.88 165.7 115.62 164.76 114.54 163.66 113.31 163.1 111.69 162.74 109.95 161.56 108.36 161.77 107.06 161.2 105.44 160.12 104.52 160.06 104.59 158.95 103.34 158.36 103.29 157.27 100.67 156.7 97.57 156.61 96.43 155.89 96.72 154.43 95.26 153.85 95.32 153.05 93.15 151.62 93.16 150.74 91.62 150.14 88.46 147.45 88.14 145.47 86.89 145.39 85.97 143.79 84.54 143.46 82.98 142.26 81.46 141.79 81.81 140.58 80.91 140.71 79.77 140.35 79.07 138.58 77.16 136.15 75 135.42 73.96 134.71 72.9 134.58 72.74 133.16 72.21 133.14 70.44 132.07 69.36 132.3 68.65 130.23 67.25 129.42 67.75 128.98 67.12 126.85 67.89 125.36 66 122.04 66.07 121.5 65.29 120.5 62.65 117.95 61.4 118.58 60.52 118.48 60.06 117.34 59.13 116.49 57.33 115.64 56.3 114.43 56.72 113.76 57.94 113.71 57.76 112.95 58.23 111.93 57.87 111.24 56.06 110.51 53.95 108.19 53.05 106.21 51.14 105.25 50.26 104.3 50.24 103.47 51.02 103.28 49.87 101.49 48.2 100.73 48.82 99.77 47.63 98.51 46.52 97.77 45.64 95.55 45.71 94.9 44.7 93.83 43.91 93.42 44.65 92.21 44.08 91.78 43.35 89.8 41.26 87.24 40.97 86.16 39.94 85.25 39.91 84.45 38.71 84.32 37.3 82.98 35.49 82.64 35.2 81.12 35.56 80.71 35.25 78.12 34.3 77.49 33.94 76.61 33.06 76.03 33.01 74.63 32.61 73.78 31.21 72.47 30.18 72.17 28.66 70.95 28.43 69.6 27.72 69.1 27.38 67.66 26.11 66.78 25.57 65.65 24.6 65.33 23.79 64.58 21.2 63.85 18.7 61.72 17.61 61.19 17.49 60.54 16.05 59.94 14.99 57.56 14.38 57.1 9.81 55.21 8.77 55.66 7.51 54.97 6.27 53.5 6.18 52.88 4.93 51.58 3.73 51.52 2.98 50.06 3.3 49.19 3.14 48.13 1.36 47.26 1.67 45.66 1 43.2 2.56 44.97 3.55 45.64 5.15 47.55 5.85 47.2 6.12 45.35 6.88 43.34 9.09 43.42 9.86 40.89 10.5 40.59 12.49 40.72 12.64 38.85 13.65 38.73 19.92 38.95 31.54 39.51 36.01 39.6 44.92 39.57 54.87 39.33 57.58 39.41 57.52 26.38 63.68 26.24 82.84 26.14 87.29 26 90.69 25.61 97.78 25.61 112.34 25.37 126.07 25.42 135.14 25.4 137.2 25.28 137.07 11.93 140.68 11.99 143.46 11.88 149.85 12.19 156.09 12.39 156.17 6.2 162.65 6.28 174.47 5.99 177.53 6.23 181.6 6.73 184.36 6.76 190.83 6.63 201.63 6.96 203.7 7.09 207.48 7.03 214.35 7.11 224.05 7.07 231.54 7.16 240.13 7.15 245.21 7.22 245.86 7.72 246.56 7.35 246.83 8.68 246.34 9.67 248.2 10.24 248.83 11.11 248.47 12.39 249.65 13.17 252.69 13.02 253.13 11.98 254.02 12.13 254.05 13.08 255.58 15.9 256.27 15.95 257.38 17.27 259.42 17.49 261.23 19.73 263.14 20.68 263.32 21.99 264.17 22.37 264.06 23.19 265.89 24.38 266.44 25.6 268.31 26.76 270.22 27.46 271.09 29.64 270.43 32.87 270.4 34.68 271.86 36.02 272.45 37.09 273.59 37.3 274.82 39.16 274.63 40.54 275.73 42.12 276.81 42.21 277.63 44.25 278.52 45.04 278.95 46 279.04 47.52 280.05 49.76 282.93 50.99 284 52.67 282.71 54.74 283.13 55.63 282.83 56.77 283.39 59.21 284.49 59.36 286.63 60.62 286.7 61.75 287.42 62.44 288.23 64.48 287.89 65.4 288.55 67.03 289.75 68.51 291.16 68.73 292.99 69.84 294.9 69.81 296.45 70.56 297.45 69.64 299.93 70.71 301.58 70.65 302.71 70.24 305.29 70.6 306.24 73.78 307.35 74.53 308.08 75.95 307.72 78.13 309.03 79.52 309.64 79.79 309.91 81.15 312.21 83.9 312.53 84.58 311.87 87.61 Z"/>
</g>
</svg>