<svg xmlns="http://www.w3.org/2000/svg" width="790" height="884" fill="none" viewBox="0 0 790 884">
  <g class="CA_State_TIGER2016">
    <path fill="#C4C4C4" d="M369.991 818.795l-.119-.672.02-.681.168-.767.603-1.392.326-.364.939-.797.771-.451.514-.22.752-.183.593-.038.751.058 1.186-.461 1.157-.211.682.029 1.858.508.445.173 1.809.921 2.135.979 1.018.412.287.192 1.582 1.363 1.957 1.4.81 1.056.337.508.286.701.059.633-.039 1.19-.129.585-.464 1.084-.564.921-.425.24-.998.758-2.985 1.228-.86.154-2.076.076-.494.058-.969-.288-1.434-.038-.958-.307-.297-.154-1.107-.345-.909-.422-.692-.106-.91-.355-.514-.326-.484-.47-.504-.307-.87-.701-.465-.518-.524-.854-.118-.383-.406-.499-.464-1.113.019-.931-.286-.873zm73.159 22.375l-.287-1.257.03-1.18.198-.845.366-.767.523-.778.732-.719.988-.614.663-.23.988-.192 1.325.057.969-.096.86.077 1.957.672.801.431 1.403 1.219.663.892.434.729.129.327.514.642.405.375.336.748.129.643.613.931.781.959.84 1.228.217.384.643.806 1.611 1.074 1.256 1.152 1.087 1.228 1.176.94.88.605.573.431.465.499 1.443 1.296.415.259.475.451.632.7.544.374.999 1.267.365.767.188.614.089.758-.089.902-.217.595-.435.835-.327.479-.761.71-.84.643-1.473.566-.791.106-1.334-.211-.564-.173-.533.585-.544.442-1.206.585-.87.163h-1.275l-1.315-.451-.83-.441-.702-.585-.593-.691-.208-.346-.751-.604-.415-.489-.603-.519-.979-.441-1.354-.95-.652-.7-.485-.71-.484-1.295-.227-.528-.682-.864-.277-.566-.475-.508-.504-.653-.316-.547-.376-.47-.494-1.161-.138-.431-.02-.854-.247-.835-.752-.806-.553-.921-.732-1.612-.168-.863-.118-.24-.317-1.305-.099-.633h-1.937l-.069-.509-.287-.556zm-32.957-43.157h-.889l.128-.499.425-.873.228-.336.761-.643.623-.335 1.067-.432.791-.144.731.067.722-.105.82-.212.94-.038 1.215.221.544.144.83.499.594.537.711.921.524 1.228.247 1.315v1.055l-.079.576-.227.786-.237.442-.218.863-.435 1.075-.158.22-.623.451-.553.317-.376-.125-.662.403-1.335.346-1.977.163-1.433-.25-1.117-.671-.583-.48-.504-.748-.623-1.411-.059-.978.009-1.065.178-2.284zm33.956 3.876l-.327-.978-.128-.902-.04-.749.109-.671.227-.576.613-.959.89-.931 1.384-.681 1.048-.259.949-.039.761.029.8.317.297-.077h.929l.405.086.851-.22.988-.058.791.115 1.255.47.455.288.573.528.821-.039.405.058.633.221.919.537.712.614.82.94.742.202.474.47 1.344.23 1.305.509 1.285.393.752.365.642.633.672.345.712.518.613.538.633.7.415.797.336 1.592.188.307.721.538.672.69.653.806.692.509.415.403.385.556.475.95.484 1.334.287 1.353.02.892-.129.873-.247 1.065-.375.854-.633.787-.761.604-.88.585-.89.442-.791.278-1.205.221-.712.038-1.206-.173-1.493-.451-1.384-.633-.306-.278-.653-.048-.642-.173-.722.144-1.186.029-2.096-.269-2.412-.7-1.294-.748-.505-.384-.583-.614-1.285-1.641-.455-.883-.128-.527-.376-.835-.168-.892-.099-.979-.019-.681.247-.662-.415-.298-.781-.076-.732-.221-1.364-.653-1.226-.652-.87-.7-.553-.72-.366-.787-1.858-1.967-.504-.969zm-61.456-53.998l1.285-.288 1.058-.115h1.038l1.097.077.939.268.554-.201 1.67-.384.87-.038 1.068.163.88.355.741.393.692.557.524.614.573.978.247.806.099.653-.069.815-.188.989.02.239-.603.96-1.088 1.036-1.097.643-.662.201-.791.087-.366.268-.998.461-.811.24-.682.029-.306-.125-.732.077-.632-.144-.435.153-1.216-.192-1.641-.662-1.384-.652-.969-.633-.533-.49-.653 1.046-.86.825-.85.653-.722.451-.464.191-.88.25h-.979l-.701.336-.692.134h-.692l-.87.259-.633-.038-.623.115-.563-.019-.82-.192-1.286.729-.573.154-.613.46-.87.326-.533.346-.425.172-1.098.298-.86.067-.959-.058-.761-.211-.316.106-.989.057-1.087-.144-.425.164-.84.038-.583.336-1.009.451-.988.172-.85-.124-.999-.307-1.097-.586-1.068-.94-.622-.412-.929-.874-.653-.345-.148.643-.326.758-.603.854-.752.787-.79.614-.851.374-1.68.268-.643-.076-1.532.623-.583.576-.524.326-.296.413-.643.355-.514.182-1.018.077-.801.355-.929.278-.722.537-.79.375-1.038.345-1.009.077-.662-.067-1.067-.221-.732-.288-.573-.48-1.009-.355-.968-.796h-.396l-.395-.202-.465-.575-.613-.346-.563-.163-.475-.307-.642-.729-.514-.691-.178-.355-.672-.23-.672-.441-.623-.653-.653-.95-.484-1.698-.049-.47-.9-.739-.544-.556-.701.182-1.434-.029-.395-.153-1.117.441-.9.192-.642.029-1.345-.317-.83-.249-1.226-.864-.83.192-.732.019-.593-.077-.474-.163-.732.096-.83.02-1.068-.375-.563-.355-.731-.614-.248-.384-.395-.402-.959-1.257-.336-.778-.208-.911-.039-.758.227-.864-.583-.047-1.443-.499-.712-.451-.583-.566-.524-.653-.583-1.381-.06-1.44.248-.988.306-.7.544-.816.524-.451.939-.518.81-.355.85-.144.831-.067 1.423.259 1.216.691.741.719 1.117-1.045.603-.432.613-.345 1.098-.432.603-.115 1.334.163.712.182.247.153 1.512.356.524.201.87.652.593.893.317.873.415.22.672.49.247.297.712.087 1.057.479 1.009.835.79 1.161.208.681.692.806.732.633.138-.076 1.522-.202 1.107-.009.791.096.653.182.266-.048.653-.672 1.097-.633.919-.211.682-.038.781-.221 1.503-.039.603.221.712.182 1.295-.873.425-.192 1.295-.297 1.383-.077 1.424.144.534.115.711.327.702.479v.163l.712 1.065.129-.489.603-1.698.583-.653.148-.595.524-.825 1.344-1.103.89-.336.563-.105 1.177-.02.593.068.87.316.445-.048.939.01 1.295.297.533.173 1.078.067.662.134 1.344.471 1.444.633.731-.24 1.068-.259.623-.058 1.186.154 1.473.787 1.255.124.643.211.612.307 1.068.749 1.839 1.362.741-.786.751-.595.544-.298.168-.24.89-.594 1.097-.413.712-.144.652-.01.603-.211.652-.067 1.315.096.751.211 2.007 1.065.85.681.257.279.672.316.87.662.702.768zM100.574 410.526l-.228-.72-.069-1.132.366-1.564.237-.422.386-.48 1.047-.93.593-.442 1.009-.47.603-.125 1.749.106 1.038.355.85.403 1.651 1.314.771 1.017.376.989 1.769.316.999.394.771.642.454.471.455.585.168.374.455.221.959.882.356.432.583 1.046.198.528.296 1.209.01.45-.247 1.037-.178.93-.593 1.238-1.058 1.065-.761.499-1.048.451-1.077.173-.02-.173-.801.029-1.186-.355-1.028-.47-.979-.778-.771-.815-.375-.537-.346-.883-.139-.7-.85-.998-.514-1.219-.919.106-.811-.135-.81-.249-.495-.25-1.838-1.727-.455-.527-.553-1.161zM26.91 54.298l-.188-.835-.385-1.372-.544-1.286-.04-.825-.474-1.065-.158-1.026-.03-1.382-.306-.182-.593-.567-.584-.729-.385-.739-.257-.815-.03-.49.119-.988-.158-.278-.1-.69.03-.931-.434-.49-.416-.623-.464-.979-.307-1.228.07-.768-.1-.316v-.912l.248-1.18-.237-.73-.83-.402-1.088-.93-.385-.04-.574-.191-.988-.49-1.197-.767-1.047-.835-.643-.604-1.018-.326-1.295-.624-2.313-2.197-.623-.748-1.156-.47-.593-.413-1.038-1.065-.653-.979-.247-.7-.89-.96-.444-.68-.297-.788-.109-.671-.03-.749.228-1.045.208-.71.316-.643.366-.576.563-.604.564-.72.77-.355.95-.115.958-.02.84.039 1.335.345.682.336.662.5 1.375 1.582 1.067-.192.989.125.405-1.525h-.08l.327-2.39.02-.412-.346-.393-.376-.595-.326-.71-.158-.835.03-.883.286-1.43.237-.508-.296-1.266-.959-1.334-.445-.988-.83-.173-.83-.365h5.91l3.026-.01 5.328.116 2.827.02.316.038 8.165.067 4.923.01 7.176-.01 1.8.086 4.556-.153 1.75-.039 5.407.192 2.53-.46 4.558-.096 2.204-.01 6.801.02 7.513.134 6.653-.346 5.812-.297 2.906-.298 1.285.039 1.285.096 2.373.23 1.374.029 1.433.172 2.768-.01 3.025-.038h4.201l3.025-.048 1.393.01 3.134-.02 2.649.01 4.399-.01 2.877-.038 1.433-.038 3.005-.029 4.448-.192 3.934-.096 7.523-.028 1.473-.039 1.473-.076 2.975.047 5.911.144 1.483-.01 5.892.04 1.482.066 2.946.058 1.522.01 2.917.057 1.047.067 2.926.077 2.946.038 1.344-.028 6.238.086 18.445.345 3.905.077 6.247.077 9.105.144 1.403.029 1.206-.058 2.956-.067 3.282.019 4.468-.01 1.532.02 4.359.144 1.493.019 1.572.038 3.954.173 3.43.038 3.015-.057 10.399-.039 3.025.029 4.418-.01 2.926.058 6 .029 1.404-.029 4.3-.038h1.562l12.317.105.029-.057 3.015.01.178.028 2.106-.02 1.265-.057 3.163-.086 1.483-.02 5.012-.019 6.474-.019h2.205l-.01 8.674.01 3.262.069 12.406-.03 2.897-.01 9.48.04.604-.049 9.595-.04 2.168-.02 12.358.01.94-.029 11.35.019 1.354-.01 5.862.01 2.015-.019 7.157.019 5.968-.01 2.188.04 8.136.01 4.279.049 7.714-.01 1.986.149 14.546.009 2.465.05 2.812.03 12.866-.01 6.073-.05 4.193-.01 1.411.02 4.221v2.936l-.03 4.222-.029 1.401v4.221l-.02 4.126.01 2.917-.059 8.52-.04 2.801-.049 4.481v3.003l-.06 3.598-.049 3.886v2.12l-.04 2.217.01 6.889-.019 4.298.029 2.782-.049 2.792-.04 2.792.02 1.737-.049 3.79-.07 2.792-.217 8.405-.03 9.681.06 2.753v1.737l.089 3.665.059 5.968.207 11.945 3.915 3.358 1.364 1.133 4.251 3.665 3.321 2.83 2.204 1.9 12.584 10.832.949.854 2.966 2.514 2.698 2.341 3.065 2.61.79.738 2.195 1.862.84.681 2.086 1.823 2.491 2.226 1.918 1.698.444.326 2.798 2.361 4.112 3.598 2.175 1.842 1.216 1.113 8.313 7.167.128.134 2.066 1.785 1.127 1.084 4.004 3.425 2.194 2.015 3.915 3.262 2.066 1.794 3.558 3.157 1.177 1.008 4.774 4.25 1.977 1.756 1.918 1.592 2.471 2.15 6.722 6.044.336.317 3.786 3.233 5.407 4.778.376.365 7.433 6.591 1.977 1.766 9.273 8.184 5.565 4.951 5.367 4.768 4.211 3.713 1.117 1.065 3.856 3.407.563.46 3.242 2.984 2.472 2.264 2.184 1.737 9.529 8.721 2.936 2.668 2.422 2.005 3.509 3.243 4.043 3.684 3.094 2.696.317.307 2.728 2.447.059-.01 9.47 8.684.356.297 8.017 7.301 1.611 1.363 3.064 2.802 1.661 1.487 2.412 2.226 1.928 1.727 2.995 2.763 3.707 3.368 2.59 2.331.237.182 9.648 8.837 9.4 8.645 15.925 14.593 3.134 2.917.959.844 8.224 7.733.573.461 9.302 8.539 2.906 2.687 9.104 8.462 4.38 4.068 2.668 2.476.416.403 5.832 5.449.514.461 3.005 2.782 7.087 6.63 1.404 1.315 4.982 4.653.089.106 3.677 3.434 6.811 6.381 5.585 5.267 5.002 4.692 6.742 6.352 3.479 3.3 1.849 1.698 3.064 2.946 4.162 3.924.286.355 4.587 4.385 1.285 1.113 1.246 1.237 5.565 5.191.791.768 6.781 6.399 3.153 3.09 1.394 1.238 2.916 2.772 2.422 2.313 2.6 2.523 4.033 3.876 3.44 3.32.306.902v.777l-.395 1.276-.03.912.396 1.276v.556l-.178.72-.079.854.197.844-.019.413-.346 1.093-.109.854.128.96.159.46.365.566.643.614 1.186.653.909.758.416.499.355.671.435 1.161.159.998.197.71.504.931.099.307.406.787.454.633.939.873.761.518.356.393.692.922.475.287.731.288.742.499.267.739.365.192h.415l.435.134.228.489.039.519.218.959.227.48.514.767.089.547.267.307-.168.451-.386.365.08.22.573.432.544.662.138.365-.059.892.197.777.771.614.336.374-.009.73-.238.278-.682.221.06.268 1.008 1.18 1.305.998 1.196 2.389.662 1.19.208 1.19v.825l-.317 1.036-.049.614.109.988-.149.672-.237.595-.01.528.831.901.355.077.594-.067.563-.182 1.246-.154.415.192.267.365.286.652.761.269 1.216.739.475.479.197.346.08.7.326.394.514.201.959.058.355.192.772.921.316.172 1.087 1.027.356.7.267.269.939.307 1.097.096.633.47.425.154.662.46.613.873.831 1.727.059.211 1.235 1.075.198.24-.089.662.089.652.178.691-.079.336.178.729.267.557-.02.211-.306.22-.712-.153-.653.115-.86-.125.02.72-.158.182-.544.173-.178.192-.158.499-.978.815-1.869 1.957-.612.346-.188.297.069.71-.158.442-.198.182-.84.326-.287.346-.741.498-1.078.317-.533-.173-.87.135-.425.326-.445.595-.593.691-.475.7-.949.72-.88.239-.909-.038-.376.125-.257.24-.306.614-.465.441-.968.23-.86.528-.831-.134-.781.144-.326.211-.781.95-.138.374-.475.489-.128.883-.139.499-.128 1.247.059.691.237.681.04.422-.089.873-.158.49-.425.566-.84.47-.653-.115-.306.432.089.316.534.346.079.316-.149.23-.593.087-.188.345-.909.787-.227.47-.821.806-.286.365-.811.422-.346-.096-.534.221-.504.7-.524 1.17-.02.634.129.211.81.355.682.623.455.73.04.374-.336.307-.297.048-.712-.317.07.509.464.662.653.671.434.346.099.719-.059.269-.988.681-.564-.182-.435.23-.049.192.079.652.464 1.142.267.883-.207.566-.406.365.692 1.573.168.796.732 1.814.168.662.03.844-.277.835-.316.662.622.547.257.518.317.269.168.758v.47l-.158.748-.88.441-.336.058-.88.489-.485.586-.138.844.435.518.712.096.227.24-.326.374h-.514l-.415.134-.198.25v.278l.277.413.316.278.119.537-.188.394-.356.182-.02.374.297.547.376.326.029.25-.366.22-.326.384-.484.854-.237.307-.01.758.365 1.218.327.663.257.211.306.556-.474.269-.099.192-.781.479-1.226.883-.207.729-.01.672-.653.671-.84.24-.662.413-.238.278-.375.71-.188.566-.623.845-.346.355-.148.307-.652.949.049.806-.395 1.353-.168.365-.416.48-.622.527-.475.279-.662.057-1.176-.547-1.088.106-.593.249-.188.413-.277.192-.692.096-.701-.058-.396.249.079.413.811 1.075.484.508-.01.528.633 1.372.079.767-.217 1.363-.327.825-.355.585-1.048.797-.485.566-.098.288.612 1.276.406.259 1.789.47.761.336.563.518.356.854-.158.431-.672.499-.376.183-.098.24.514.911.632.835.06.547-.386 1.4.267 1.353-.05.586-.385 1.103.119.585-.257.672-.356 1.132-.218.374-.504.585-.514 1.536-.326 1.439.01.556.099.269.405.153.494.01.435.192-.01.7.158.461.969 1.218-.059.749.109.595.217.345.643.47.346-.105.523-.902.297-.384.168-.019.405.297.752 1.123.296.278.534.192.949.134.633.029.632-.077.376-.172.494-.634.504-.105.524.134.89.096.761.019.919.125.84.211.663.576.385.527.495 1.19.217 1.209.099.892.207.739.218.163.672-.192.306-.259.356.029.307.269.089.547-.02.777-.237.633-.495.662-.276.499.227.931.188.307.84.806.119.451-.03.777-.148 1.218-.06 1.295-.227 2.246-.524.566-1.394 1.362-1.235.595-.386.441-.375.691-.653.643-.207.451-.02 1.487.198.422.187 1.085-.939.019-.01.623-1.917.02-.01.642h-1.305l-.01.643-2.54.039-.06.527-1.018-.124-.306-.096-.92-.096-.672-.125-.889-.038-.969-.231-.84-.134-.633-.537-.326-.106-.267.336-.297.595-.276.24-.485 1.18-2.382.182-12.07.969-6.979.518-9.529.777-9.529.758-9.519.797-6.811.537-5.21.441-7.038.624-2.768.23-6.761.605-3.895.336-5.624.46-2.452.23-5.644.49-1.433.144-3.49.278-3.717.355-1.522.125-.801.115-3.064.268-3.43.288-4.557.432-6.633.614-2.451.211-8.314.806-3.163.269-5.852.575-2.985.279-4.617.451-3.825.355-2.086.211-4.755.431-3.331.384-2.066.211-1.374.077-1.245.144-1.908.182-2.966.326-3.084.26-4.517.46-6.01.47-.386-2.264v-1.602l-.316-1.919-.307-1.363-.395-.959-.771.393-1.018.163h-.396l-1.275-.403-.623-.355-1.571-1.602-.89-1.286-.89-2.945-.356-3.675-.365-6.428-.89-3.128.178-1.66.534-2.025.721-1.842-4.013-15.178-1.245-2.495-.989-1.909-2.313-4.634-2.461-3.09-2.521-2.629-.524-.691-1.008-1.669-2.175-2.264-1.671-1.583-4.141-2.639-.791-.614-.89-1.286-.455-.105-.939-.912-1.453-1.122-2.155-1.862-.929.115h-.731l-.465-.239-1.809-1.891-.83-1.218-.415-.48-.683-.94-.217-.758-.85-.605-.524-.479-.386-.787-.78-.537-.722-.269-2.867-1.756-4.596-2.619-3.035-2.389-2.007-1.468-1.156-.595-1.394-.883-1.236-.94-1.917-1.746-1.631-1.247-.841-1.344-1.403-2.523-3.045.499-2.007.086h-3.42l-1.334 1.382-1.503 1.036-3.42.336-2.007-.336-2.412-1.382-.672-.69-3.252-1.296-2.926-2.158-1.414-2.505-.168-2.331.248-2.073 1.166-1.381 1.423-1.209.505-.605-.257-.863-.831-1.468-1.423-2.159-1.829-2.6-.593-1.238-1.127-1.832-.761-.777-1.147-1.622-.682-.691-.939-.096-.474.115-.811.048-.573-.095-.425.124-.89.039-1.107-.087-.544.135-.83-.01-.959.173-.761.297-.801.115-.929-.067-.712.163-.464.029-.92-.077-.82-.144-.613.288-.83.144-.248.326-.553.48-.564.249-1.126.816-.999.441-.87.202-.85.009-.771-.163-.751-.307-.484-.259-.89-.643-.316-.307-1.305-1.544-1.009-.346-.761-.057-1.384-.231-.82-.057-.415-.096-.672.057-.91-.134-.89-.336-1.215-.182-.406-.105-1.146-.672-2.056-.662-2.323-.403-4.498-.931-3.213-.93-4.498-1.987-2.51-3.895-.317-.278-.958-1.075-1.375-1.746-.899-1.737-.969-2.437-.504-1.343-.899-2.178-.445-.863-.109-.087-1.127-.24-1.018-.431-.9-.432-.8-.643-1.187-1.362-.721-.125-1.315-.374-1.552-.614-1.374-.806-1.305-1.171-1.275-1.804-.751-.355-.662-.47-.267.019-.376-.259h-.366l-1.156-.499-.603-.057-.574-.278-.86-.509-.78-.71-.416.048-.899-.221-.672-.326-.504-.134-.376.182-1.058.087-1.146-.087-1.127 1.104-1.76.921-1.394.614-.652.105-1.216-.326-1.443-.662-.959-.518-1.671-.624-.879-.489h-.673l-.761.499-.553.24-1.127.249-.593.048-.732-.048-.81-.259-.771.144-1.177-.163-.534-.259-1.097-.816-.277-.288-.286-.009-.583-.202-5.566-2.197-.642-.182-1.147-.7-.89-.058-.662-.221-.919.221-1.028.019-.465-.125-.504.164h-.583l-1.345-.317-1.443-.528-.593-.297-.929-.077-.267.096-.979.134-.978-.057-.593.086h-.574l-.84-.192-.998.077-.613.192-1.275.153-.584-.057-1.255.038-1.176.125-.524-.115-.761.23-1.157.201-.939.269-1.176.029-.672.192h-.505l-.909-.106-1.028.231-.465.019-.276.211-1.365.422-1.334.173-.781.316-1.127.183-.375-.029-.969-.221-.494-.249-.989-.144-.979-.432-1.008-.796-.721-.672-.702-1.228-.208-.566v-1.18l-.445-.394-.583-.729-.306-.528-.396-1.036-.089-.527-.543-.164-1.137-.566-.979-.671-.464.134-.692.058-.939-.106-.821.038-.741-.096-1.048-.431-.564-.403-.593-.518-1.008-.749-.465-.575-.336-.634-.286-.22-.396-.48-.306-.576-.366-1.209-.039-.594.089-.835.385-1.19-.109-.777.099-.912.455-1.237.553-.749.574-.604.306-.71.751-2.13.317-1.036.286-.739-.326-.47-.632-.729-.376-.576-.188-.451-.287-.278-.662-1.037-.277-.671-.108-.461.019-1.343.159-.691.524-1.055.168-.557.484-1.343.277-.911.573-2.236-.83-.528-.88-.911-.712-.317-.603-.431-.563-.576-.287-.403-.504-1.142-.237-.863-.04-.787.069-.489.346-1.018.129-.172-.089-.451.02-.892.178-.749.593-1.218.237-.24.217-.921.702-2.447.168-.873.247-.748.198-.989.237-2.849.198-1.305.099-.24-.109-.873-.029-1.056-1.335-.489-.633-.336-.771-.508-.385.221-.603.134-.593.029-.791-.058-.316-.096-.91.048-.781-.134-1.334-.413-.603-.364-.781-.653-.257-.326-.653-.038-1.275-.547-.731-.451-.613-.451-.514-.528-.297-.508-.929-.576-1.344-1.046-.949-.921-.465-.595-.306-.499-.168-.47-.544-.307-.494-.518-.396-.652-.326-.662-.534-1.392-.079-1.132.149-.844.286-.912.178-.844.148-.48.851-1.592.879-2.082.168-.538.228-1.065-.366-1.142-.198-1.276.04-.729.158-.345-.385-.538-1.305-.153-.702-.182-1.315-.643-.969-.691-.405.125-.81.029-.722-.106-1.275-.441-.752-.403-.82-.777-.544-.835-.425-.442-.306-.422-.356-.211-.702-.556-.702-.998-.603-.384-.85-.95-.524-.844-.296-.269-.475-.182-.316-.393-.613-.586-.811-.911-.652-1.18-.672-1.478-.712-1.42-.751-.71-1.058-1.333-1.413-.288-.89-.653-.287-.086-.84-.489-1.008-.125-.811-.432-1.196-.173-1.819-.786-1.028-.72-1.235-1.593-.455-1.228-.03-.499-.128-.326-.435-.384-.989-1.017-.959-2.331.02-.499.119-.451-.158-.557-.01-.403-.475-.614-.464-.93-.158-.547.019-1.228-.474-.173-2.195-1.881-1.275-1.698-.405-.48-.425-.719-.475-.23-1.463-.835-1.482-1.219-1.384-1.89-.475-1.055-.504-.892-.751-1.545-.989-2.437-.504-1.411-.623-.518-1.492-.892-1.256-.518-1.117-.384-.87-.902-1.245-1.794-.751-2.053-.504-1.679-.742-2.313-2.619-3.473-1.256-2.044-.197-.374-.791-.614-.603-.844-.386-.23-.771-.758-.721-.576-.455-.144-1.246-.7-.711-.643-.712-.25-1.176-.23-.722-.259-1.038-.556-.633-.509-1.65-1.132-.702-.787-.317-.499-.454-.978-.129-.432-.346-.307-.425-.528-.801-.585-.672-.403-1.235-1.123-.455-.614-.475-.787-.217-.575-.208-1.247.03-.778.099-.671-.307-.912-.168-1.189-.207-1.123v-1.909l.109-.442-.396-.844-.089-.883-.267-.796-.059-.806-.988-1.42-.238-.547-.267-1.122-.01-.48.099-.739-.435-.374-.286-.442-.336-.786-.376-1.478-.277-.825-.089-.633.03-.595.168-.892.237-.499-.889-1.027-.643-1.094-.405-1.142-.119-.7.02-1.007.109-.49.642-1.199.811-.988.247-.422.227-.653.366-.604.87-.835-2.284-9.431-2.837-11.552-.612-3.263-.406-.067-1.621-.489-2.096-.844-2.174-1.123-.989-.48-1.216-.7-1.631-1.055-3.183-2.246-.751-.7-.356-.614-.326-.864-.247-.844-.247-.585-1.058-.672-.979-1.094-.82-1.007-.732.086h-.978l-.9-.172-.899-.25-.742-.336-.484-.335-.741-.95-.564-1.046-.168-.614-.158-1.228.04-.269-.574-.374-.366-.355-.494-.662-.425-.94-.544-.25-.83-.643-.474-.499-.455-.767-.297-.768-.247-.297-.415-.749-.296-.94-.04-.729-.148-.585-.139-.941-.514-.873-.316-1.218-.069-1.411.178-1.967.435-2.139.781-4.385-.089-.806-1.562-3.579-1.226-2.187-.316-1.008-.178-1.314.01-.441-1.345-.423-.741-.431-.742-.672-.958-1.113-.653-.873-.356-.931-.168-.997-.346-4.289-.524-1.497-.128-1.631.128-1.228.524-1.766.92-2.59-1.048-11.312-.267-1.775-.257-.95-1.839-2.428-1.057-.594-.485-.586-.81-.24-.949-.508-.9-.547-.632-.643-1.246.336-.969.058-.85-.125-.642-.192-.485-.221-.731-.479-.929-.231-1.088-.767-.534-.47-.415-.49-.603-1.132-.148-.528-1.908-.681-.86-.566-.336-.297-.692-.806-.247-.413-.306-.777-.337-1.314-.306-.192-.722-.902-.662-.49-.257-.364-.227-.019-.781-.71-.989-.307-.247.642-.603 1.008-.435.46-.978.768-.455.211-1.166.317-1.77.086-1.265-.086-1.305-.029-.939-.067-1.414-.317-.692-.24-.672-.451-.682-.547-.474-.585-.396-.662-.346-1.074-.138-1.555.039-.796.307-.988.494-.768.83-.873 3.055-8.309.672-2.283-.623-.845-.316-.566-.247-.787-.069-.844-.267-.422-.237-.614-.08-.47-.523-.701-.287-.882-.178-.144-3.737-4.289-.761-.557-.652-.921-.297-.681-.85-1.132-.514-1.42.03-1.516.198-.921.306-.806-.435-.461-.208-.441-.593-.604-.711-1.248-.376-1.266-.524-.537-.633-.317-.642-.518-.593-.681-.603-1.305-.554-.653-.672-1.046-.593-.22-.643-.585-.425-.01-.88-.202-1.195-.46-1.068-.7-.494-.25-1.295-1.046-.81-.94-.495-.94-.524-.125-.02-.24-1.334-.173-.95-.556-1.344-1.833-.454-.71-.346-.863-.386-.729-.83-.845-1.552-1.89-.386-.844-.514-.585-.85-.797-.593-.806-.326-.748-.395-.576-.376-.921-.524-.345-.85-.883-.494-.863-.277-.787-.396-.374-.514-.758-.949-.634-.672-.556-1.344-.633-1.265-.845-.91-.815-.672-.988-.385-1.152-1.157-.796-.613-.125-.84-.451-.494-.336-.653-.585-.87-1.007-.563-.883-.297-.115-1.433-1.094-.751-1.257-1.058-.71-.86-.969-.573-1.535-.96-1.267-1.008-.94-1.225-.998-1.335-1.506-1.047-3.205-.613-1.237-.257-1.977.286-1.506.672-1.219.9-.959.672-.48.573-.278.455-.077.148-.604-.03-1.008.05-.479-.079-.989-.484-.882-.326-1.229-.435-.623-.297-.835-.296-1.295-.475-.892-.178-.509-.524-.863-.454-1.085-.129-1.314-.395-.557-.97-1.928-.899-1.554-.138-.384.05-.269-.455-.921.02-.441-.1-1.065-.158-.614-.069-.893-.366-.863-.375-.605-.277-.767-.138-.739-.159-.403-.217-1.324-.455-.94-.415-1.89.04-.874-.406-.537-.514-1.199-.158-1.43.07-.422-.139-.672-.05-1.055.07-.499.415-.95-.128-1.084-.02-.796.296-.931.1-.604-.16-.854.03-.893.11-.863.74-2.226.248-.605-.05-.268v-.844l.198-.787.356-.566.326-.288.484-.278.346-.068.465-.959.732-1.765.178-.567-.386-.7-.089-.374-.652-1.718-.238-1.352-.069-1.075.03-1.055.119-1.651-.07-1.4-.148-.355-.198-1.382-.02-.988-.355-.211-1.404-1.171-.771-1.055-.217-.461-.188-.633-.119-.672-.227-2.005-.228-1.027-.059-.69.109-1.085.118-.412.01-.749-.375-.758-.356-1.084-.761-.508-.267-.298-1.117-.671-.801-.739-.633-.883-.672-1.228-.544-.873-.395-.969-.168-.835-.158-.432-1.394-.911-.642-.729-.505-1.315-.553-.796-.415-.787-.495-.7-.939-.95-.257-.461-.949-1.055-1.146-1.506-.584-.077-.77-.192-.93-.365-.504-.345-.573-.614-.257-.47-.544-.605-.603-1.074-.227-.691-.09-.585.01-1.612.08-1.113-.168-.326-.791-.979-.93-.432-2.737-1.074-.999-.48-1.008-.672-1.226-1.688-.8-1.027-.347-.326-.75-.854-1.197-.384-1.68-1.545-1.82-1.314-1.106-1.075-1.552-1.449-.81-.93-1.029-.672-.79-.796-.604-.701-.78-1.151-.416-1.228-.188-1.66.1-2.12.454-1.296.277-1.18-.02-.431-.524-1.248-.188-.7.01-1.823-.128-.71-.989-.902-.168-.211L2 158.37l-.682-1.094-.475-.901-.148-.615-.109-1.151.218-1.199.247-.691.405-.604.366-.394.751-1.362.257-.883-.03-.652.08-1.536.326-1.372.978-1.842.584-1.314.553-1.459.603-1.938.653-1.573.533-1.142 1.542-3.166.554-1.209.613-1.094 1.364-2.725.672-.988.514-.854.564-1.084.652-1.075.92-1.813.177-1.228.336-.691.465-.768.484-.393 1.098-1.967.672-1.276.81-1.353.247-.575.801-1.603.158-.547.712-1.717.474-1.372 1.315-4.318.247-1.093.356-1.209.544-2.677-.623-.317-.573-.393-.504-.5-.346-.517-.267-.614-.158-.605-.682-.969-.317-.758-.138-.547-.09-1.074-.385-.605-.257-1.093-.603-.922-.187-.844-.05-.93.109-.97-.208-.834-.04-.528.248-1.286.376-1.103.306-.509.662-.729.92-.662.612-.316.633-.25.583-.115.366-1.65.445-1.574.642-1.938.1-.537v-1.046l.286-1.266.366-.94.168-.644.276-.7-.207-.384-.633.154-.652.048-.81-.058-.87-.297-.594-.298-.751-.518-.79-.806-.446-.662-.257-.633-.197-.816-.02-1.046.198-1.112.355-.912.307-.499.514-.585.939-.748.702-.346 1.087-.336.92-.105 1.156.134.989.297.642.413.237-2.072.119-1.612.158-1.295-.237-.94-.04-.49.02-1.746z" class="California"/>
  </g>
</svg>
