<?xml version="1.0"?>
<svg xmlns="http://www.w3.org/2000/svg" version="1.2" baseProfile="tiny" width="800" height="923" viewBox="0 0 800 923" stroke-linecap="round" stroke-linejoin="round">
<g style="mix-blend-mode:screen" class="CA_Counties_TIGER2016">
<path d="M 335.2 235.68 336.83 235.55 345.33 235.57 345.32 234.2 346.46 234.2 346.48 245.77 346.36 257.35 346.25 261.94 335.29 261.93 327.19 261.83 307.57 261.84 305.33 260.01 305.36 258.11 304.21 257.01 303.67 255.12 302.04 254.14 300.48 254.39 295.74 254.08 294.27 254.7 293.64 255.73 292.43 256.29 291.45 258.29 289.68 259.44 288.28 261.18 284.09 262.83 280.39 262.94 279.92 263.39 277.62 264.03 276.17 263.96 274.7 264.73 272.74 264.87 271.61 264.55 270.01 265 268.87 266.53 267.74 267.28 266.79 255.01 265.69 254.75 264.96 252.75 265.79 251.59 267.57 250.55 268.72 242.51 270.52 241.97 272.23 239.95 273.35 239.19 274.52 236.28 274.51 232.56 276.09 230.71 277.52 230.44 279.35 228.77 280.28 229.38 281.75 231.73 283.86 232.2 283.96 233.9 285.27 234.6 285.61 235.39 287.2 234.64 288.76 234.48 289.95 235.62 290.99 235.66 292.96 237.27 294.06 238.76 295.66 237.83 296.1 235.78 310.67 235.8 312.13 235.58 335.2 235.68 Z" data-name="Sierra" data-geoid="06091"/>
<path d="M 258.58 334.75 259.17 335.4 260.3 334.24 262.86 341.08 264.01 345.05 267.33 354.84 267.36 375.31 265.58 376.15 264.45 375.39 262.95 376.68 260.44 377.56 259.6 377.55 258.11 378.88 256.1 379.74 254.48 379.68 253.77 380.37 252.29 380.8 250.36 380.7 248.76 380.02 247.36 380.54 246.88 381.34 242.92 382.38 239.41 381.91 238.94 382.41 237.03 381.5 236.37 379.79 234.72 379.79 233.14 379.27 232.44 379.9 231.54 382.44 230.32 382.94 230.57 383.92 229.92 384.9 228.65 385.76 229 387.62 228.12 389.86 226.41 390.62 226.48 391.12 225.01 392.11 224.42 392.98 224.67 393.88 225.83 394.44 224.73 395.5 222.81 394.97 221.08 395.12 220.25 396.32 218.42 395.39 217.56 395.59 216.88 396.72 216.91 398.75 215.5 400.32 212.56 402.14 209.51 402.9 206.74 402.74 205.29 401.7 204.56 399.66 203.64 398.41 202.96 398.28 204.44 397.24 205.62 398.27 208.05 398.79 212.15 396.21 213.03 396.66 214.41 396.47 214.83 395.79 214.98 393.8 216.09 391.71 216.59 389.11 218.34 386.93 220.73 385.71 222 385.58 223 383.15 223.13 377.46 222.78 375.79 223.71 374.05 223.97 373.11 224.99 372.64 226.27 371.2 228.03 370.66 229.23 369.43 229.11 367.42 229.8 366.65 229.63 364.79 228.4 362.62 230.67 361.5 230.82 360.57 230.22 358.34 227.91 358.15 226.34 355.86 226.9 354.3 228.96 353.79 228.7 352.5 230.03 351.1 229.28 349.14 230.42 347.15 230.23 346.12 228.77 345.35 227.05 345.86 226.41 344.99 225.88 341.63 225.03 341.01 223.65 341.45 222.45 339.77 221.03 338.42 220.56 337.02 220.84 336.17 222.74 334.12 222.97 332.39 229.22 332.33 232.1 332.51 246.6 333.75 257.74 334.8 258.58 334.75 Z" data-name="Sacramento" data-geoid="06067"/>
<path d="M 387.55 780.21 385.68 787.65 384.15 789.6 382.56 790.75 381.2 791.21 377.22 791.97 374.55 791.83 372.05 793.23 369.09 794.42 366.48 794.21 362.78 794.44 360.17 795.44 358.3 794.99 357.19 794.38 353.88 791.7 353.4 793.16 352.03 794.87 350.37 795.9 348.02 796.1 346.47 796.75 345.05 798.12 341.1 799.42 338.52 800.73 335.75 800.51 333.41 799.34 331.16 797.7 329.49 796.85 328.14 795 326.78 794.3 325.49 792.63 324.95 790.37 323.49 789.02 320.93 789.02 318.24 789.71 316.04 789.12 314.8 788.22 313.22 788.44 310.56 788.31 308.17 786.91 306.55 784.78 305.96 782.23 306.19 781.33 304.14 780.76 302.3 779.02 301.71 777.58 301.65 776.08 302.21 774.32 303.29 773 305.06 772.09 306.76 771.87 308.2 772.14 310.18 773.61 312.54 771.71 314.26 771.14 315.61 771.31 318.64 772.24 319.52 772.92 320.44 774.76 321.79 775.81 323.58 776.4 324.6 777.27 325.61 779.19 327.05 780.69 328.73 780.4 331.58 780.63 333.35 779.27 335.76 778.78 337.28 778.74 338.61 779.16 340.35 778.05 343.06 777.66 345.04 777.93 346.47 778.94 347.19 780.05 347.93 777.77 349.2 775.61 350.56 774.46 352.03 774 356.1 774.34 359.71 775.04 362.53 776.19 364.35 775.67 366.18 775.77 367.67 776.59 370.21 777.26 373.15 779.46 376.28 776.84 377.39 776.41 380.04 775.96 382.13 776.28 384.16 777.39 386.84 779.41 387.55 780.21 Z M 414.47 832.45 415.26 830.67 417.74 829.2 421.79 828.75 423.57 829.13 425.01 830.21 426.26 832.45 426.51 834.92 426.2 836.34 425.14 839.05 423.95 839.85 421.55 840.5 419.55 840.67 418.1 840.41 416.38 839.21 415.24 836.96 415.37 832.45 414.47 832.45 Z M 292.36 692.54 296.5 694.93 297.65 696.34 300.12 695.1 301.4 695.62 302.2 694.58 303.76 695 305.02 694.07 308.29 693.18 312.97 693.78 318.69 697.57 321.23 699.52 322 701.28 323.27 701.42 324.02 699.09 323.26 695.98 321.32 693.81 320.75 691.94 321.58 690.91 322.65 691.67 327.1 689.81 327.99 690.43 329.46 690.54 332.04 689.6 332.29 687.98 333.62 685.45 335.52 684.8 335.57 683.49 336.56 683.65 337.32 682.94 339.07 682.22 340.96 682.68 341.35 683.43 345.46 684.87 348.41 687.05 350.96 687.41 352.06 686.91 353.96 688.95 355.05 688.71 357.76 689.51 358.56 691.08 359.59 691.99 361.19 692.34 362.79 693.6 363.47 693.41 366.16 695.01 368.33 695.19 369.63 694.73 371.76 695.04 373.97 696.91 376.14 697.19 377.96 698.65 379.05 699.89 382.33 702.17 385.83 702.18 387.19 701.83 389.53 701.82 389.55 713.53 389.61 716.47 389.53 727.25 389.54 743.58 389.68 744.89 388.62 747.1 389.3 747.97 388.81 749.08 387.21 750.31 385.02 755.63 383.59 754.77 380.79 753.94 378.55 752.38 376.03 751.72 373.42 751.91 372.28 753.06 369.09 754.66 367.2 754.43 362.19 752.04 359.04 753.07 356.1 752.95 354.37 752.51 352.98 751.36 352.1 751.14 346.47 748.85 344.66 747.93 343.09 747.64 339.55 747.93 336.13 746.74 331.76 746.93 330.91 746.73 327.99 747.17 324.41 747.16 321.52 747.89 318.22 748.01 315.05 748.93 311.77 749.63 308.91 748.96 307.92 748.51 306.17 746.98 305.25 745.11 305.25 743.88 303.9 742.16 303.41 740.53 300.72 739.07 299.55 739.27 297.02 739.1 295.96 738.65 293.77 736.91 292.27 734.92 291.59 733.06 292.03 730.33 292.02 728.57 292.48 727.28 293.62 725.87 295.3 721.06 292.8 717.37 292.41 716.19 292.59 714.07 293.12 712.97 294.64 707.71 292.91 706.21 291.58 705.43 290.72 704.41 289.97 702.32 290.48 699.75 290.59 697.57 291.43 696.05 292.36 692.54 Z" data-name="Santa Barbara" data-geoid="06083"/>
<path d="M 340.95 354.69 340.95 360.87 342.41 360.03 345 362.21 344.24 363.08 340.87 364.17 339.76 365.17 337.49 365.42 336.08 365.89 332.93 368.11 330.73 372.42 329.38 373.39 327.83 376.01 326.78 376.74 325.71 378.17 325.3 379.37 324.16 380.85 324.09 381.82 322.83 382.76 322.08 384.44 320.37 386.73 320.26 387.94 319.04 388.78 317.54 390.78 316.69 393.39 314.97 394.67 314.58 396.73 313.33 397.56 313.31 398.75 311.55 400.7 310.51 403.42 308.61 403.65 308.01 405.19 305.47 405.51 305.86 407.59 306.64 408.14 306.84 409.31 305.28 410.18 305.12 411.84 303.15 413.31 302.54 415.03 301.25 414.99 299.59 417.19 297.68 418.37 297.4 419.53 296.18 421.18 289.14 413.31 288.51 412.24 282.34 405.35 279 401.92 275.12 397.17 274.16 396.1 270.9 385.89 269.79 382.66 271.6 383.39 273.04 382.57 274.29 383.12 276.17 382.26 277.71 383.04 278.78 381.15 280.44 380.51 281.26 378.85 284.09 377.1 285.6 376.46 287.39 376.29 288.59 375.73 289.62 374.57 293.16 373.57 295.13 372.24 296.69 371.94 298.77 369.66 299.2 368.21 299.14 366.55 299.58 365.83 302.27 365.32 302.77 364.03 304.92 363.27 305.67 363.65 307.64 361.63 308.02 360.81 309.08 361.01 312.02 360.24 312.31 359.46 313.91 358.29 314.75 358.75 316.73 358.99 317.3 359.5 318.63 358.94 320.47 358.87 323.06 358.41 323.9 357.89 325.79 357.85 326.5 356.97 327.91 357.12 330.68 355.56 333.87 356.23 335.56 355.86 336.89 356.07 340.95 354.69 Z" data-name="Calaveras" data-geoid="06009"/>
<path d="M 374.58 853.41 374.77 851.9 375.38 850.45 376.66 849.24 377.96 848.54 380.08 848.37 381.28 847.89 383.14 847.7 385.02 848.23 390.78 851.02 394.36 853.9 395.81 856.26 395.83 858.16 394.66 860.86 393.22 861.9 390.2 863.18 386.73 863.48 384.3 863.14 379.37 861.38 376.97 859.5 375.44 857.15 374.97 855.99 374.58 853.41 Z M 385.68 787.65 387.55 780.21 389.92 779.79 393.03 780.15 395.28 779.54 397.24 779.67 398.88 780.45 400.11 781.67 401.04 784.21 400.8 786.34 399.09 788.42 397.98 789.09 396.51 789.39 394.31 790.4 390.26 790.19 387.2 788.82 385.68 787.65 Z M 385.02 755.63 387.21 750.31 388.81 749.08 389.3 747.97 388.62 747.1 389.68 744.89 389.54 743.58 389.53 727.25 389.61 716.47 389.55 713.53 389.53 701.82 394.18 701.86 394.15 703.85 402.29 703.85 402.18 705.96 404.85 705.93 404.85 710.01 417 710.15 425.43 710.19 425.43 712.21 432.78 712.22 438.05 725.48 443.53 738.91 451.64 758.91 451.97 761.55 451.97 763.7 449.26 763.7 449.22 770.43 439.91 770.43 428.19 779.13 427.36 786.75 424.77 786.09 423.61 785.39 421.53 784.7 414.63 783.31 411.38 782.34 406.83 780.27 404.29 776.21 401.61 772.98 400.7 771.17 398.3 764.96 397.74 763.97 394.66 762.82 392.65 760.73 390.59 760.21 387.63 758.73 386.31 757.51 385.02 755.63 Z" data-name="Ventura" data-geoid="06111"/>
<path d="M 449.26 834.53 449.56 832.45 451.08 830.48 453.54 829.5 456.08 829.82 460.39 829.66 462.7 831 464.58 831.25 465.51 831.81 467.06 833.43 468.29 834.13 469.65 834.37 473.03 835.69 475.7 837.81 476.76 839.37 477.1 841.03 480.48 844.42 481.84 847.38 482.15 849.72 481.77 851.74 480.75 853.45 479.09 854.69 477.39 855.44 475.45 855.71 472.72 855.06 471.01 854.11 469.7 853.88 467.77 854.06 465.65 853.78 463.21 853.05 460.8 851.23 459.5 849.52 458.53 847.18 458.07 843.52 456.54 843.21 453.92 841.85 453.04 841.12 452.11 839.55 450.23 837.5 449.26 834.53 Z M 448.42 876.12 448.65 874.01 449.55 872.4 451.29 871.01 452.96 870.57 456.15 870.61 458.94 871.76 460.36 873.03 462.53 876.12 463 877.57 466.13 882.06 467.76 883.18 470.13 885.66 472.79 887.72 476.26 891.06 477.82 892.77 478.38 894.21 478.38 895.94 477.39 897.93 475.77 899.34 473.48 900.04 471.56 899.64 470.47 900.71 469.25 901.32 467.08 901.49 465.75 901.02 464.2 899.95 461.6 897.19 459.24 895.74 458.09 894.27 457.37 892.37 454.71 888.61 454.07 886.95 453.8 885.19 452.48 883.39 451.74 881.71 451.03 878.54 449.07 878.54 448.42 876.12 Z M 432.78 712.22 433.1 711.04 434.85 711.05 434.87 709.67 458.54 709.61 462.99 709.66 476.94 709.45 485 709.44 501.68 709.21 509.9 709.22 518.09 709.15 526.38 709.22 526.4 734.02 526.92 734.04 526.97 744.02 528 759.15 525.52 771.01 524.88 773.23 521.1 784.36 518.65 783.9 518.66 785.66 517.3 785.64 515.96 788.36 516.64 789.05 516.65 790.38 517.44 791.07 512.15 791.03 502.55 791.1 502.54 795.12 501.19 795.8 499.85 797.15 498.51 797.86 496.85 800.03 496.19 800.38 495.86 802.85 494.21 804.37 493.3 806.53 493.64 808.52 492 809.58 491.52 810.5 491.03 814.2 487.95 814.72 482.46 814.81 481.11 816.25 479.59 817.33 476.13 817.68 474.1 817.33 471.66 815.89 470.98 815.17 467.69 813.82 464.73 811.57 463.3 808.96 463.13 806.53 463.38 804.37 466.51 801.04 466.25 800.14 463.97 796.36 462.12 793.65 460.38 790.45 457.76 787.23 452.48 787.28 448.54 788.02 446.41 788.15 444.65 787.92 443.19 788.37 440.67 790.32 438.78 790.99 437.14 790.83 434.67 789.25 433.35 787.64 432.33 787.28 427.36 786.75 428.19 779.13 439.91 770.43 449.22 770.43 449.26 763.7 451.97 763.7 451.97 761.55 451.64 758.91 443.53 738.91 438.05 725.48 432.78 712.22 Z" data-name="Los Angeles" data-geoid="06037"/>
<path d="M 104.88 375.7 104.36 374.22 104.39 372.64 104.9 370.84 103.65 369.27 102.55 366.65 100.73 365.22 98.28 361.38 97.03 360.54 94.5 359.84 91.61 357.76 90.29 355.8 87.43 354.66 85.61 352.01 84.87 350.35 82.46 347.5 82.07 346.62 80.09 344.34 78.98 342 77.59 340.72 76.81 339 75.89 337.82 72.89 335.92 70.69 334.19 69.62 331.96 66.49 330.19 74.11 329.17 75.48 329.2 76.77 328.19 81.02 328.34 86.87 328.31 86.85 325.39 94.3 325.22 104.75 325.14 104.72 322.14 108.99 322.25 109.01 320.86 113.12 320.81 114.72 320.97 129.01 321.08 130.01 322.42 131 322.4 132.2 323.39 133.78 325.21 134.63 325.63 134.67 327.25 135.66 328.26 136.84 330.64 137.48 330.92 137.58 332.76 138.31 333.08 139.01 334.85 140.52 335.31 142.5 335.32 143.05 337.01 144.13 338.46 143.98 339.14 144.23 340.89 143.47 342.16 143.91 343.53 142.53 345.89 143.74 347.87 143.62 348.77 144.49 349.72 145.84 349.87 148.1 351.68 148.42 352.71 150.42 353.69 150.34 356.03 151.38 357.78 152.55 358.53 153.24 359.87 155.11 360.32 155.35 361.27 154.47 362.12 154.15 363.19 156.07 365.02 156.43 366.45 157.82 367.54 157.05 368.65 159.41 370.51 161.93 374.87 161.24 375.42 161.16 377.16 163.47 380.79 164.6 382.16 164.66 384.17 165.34 385.1 164.56 385.64 164.71 386.92 163.85 387.52 163.74 389.3 161.76 388.93 160.99 389.5 162.45 392.52 165.56 397.58 157.51 395.1 153.59 393.68 152.79 391.8 150.33 389.19 147.77 386.76 146.66 386.25 145.82 387.03 142.32 387.01 140.92 386.16 139.89 386.17 138.28 385.54 136.61 384.45 135.31 384.46 122.83 373.67 119.36 374.24 117.87 373.67 115.66 374.73 115.05 375.76 105.53 375.77 104.88 375.7 Z" data-name="Sonoma" data-geoid="06097"/>
<path d="M 379.45 551.11 382.9 551.1 382.87 559.48 387.03 559.53 386.98 564.3 387.05 572.16 382.83 572.08 382.84 584.68 382.29 584.68 382.3 601.32 382.18 604.05 382.15 617.86 373.79 617.78 364.05 617.81 355.19 617.9 346.17 617.93 331.57 617.9 330.05 617.89 329.53 615.01 327.28 614.03 326.55 612.59 327.58 610.77 327.79 609.49 325.28 606.8 322.25 606.68 331.43 597.84 337.72 591.93 349.69 580.53 349.69 559.53 355.53 559.43 365.49 559.43 366.04 558.05 368.74 557.76 369.28 557.02 371.11 556.78 372.27 557.8 379.45 551.11 Z" data-name="Kings" data-geoid="06031"/>
<path d="M 530.72 847.78 531.64 843.99 533.23 836.71 534.81 836.92 536.32 836.55 538.54 835.07 538.53 831.99 549.75 831.98 549.23 833.32 559.2 837.17 559.23 838.73 566.91 838.68 570.21 838.89 575.45 838.91 575.45 839.2 581.96 839.14 590.41 839.21 607.3 839.16 616.31 839.21 628.45 839.15 639.69 839.02 644.91 839.28 648.36 839.29 648.36 847.3 648.66 860.96 648.67 871.66 646.96 871.68 646.99 878.54 646.93 893.36 646.97 903.65 646.78 903.65 646.74 913.53 616.44 916.44 613.24 916.72 588.84 919.12 575.8 920.5 568.11 921.25 562.03 921.74 561.64 919.38 561.64 917.71 561.01 914.29 560.61 913.29 558.4 913.87 556.48 913.08 553.99 910.07 553.09 907 552.73 903.17 552.36 896.47 551.46 893.21 551.64 891.48 552.91 887.45 548.85 871.63 544.25 862.21 541.76 858.99 539.21 856.25 537.66 853.79 533.77 849.78 530.72 847.78 Z" data-name="San Diego" data-geoid="06073"/>
<path d="M 346.06 274.77 346.04 279.11 346.35 299.54 335.47 299.56 334.75 300.25 334.75 301.69 333.82 302.41 332.39 302.43 332.35 303.16 328.03 303.17 328.01 303.89 321.25 304.01 312.99 303.42 312.22 304.49 311.55 306.74 310.23 309.65 309.06 310.32 308.44 311.95 307.04 313.06 304.5 313.5 303.65 314.64 302.42 314.72 301.28 313.74 301.26 313.03 299.3 311.88 297.01 311.75 294.68 310.34 293.9 309.3 293.51 307.23 292.27 308.1 291.32 307.56 290.25 305.84 289.37 306.09 288.13 305.47 287.16 305.54 285.01 306.63 283.92 306.22 282.96 306.95 282.23 309.02 280.97 308.62 280.85 310.25 280.32 310.97 277.89 310.24 277.16 310.86 274.48 309.82 274.18 312.62 272.68 312.28 272.07 312.92 270.3 313.37 269.37 314.38 267.99 314.34 266.13 315.31 265.37 316.13 266.04 317.06 264.93 317.7 265.34 319.28 264.69 320.08 265.01 320.97 262.71 322.75 263.04 323.77 262.24 324.68 261.51 327.48 260.25 329.43 260.39 330.22 259.55 332.61 259.08 334.74 258.58 334.75 257.74 334.8 246.6 333.75 232.1 332.51 232.1 330.86 233.23 330.83 233.26 313.57 237.5 313.55 237.47 306.59 238.79 305.65 241.26 303.08 241.82 303.24 243.56 302.38 244.79 301.43 245.97 301.03 247.07 302.57 247.9 302.8 250.87 304.11 251.71 303.94 252.35 305.05 255.08 304.96 257.69 303.58 258.81 302.47 261.34 305.03 262.49 304.82 263.25 305.55 266.24 304.87 267.21 302.42 268.81 301.07 268.9 300.16 269.99 298.82 270.5 296.08 272.06 293.53 273.37 292.57 274.31 291.2 276.29 289.94 277.39 288.7 279.56 288.28 280.65 285.47 282.24 284.55 283.58 283.39 284.54 283.05 286.02 281.57 288.21 279.97 288.93 278.91 290.43 277.6 291.78 277.15 292.39 276.43 293.94 275.72 296.53 275.27 296.75 274.9 309.5 274.8 346.06 274.77 Z" data-name="Placer" data-geoid="06061"/>
<path d="M 145.15 422.8 151.48 422.78 151.99 421.88 154.15 422.1 160.07 419.16 159.02 411.61 163.53 416.11 165.62 423.21 170.63 433.24 155.97 433.23 148.01 433.38 147.54 428.17 147.01 425.33 145.15 422.8 Z M 101.86 427.04 102.22 425.03 102.85 424.09 104.51 422.66 106.14 422.04 107.91 422.15 109.82 422.94 111.49 424.31 112.65 426.4 115.45 427.14 119.11 430.9 119.7 431.99 120.21 434.27 119.78 436.32 119.18 437.61 118.11 438.72 116.28 439.71 115.19 439.89 113.16 439.37 111.13 438.07 109.97 436.66 109.48 435.01 108.1 432.7 106.35 432.67 105.03 432.15 102.71 429.8 101.86 427.04 Z" data-name="San Francisco" data-geoid="06075"/>
<path d="M 104.88 375.7 105.53 375.77 115.05 375.76 115.66 374.73 117.87 373.67 119.36 374.24 122.83 373.67 135.31 384.46 136.61 384.45 138.28 385.54 139.89 386.17 140.92 386.16 142.32 387.01 145.82 387.03 146.66 386.25 147.77 386.76 150.33 389.19 152.79 391.8 153.59 393.68 157.51 395.1 165.56 397.58 163.37 400 162.07 402.1 158.31 407.3 158.35 408.91 159.02 411.61 160.07 419.16 154.15 422.1 151.99 421.88 151.48 422.78 145.15 422.8 143.59 421.57 140.9 420.22 140.26 419.55 139 419.9 137.16 419.83 134.34 418.66 132.28 416.86 131.52 415.13 129.59 414.42 127.68 412.68 126.78 410.07 123.79 407.28 122.79 406.96 121.93 408.68 120.5 409.96 118.86 410.51 117.07 410.6 113.52 410.41 111.39 409.83 110.02 408.79 108.79 406.37 108.69 403.92 109 402.89 110.34 401.18 113.43 392.52 114.11 390.14 113.16 388.67 112.25 385.4 111.25 383.6 107.47 379.13 106.7 378.55 104.88 375.7 Z" data-name="Marin" data-geoid="06041"/>
<path d="M 316.65 440.53 316.66 440.5 317.62 438.69 316.06 436.74 316.73 435.52 318.3 435.91 319.71 436.84 321.41 439.01 322.66 438.33 322.93 437.41 321.08 434.23 319.91 431.62 322.22 430.75 324.47 431.15 324.44 430.11 326.13 430.53 327.01 429.09 328.08 428.8 328.07 427.86 331.04 427.88 331.97 427.42 332 426.22 332.99 424.46 334.11 425.54 336.73 426.09 337.62 424.95 338.78 424.22 339.69 423.07 339.57 422.15 340.41 421.48 342.11 421.96 342.28 423.02 344.49 423.13 346.66 424.66 349.25 425.96 351.29 427.89 353.08 427.93 353.71 428.39 355.42 428.12 357 427.02 357.95 428.41 359.81 427.39 360.36 428.21 361.54 428.23 364.35 427.1 365.74 426.89 366.12 425.95 368.92 424.92 369.83 425.3 370.33 424.33 372.2 424.17 373.23 423.27 373.46 422.26 372.93 420.96 373.82 419.72 375.18 419.68 377.43 418.44 378.58 416.85 378.43 415.49 380.01 414.36 382.47 414.24 383.26 415.82 383.91 416.05 384.73 417.49 386.87 418.47 388.83 417.35 391.1 418.65 392.24 418.93 392.44 420.65 394.05 420.73 396.48 421.72 396.27 423.13 398.83 424.87 399.56 424.86 399.82 426.44 397.03 429.15 378.65 447.63 378.6 454.02 376.21 454.02 376.19 457.24 373.44 457.25 373.43 461.48 364.91 461.55 360.49 465.98 346.47 480.18 342.53 484.23 341.75 482.79 339.36 480.41 335.45 478.8 333.32 477.11 332.38 475.77 332.46 473.74 332.07 472.81 330.85 471.62 329.85 469.29 327.61 465.47 326.03 463.15 324.61 460.14 325.34 458.98 324.99 457.59 323.48 454.58 322.53 453.77 321.98 451.51 316.65 440.53 Z" data-name="Mariposa" data-geoid="06043"/>
<path d="M 243.87 86.12 249.85 86.07 269.38 86.07 295.15 86.12 298.69 86.06 346.55 86.11 346.55 104.94 346.64 127.99 346.85 148.65 346.87 168.39 346.7 208.17 346.46 234.2 345.32 234.2 345.33 235.57 336.83 235.55 335.2 235.68 335.24 232.79 336.69 232.82 336.7 231.34 337.32 229.86 338.01 229.85 338.23 227 338.21 218.26 338.88 218.26 338.87 215.33 338.15 215.33 338.16 212.4 336.78 212.4 336.77 211.57 334.64 209.48 333.93 209.47 333.94 207.95 333.18 207.94 333.2 206.49 332.48 206.47 332.47 204.97 331.03 204.96 331.02 202.01 330.28 202.01 330.38 197.66 327.51 197.68 327.52 195.45 326.06 195.46 325.33 194.75 320.22 194.71 320.22 193.97 318.74 193.98 317.29 193.27 317.31 192.16 315.83 192.15 315.09 191.47 315.12 189.98 314.4 189.24 312.9 189.23 311.53 187.03 311.52 185.58 309.32 185.57 309.35 184.12 308.61 184.11 308.63 182.65 307.17 182.66 307.16 181.22 305.7 181.19 304.24 180.48 304.24 179.74 302.08 179.72 302.07 177.53 298.53 177.5 298.54 176.76 297.01 176.75 296.26 175.28 290.54 175.21 290.53 174.45 287.61 174.44 286.89 175.91 285.12 175.96 285.17 178.31 283.71 179.02 282.26 179.02 282.24 180.49 280.77 181.94 279.33 181.96 279.33 186.22 277.88 186.22 277.88 186.96 274.95 186.97 274.99 185.51 273.52 185.5 273.6 184.06 269.16 184.04 269.14 182.63 266.25 182.65 266.25 180.46 264.71 180.46 264.76 172.34 264.71 161.23 244.17 161.35 244.26 156.06 244.55 156.06 244.55 147.22 244.69 130.42 244.68 116.29 244.78 114.53 243.83 114.58 243.93 111.61 243.87 86.12 Z" data-name="Lassen" data-geoid="06035"/>
<path d="M 161.89 319.69 162.66 320.85 165.47 322.48 167.2 321.5 168.04 322.14 170.15 322.09 171.23 325.11 172.33 327.04 173.07 330.47 174.35 332.19 175.16 335.49 176.3 336.37 176.95 337.58 177.04 338.94 178.22 340.16 179.38 340.35 179.82 342.58 179.37 343.9 180.7 343.64 181.56 344.83 183.56 351.93 183.75 353.29 184.39 354.35 184.27 356.57 182.82 360.82 182.61 362.66 183.9 365.05 185.48 367.01 186.69 369.35 187.08 371.43 187.62 372.43 187.36 373.77 176.47 373.79 177 375.33 176.66 376.03 177.83 378.12 175.99 378.01 175.93 379.35 177.18 379.42 176.52 380.77 177.24 382.17 177.4 383.82 176.49 384.35 176.48 385.52 175.77 387.14 177.01 389.14 175.89 389.58 160.99 389.5 161.76 388.93 163.74 389.3 163.85 387.52 164.71 386.92 164.56 385.64 165.34 385.1 164.66 384.17 164.6 382.16 163.47 380.79 161.16 377.16 161.24 375.42 161.93 374.87 159.41 370.51 157.05 368.65 157.82 367.54 156.43 366.45 156.07 365.02 154.15 363.19 154.47 362.12 155.35 361.27 155.11 360.32 153.24 359.87 152.55 358.53 151.38 357.78 150.34 356.03 150.42 353.69 148.42 352.71 148.1 351.68 145.84 349.87 144.49 349.72 143.62 348.77 143.74 347.87 142.53 345.89 143.91 343.53 143.47 342.16 144.23 340.89 143.98 339.14 156.59 335.42 160.82 328.39 160.57 327.45 161.67 325.65 163.1 325.84 163.56 324.36 162.9 322.7 161.21 320.54 161.89 319.69 Z" data-name="Napa" data-geoid="06055"/>
<path d="M 153.93 86.24 163.35 86.22 167.85 86.02 180.97 86.05 182.63 86.21 192.27 86.17 218.84 86.17 226.1 86.12 235.02 86.16 243.87 86.12 243.93 111.61 243.83 114.58 244.78 114.53 244.68 116.29 244.69 130.42 244.55 147.22 244.55 156.06 244.26 156.06 244.17 161.35 242.73 160.91 241.22 161.29 238.5 161.24 231.08 161.32 225.88 161.3 224.96 161.64 224.07 162.74 222.5 162.06 220.14 162.21 216.58 160.56 214.76 160.8 212.84 162.33 209.58 162.12 208.73 161.52 207.27 161.39 204.81 162.14 203.84 161.63 201.82 162.2 199.91 163.81 198.81 163.4 196.9 164.39 196.14 164.02 191.56 163.25 189.61 163.95 184.28 164.91 182.38 166.07 180.06 166.25 177.37 166.85 177.02 167.86 172.99 167.24 172.62 167.97 170.7 168.39 169.67 167.92 168.42 168.87 167.6 168.49 165.83 168.89 164.22 168.56 160.54 168.52 159.79 168.04 158.04 168.63 156.65 168.4 156.08 167.57 153.66 167.63 152.26 166.58 151.09 167.97 150.09 168.11 148.93 169.39 147.75 169.18 145.31 171.37 142.22 173.16 139.2 172.22 137.64 171.19 135.93 171.3 136.05 170.19 134.64 169.41 132.13 170.13 130.25 170.41 129.64 170.89 126.51 171.73 124.84 171.22 122.44 174.25 121.07 175.41 120.26 174.72 117.7 174.96 117.06 174.53 115.36 175.3 113.31 175.69 112.08 176.97 110.21 177.38 109.96 175.58 110.46 174.79 109.95 172.8 110.64 171.19 111.87 170.55 113.75 168.81 113.86 167.63 115.5 166.35 115.36 164.11 118.68 163.8 120.12 162.8 120.55 161.33 121.6 160.9 123.2 160.87 123.77 158.98 125.15 157.68 126.31 157.57 127.05 156.75 127.13 155.29 131.2 154.34 131.17 153.43 132.05 152.58 131.82 151.66 133.82 150.08 135 150.35 135.2 149.31 136.6 148.18 138.48 148.78 138.92 147.62 137.57 144.39 137.64 142.5 135.58 141.94 136.29 140.64 135.2 138.98 135.1 137.66 134.37 136.53 135.17 135.98 136.66 135.96 137.88 132.93 136.85 131.41 138.4 129.47 140.71 128.02 141.62 126.6 141.34 125.91 141.79 124.33 141 122.69 141.82 121.09 143.03 120.74 144.08 117.43 145.31 116.73 146 115.01 145.11 112.97 145.85 110.99 145.53 109.24 146.21 107.39 148.47 106.46 149.6 104.56 150.81 104.71 151.66 103.46 151.63 100.78 152.08 99.58 151.82 98.48 150.74 97.51 152.77 95.91 154.32 96.14 156.26 95.03 157.11 95.05 157.77 92.84 157.61 89.9 157.95 88.98 157.35 87.92 155.78 86.96 153.93 86.24 Z" data-name="Shasta" data-geoid="06089"/>
<path d="M 188.35 519.32 192.27 518.87 201.91 517.46 206.64 516.44 207.64 515.76 207.5 514.71 208.77 513.02 209.78 513.17 211.99 510.67 214.71 510.1 216.97 511.26 218.02 510.39 219.04 510.43 219.8 512.15 219.91 514.11 221.49 516.76 223.37 517.61 230.46 525.16 232.38 524.62 232.78 526.1 233.8 526.61 234.58 528.5 233.86 529.13 232.09 529.57 233.36 532.22 233.91 532.11 235.26 533.41 236.17 532.88 237.46 533.48 237.97 535 240.28 535.36 241.07 534.99 243.11 536.79 243.83 538.48 244.88 539.45 244.39 540.59 244.51 542.56 243.7 542.9 244.11 544.78 245.28 545.25 246.68 547.43 245.76 548.42 245.41 549.77 246.74 549.45 247.71 549.78 251 549.58 251.86 551.55 252.86 552.6 254.53 555.24 261.49 562.07 266.3 566.9 266.34 571.96 267.35 571.57 268.25 572.26 270.03 572.07 270.6 570.13 271.48 570.13 273.02 571.62 273.87 571.06 274.6 569.22 275.57 568.14 277.23 569.12 277.75 569.91 278.8 569.64 279.93 569.97 281.73 571.39 282.97 573.48 287.24 577.16 287.84 578.41 289.16 578.87 290.16 578.41 291.17 579.05 292.15 578.1 292.08 576.11 291.21 573.02 290.1 571.54 289.97 570.7 288.69 568.82 288.98 568.21 294.23 572.32 294.66 573.24 293.98 573.87 295.13 575.31 296.49 576.46 298.21 578.44 297.34 578.99 296.07 581.84 295.04 582.52 295.29 584.45 295.99 585.27 296.52 587.54 299.39 588.72 300.24 588.15 300.88 589.08 300.88 590.98 302.86 592.79 304.49 593.44 304.88 594.34 308.18 595.91 309.74 597.76 311.87 598.94 313.16 600.8 314.92 600.15 315.97 600.66 318.61 601.15 319.21 602.93 320.56 603.94 320.61 605.16 321.54 606.52 322.25 606.68 325.28 606.8 327.79 609.49 327.58 610.77 326.55 612.59 327.28 614.03 329.53 615.01 330.05 617.89 293.97 617.74 281.9 617.63 260.62 617.51 259.74 617.45 238.63 617.32 235.67 617.19 234.28 615.19 232.32 614.08 230.82 612.81 229.42 610.84 227.67 607.2 226.16 603.19 224.02 601.72 221.62 600.78 219.48 597.97 217.46 591.67 214.81 588.05 213.34 585.53 210.03 582.38 207.59 580.83 205.68 580.33 203.9 579.48 201.59 577.77 199.19 574.09 196.45 571.89 195.51 570.43 195.08 568.53 195.21 567.02 194.52 563.66 194.63 561.21 194.23 560.33 193.81 557.74 192.81 556.26 192.3 554.52 192.39 553.25 191.32 551.58 190.66 549.18 191.01 546.45 189.46 544.24 188.93 542.32 189.06 540.76 191.38 536.73 192.26 535.86 188.35 519.32 Z" data-name="Monterey" data-geoid="06053"/>
<path d="M 83.78 86.52 84.92 87.47 84.98 88.44 85.87 89.45 87.93 88.24 89.84 89.42 90.2 90.45 91.86 90.22 93.37 91.99 94.18 92.36 94.97 93.82 95.43 95.53 96.35 96.96 99.59 97.59 100.37 97.02 105.01 96.89 106.85 97.22 107.8 98.83 109.08 99.04 111 100.15 111.72 101.53 111.59 102.4 112.42 104.51 113.37 104.51 115.47 103.57 117.98 103.7 118.96 104.27 119.46 105.42 120.27 105.7 121.87 105.14 121.97 104.04 122.85 103.43 123.11 101.8 122.48 101.19 121.17 97.57 119.72 97.76 118.04 96.77 117.49 95.71 117.31 93.47 118.34 92.25 117.95 90.75 118.98 89.48 118.76 87.85 118.13 86.58 119.01 85.94 120.22 86.79 121.78 85.78 123.19 84.36 125.23 83.94 127.41 84.39 128.73 83.44 129.8 84.21 132.12 82.6 132.45 81.3 134.25 80.17 136.49 79.52 136.49 78.2 137.46 76.8 141.73 75.1 142.58 73.72 142.57 71.7 143.98 70.92 144.71 71.39 146.8 71.55 147.49 70.47 147.23 68.15 148.43 67.24 149.82 67.88 151.04 69.95 153.5 69.8 153.48 70.65 155.44 72.15 153.72 73.21 153.94 74.65 152.78 75.89 152.73 78.81 153.17 79.82 152.41 80.78 152.86 81.75 152.06 83.08 152.61 83.95 154 84.92 153.93 86.24 155.78 86.96 157.35 87.92 157.95 88.98 157.61 89.9 157.77 92.84 157.11 95.05 156.26 95.03 154.32 96.14 152.77 95.91 150.74 97.51 151.82 98.48 152.08 99.58 151.63 100.78 151.66 103.46 150.81 104.71 149.6 104.56 148.47 106.46 146.21 107.39 145.53 109.24 145.85 110.99 145.11 112.97 146 115.01 145.31 116.73 144.08 117.43 143.03 120.74 141.82 121.09 141 122.69 141.79 124.33 141.34 125.91 141.62 126.6 140.71 128.02 138.4 129.47 136.85 131.41 137.88 132.93 136.66 135.96 135.17 135.98 134.37 136.53 135.1 137.66 135.2 138.98 136.29 140.64 135.58 141.94 137.64 142.5 137.57 144.39 138.92 147.62 138.48 148.78 136.6 148.18 135.2 149.31 135 150.35 133.82 150.08 131.82 151.66 132.05 152.58 131.17 153.43 131.2 154.34 127.13 155.29 127.05 156.75 126.31 157.57 125.15 157.68 123.77 158.98 123.2 160.87 121.6 160.9 120.55 161.33 120.12 162.8 118.68 163.8 115.36 164.11 115.5 166.35 113.86 167.63 113.75 168.81 111.87 170.55 110.64 171.19 109.95 172.8 110.46 174.79 109.96 175.58 110.21 177.38 111.32 179.31 112.43 179.97 113.82 179.82 115.01 180.8 116.1 181.1 117.17 182.87 116.8 184.67 117.56 187.54 116.49 188.99 116.24 191.69 117.68 192.31 117.29 193.22 117.51 194.62 118.26 196.25 117.32 198.51 117.69 199.39 118.89 200.3 119.13 203.09 118.62 204.31 119.12 204.96 118.98 206.49 120.27 207.71 120.34 208.52 73.27 208.63 73.28 206.12 73.33 181.89 73.27 172.91 73.34 131.53 72.3 127.4 72.29 124.34 71.41 123.26 72.09 122.31 71.07 120.89 70.5 118.63 69.78 118.45 68.87 117.18 68.34 115.65 68.53 114.65 67.78 113.7 69.06 111.96 69.65 112.34 71.48 111.07 72.07 110.01 74.41 111.58 75.8 113.06 78.15 113.55 78.65 111.9 80.72 110.67 81 109.62 80.31 108.59 81.6 107.62 82.32 106.13 82.28 104.86 82.87 103.94 83.95 103.52 83.86 101.8 82.88 101.34 82.62 98.98 80.9 98.62 79.48 97.12 80.85 95.84 82.16 92.86 82.2 89.38 81.9 88.32 83.62 87.47 83.78 86.52 Z" data-name="Trinity" data-geoid="06105"/>
<path d="M 27.76 206.07 36.37 206.19 57.35 206.1 73.28 206.12 73.27 208.63 120.34 208.52 120.89 209.21 120.9 211.84 121.95 212.77 121.38 213.47 121.41 214.64 119.16 215.56 119.29 216.96 119.06 219.48 118.33 221.88 119.39 223.12 119.6 226.25 120.06 226.6 120 231.62 122 231.62 121.97 235.57 123.53 235.55 123.7 244.16 124.16 245.38 124.09 248.45 123.71 253.56 120.14 253.39 120.14 254.82 113.31 254.59 113.33 255.34 111.83 255.34 111.83 256.1 110.38 256.1 110.4 261.2 109.62 261.18 109.46 265.67 110.91 265.68 110.85 268.57 111.51 270.02 112.33 270.04 112.35 272.8 113.04 274.24 113.74 274.24 113.74 278.6 114.91 278.58 114.98 280.65 115.68 280.72 115.65 282.79 114.28 282.76 113.38 285.66 111.72 289 109.26 288.97 109.23 292.46 108.51 292.49 108.5 295.3 107.99 296.77 108.09 299.09 108.79 299.83 110.24 299.84 110.93 301.28 110.92 304.14 113.1 305.59 113.09 306.57 116.29 306.5 117 307.93 116.97 311.52 118.19 313.62 119.18 313.63 119.2 316.13 122.09 316 123.44 316.59 123.38 318.05 124.84 318.04 127.59 319.51 127.58 320.31 129.03 320.31 129.01 321.08 114.72 320.97 113.12 320.81 109.01 320.86 108.99 322.25 104.72 322.14 104.75 325.14 94.3 325.22 86.85 325.39 86.87 328.31 81.02 328.34 76.77 328.19 75.48 329.2 74.11 329.17 66.49 330.19 64.37 327.6 62.62 326.34 61.86 325.03 59.92 323.28 59.34 321.68 58.37 320.36 56.11 318.34 54.76 316.77 53.7 313.43 53.08 312.14 52.82 310.08 53.11 308.51 53.79 307.24 55.38 305.74 56.42 305.37 56.51 302.16 55.25 299.31 54.65 297.09 53 293.6 52.87 292.23 50.58 288.02 50.03 286.38 49.72 283.24 48.97 281.71 48.17 278.34 47.71 277.36 47.33 274.48 46.4 272.67 46.12 268.94 46.61 267.43 46.46 265.47 46.86 263.87 46.84 261.15 47.84 258.2 47.79 257.04 48.35 255.63 49.52 254.97 50.91 251.54 49.77 248.63 49.46 246.1 49.61 243.28 49.17 238.98 47.39 237.54 46.2 235.3 45.56 230.72 45.8 228.38 45.06 226.46 42.89 224.92 41.44 223.23 40.21 221.04 39.48 218.71 37.42 217 36.91 215.63 35.43 213.25 34.48 212.26 32.1 209.11 29.79 208.45 27.76 206.07 Z" data-name="Mendocino" data-geoid="06045"/>
<path d="M 472.93 526.52 472.26 525.99 472.05 524.38 471.42 522.92 471.9 521.19 470.66 519.29 470.69 517.89 472.09 517.73 472.86 516.85 472.81 515.3 472.22 514.46 472.92 512.76 470.16 506.04 469.64 505.83 469.19 503.81 468.34 502.95 468.95 502.09 467.74 500.77 468.15 499.57 466.68 497.58 467.03 496.15 466.2 495.29 464.7 495.48 463.22 494.45 461.95 492.73 460.48 492.43 459.26 490.95 456.91 490.79 456.86 490.08 455.55 489.86 455.04 488.58 453.42 488.11 452.28 488.62 450.27 488.22 449.28 486.91 448.9 485.64 449.52 484.71 449.33 483.56 448.33 482.44 447.95 478.45 449.45 476.69 448.15 474.8 447.91 473.83 445.53 470.17 443.68 471.43 442.31 470.11 440.69 469.59 440.08 468.7 441.39 466.24 439.83 463.79 440.62 461.11 441.56 460.92 442.17 459.76 441.79 457.69 440.98 457.09 455 457.07 485 457.13 500.19 457.06 504.6 456.92 513.63 456.91 522.91 465.64 525.36 467.73 533 474.95 539.27 480.62 548.85 489.67 557.32 497.59 558.95 499.01 571.15 510.48 577.76 516.61 617.28 553.96 625.6 562.02 626.18 562.5 635.59 571.4 654.87 589.84 678.38 612.45 682.03 616 675.3 616.01 675.29 617.48 663.01 617.46 633.55 617.5 616.31 617.35 604.73 617.31 568.12 617.28 558.48 617.35 536.02 617.27 529.03 617.13 519.93 617.04 506.56 617.05 506.66 618.12 500.11 617.9 500.14 615.35 500.84 614.65 500.39 613.44 500.31 610.91 501.6 609.29 502.08 607.76 501.5 605.84 502.02 604.83 501.35 603.19 500.2 602.93 499.33 601.55 500.46 599.39 499.8 598 498.14 596.98 497.44 593.21 496.75 592.16 496.89 590.52 496.21 589.08 495.57 589.02 495.75 587.3 495.21 585.51 495.22 584.16 496.08 583.55 495.95 581.21 495.1 579.82 493.74 579.01 492.88 577.91 492.31 576.31 492.62 575.54 491.53 573.44 491.68 571.95 490.9 571.07 491.03 569.32 492.22 568.25 491.93 567.35 493.02 566.44 493 564.78 491.42 564.39 490.63 562.42 488.93 561.58 488.4 560.21 489.92 559.28 490.1 557.89 488.63 556.49 487.26 557.06 485.81 557.08 484.17 556.26 484.53 555.33 484.09 554.18 482.8 553.26 481.54 551.33 482.12 550.03 482.31 547.77 481.39 547.58 481.3 545.99 480.28 545.09 478.34 544.42 478.06 542.71 478.45 541.33 479.56 540.7 477.83 539.74 477.46 538.7 476 537.84 475.66 535.91 474.66 535.11 475.34 534.03 473.93 533.4 473.07 531.25 474 531.16 474.93 530.3 474.55 528.04 472.93 526.52 Z" data-name="Inyo" data-geoid="06027"/>
<path d="M 374.36 372.7 374.93 371.92 375.2 369.58 376.81 368.8 375.68 366.11 377.29 364.98 378.43 365.81 380.31 364.45 379.78 362.16 380.74 360.83 380.78 358.59 381.82 357.47 381.54 355.73 380.53 355.12 380.76 354.02 379.84 351.95 378.59 350.54 377.79 347.02 375.91 345.46 375.76 344.38 376.23 342.04 376.08 341.4 376.69 339.3 377.49 338.8 378.01 336.91 378.96 335.38 378.5 334.63 388.08 343.09 394.65 349.08 397.93 351.88 405.52 358.71 416.15 368.18 423.56 374.98 427.52 378.38 434.4 384.59 441.23 390.85 445.67 394.75 452.81 401.38 456.64 404.75 472.01 418.82 481.39 427.35 502.31 446.49 508.09 451.96 510.3 453.77 513.63 456.91 504.6 456.92 500.19 457.06 485 457.13 455 457.07 440.98 457.09 439.28 454.6 437.86 454.68 435.17 455.85 434.65 455.49 434.37 453.35 432.76 452.5 432.61 451.54 431.26 450.46 430.03 448.61 429.06 448.74 427.29 447.1 426.41 447.85 423.46 446.58 421.91 445.16 420.99 443.43 421.26 441.35 420.14 440.17 418.9 438.15 418.61 435.54 416.46 433.68 415.18 431.63 414.05 430.73 412.24 430.85 410.73 430.31 409.98 430.65 408.34 430.47 406.96 432.66 405.91 432.34 405.21 431.39 403.59 431.44 402.9 430.21 404 429.49 404.9 427.3 406.58 426.32 408.12 423.87 406.92 422.5 407.91 421.38 407.03 419.7 407.13 417.31 408.21 416.04 406.16 413.88 405.15 413.37 403.16 413.17 403.29 411.93 399.86 409.95 399.33 408.14 398.81 407.78 399.09 406.08 399.75 404.63 400.16 402.41 399.55 400.28 398.76 399.87 398.64 398.78 396.67 396.37 394.32 395.69 393.03 394.29 390.95 394.23 390.58 393.43 388.61 395.34 388.24 394.21 387.26 393.38 387.45 392.19 385.98 391.8 385.93 390.7 384.74 389.26 384.63 391.25 383.89 391.3 381.58 389.76 379.19 389.31 378.49 386.69 377.51 386.96 376.62 386.09 374.86 385.27 375.35 384.7 375.5 382.34 377 381.8 375.69 379.97 376.36 379.13 375.31 378.47 373.41 376.67 374.02 376.16 373.93 373.21 374.36 372.7 Z" data-name="Mono" data-geoid="06051"/>
<path d="M 345 362.21 355.43 369.81 356.59 368.69 359.07 367.24 360.83 366.73 361.85 365.36 364.23 364.85 365.55 363.86 368.68 363.69 369.77 364.91 370.16 367.58 369.67 368.93 372.02 370.59 374.36 372.7 373.93 373.21 374.02 376.16 373.41 376.67 375.31 378.47 376.36 379.13 375.69 379.97 377 381.8 375.5 382.34 375.35 384.7 374.86 385.27 376.62 386.09 377.51 386.96 378.49 386.69 379.19 389.31 381.58 389.76 383.89 391.3 384.63 391.25 384.74 389.26 385.93 390.7 385.98 391.8 387.45 392.19 387.26 393.38 388.24 394.21 388.61 395.34 390.58 393.43 390.95 394.23 393.03 394.29 394.32 395.69 396.67 396.37 398.64 398.78 398.76 399.87 399.55 400.28 400.16 402.41 399.75 404.63 399.09 406.08 398.81 407.78 399.33 408.14 399.86 409.95 403.29 411.93 403.16 413.17 405.15 413.37 406.16 413.88 408.21 416.04 407.13 417.31 407.03 419.7 407.91 421.38 406.92 422.5 408.12 423.87 406.58 426.32 404.9 427.3 404 429.49 402.9 430.21 401.41 429.65 401.02 427.42 399.82 426.44 399.56 424.86 398.83 424.87 396.27 423.13 396.48 421.72 394.05 420.73 392.44 420.65 392.24 418.93 391.1 418.65 388.83 417.35 386.87 418.47 384.73 417.49 383.91 416.05 383.26 415.82 382.47 414.24 380.01 414.36 378.43 415.49 378.58 416.85 377.43 418.44 375.18 419.68 373.82 419.72 372.93 420.96 373.46 422.26 373.23 423.27 372.2 424.17 370.33 424.33 369.83 425.3 368.92 424.92 366.12 425.95 365.74 426.89 364.35 427.1 361.54 428.23 360.36 428.21 359.81 427.39 357.95 428.41 357 427.02 355.42 428.12 353.71 428.39 353.08 427.93 351.29 427.89 349.25 425.96 346.66 424.66 344.49 423.13 342.28 423.02 342.11 421.96 340.41 421.48 339.57 422.15 339.69 423.07 338.78 424.22 337.62 424.95 336.73 426.09 334.11 425.54 332.99 424.46 332 426.22 331.97 427.42 331.04 427.88 328.07 427.86 328.08 428.8 327.01 429.09 326.13 430.53 324.44 430.11 324.47 431.15 322.22 430.75 319.91 431.62 321.08 434.23 322.93 437.41 322.66 438.33 321.41 439.01 319.71 436.84 318.3 435.91 316.73 435.52 316.06 436.74 317.62 438.69 316.66 440.5 304.77 429.17 296.18 421.18 297.4 419.53 297.68 418.37 299.59 417.19 301.25 414.99 302.54 415.03 303.15 413.31 305.12 411.84 305.28 410.18 306.84 409.31 306.64 408.14 305.86 407.59 305.47 405.51 308.01 405.19 308.61 403.65 310.51 403.42 311.55 400.7 313.31 398.75 313.33 397.56 314.58 396.73 314.97 394.67 316.69 393.39 317.54 390.78 319.04 388.78 320.26 387.94 320.37 386.73 322.08 384.44 322.83 382.76 324.09 381.82 324.16 380.85 325.3 379.37 325.71 378.17 326.78 376.74 327.83 376.01 329.38 373.39 330.73 372.42 332.93 368.11 336.08 365.89 337.49 365.42 339.76 365.17 340.87 364.17 344.24 363.08 345 362.21 Z" data-name="Tuolumne" data-geoid="06109"/>
<path d="M 184.39 354.35 187.07 354.27 187.96 353.96 189.85 356.22 191.45 356.75 193.47 355.31 195.16 353.41 196.96 352.37 199.37 352.75 200.95 351.93 203.14 351.87 206.74 353.1 208.86 353.39 210.03 352.49 210.49 353.11 212.5 351.95 214.55 351.92 215.85 353.38 215.97 356.88 215.94 373.88 216.06 373.99 223.71 374.05 222.78 375.79 223.13 377.46 223 383.15 222 385.58 220.73 385.71 218.34 386.93 216.59 389.11 216.09 391.71 214.98 393.8 214.83 395.79 214.41 396.47 213.03 396.66 212.15 396.21 208.05 398.79 205.62 398.27 204.44 397.24 202.96 398.28 202.01 399.79 199.28 400.35 196.46 399.57 194.49 398.33 193.65 398.16 191.18 398.53 190.16 398.95 187.64 398.67 182.79 401.25 181.61 401.6 179.43 401.15 178.18 399.46 173.44 398.49 171.89 398.88 165.56 397.58 162.45 392.52 160.99 389.5 175.89 389.58 177.01 389.14 175.77 387.14 176.48 385.52 176.49 384.35 177.4 383.82 177.24 382.17 176.52 380.77 177.18 379.42 175.93 379.35 175.99 378.01 177.83 378.12 176.66 376.03 177 375.33 176.47 373.79 187.36 373.77 187.62 372.43 187.08 371.43 186.69 369.35 185.48 367.01 183.9 365.05 182.61 362.66 182.82 360.82 184.27 356.57 184.39 354.35 Z" data-name="Solano" data-geoid="06095"/>
<path d="M 526.38 709.22 529.1 709.25 529.12 704.1 529.03 685 529.19 683.35 529.16 658.44 528.99 651.54 529.24 649.97 529.25 639.26 528.89 639.26 528.96 630.97 530.31 630.95 530.32 628.19 527.54 628.2 527.56 625.43 528.93 625.43 529.03 617.13 536.02 617.27 558.48 617.35 568.12 617.28 604.73 617.31 616.31 617.35 633.55 617.5 663.01 617.46 675.29 617.48 675.3 616.01 682.03 616 712 645 719.31 652.16 724.24 657.1 732.43 664.96 750.09 682.24 760.28 692.37 760.59 694.12 760.16 696.4 760.56 697.73 760.3 699.95 760.48 701.26 760.02 703.29 760.68 705.36 763.45 707.47 764.23 708.69 765.03 711.68 766.51 714.45 768.23 715.9 769.29 717.27 771.26 718.39 771.53 719.16 772.76 719.5 773.25 721.55 774.36 723.74 773.8 724.59 775.01 725.96 775.29 728.08 776.41 729.11 775.53 730.67 777.87 732.94 779.75 736.67 779.96 738.77 779.3 743.39 780.5 744.41 782.93 743.99 783.91 745.25 785.91 746.3 786.67 747.89 788.85 748.77 791.05 750.98 791.68 751.99 793.74 752.41 795.48 753.54 797 756.47 798.45 757.84 798.67 762.07 796.42 761.9 796.44 762.65 791.7 767.3 791.41 768.69 789.52 769.91 787.01 770.2 785.05 772.61 784.09 773.36 782.28 773.57 780.86 775.05 779.01 775.84 777.05 776.07 775.64 777.96 775.55 778.67 747.92 778.68 722.32 778.66 717.18 778.85 707.65 778.85 707.64 782.92 703.05 782.86 686.09 782.8 656.17 782.82 653.26 782.89 639.82 782.96 631.75 782.89 631.75 783.06 623.66 783.03 607.47 783.06 597.37 782.92 583.26 782.91 583.28 785.63 567.7 785.73 560.45 785.69 560.45 784.35 548.89 784.28 548.9 782.94 534.79 782.98 534.78 787.16 530.77 788.73 530.73 793.05 527.3 793.05 527.34 796.42 526.25 797.15 525.89 798.09 525.38 797.48 520.11 793.36 517.44 791.07 516.65 790.38 516.64 789.05 515.96 788.36 517.3 785.64 518.66 785.66 518.65 783.9 521.1 784.36 524.88 773.23 525.52 771.01 528 759.15 526.97 744.02 526.92 734.04 526.4 734.02 526.38 709.22 Z" data-name="San Bernardino" data-geoid="06071"/>
<path d="M 163.53 416.11 159.02 411.61 158.35 408.91 158.31 407.3 162.07 402.1 163.37 400 165.56 397.58 171.89 398.88 173.44 398.49 178.18 399.46 179.43 401.15 181.61 401.6 182.79 401.25 187.64 398.67 190.16 398.95 191.18 398.53 193.65 398.16 194.49 398.33 196.46 399.57 199.28 400.35 202.01 399.79 202.96 398.28 203.64 398.41 204.56 399.66 205.29 401.7 206.74 402.74 209.51 402.9 212.56 402.14 215.5 400.32 216.91 398.75 216.88 396.72 217.56 395.59 218.42 395.39 220.25 396.32 221.08 395.12 222.81 394.97 224.73 395.5 224.98 397.09 224.56 398.05 224.37 400.49 225.34 400.69 226.46 403.12 224.83 404.33 224.65 405.77 225.23 406.67 225.22 408.03 225.88 408.67 226.55 412.25 225.37 414.28 224.78 417.23 225.36 418.38 226.92 418.39 228.26 419.42 227.63 421.03 227.09 421.01 226.51 422.61 226.34 422.44 221.33 424.37 218.08 425.22 209.28 428.01 195.38 432.22 194.47 431.26 193.12 430.76 191.44 429.42 192.52 427.87 191.27 426.22 188.85 424.47 181.52 423.84 180.22 422.54 179.49 422.98 178.01 422.27 178.15 420.98 175.36 418 175.09 416.64 173.16 415.81 172 414.16 170.11 414.73 168.38 414.74 163.53 416.11 Z" data-name="Contra Costa" data-geoid="06013"/>
<path d="M 340.96 335.66 349.24 328.42 350.56 327.86 351.17 326.51 351.01 325.74 352.57 323.97 352.5 323.08 353.6 322.65 353.73 320.64 354.88 320.37 355.97 319.29 355.43 318.47 355.8 316.2 355.2 314.33 353.92 312.84 359.46 317.73 378.5 334.63 378.96 335.38 378.01 336.91 377.49 338.8 376.69 339.3 376.08 341.4 376.23 342.04 375.76 344.38 375.91 345.46 377.79 347.02 378.59 350.54 379.84 351.95 380.76 354.02 380.53 355.12 381.54 355.73 381.82 357.47 380.78 358.59 380.74 360.83 379.78 362.16 380.31 364.45 378.43 365.81 377.29 364.98 375.68 366.11 376.81 368.8 375.2 369.58 374.93 371.92 374.36 372.7 372.02 370.59 369.67 368.93 370.16 367.58 369.77 364.91 368.68 363.69 365.55 363.86 364.23 364.85 361.85 365.36 360.83 366.73 359.07 367.24 356.59 368.69 355.43 369.81 345 362.21 342.41 360.03 340.95 360.87 340.95 354.69 340.96 335.66 Z" data-name="Alpine" data-geoid="06003"/>
<path d="M 258.58 334.75 259.08 334.74 259.55 332.61 260.39 330.22 260.25 329.43 261.51 327.48 262.24 324.68 263.04 323.77 262.71 322.75 265.01 320.97 264.69 320.08 265.34 319.28 264.93 317.7 266.04 317.06 265.37 316.13 266.13 315.31 267.99 314.34 269.37 314.38 270.3 313.37 272.07 312.92 272.68 312.28 274.18 312.62 274.48 309.82 277.16 310.86 277.89 310.24 280.32 310.97 280.85 310.25 280.97 308.62 282.23 309.02 282.96 306.95 283.92 306.22 285.01 306.63 287.16 305.54 288.13 305.47 289.37 306.09 290.25 305.84 291.32 307.56 292.27 308.1 293.51 307.23 293.9 309.3 294.68 310.34 297.01 311.75 299.3 311.88 301.26 313.03 301.28 313.74 302.42 314.72 303.65 314.64 304.5 313.5 307.04 313.06 308.44 311.95 309.06 310.32 310.23 309.65 311.55 306.74 312.22 304.49 312.99 303.42 321.25 304.01 328.01 303.89 328.03 303.17 332.35 303.16 332.39 302.43 333.82 302.41 334.75 301.69 334.75 300.25 335.47 299.56 346.35 299.54 346.46 306.28 353.92 312.84 355.2 314.33 355.8 316.2 355.43 318.47 355.97 319.29 354.88 320.37 353.73 320.64 353.6 322.65 352.5 323.08 352.57 323.97 351.01 325.74 351.17 326.51 350.56 327.86 349.24 328.42 340.96 335.66 340.56 335.05 338 335.37 337.16 336.32 337.55 337.93 336.13 340.42 335.74 342.02 334.35 342.52 332.77 342.47 330.14 342.91 328.61 345.8 328.51 346.96 326.3 347.91 325.38 349.8 323.48 350.13 322.09 351.22 319.21 350.92 317.76 351.22 313.01 353.03 309.09 353.57 307.18 354.53 304.7 354.7 303.86 354.49 301.84 355.33 298.09 355.35 295.74 354.14 294.32 353.87 293.33 352.93 291.16 351.55 290.84 351.01 288.93 350.89 287.9 350.25 286.48 350.3 283.07 349.78 281.72 350.14 280.05 351.39 280.01 352.12 278.51 351.96 278.1 353.25 276.94 352.61 276.31 353.64 274.86 353.91 274.15 352.91 271.42 354.09 268.7 353.93 267.33 354.84 264.01 345.05 262.86 341.08 260.3 334.24 259.17 335.4 258.58 334.75 Z" data-name="El Dorado" data-geoid="06017"/>
<path d="M 161.89 319.69 160.31 316.43 159.81 316.06 161.2 313.64 166.13 313.74 173.28 313.78 176.33 313.63 191.02 313.58 205.03 313.72 205.46 314.26 207.34 314.65 207.53 316.4 206.63 318.47 207.67 319.69 210.08 319.96 211.64 319 213.13 320.2 213.67 323.51 213.68 325.67 215.29 325.76 216.53 328.48 216.56 329.67 217.79 330.07 220.66 329.05 221.33 327.51 222.56 327.94 223.76 329.72 222.97 332.39 222.74 334.12 220.84 336.17 220.56 337.02 221.03 338.42 222.45 339.77 223.65 341.45 225.03 341.01 225.88 341.63 226.41 344.99 227.05 345.86 228.77 345.35 230.23 346.12 230.42 347.15 229.28 349.14 230.03 351.1 228.7 352.5 228.96 353.79 226.9 354.3 226.34 355.86 227.91 358.15 230.22 358.34 230.82 360.57 230.67 361.5 228.4 362.62 229.63 364.79 229.8 366.65 229.11 367.42 229.23 369.43 228.03 370.66 226.27 371.2 224.99 372.64 223.97 373.11 223.71 374.05 216.06 373.99 215.94 373.88 215.97 356.88 215.85 353.38 214.55 351.92 212.5 351.95 210.49 353.11 210.03 352.49 208.86 353.39 206.74 353.1 203.14 351.87 200.95 351.93 199.37 352.75 196.96 352.37 195.16 353.41 193.47 355.31 191.45 356.75 189.85 356.22 187.96 353.96 187.07 354.27 184.39 354.35 183.75 353.29 183.56 351.93 181.56 344.83 180.7 343.64 179.37 343.9 179.82 342.58 179.38 340.35 178.22 340.16 177.04 338.94 176.95 337.58 176.3 336.37 175.16 335.49 174.35 332.19 173.07 330.47 172.33 327.04 171.23 325.11 170.15 322.09 168.04 322.14 167.2 321.5 165.47 322.48 162.66 320.85 161.89 319.69 Z" data-name="Yolo" data-geoid="06113"/>
<path d="M 221.36 276.85 222.49 274.47 223.64 275.63 225.18 275.36 226.03 275.91 228.46 274.63 231.22 274.55 232.08 274.29 232.83 273.09 234.1 272.9 235.27 273.27 238.03 272.45 238.57 271.43 240.7 269.97 241.38 267.96 241.77 265.53 243.1 264.2 242.72 261.93 243.37 259.95 245.18 258.86 245.16 257.76 245.9 256.67 245.92 254.5 248.11 254.43 248.09 255.17 250.93 255.15 250.91 253.8 255.17 253.79 255.15 254.48 257.17 254.5 257.89 253.81 257.89 250.93 258.56 250.23 261.2 249.74 261.16 247.93 263.31 247.93 263.53 246.73 268.72 242.51 267.57 250.55 265.79 251.59 264.96 252.75 265.69 254.75 266.79 255.01 267.74 267.28 266.99 266.87 264.7 267.27 263.32 267.15 261.66 268.31 260.02 268.55 257.52 271.56 257.29 272.5 255.65 272.57 254.37 273.46 253.54 274.77 254.02 276.17 252.78 277.28 252.41 278.15 250.93 278 248.87 279.24 249.47 280.75 248.77 281.05 248.72 282.36 247.9 283.33 247.9 302.8 247.07 302.57 245.97 301.03 244.79 301.43 243.56 302.38 241.82 303.24 241.26 303.08 238.79 305.65 237.47 306.59 235.23 306.9 234.27 306.41 232.28 306.88 231.39 307.79 230.2 307.94 229 309.06 227.56 308.97 226.77 310.82 226.16 310.85 225.4 312.29 224.53 310.63 224.01 307.19 224.58 305.34 223.23 304.83 223.6 303.88 222.76 303 222.41 300.49 224.28 297.33 224.16 296.15 223.09 295.89 222.91 294.67 223.37 293.54 222.61 292.24 222.77 291.49 221.99 289.5 221.77 288.08 222.19 287.33 220.95 285.9 222.13 284.92 222.09 283.5 221.07 282.93 220.39 281.78 220.42 280.28 221.36 276.85 Z" data-name="Yuba" data-geoid="06115"/>
<path d="M 219.8 512.15 220.92 510.45 222.62 511.63 224.63 511.66 226.25 511.85 226.39 510.56 227.81 509.57 228.24 508.59 229.83 507.22 230.27 505.44 231.75 503.55 233.37 504.17 233.7 503.39 234.96 503.57 237.2 505.73 252.84 505.67 252.6 506.96 251.67 507.86 251.35 508.98 252.71 510.27 254.89 510.3 255.24 511.92 256.36 512.98 256.83 514.54 257.66 515.24 258.54 517.68 274.56 525.84 275.71 526.95 277 528.28 300 551.16 300.5 551.16 300.5 562.02 300.55 566.47 297.97 567.58 297 567.37 295.42 567.82 293.91 569.72 294.59 570.88 294.23 572.32 288.98 568.21 288.69 568.82 289.97 570.7 290.1 571.54 291.21 573.02 292.08 576.11 292.15 578.1 291.17 579.05 290.16 578.41 289.16 578.87 287.84 578.41 287.24 577.16 282.97 573.48 281.73 571.39 279.93 569.97 278.8 569.64 277.75 569.91 277.23 569.12 275.57 568.14 274.6 569.22 273.87 571.06 273.02 571.62 271.48 570.13 270.6 570.13 270.03 572.07 268.25 572.26 267.35 571.57 266.34 571.96 266.3 566.9 261.49 562.07 254.53 555.24 252.86 552.6 251.86 551.55 251 549.58 247.71 549.78 246.74 549.45 245.41 549.77 245.76 548.42 246.68 547.43 245.28 545.25 244.11 544.78 243.7 542.9 244.51 542.56 244.39 540.59 244.88 539.45 243.83 538.48 243.11 536.79 241.07 534.99 240.28 535.36 237.97 535 237.46 533.48 236.17 532.88 235.26 533.41 233.91 532.11 233.36 532.22 232.09 529.57 233.86 529.13 234.58 528.5 233.8 526.61 232.78 526.1 232.38 524.62 230.46 525.16 223.37 517.61 221.49 516.76 219.91 514.11 219.8 512.15 Z" data-name="San Benito" data-geoid="06069"/>
<path d="M 27.63 57.31 46.97 57.17 46.97 57.38 55.85 57.34 55.87 65.92 64.27 65.78 76.62 65.73 78.71 67.41 78.06 68.7 78.44 71.36 79.53 72.39 80.14 74.95 79.66 76.03 80.81 76.67 81.12 79.39 80.15 80.69 81.5 81.71 81.69 83.1 83.1 84.77 83.78 86.52 83.62 87.47 81.9 88.32 82.2 89.38 82.16 92.86 80.85 95.84 79.48 97.12 80.9 98.62 82.62 98.98 82.88 101.34 83.86 101.8 83.95 103.52 82.87 103.94 82.28 104.86 82.32 106.13 81.6 107.62 80.31 108.59 81 109.62 80.72 110.67 78.65 111.9 78.15 113.55 75.8 113.06 74.41 111.58 72.07 110.01 71.48 111.07 69.65 112.34 69.06 111.96 67.78 113.7 68.53 114.65 68.34 115.65 68.87 117.18 69.78 118.45 70.5 118.63 71.07 120.89 72.09 122.31 71.41 123.26 72.29 124.34 72.3 127.4 73.34 131.53 73.27 172.91 73.33 181.89 73.28 206.12 57.35 206.1 36.37 206.19 27.76 206.07 26.96 203.88 27.05 201.04 26.08 199.68 22.37 198.11 20.34 196.91 18.29 194.08 17.18 192.85 15.97 192.45 12.43 189.47 7.88 185.17 5.68 182.41 5.07 179.4 5.17 177.19 5.89 174.16 5.17 172.13 5.05 169.49 3.88 168.33 1.26 163.7 1 161.86 1.47 159.89 2.25 158.85 3.27 156.51 3.32 154.23 3.65 152.8 4.64 150.88 6.4 145.97 9.72 138.58 11.72 134.6 12.92 132.68 15.08 128.54 15.26 127.26 16.56 125.33 19.17 120.54 20.23 118.27 21.59 114.48 22.92 109.98 24.08 104.79 22.36 103.53 20.89 100.71 20.34 98.23 19.08 95.5 18.7 91.22 19.33 88.73 21.24 86.75 23.09 86.04 24.56 80.66 24.95 77.69 25.77 75.31 22.56 74.75 21.2 73.9 19.95 72.37 19.47 69.77 20.03 67.66 21.81 65.75 23.62 65.04 25.72 65.07 27.37 65.81 27.89 60.62 27.63 57.31 Z" data-name="Humboldt" data-geoid="06023"/>
<path d="M 525.89 798.09 526.25 797.15 527.34 796.42 527.3 793.05 530.73 793.05 530.77 788.73 534.78 787.16 534.79 782.98 548.9 782.94 548.89 784.28 560.45 784.35 560.45 785.69 567.7 785.73 583.28 785.63 583.26 782.91 597.37 782.92 607.47 783.06 623.66 783.03 631.75 783.06 631.75 782.89 639.82 782.96 653.26 782.89 656.17 782.82 686.09 782.8 703.05 782.86 707.64 782.92 707.65 778.85 717.18 778.85 722.32 778.66 747.92 778.68 775.55 778.67 775.24 780.7 775.58 782.57 775.33 783.99 773.17 785.73 773.64 786.66 771.93 787.93 770.58 789.64 768.87 790.21 767.83 792.16 767.94 793.04 769.45 794.06 769.95 795.21 768.66 795.78 770.23 797.53 770.27 798.56 768.29 800.2 769.03 802.31 768.41 803.28 770.02 807.64 770.22 809.21 769.62 810.77 770.83 812.16 770.84 814.22 768.72 815.25 768.09 816.74 769.15 818.02 768.01 818.71 768.73 819.99 768.16 820.98 768.87 822.15 767.44 823.99 767.8 826.05 768.7 827.54 766.09 829.44 765.87 830.9 763.69 832.28 762.88 833.9 761.09 836.46 760.77 838.59 745.06 838.58 745.06 838.91 731.96 838.97 727.15 839.09 722.32 839.01 712.68 839.08 695.98 839.07 695.98 839.2 667.35 839.19 648.36 839.29 644.91 839.28 639.69 839.02 628.45 839.15 616.31 839.21 607.3 839.16 590.41 839.21 581.96 839.14 575.45 839.2 575.45 838.91 570.21 838.89 566.91 838.68 559.23 838.73 559.2 837.17 549.23 833.32 549.75 831.98 538.53 831.99 538.49 829.31 539.54 827.58 545.99 817.73 541.24 813.58 536.66 812.98 536.47 808.59 533.05 807.5 526.78 799.33 525.85 799.29 525.89 798.09 Z" data-name="Riverside" data-geoid="06065"/>
<path d="M 331.57 617.9 346.17 617.93 355.19 617.9 364.05 617.81 373.79 617.78 382.15 617.86 396.22 617.8 418.39 617.74 434.55 617.77 452.17 617.86 461.63 617.85 464.54 617.57 472.45 617.76 479.92 617.82 495.51 617.68 500.11 617.9 506.66 618.12 506.56 617.05 519.93 617.04 529.03 617.13 528.93 625.43 527.56 625.43 527.54 628.2 530.32 628.19 530.31 630.95 528.96 630.97 528.89 639.26 529.25 639.26 529.24 649.97 528.99 651.54 529.16 658.44 529.19 683.35 529.03 685 529.12 704.1 529.1 709.25 526.38 709.22 518.09 709.15 509.9 709.22 501.68 709.21 485 709.44 476.94 709.45 462.99 709.66 458.54 709.61 434.87 709.67 434.85 711.05 433.1 711.04 432.78 712.22 425.43 712.21 425.43 710.19 417 710.15 404.85 710.01 404.85 705.93 402.18 705.96 402.29 703.85 394.15 703.85 394.18 701.86 389.53 701.82 387.19 701.83 387.19 685.3 385.81 685.27 385.81 683.89 380.39 684.28 380.95 675.58 379.6 675.55 372.21 676.07 372.24 667.79 361.23 667.69 361.24 659.44 355.78 659.41 355.79 651.1 346.74 651.06 346.74 648.3 345.34 648.27 345.42 646.88 343.97 646.88 343.98 645.46 342.61 645.46 342.59 644.13 341.23 644.12 341.25 642.84 339.86 642.82 339.92 634.48 331.59 634.5 331.57 617.9 Z" data-name="Kern" data-geoid="06029"/>
<path d="M 200.83 268.05 201.3 268.99 200.08 271.03 200.49 272.31 199.71 273.83 199.42 276.02 198.35 277.71 197.84 279.26 197.21 279.6 196.35 282.35 196.87 284.2 197.88 286.49 196.55 288.26 197.37 290.15 198.51 291.04 198.6 292.11 197.01 292.2 197.13 293.03 199.11 293.93 199.6 295.89 200.5 296.69 200.51 298.49 202.39 299.6 204.07 299.2 204.82 299.99 204.78 301.76 205.89 303.08 206.15 304.22 205.77 305.18 208.11 306.56 207.61 307.25 206.29 307.37 206.12 308.74 205.3 309.09 204.66 310.74 205.45 312.34 205.03 313.72 191.02 313.58 176.33 313.63 173.28 313.78 166.13 313.74 163.59 312.2 161.97 310.64 160.81 309.92 160.88 308.91 160.02 307.31 160.85 305.54 160.48 304.23 158.64 304.11 156.44 301.43 154.48 300.97 155.05 299.59 154.59 296.34 153.73 294.21 154.03 292.97 155.77 291.86 155.18 289.97 155.55 288.96 154.27 288.54 153.92 287.25 152.74 286.76 152.62 285.45 151.58 285.23 150.61 285.68 148.14 285.94 147.41 285.14 145.31 284.76 144.38 284.07 143.38 284.07 142.23 284.98 141.05 284.62 139.05 281.64 137.93 280.91 136.09 279.05 133.98 277.97 133.9 277.01 132.6 275.24 133.35 272.15 134.35 271.82 135.17 270.54 135.03 269.62 133.51 268.65 132.66 268.94 131.82 268.14 135.37 268.11 146.51 267.88 153.22 268.03 159.1 268.06 181.87 267.89 181.85 264.99 191.67 265.09 192.06 266.74 191.6 268.05 200.83 268.05 Z" data-name="Colusa" data-geoid="06011"/>
<path d="M 75.33 1.91 74.07 2.93 73.79 3.81 74.14 6.66 72.53 9.22 72.57 10.89 71.66 12.03 69.47 11.81 69.2 12.96 67.93 14.33 67.11 13.55 65.89 13.35 64.97 14.56 65.09 16.55 64.25 16.86 62.61 18.86 61.01 19.65 62.06 22.38 63.4 23.16 63.14 24.25 62.19 24.64 62.57 25.84 62.96 29.05 64.23 30.35 64.36 31.58 63.67 32.37 63.82 33.89 62.09 36.19 62.18 37.92 62.84 39.54 61.55 40.44 60.44 41.8 59.81 43.81 62.63 44.79 62.71 46.24 61.76 47.79 62.88 49.11 64.93 49.6 65.6 51.22 65.43 52.16 66.24 54.49 66.26 55.58 67.35 57.37 68.09 57.55 68.04 58.91 67.3 60.59 65.25 61.8 65.99 62.91 65.79 63.92 64.68 64.42 64.27 65.78 55.87 65.92 55.85 57.34 46.97 57.38 46.97 57.17 27.63 57.31 25.98 51.7 25.79 49.19 24.29 47.65 23.64 46.03 23.5 42.51 22.64 41.35 21.86 39.05 21.84 34.98 19.9 33.59 18.93 33.35 16.72 32.04 15.01 30.54 12.67 29.55 9.7 26.48 7.93 25.56 6.88 24.45 4.32 20.17 4.18 18.69 4.62 16.86 6.45 14.21 7.23 13.84 10.01 13.74 11.36 14.1 12.72 14.97 14.11 16.62 16.19 16.55 16.87 12.04 15.81 10.27 15.68 8.48 16.21 6.46 15.91 5.14 14.49 2.72 12.81 2.16 21.85 2.15 30.42 2.33 38.68 2.4 50.92 2.4 52.74 2.49 59.12 2.29 64.59 2.49 67.15 2.01 75.33 1.91 Z" data-name="Del Norte" data-geoid="06015"/>
<path d="M 346.55 86.11 298.69 86.06 295.15 86.12 269.38 86.07 249.85 86.07 243.87 86.12 235.02 86.16 235.02 60.96 234.85 60.92 234.86 37.49 234.83 25.14 234.22 25.15 234.2 7.18 234.94 7.14 234.94 2.25 242.86 2.38 247.07 2.25 254.91 2.26 263.97 2.49 267.97 2.67 285.01 2.61 301.57 2.72 308.92 2.65 321.38 2.76 326.77 2.72 332.75 2.55 346.6 2.51 346.6 14.95 346.67 27.88 346.67 41.41 346.58 53.67 346.54 79.36 346.55 86.11 Z" data-name="Modoc" data-geoid="06049"/>
<path d="M 421.91 445.16 423.46 446.58 426.41 447.85 427.29 447.1 429.06 448.74 430.03 448.61 431.26 450.46 432.61 451.54 432.76 452.5 434.37 453.35 434.65 455.49 435.17 455.85 437.86 454.68 439.28 454.6 440.98 457.09 441.79 457.69 442.17 459.76 441.56 460.92 440.62 461.11 439.83 463.79 441.39 466.24 440.08 468.7 440.69 469.59 442.31 470.11 443.68 471.43 445.53 470.17 447.91 473.83 448.15 474.8 449.45 476.69 447.95 478.45 448.33 482.44 449.33 483.56 449.52 484.71 448.9 485.64 449.28 486.91 450.27 488.22 452.28 488.62 453.42 488.11 455.04 488.58 455.55 489.86 456.86 490.08 456.91 490.79 459.26 490.95 460.48 492.43 461.95 492.73 463.22 494.45 464.7 495.48 466.2 495.29 467.03 496.15 466.68 497.58 468.15 499.57 467.74 500.77 468.95 502.09 468.34 502.95 469.19 503.81 469.64 505.83 470.16 506.04 472.92 512.76 472.22 514.46 472.81 515.3 472.86 516.85 472.09 517.73 470.69 517.89 470.66 519.29 471.9 521.19 471.42 522.92 472.05 524.38 472.26 525.99 472.93 526.52 457.91 526.53 457.94 527.07 451.27 527.08 424.99 526.82 424.81 534.95 416.82 534.91 409.89 534.78 404.29 534.56 400.15 534.62 400.12 542.96 387.69 542.82 379.45 551.11 372.27 557.8 371.11 556.78 369.28 557.02 368.74 557.76 366.04 558.05 365.49 559.43 355.53 559.43 349.69 559.53 349.69 580.53 337.72 591.93 331.43 597.84 322.25 606.68 321.54 606.52 320.61 605.16 320.56 603.94 319.21 602.93 318.61 601.15 315.97 600.66 314.92 600.15 313.16 600.8 311.87 598.94 309.74 597.76 308.18 595.91 304.88 594.34 304.49 593.44 302.86 592.79 300.88 590.98 300.88 589.08 300.24 588.15 299.39 588.72 296.52 587.54 295.99 585.27 295.29 584.45 295.04 582.52 296.07 581.84 297.34 578.99 298.21 578.44 296.49 576.46 295.13 575.31 293.98 573.87 294.66 573.24 294.23 572.32 294.59 570.88 293.91 569.72 295.42 567.82 297 567.37 297.97 567.58 300.55 566.47 300.5 562.02 300.5 551.16 300 551.16 277 528.28 275.71 526.95 289.93 512.54 295.97 506.48 301.01 506.5 301.02 503.7 300.64 501.78 304.78 497.63 305.83 500.71 306.93 500.87 307.9 502.24 308.03 503.67 309.24 504.73 309.91 507.79 310.46 507.96 311.82 510.5 311.01 511.32 310.56 512.56 311.35 513.13 311.37 515.15 312.73 515.96 313.68 517.37 314.8 517.36 315.65 519.05 316.55 518.85 317.32 519.56 318 522.66 318.94 522.44 321.55 522.53 324.53 523.76 328.87 524.13 328.54 523.26 329.78 522.3 331.98 523.48 333.55 520.88 334.57 521.32 336.01 520.31 338.5 519.92 340.42 518.77 341.09 519.42 342.12 519 343.28 519.72 344.4 519.81 345.51 518.49 347.26 518.26 347.77 517.27 349.11 518.08 350.9 517.93 352.11 516.54 352.75 516.87 355 516.24 355.42 515.57 356.65 516.36 358.03 516.12 360.9 516.35 361.22 515.18 362.87 513.83 362.76 512.02 363.84 510.69 364.06 509.78 365.61 509.22 365.62 508.18 367.07 507.1 366.34 506.31 366.55 504.8 368.61 502.81 370.38 500.77 371.91 501.03 372.86 500.64 372.8 498.17 374.35 497.75 375.75 499.36 376.58 497.52 376.35 497.02 377 495.07 380.23 495.74 380.54 493.42 381.89 492.66 382.19 491.78 381.39 490.68 379.91 490.73 380.51 488.05 381.4 488.05 382.01 488.9 383.28 489.43 383.78 487.71 384.57 487.38 385.95 488.82 385.62 489.86 386.32 491.22 387.34 491.25 387.97 487.99 390.11 487.73 390.25 486.32 392.18 486.38 392.82 487.45 393.84 487.48 394.76 486.04 395.85 485.5 395.84 484.48 397.33 483.48 398.15 482.03 397.89 480.32 398.08 478.74 398.72 478.24 398.61 476.26 398.04 475.47 398.42 473.62 397.8 471.86 399.31 470.41 399.57 467.8 401.54 465.64 409.7 457.49 421.91 445.16 Z" data-name="Fresno" data-geoid="06019"/>
<path d="M 342.53 484.23 346.47 480.18 360.49 465.98 364.91 461.55 373.43 461.48 373.44 457.25 376.19 457.24 376.21 454.02 378.6 454.02 378.65 447.63 397.03 429.15 399.82 426.44 401.02 427.42 401.41 429.65 402.9 430.21 403.59 431.44 405.21 431.39 405.91 432.34 406.96 432.66 408.34 430.47 409.98 430.65 410.73 430.31 412.24 430.85 414.05 430.73 415.18 431.63 416.46 433.68 418.61 435.54 418.9 438.15 420.14 440.17 421.26 441.35 420.99 443.43 421.91 445.16 409.7 457.49 401.54 465.64 399.57 467.8 399.31 470.41 397.8 471.86 398.42 473.62 398.04 475.47 398.61 476.26 398.72 478.24 398.08 478.74 397.89 480.32 398.15 482.03 397.33 483.48 395.84 484.48 395.85 485.5 394.76 486.04 393.84 487.48 392.82 487.45 392.18 486.38 390.25 486.32 390.11 487.73 387.97 487.99 387.34 491.25 386.32 491.22 385.62 489.86 385.95 488.82 384.57 487.38 383.78 487.71 383.28 489.43 382.01 488.9 381.4 488.05 380.51 488.05 379.91 490.73 381.39 490.68 382.19 491.78 381.89 492.66 380.54 493.42 380.23 495.74 377 495.07 376.35 497.02 376.58 497.52 375.75 499.36 374.35 497.75 372.8 498.17 372.86 500.64 371.91 501.03 370.38 500.77 368.61 502.81 366.55 504.8 366.34 506.31 367.07 507.1 365.62 508.18 365.61 509.22 364.06 509.78 363.84 510.69 362.76 512.02 362.87 513.83 361.22 515.18 360.9 516.35 358.03 516.12 356.65 516.36 355.42 515.57 355 516.24 352.75 516.87 352.11 516.54 350.9 517.93 349.11 518.08 347.77 517.27 347.26 518.26 345.51 518.49 344.4 519.81 343.28 519.72 342.12 519 341.09 519.42 340.42 518.77 338.5 519.92 336.01 520.31 334.57 521.32 333.55 520.88 331.98 523.48 329.78 522.3 328.54 523.26 328.87 524.13 324.53 523.76 321.55 522.53 318.94 522.44 318 522.66 317.32 519.56 316.55 518.85 315.65 519.05 314.8 517.36 313.68 517.37 312.73 515.96 311.37 515.15 311.35 513.13 310.56 512.56 311.01 511.32 311.82 510.5 310.46 507.96 309.91 507.79 309.24 504.73 308.03 503.67 307.9 502.24 306.93 500.87 305.83 500.71 304.78 497.63 309.79 492.62 311.63 492.38 315.39 490.75 316.87 489.89 318.53 490.36 320.24 489.89 321.52 488.75 323.12 488.29 324.05 487.24 325.26 487.22 328.64 486.47 329.02 486.14 331.52 486.16 333.42 485.89 335.55 486.07 338.58 485.72 339.24 485.25 341.56 484.74 342.53 484.23 Z" data-name="Madera" data-geoid="06039"/>
<path d="M 180.61 474.26 179.49 473.37 179.86 472.5 179.18 471.75 178.3 471.99 177.54 471.06 178.28 469.75 176.74 467.07 176.83 466.08 177.74 464.06 177.35 462.44 177.88 461.78 177.67 460.16 179.8 457.98 184.91 456.79 186.07 455.65 188.29 457.42 189.56 456.9 192.61 456.68 194.27 457.32 196.89 456.91 198.13 457.95 199.66 456.98 201.58 456.26 202.74 454.99 214.33 455.09 216.25 455.17 233.01 455.23 231.92 455.87 232.11 456.8 233.67 457.98 233.84 459.44 233.01 460.95 234.26 462.56 234.24 463.64 235.83 463.59 237.64 464.24 236.79 467.2 237.01 468.57 237.9 469.94 238.03 471.64 236.85 472.99 234.44 474.45 234.31 477.81 235.39 479.58 236.86 480.43 237.71 483.09 238.25 486.85 239.88 487.29 239.8 485.93 241.45 484.19 242.11 484.15 244.13 485.89 246.49 485.84 247.69 484.17 249.23 486.52 251.12 486.7 251.96 488.91 252.69 490.04 250.71 492.97 253.28 495.34 253.34 496.26 252.22 496.37 252.14 498.09 251.24 498.36 250.48 499.46 251.3 500.64 251.47 501.99 250.55 502.61 250.49 503.56 251.55 504.93 252.84 505.67 237.2 505.73 234.96 503.57 233.7 503.39 233.37 504.17 231.75 503.55 230.27 505.44 229.83 507.22 228.24 508.59 227.81 509.57 226.39 510.56 226.25 511.85 224.63 511.66 224.64 509.72 223.93 509.05 222.64 509.06 221.28 507.67 219.66 508.46 218.24 505.48 215.62 504.57 215.84 503.36 214.1 502.36 214.03 501.2 212.69 500.45 212.46 499.3 211.04 497.13 210.48 497.16 208.81 495.92 207.06 495.23 206.42 493.94 203.99 492.36 203 492.33 201.23 491.51 199.24 490.98 198.19 490.21 195.91 489.46 194.49 488.25 193.04 487.99 192.13 486.61 190.34 485.81 189.84 483.94 188.69 482.12 186.26 480.36 185.43 480.34 182.85 476.84 181.24 475.8 180.61 474.26 Z" data-name="Santa Clara" data-geoid="06085"/>
<path d="M 231.08 161.32 231.06 162.7 232.47 163.97 232.18 165.74 232.36 169.32 233.18 170.98 235.31 171.2 236.35 170.97 237.68 171.74 240.01 171.96 241.01 173.47 243.06 175.07 241.95 176.31 240.4 176.26 242.54 179.65 241.15 181.56 241.56 183.58 241.05 184.92 239.76 185.12 238.04 187.03 235.59 186.66 235.82 187.99 235.13 188.41 235.38 191 235.77 191.01 235.31 191.34 235.3 193.26 234.53 194.02 232.37 193.99 231.6 195.43 230.09 195.44 230.09 196.19 224.24 196.19 223.51 196.91 223.53 200.51 222.52 200.77 221.18 202.34 221.18 203.74 220.4 203.72 220.46 206.64 219.65 206.61 219.64 208.08 215.33 207.89 213.53 209.64 211.91 212.5 211.58 215.69 209.54 217.53 207.46 217.95 201.25 218.06 188.89 218 189.21 218.39 188 220.18 187.79 221.45 187 222.35 187.93 223.53 187.42 225.35 188.77 226.65 178.61 226.67 172.99 226.49 158.85 226.45 144.68 226.46 127.27 226.36 120.06 226.6 119.6 226.25 119.39 223.12 118.33 221.88 119.06 219.48 119.29 216.96 119.16 215.56 121.41 214.64 121.38 213.47 121.95 212.77 120.9 211.84 120.89 209.21 120.34 208.52 120.27 207.71 118.98 206.49 119.12 204.96 118.62 204.31 119.13 203.09 118.89 200.3 117.69 199.39 117.32 198.51 118.26 196.25 117.51 194.62 117.29 193.22 117.68 192.31 116.24 191.69 116.49 188.99 117.56 187.54 116.8 184.67 117.17 182.87 116.1 181.1 115.01 180.8 113.82 179.82 112.43 179.97 111.32 179.31 110.21 177.38 112.08 176.97 113.31 175.69 115.36 175.3 117.06 174.53 117.7 174.96 120.26 174.72 121.07 175.41 122.44 174.25 124.84 171.22 126.51 171.73 129.64 170.89 130.25 170.41 132.13 170.13 134.64 169.41 136.05 170.19 135.93 171.3 137.64 171.19 139.2 172.22 142.22 173.16 145.31 171.37 147.75 169.18 148.93 169.39 150.09 168.11 151.09 167.97 152.26 166.58 153.66 167.63 156.08 167.57 156.65 168.4 158.04 168.63 159.79 168.04 160.54 168.52 164.22 168.56 165.83 168.89 167.6 168.49 168.42 168.87 169.67 167.92 170.7 168.39 172.62 167.97 172.99 167.24 177.02 167.86 177.37 166.85 180.06 166.25 182.38 166.07 184.28 164.91 189.61 163.95 191.56 163.25 196.14 164.02 196.9 164.39 198.81 163.4 199.91 163.81 201.82 162.2 203.84 161.63 204.81 162.14 207.27 161.39 208.73 161.52 209.58 162.12 212.84 162.33 214.76 160.8 216.58 160.56 220.14 162.21 222.5 162.06 224.07 162.74 224.96 161.64 225.88 161.3 231.08 161.32 Z" data-name="Tehama" data-geoid="06103"/>
<path d="M 267.36 375.31 269.79 382.66 270.9 385.89 274.16 396.1 275.12 397.17 275.13 415.82 275.45 429.38 275.57 430.3 273.73 429.93 272.99 430.3 270.81 428.49 269.77 428.17 269.25 428.98 268.08 428.65 267.23 430.07 265.87 429.88 265.26 429.22 263.98 430.33 262.97 429.97 259.52 431.67 257.43 432.1 257.17 433.61 255.81 434.15 255.38 434.98 252.65 435.43 252.27 436.98 250.85 437.54 240.67 447.64 233.06 455.27 233.27 454.5 232.28 453.36 231.42 453.26 230.56 450.99 229.18 451.1 227.37 450.34 226.53 449.35 226.51 422.61 227.09 421.01 227.63 421.03 228.26 419.42 226.92 418.39 225.36 418.38 224.78 417.23 225.37 414.28 226.55 412.25 225.88 408.67 225.22 408.03 225.23 406.67 224.65 405.77 224.83 404.33 226.46 403.12 225.34 400.69 224.37 400.49 224.56 398.05 224.98 397.09 224.73 395.5 225.83 394.44 224.67 393.88 224.42 392.98 225.01 392.11 226.48 391.12 226.41 390.62 228.12 389.86 229 387.62 228.65 385.76 229.92 384.9 230.57 383.92 230.32 382.94 231.54 382.44 232.44 379.9 233.14 379.27 234.72 379.79 236.37 379.79 237.03 381.5 238.94 382.41 239.41 381.91 242.92 382.38 246.88 381.34 247.36 380.54 248.76 380.02 250.36 380.7 252.29 380.8 253.77 380.37 254.48 379.68 256.1 379.74 258.11 378.88 259.6 377.55 260.44 377.56 262.95 376.68 264.45 375.39 265.58 376.15 267.36 375.31 Z" data-name="San Joaquin" data-geoid="06077"/>
<path d="M 170.63 433.24 165.62 423.21 163.53 416.11 168.38 414.74 170.11 414.73 172 414.16 173.16 415.81 175.09 416.64 175.36 418 178.15 420.98 178.01 422.27 179.49 422.98 180.22 422.54 181.52 423.84 188.85 424.47 191.27 426.22 192.52 427.87 191.44 429.42 193.12 430.76 194.47 431.26 195.38 432.22 209.28 428.01 218.08 425.22 221.33 424.37 226.34 422.44 226.51 422.61 226.53 449.35 227.37 450.34 229.18 451.1 230.56 450.99 231.42 453.26 232.28 453.36 233.27 454.5 233.06 455.27 233.01 455.23 216.25 455.17 214.33 455.09 202.74 454.99 201.58 456.26 199.66 456.98 198.13 457.95 196.89 456.91 194.27 457.32 192.61 456.68 189.56 456.9 188.29 457.42 186.07 455.65 183.9 453.73 177.96 444.48 170.63 433.24 Z" data-name="Alameda" data-geoid="06001"/>
<path d="M 346.25 261.94 346.07 269.02 346.06 274.77 309.5 274.8 296.75 274.9 296.53 275.27 293.94 275.72 292.39 276.43 291.78 277.15 290.43 277.6 288.93 278.91 288.21 279.97 286.02 281.57 284.54 283.05 283.58 283.39 282.24 284.55 280.65 285.47 279.56 288.28 277.39 288.7 276.29 289.94 274.31 291.2 273.37 292.57 272.06 293.53 270.5 296.08 269.99 298.82 268.9 300.16 268.81 301.07 267.21 302.42 266.24 304.87 263.25 305.55 262.49 304.82 261.34 305.03 258.81 302.47 257.69 303.58 255.08 304.96 252.35 305.05 251.71 303.94 250.87 304.11 247.9 302.8 247.9 283.33 248.72 282.36 248.77 281.05 249.47 280.75 248.87 279.24 250.93 278 252.41 278.15 252.78 277.28 254.02 276.17 253.54 274.77 254.37 273.46 255.65 272.57 257.29 272.5 257.52 271.56 260.02 268.55 261.66 268.31 263.32 267.15 264.7 267.27 266.99 266.87 267.74 267.28 268.87 266.53 270.01 265 271.61 264.55 272.74 264.87 274.7 264.73 276.17 263.96 277.62 264.03 279.92 263.39 280.39 262.94 284.09 262.83 288.28 261.18 289.68 259.44 291.45 258.29 292.43 256.29 293.64 255.73 294.27 254.7 295.74 254.08 300.48 254.39 302.04 254.14 303.67 255.12 304.21 257.01 305.36 258.11 305.33 260.01 307.57 261.84 327.19 261.83 335.29 261.93 346.25 261.94 Z" data-name="Nevada" data-geoid="06057"/>
<path d="M 188.77 226.65 187.42 225.35 187.93 223.53 187 222.35 187.79 221.45 188 220.18 189.21 218.39 188.89 218 201.25 218.06 207.46 217.95 209.54 217.53 211.58 215.69 211.91 212.5 213.53 209.64 215.33 207.89 219.64 208.08 219.65 206.61 220.46 206.64 220.4 203.72 221.18 203.74 221.18 202.34 222.52 200.77 223.53 200.51 223.51 196.91 224.24 196.19 230.09 196.19 230.09 195.44 231.6 195.43 232.37 193.99 234.53 194.02 235.3 193.26 235.31 191.34 235.77 191.01 238.26 191.04 238.23 194.68 239.69 194.64 240.42 195.38 240.4 197.65 241.17 197.65 241.14 199.08 240.39 199.09 239.98 201.1 238.58 201.07 238.58 203.24 237.87 203.23 237.87 204.73 237.11 204.73 237.08 207.57 237.82 207.59 237.81 210.49 237.08 210.48 237.02 213.41 237.75 213.42 237.76 214.86 236.29 214.88 236.3 216.34 237.76 216.33 237.69 219.25 240.14 220.85 241.6 220.85 241.65 222.33 242.38 222.37 242.4 223.84 243.83 223.84 243.83 225.31 244.89 225.32 245.01 226.75 245.72 227.48 246.77 227.49 247.48 228.26 247.41 229.66 248.76 229.55 248.78 231.01 250.12 231.03 250.31 232.43 251.74 232.41 251.76 233.87 253.19 233.87 253.36 236.41 254.76 236.45 254.78 237.91 256.25 237.89 256.25 239.34 257.49 240.77 258.93 240.77 258.91 243.64 260.46 243.65 261.93 244.36 262.59 246.13 263.53 246.73 263.31 247.93 261.16 247.93 261.2 249.74 258.56 250.23 257.89 250.93 257.89 253.81 257.17 254.5 255.15 254.48 255.17 253.79 250.91 253.8 250.93 255.15 248.09 255.17 248.11 254.43 245.92 254.5 245.9 256.67 245.16 257.76 245.18 258.86 243.37 259.95 242.72 261.93 243.1 264.2 241.77 265.53 241.38 267.96 240.7 269.97 238.57 271.43 238.03 272.45 235.27 273.27 234.1 272.9 232.83 273.09 232.08 274.29 231.22 274.55 228.46 274.63 226.03 275.91 225.18 275.36 223.64 275.63 222.49 274.47 221.36 276.85 220.87 275.84 208.51 276.04 199.42 276.02 199.71 273.83 200.49 272.31 200.08 271.03 201.3 268.99 200.83 268.05 200.81 267.38 201.84 262.61 202.3 261.47 202.24 257.38 201.81 255.5 203.03 253.96 203.41 252.77 196.58 252.85 194.35 253.57 192.81 253.06 192.1 250.63 192.93 249.74 192.09 249.13 192.73 248.23 192.68 246.14 193.89 244.57 192.94 243.49 193.35 242.06 194.8 241.62 194.66 240.66 192.62 240.06 194.29 238.9 195.32 238.72 195.67 237.69 196.86 236.63 196.13 234.94 194.83 234.24 194.48 233.28 193.6 232.89 192.72 231.44 190.46 229.63 189.86 228.41 190.51 226.65 188.77 226.65 Z" data-name="Butte" data-geoid="06007"/>
<path d="M 316.65 440.53 321.98 451.51 322.53 453.77 323.48 454.58 324.99 457.59 325.34 458.98 324.61 460.14 326.03 463.15 327.61 465.47 329.85 469.29 330.85 471.62 332.07 472.81 332.46 473.74 332.38 475.77 333.32 477.11 335.45 478.8 339.36 480.41 341.75 482.79 342.53 484.23 341.56 484.74 339.24 485.25 338.58 485.72 335.55 486.07 333.42 485.89 331.52 486.16 329.02 486.14 328.64 486.47 325.26 487.22 324.05 487.24 323.12 488.29 321.52 488.75 320.24 489.89 318.53 490.36 316.87 489.89 315.39 490.75 311.63 492.38 309.79 492.62 304.78 497.63 300.64 501.78 301.02 503.7 301.01 506.5 295.97 506.48 289.93 512.54 275.71 526.95 274.56 525.84 258.54 517.68 257.66 515.24 256.83 514.54 256.36 512.98 255.24 511.92 254.89 510.3 252.71 510.27 251.35 508.98 251.67 507.86 252.6 506.96 252.84 505.67 251.55 504.93 250.49 503.56 250.55 502.61 251.47 501.99 251.3 500.64 250.48 499.46 251.24 498.36 252.14 498.09 252.22 496.37 253.34 496.26 253.28 495.34 250.71 492.97 252.69 490.04 251.96 488.91 262.58 478.16 264.33 476.5 271.53 469.18 271.88 468.45 271.07 467.37 271.32 466.34 269.99 464.64 270.7 463.25 278.2 459.31 281.73 457.72 316.65 440.53 Z" data-name="Merced" data-geoid="06047"/>
<path d="M 382.15 617.86 382.18 604.05 382.3 601.32 382.29 584.68 382.84 584.68 382.83 572.08 387.05 572.16 386.98 564.3 387.03 559.53 382.87 559.48 382.9 551.1 379.45 551.11 387.69 542.82 400.12 542.96 400.15 534.62 404.29 534.56 409.89 534.78 416.82 534.91 424.81 534.95 424.99 526.82 451.27 527.08 457.94 527.07 457.91 526.53 472.93 526.52 474.55 528.04 474.93 530.3 474 531.16 473.07 531.25 473.93 533.4 475.34 534.03 474.66 535.11 475.66 535.91 476 537.84 477.46 538.7 477.83 539.74 479.56 540.7 478.45 541.33 478.06 542.71 478.34 544.42 480.28 545.09 481.3 545.99 481.39 547.58 482.31 547.77 482.12 550.03 481.54 551.33 482.8 553.26 484.09 554.18 484.53 555.33 484.17 556.26 485.81 557.08 487.26 557.06 488.63 556.49 490.1 557.89 489.92 559.28 488.4 560.21 488.93 561.58 490.63 562.42 491.42 564.39 493 564.78 493.02 566.44 491.93 567.35 492.22 568.25 491.03 569.32 490.9 571.07 491.68 571.95 491.53 573.44 492.62 575.54 492.31 576.31 492.88 577.91 493.74 579.01 495.1 579.82 495.95 581.21 496.08 583.55 495.22 584.16 495.21 585.51 495.75 587.3 495.57 589.02 496.21 589.08 496.89 590.52 496.75 592.16 497.44 593.21 498.14 596.98 499.8 598 500.46 599.39 499.33 601.55 500.2 602.93 501.35 603.19 502.02 604.83 501.5 605.84 502.08 607.76 501.6 609.29 500.31 610.91 500.39 613.44 500.84 614.65 500.14 615.35 500.11 617.9 495.51 617.68 479.92 617.82 472.45 617.76 464.54 617.57 461.63 617.85 452.17 617.86 434.55 617.77 418.39 617.74 396.22 617.8 382.15 617.86 Z" data-name="Tulare" data-geoid="06107"/>
<path d="M 275.12 397.17 279 401.92 282.34 405.35 288.51 412.24 289.14 413.31 296.18 421.18 304.77 429.17 316.66 440.5 316.65 440.53 281.73 457.72 278.2 459.31 270.7 463.25 269.99 464.64 271.32 466.34 271.07 467.37 271.88 468.45 271.53 469.18 264.33 476.5 262.58 478.16 251.96 488.91 251.12 486.7 249.23 486.52 247.69 484.17 246.49 485.84 244.13 485.89 242.11 484.15 241.45 484.19 239.8 485.93 239.88 487.29 238.25 486.85 237.71 483.09 236.86 480.43 235.39 479.58 234.31 477.81 234.44 474.45 236.85 472.99 238.03 471.64 237.9 469.94 237.01 468.57 236.79 467.2 237.64 464.24 235.83 463.59 234.24 463.64 234.26 462.56 233.01 460.95 233.84 459.44 233.67 457.98 232.11 456.8 231.92 455.87 233.01 455.23 233.06 455.27 240.67 447.64 250.85 437.54 252.27 436.98 252.65 435.43 255.38 434.98 255.81 434.15 257.17 433.61 257.43 432.1 259.52 431.67 262.97 429.97 263.98 430.33 265.26 429.22 265.87 429.88 267.23 430.07 268.08 428.65 269.25 428.98 269.77 428.17 270.81 428.49 272.99 430.3 273.73 429.93 275.57 430.3 275.45 429.38 275.13 415.82 275.12 397.17 Z" data-name="Stanislaus" data-geoid="06099"/>
<path d="M 491.03 814.2 491.52 810.5 492 809.58 493.64 808.52 493.3 806.53 494.21 804.37 495.86 802.85 496.19 800.38 496.85 800.03 498.51 797.86 499.85 797.15 501.19 795.8 502.54 795.12 502.55 791.1 512.15 791.03 517.44 791.07 520.11 793.36 525.38 797.48 525.89 798.09 525.85 799.29 526.78 799.33 533.05 807.5 536.47 808.59 536.66 812.98 541.24 813.58 545.99 817.73 539.54 827.58 538.49 829.31 538.53 831.99 538.54 835.07 536.32 836.55 534.81 836.92 533.23 836.71 531.64 843.99 530.72 847.78 528.78 846.39 527.42 844.94 522.82 840.88 520.67 840.75 518.84 838.78 516.89 836.03 516.67 835.24 515.28 834.11 514.89 833.29 505.82 827.89 500.72 823.87 498.14 822.33 493.3 818.23 491.03 814.2 Z" data-name="Orange" data-geoid="06059"/>
<path d="M 646.74 913.53 646.78 903.65 646.97 903.65 646.93 893.36 646.99 878.54 646.96 871.68 648.67 871.66 648.66 860.96 648.36 847.3 648.36 839.29 667.35 839.19 695.98 839.2 695.98 839.07 712.68 839.08 722.32 839.01 727.15 839.09 731.96 838.97 745.06 838.91 745.06 838.58 760.77 838.59 759.52 840.14 758.37 840.49 757.18 839.92 755.48 840.29 755.01 840.92 753.6 840.96 753.28 841.65 754.59 843.3 755.22 845.28 755.08 847.5 754.39 848.97 752.74 850.69 753.36 852.02 755.58 852.78 756.92 853.67 757.12 855.01 755.96 855.97 757.12 857.79 756.79 859.82 757.06 861.23 756.74 863.6 756.12 865.48 755.39 866.48 754.54 869.58 754.65 870.44 756 870.81 756.15 872.02 757.13 873.29 757.4 875.05 758.4 875.43 758.93 874.49 759.81 874.38 761.41 876.04 763.01 876.21 764.53 875.29 769.02 875.79 770.08 876.94 770.58 878.18 770.9 880.37 771.33 881.31 772.99 881.15 773.06 882.53 772.04 884.4 772.46 885.69 773.43 887 772.96 892.77 771.02 894.78 769.77 895.4 768.13 897.72 768.5 900.84 767.54 901.51 765.6 901.53 764.27 902.2 764.26 902.87 761.69 902.91 761.63 903.46 755.95 902.58 754.98 901.91 753.64 904.36 731.96 906.1 712.68 907.7 690.89 909.55 646.74 913.53 Z" data-name="Imperial" data-geoid="06025"/>
<path d="M 199.42 276.02 208.51 276.04 220.87 275.84 221.36 276.85 220.42 280.28 220.39 281.78 221.07 282.93 222.09 283.5 222.13 284.92 220.95 285.9 222.19 287.33 221.77 288.08 221.99 289.5 222.77 291.49 222.61 292.24 223.37 293.54 222.91 294.67 223.09 295.89 224.16 296.15 224.28 297.33 222.41 300.49 222.76 303 223.6 303.88 223.23 304.83 224.58 305.34 224.01 307.19 224.53 310.63 225.4 312.29 226.16 310.85 226.77 310.82 227.56 308.97 229 309.06 230.2 307.94 231.39 307.79 232.28 306.88 234.27 306.41 235.23 306.9 237.47 306.59 237.5 313.55 233.26 313.57 233.23 330.83 232.1 330.86 232.1 332.51 229.22 332.33 222.97 332.39 223.76 329.72 222.56 327.94 221.33 327.51 220.66 329.05 217.79 330.07 216.56 329.67 216.53 328.48 215.29 325.76 213.68 325.67 213.67 323.51 213.13 320.2 211.64 319 210.08 319.96 207.67 319.69 206.63 318.47 207.53 316.4 207.34 314.65 205.46 314.26 205.03 313.72 205.45 312.34 204.66 310.74 205.3 309.09 206.12 308.74 206.29 307.37 207.61 307.25 208.11 306.56 205.77 305.18 206.15 304.22 205.89 303.08 204.78 301.76 204.82 299.99 204.07 299.2 202.39 299.6 200.51 298.49 200.5 296.69 199.6 295.89 199.11 293.93 197.13 293.03 197.01 292.2 198.6 292.11 198.51 291.04 197.37 290.15 196.55 288.26 197.88 286.49 196.87 284.2 196.35 282.35 197.21 279.6 197.84 279.26 198.35 277.71 199.42 276.02 Z" data-name="Sutter" data-geoid="06101"/>
<path d="M 267.33 354.84 268.7 353.93 271.42 354.09 274.15 352.91 274.86 353.91 276.31 353.64 276.94 352.61 278.1 353.25 278.51 351.96 280.01 352.12 280.05 351.39 281.72 350.14 283.07 349.78 286.48 350.3 287.9 350.25 288.93 350.89 290.84 351.01 291.16 351.55 293.33 352.93 294.32 353.87 295.74 354.14 298.09 355.35 301.84 355.33 303.86 354.49 304.7 354.7 307.18 354.53 309.09 353.57 313.01 353.03 317.76 351.22 319.21 350.92 322.09 351.22 323.48 350.13 325.38 349.8 326.3 347.91 328.51 346.96 328.61 345.8 330.14 342.91 332.77 342.47 334.35 342.52 335.74 342.02 336.13 340.42 337.55 337.93 337.16 336.32 338 335.37 340.56 335.05 340.96 335.66 340.95 354.69 336.89 356.07 335.56 355.86 333.87 356.23 330.68 355.56 327.91 357.12 326.5 356.97 325.79 357.85 323.9 357.89 323.06 358.41 320.47 358.87 318.63 358.94 317.3 359.5 316.73 358.99 314.75 358.75 313.91 358.29 312.31 359.46 312.02 360.24 309.08 361.01 308.02 360.81 307.64 361.63 305.67 363.65 304.92 363.27 302.77 364.03 302.27 365.32 299.58 365.83 299.14 366.55 299.2 368.21 298.77 369.66 296.69 371.94 295.13 372.24 293.16 373.57 289.62 374.57 288.59 375.73 287.39 376.29 285.6 376.46 284.09 377.1 281.26 378.85 280.44 380.51 278.78 381.15 277.71 383.04 276.17 382.26 274.29 383.12 273.04 382.57 271.6 383.39 269.79 382.66 267.36 375.31 267.33 354.84 Z" data-name="Amador" data-geoid="06005"/>
<path d="M 124.09 248.45 128.48 248.49 129.59 248.32 132.8 248.51 135.64 248.39 135.57 255.6 135.9 257.12 135.87 261.37 135.17 262.92 135.37 268.11 131.82 268.14 132.66 268.94 133.51 268.65 135.03 269.62 135.17 270.54 134.35 271.82 133.35 272.15 132.6 275.24 133.9 277.01 133.98 277.97 136.09 279.05 137.93 280.91 139.05 281.64 141.05 284.62 142.23 284.98 143.38 284.07 144.38 284.07 145.31 284.76 147.41 285.14 148.14 285.94 150.61 285.68 151.58 285.23 152.62 285.45 152.74 286.76 153.92 287.25 154.27 288.54 155.55 288.96 155.18 289.97 155.77 291.86 154.03 292.97 153.73 294.21 154.59 296.34 155.05 299.59 154.48 300.97 156.44 301.43 158.64 304.11 160.48 304.23 160.85 305.54 160.02 307.31 160.88 308.91 160.81 309.92 161.97 310.64 163.59 312.2 166.13 313.74 161.2 313.64 159.81 316.06 160.31 316.43 161.89 319.69 161.21 320.54 162.9 322.7 163.56 324.36 163.1 325.84 161.67 325.65 160.57 327.45 160.82 328.39 156.59 335.42 143.98 339.14 144.13 338.46 143.05 337.01 142.5 335.32 140.52 335.31 139.01 334.85 138.31 333.08 137.58 332.76 137.48 330.92 136.84 330.64 135.66 328.26 134.67 327.25 134.63 325.63 133.78 325.21 132.2 323.39 131 322.4 130.01 322.42 129.01 321.08 129.03 320.31 127.58 320.31 127.59 319.51 124.84 318.04 123.38 318.05 123.44 316.59 122.09 316 119.2 316.13 119.18 313.63 118.19 313.62 116.97 311.52 117 307.93 116.29 306.5 113.09 306.57 113.1 305.59 110.92 304.14 110.93 301.28 110.24 299.84 108.79 299.83 108.09 299.09 107.99 296.77 108.5 295.3 108.51 292.49 109.23 292.46 109.26 288.97 111.72 289 113.38 285.66 114.28 282.76 115.65 282.79 115.68 280.72 114.98 280.65 114.91 278.58 113.74 278.6 113.74 274.24 113.04 274.24 112.35 272.8 112.33 270.04 111.51 270.02 110.85 268.57 110.91 265.68 109.46 265.67 109.62 261.18 110.4 261.2 110.38 256.1 111.83 256.1 111.83 255.34 113.33 255.34 113.31 254.59 120.14 254.82 120.14 253.39 123.71 253.56 124.09 248.45 Z" data-name="Lake" data-geoid="06033"/>
<path d="M 235.77 191.01 235.38 191 235.13 188.41 235.82 187.99 235.59 186.66 238.04 187.03 239.76 185.12 241.05 184.92 241.56 183.58 241.15 181.56 242.54 179.65 240.4 176.26 241.95 176.31 243.06 175.07 241.01 173.47 240.01 171.96 237.68 171.74 236.35 170.97 235.31 171.2 233.18 170.98 232.36 169.32 232.18 165.74 232.47 163.97 231.06 162.7 231.08 161.32 238.5 161.24 241.22 161.29 242.73 160.91 244.17 161.35 264.71 161.23 264.76 172.34 264.71 180.46 266.25 180.46 266.25 182.65 269.14 182.63 269.16 184.04 273.6 184.06 273.52 185.5 274.99 185.51 274.95 186.97 277.88 186.96 277.88 186.22 279.33 186.22 279.33 181.96 280.77 181.94 282.24 180.49 282.26 179.02 283.71 179.02 285.17 178.31 285.12 175.96 286.89 175.91 287.61 174.44 290.53 174.45 290.54 175.21 296.26 175.28 297.01 176.75 298.54 176.76 298.53 177.5 302.07 177.53 302.08 179.72 304.24 179.74 304.24 180.48 305.7 181.19 307.16 181.22 307.17 182.66 308.63 182.65 308.61 184.11 309.35 184.12 309.32 185.57 311.52 185.58 311.53 187.03 312.9 189.23 314.4 189.24 315.12 189.98 315.09 191.47 315.83 192.15 317.31 192.16 317.29 193.27 318.74 193.98 320.22 193.97 320.22 194.71 325.33 194.75 326.06 195.46 327.52 195.45 327.51 197.68 330.38 197.66 330.28 202.01 331.02 202.01 331.03 204.96 332.47 204.97 332.48 206.47 333.2 206.49 333.18 207.94 333.94 207.95 333.93 209.47 334.64 209.48 336.77 211.57 336.78 212.4 338.16 212.4 338.15 215.33 338.87 215.33 338.88 218.26 338.21 218.26 338.23 227 338.01 229.85 337.32 229.86 336.7 231.34 336.69 232.82 335.24 232.79 335.2 235.68 312.13 235.58 310.67 235.8 296.1 235.78 295.66 237.83 294.06 238.76 292.96 237.27 290.99 235.66 289.95 235.62 288.76 234.48 287.2 234.64 285.61 235.39 285.27 234.6 283.96 233.9 283.86 232.2 281.75 231.73 280.28 229.38 279.35 228.77 277.52 230.44 276.09 230.71 274.51 232.56 274.52 236.28 273.35 239.19 272.23 239.95 270.52 241.97 268.72 242.51 263.53 246.73 262.59 246.13 261.93 244.36 260.46 243.65 258.91 243.64 258.93 240.77 257.49 240.77 256.25 239.34 256.25 237.89 254.78 237.91 254.76 236.45 253.36 236.41 253.19 233.87 251.76 233.87 251.74 232.41 250.31 232.43 250.12 231.03 248.78 231.01 248.76 229.55 247.41 229.66 247.48 228.26 246.77 227.49 245.72 227.48 245.01 226.75 244.89 225.32 243.83 225.31 243.83 223.84 242.4 223.84 242.38 222.37 241.65 222.33 241.6 220.85 240.14 220.85 237.69 219.25 237.76 216.33 236.3 216.34 236.29 214.88 237.76 214.86 237.75 213.42 237.02 213.41 237.08 210.48 237.81 210.49 237.82 207.59 237.08 207.57 237.11 204.73 237.87 204.73 237.87 203.23 238.58 203.24 238.58 201.07 239.98 201.1 240.39 199.09 241.14 199.08 241.17 197.65 240.4 197.65 240.42 195.38 239.69 194.64 238.23 194.68 238.26 191.04 235.77 191.01 Z" data-name="Plumas" data-geoid="06063"/>
<path d="M 148.01 433.38 155.97 433.23 170.63 433.24 177.96 444.48 183.9 453.73 186.07 455.65 184.91 456.79 179.8 457.98 177.67 460.16 177.88 461.78 177.35 462.44 177.74 464.06 176.83 466.08 176.74 467.07 178.28 469.75 177.54 471.06 178.3 471.99 179.18 471.75 179.86 472.5 179.49 473.37 180.61 474.26 180.57 481.1 173.65 481.13 173.64 483.56 170.1 483.88 167.86 483.86 168.31 487.67 170.04 490.96 169.27 492.62 168.15 496.64 166.42 496.73 164.6 496.29 163.36 495.59 161.87 492.87 161.75 491.31 160.8 490.55 159.87 488.88 158 487.43 156.57 484.74 155.94 481.41 155.42 480.5 155.03 477.76 155.21 475.71 156.44 468.91 156.35 468.07 154.77 464.34 153.53 462.06 153.04 459.18 151.68 458.74 150.18 457.59 148.55 455.52 148.02 453.51 147.67 449.04 147.14 447.48 147.14 444.5 148.6 439.96 148.01 433.38 Z" data-name="San Mateo" data-geoid="06081"/>
<path d="M 234.94 2.25 234.94 7.14 234.2 7.18 234.22 25.15 234.83 25.14 234.86 37.49 234.85 60.92 235.02 60.96 235.02 86.16 226.1 86.12 218.84 86.17 192.27 86.17 182.63 86.21 180.97 86.05 167.85 86.02 163.35 86.22 153.93 86.24 154 84.92 152.61 83.95 152.06 83.08 152.86 81.75 152.41 80.78 153.17 79.82 152.73 78.81 152.78 75.89 153.94 74.65 153.72 73.21 155.44 72.15 153.48 70.65 153.5 69.8 151.04 69.95 149.82 67.88 148.43 67.24 147.23 68.15 147.49 70.47 146.8 71.55 144.71 71.39 143.98 70.92 142.57 71.7 142.58 73.72 141.73 75.1 137.46 76.8 136.49 78.2 136.49 79.52 134.25 80.17 132.45 81.3 132.12 82.6 129.8 84.21 128.73 83.44 127.41 84.39 125.23 83.94 123.19 84.36 121.78 85.78 120.22 86.79 119.01 85.94 118.13 86.58 118.76 87.85 118.98 89.48 117.95 90.75 118.34 92.25 117.31 93.47 117.49 95.71 118.04 96.77 119.72 97.76 121.17 97.57 122.48 101.19 123.11 101.8 122.85 103.43 121.97 104.04 121.87 105.14 120.27 105.7 119.46 105.42 118.96 104.27 117.98 103.7 115.47 103.57 113.37 104.51 112.42 104.51 111.59 102.4 111.72 101.53 111 100.15 109.08 99.04 107.8 98.83 106.85 97.22 105.01 96.89 100.37 97.02 99.59 97.59 96.35 96.96 95.43 95.53 94.97 93.82 94.18 92.36 93.37 91.99 91.86 90.22 90.2 90.45 89.84 89.42 87.93 88.24 85.87 89.45 84.98 88.44 84.92 87.47 83.78 86.52 83.1 84.77 81.69 83.1 81.5 81.71 80.15 80.69 81.12 79.39 80.81 76.67 79.66 76.03 80.14 74.95 79.53 72.39 78.44 71.36 78.06 68.7 78.71 67.41 76.62 65.73 64.27 65.78 64.68 64.42 65.79 63.92 65.99 62.91 65.25 61.8 67.3 60.59 68.04 58.91 68.09 57.55 67.35 57.37 66.26 55.58 66.24 54.49 65.43 52.16 65.6 51.22 64.93 49.6 62.88 49.11 61.76 47.79 62.71 46.24 62.63 44.79 59.81 43.81 60.44 41.8 61.55 40.44 62.84 39.54 62.18 37.92 62.09 36.19 63.82 33.89 63.67 32.37 64.36 31.58 64.23 30.35 62.96 29.05 62.57 25.84 62.19 24.64 63.14 24.25 63.4 23.16 62.06 22.38 61.01 19.65 62.61 18.86 64.25 16.86 65.09 16.55 64.97 14.56 65.89 13.35 67.11 13.55 67.93 14.33 69.2 12.96 69.47 11.81 71.66 12.03 72.57 10.89 72.53 9.22 74.14 6.66 73.79 3.81 74.07 2.93 75.33 1.91 80.87 1.92 88.47 2.06 101.08 1.39 104.02 1.08 111.86 1.67 125.03 1.57 136.74 1.56 144.14 1.45 152.62 1.15 160.23 1.12 163.21 1 172.2 1.2 179.66 1.23 192.65 1.58 203.3 1.68 225.91 2.12 234.94 2.25 Z" data-name="Siskiyou" data-geoid="06093"/>
<path d="M 180.61 474.26 181.24 475.8 182.85 476.84 185.43 480.34 186.26 480.36 188.69 482.12 189.84 483.94 190.34 485.81 192.13 486.61 193.04 487.99 194.49 488.25 195.91 489.46 198.19 490.21 199.24 490.98 201.23 491.51 203 492.33 203.99 492.36 206.42 493.94 207.06 495.23 208.81 495.92 210.48 497.16 211.04 497.13 212.46 499.3 212.69 500.45 214.03 501.2 214.1 502.36 215.84 503.36 215.62 504.57 218.24 505.48 219.66 508.46 221.28 507.67 222.64 509.06 223.93 509.05 224.64 509.72 224.63 511.66 222.62 511.63 220.92 510.45 219.8 512.15 219.04 510.43 218.02 510.39 216.97 511.26 214.71 510.1 211.99 510.67 209.78 513.17 208.77 513.02 207.5 514.71 207.64 515.76 206.64 516.44 201.91 517.46 192.27 518.87 188.35 519.32 187.08 513.99 186.46 510.59 182.29 509.13 179.09 507.46 176.21 505.63 172.99 503.29 171.87 501.92 171.04 499.53 169.97 498.83 168.15 496.64 169.27 492.62 170.04 490.96 168.31 487.67 167.86 483.86 170.1 483.88 173.64 483.56 173.65 481.13 180.57 481.1 180.61 474.26 Z" data-name="Santa Cruz" data-geoid="06087"/>
<path d="M 120.06 226.6 127.27 226.36 144.68 226.46 158.85 226.45 172.99 226.49 178.61 226.67 188.77 226.65 190.51 226.65 189.86 228.41 190.46 229.63 192.72 231.44 193.6 232.89 194.48 233.28 194.83 234.24 196.13 234.94 196.86 236.63 195.67 237.69 195.32 238.72 194.29 238.9 192.62 240.06 194.66 240.66 194.8 241.62 193.35 242.06 192.94 243.49 193.89 244.57 192.68 246.14 192.73 248.23 192.09 249.13 192.93 249.74 192.1 250.63 192.81 253.06 194.35 253.57 196.58 252.85 203.41 252.77 203.03 253.96 201.81 255.5 202.24 257.38 202.3 261.47 201.84 262.61 200.81 267.38 200.83 268.05 191.6 268.05 192.06 266.74 191.67 265.09 181.85 264.99 181.87 267.89 159.1 268.06 153.22 268.03 146.51 267.88 135.37 268.11 135.17 262.92 135.87 261.37 135.9 257.12 135.57 255.6 135.64 248.39 132.8 248.51 129.59 248.32 128.48 248.49 124.09 248.45 124.16 245.38 123.7 244.16 123.53 235.55 121.97 235.57 122 231.62 120 231.62 120.06 226.6 Z" data-name="Glenn" data-geoid="06021"/>
<path d="M 330.05 617.89 331.57 617.9 331.59 634.5 339.92 634.48 339.86 642.82 341.25 642.84 341.23 644.12 342.59 644.13 342.61 645.46 343.98 645.46 343.97 646.88 345.42 646.88 345.34 648.27 346.74 648.3 346.74 651.06 355.79 651.1 355.78 659.41 361.24 659.44 361.23 667.69 372.24 667.79 372.21 676.07 379.6 675.55 380.95 675.58 380.39 684.28 385.81 683.89 385.81 685.27 387.19 685.3 387.19 701.83 385.83 702.18 382.33 702.17 379.05 699.89 377.96 698.65 376.14 697.19 373.97 696.91 371.76 695.04 369.63 694.73 368.33 695.19 366.16 695.01 363.47 693.41 362.79 693.6 361.19 692.34 359.59 691.99 358.56 691.08 357.76 689.51 355.05 688.71 353.96 688.95 352.06 686.91 350.96 687.41 348.41 687.05 345.46 684.87 341.35 683.43 340.96 682.68 339.07 682.22 337.32 682.94 336.56 683.65 335.57 683.49 335.52 684.8 333.62 685.45 332.29 687.98 332.04 689.6 329.46 690.54 327.99 690.43 327.1 689.81 322.65 691.67 321.58 690.91 320.75 691.94 321.32 693.81 323.26 695.98 324.02 699.09 323.27 701.42 322 701.28 321.23 699.52 318.69 697.57 312.97 693.78 308.29 693.18 305.02 694.07 303.76 695 302.2 694.58 301.4 695.62 300.12 695.1 297.65 696.34 296.5 694.93 292.36 692.54 292.98 689.82 293.52 685.24 293.38 683.23 290.61 681.84 289.01 682.24 286.97 682.13 284.83 681.56 283.17 680.16 281.22 679.55 279.86 678.61 279.04 677.53 275.78 674.88 274.83 673.25 273.78 672.39 272.51 669.57 272.43 668.39 273.2 665.18 274.95 661.35 275.35 659.68 274.59 655.48 272.56 655.13 270.25 653.74 268.29 653.79 266.24 652.91 264.12 650.33 263.05 649.53 260.34 646.22 259.56 645.75 257.8 643.78 255.74 639.53 253.91 637.4 252.48 637.1 250.44 635.82 247.39 635.06 244.51 633.49 243.26 631.83 242.64 629.69 241.2 628.23 240.23 625.8 240.2 623.81 238.63 620.17 236.41 618.21 235.67 617.19 238.63 617.32 259.74 617.45 260.62 617.51 281.9 617.63 293.97 617.74 330.05 617.89 Z" data-name="San Luis Obispo" data-geoid="06079"/>
</g>
</svg>