<?xml version="1.0"?>
<svg xmlns="http://www.w3.org/2000/svg" version="1.2" baseProfile="tiny" width="800" height="923" viewBox="0 0 800 923" stroke-linecap="round" stroke-linejoin="round">
    <g class="CA_State_TIGER2016">
      <path d="M374.991 835.795l-.119-.672.02-.681.168-.767.603-1.392.326-.364.939-.797.771-.451.514-.22.751-.183.593-.038.752.058 1.186-.461 1.156-.211.683.029 1.858.508.445.173 1.809.921 2.135.979 1.018.412.287.192 1.581 1.363 1.958 1.4.81 1.056.336.508.287.701.059.633-.039 1.19-.129.585-.464 1.084-.564.921-.425.24-.998.758-2.986 1.228-.86.154-2.075.076-.495.058-.968-.288-1.434-.038-.959-.307-.296-.154-1.107-.345-.91-.422-.692-.106-.909-.355-.514-.326-.485-.47-.504-.307-.87-.701-.464-.518-.524-.854-.119-.383-.405-.499-.465-1.113.02-.931-.286-.873zm73.159 22.375l-.287-1.257.03-1.18.198-.845.365-.767.524-.778.732-.719.988-.614.662-.23.989-.192 1.325.057.968-.096.86.077 1.958.672.8.431 1.404 1.219.662.892.435.729.129.327.514.642.405.375.336.748.129.643.612.931.781.959.841 1.228.217.384.643.806 1.611 1.074 1.255 1.152 1.088 1.228 1.176.94.88.605.573.431.465.499 1.443 1.296.415.259.475.451.632.7.544.374.998 1.267.366.767.188.614.089.758-.089.902-.218.595-.435.835-.326.479-.761.71-.84.643-1.473.566-.791.106-1.334-.211-.564-.173-.534.585-.543.442-1.206.585-.87.163h-1.275l-1.315-.451-.83-.441-.702-.585-.593-.691-.208-.346-.751-.604-.415-.489-.603-.519-.979-.441-1.354-.95-.653-.7-.484-.71-.484-1.295-.228-.528-.682-.864-.277-.566-.474-.508-.504-.653-.316-.547-.376-.47-.494-1.161-.139-.431-.02-.854-.247-.835-.751-.806-.553-.921-.732-1.612-.168-.863-.119-.24-.316-1.305-.099-.633h-1.937l-.069-.509-.287-.556zm-32.957-43.157h-.89l.129-.499.425-.873.227-.336.761-.643.623-.335 1.068-.432.791-.144.731.067.722-.105.82-.212.939-.038 1.216.221.544.144.83.499.593.537.712.921.524 1.228.247 1.315v1.055l-.079.576-.227.786-.238.442-.217.863-.435 1.075-.158.22-.623.451-.554.317-.375-.125-.662.403-1.335.346-1.977.163-1.433-.25-1.117-.671-.584-.48-.504-.748-.622-1.411-.06-.978.01-1.065.178-2.284zm33.955 3.876l-.326-.978-.128-.902-.04-.749.109-.671.227-.576.613-.959.89-.931 1.384-.681 1.047-.259.949-.039.761.029.801.317.297-.077h.929l.405.086.85-.22.989-.058.791.115 1.255.47.455.288.573.528.821-.039.405.058.632.221.92.537.711.614.821.94.741.202.475.47 1.344.23 1.305.509 1.285.393.751.365.643.633.672.345.712.518.613.538.632.7.415.797.337 1.592.187.307.722.538.672.69.653.806.692.509.415.403.385.556.475.95.484 1.334.287 1.353.019.892-.128.873-.247 1.065-.376.854-.632.787-.762.604-.879.585-.89.442-.791.278-1.206.221-.711.038-1.206-.173-1.493-.451-1.384-.633-.306-.278-.653-.048-.642-.173-.722.144-1.186.029-2.096-.269-2.412-.7-1.295-.748-.504-.384-.583-.614-1.285-1.641-.455-.883-.128-.527-.376-.835-.168-.892-.099-.979-.02-.681.247-.662-.415-.298-.781-.076-.731-.221-1.364-.653-1.226-.652-.87-.7-.553-.72-.366-.787-1.859-1.967-.504-.969zm-61.455-53.998l1.285-.288 1.058-.115h1.038l1.097.077.939.268.553-.201 1.671-.384.87-.038 1.067.163.88.355.742.393.692.557.523.614.574.978.247.806.099.653-.069.815-.188.989.02.239-.603.96-1.088 1.036-1.097.643-.662.201-.791.087-.366.268-.998.461-.811.24-.682.029-.306-.125-.732.077-.633-.144-.434.153-1.216-.192-1.641-.662-1.384-.652-.969-.633-.534-.49-.652 1.046-.86.825-.85.653-.722.451-.464.191-.88.25h-.979l-.702.336-.692.134h-.692l-.869.259-.633-.038-.623.115-.563-.019-.821-.192-1.285.729-.573.154-.613.46-.87.326-.534.346-.425.172-1.097.298-.86.067-.959-.058-.761-.211-.316.106-.989.057-1.087-.144-.425.164-.84.038-.584.336-1.008.451-.988.172-.851-.124-.998-.307-1.097-.586-1.068-.94-.623-.412-.929-.874-.652-.345-.148.643-.327.758-.603.854-.751.787-.791.614-.85.374-1.68.268-.643-.076-1.532.623-.583.576-.524.326-.297.413-.642.355-.514.182-1.018.077-.801.355-.929.278-.722.537-.791.375-1.038.345-1.008.077-.662-.067-1.068-.221-.731-.288-.574-.48-1.008-.355-.969-.796h-.395l-.395-.202-.465-.575-.613-.346-.563-.163-.475-.307-.642-.729-.514-.691-.178-.355-.672-.23-.673-.441-.622-.653-.653-.95-.484-1.698-.05-.47-.899-.739-.544-.556-.702.182-1.433-.029-.395-.153-1.117.441-.9.192-.642.029-1.345-.317-.83-.249-1.226-.864-.83.192-.732.019-.593-.077-.474-.163-.732.096-.83.02-1.068-.375-.563-.355-.732-.614-.247-.384-.395-.402-.959-1.257-.336-.778-.208-.911-.039-.758.227-.864-.583-.047-1.443-.499-.712-.451-.583-.566-.524-.653-.583-1.381-.06-1.44.247-.988.307-.7.543-.816.524-.451.939-.518.811-.355.85-.144.83-.067 1.424.259 1.216.691.741.719 1.117-1.045.603-.432.613-.345 1.097-.432.603-.115 1.335.163.711.182.248.153 1.512.356.524.201.87.652.593.893.316.873.415.22.673.49.247.297.711.087 1.058.479 1.008.835.791 1.161.208.681.692.806.731.633.139-.076 1.522-.202 1.107-.009.791.096.652.182.267-.048.653-.672 1.097-.633.919-.211.682-.038.781-.221 1.503-.039.603.221.711.182 1.295-.873.425-.192 1.295-.297 1.384-.077 1.424.144.533.115.712.327.702.479v.163l.712 1.065.128-.489.603-1.698.583-.653.149-.595.524-.825 1.344-1.103.89-.336.563-.105 1.176-.02.594.068.869.316.445-.048.939.01 1.295.297.534.173 1.078.067.662.134 1.344.471 1.443.633.732-.24 1.068-.259.622-.058 1.186.154 1.473.787 1.256.124.642.211.613.307 1.068.749 1.838 1.362.742-.786.751-.595.544-.298.168-.24.889-.594 1.098-.413.711-.144.653-.01.603-.211.652-.067 1.315.096.751.211 2.007 1.065.85.681.257.279.672.316.87.662.702.768zm-282.12-337.365l-.227-.72-.069-1.132.365-1.564.238-.422.385-.48 1.048-.93.593-.442 1.008-.47.603-.125 1.75.106 1.038.355.85.403 1.651 1.314.771 1.017.376.989 1.769.316.998.394.771.642.455.471.455.585.168.374.455.221.958.882.356.432.584 1.046.197.528.297 1.209.01.45-.247 1.037-.178.93-.593 1.238-1.058 1.065-.761.499-1.048.451-1.078.173-.019-.173-.801.029-1.186-.355-1.028-.47-.979-.778-.771-.815-.376-.537-.346-.883-.138-.7-.85-.998-.514-1.219-.919.106-.811-.135-.811-.249-.494-.25-1.838-1.727-.455-.527-.554-1.161zM31.91 71.298l-.188-.835-.386-1.372-.543-1.286-.04-.825-.474-1.065-.158-1.027-.03-1.381-.306-.182-.593-.567-.584-.729-.385-.739-.257-.815-.03-.49.119-.988-.159-.278-.098-.69.03-.931-.436-.49-.415-.623-.464-.979-.307-1.228.07-.768-.1-.316v-.912l.248-1.18-.238-.73-.83-.402-1.087-.93-.386-.04-.573-.191-.989-.49-1.196-.767-1.048-.835-.642-.604-1.018-.326-1.295-.624-2.313-2.197-.623-.748-1.157-.47-.593-.413-1.038-1.065-.652-.979-.247-.7-.89-.96-.445-.68-.296-.788-.109-.671-.03-.749.228-1.046.207-.71.317-.642.365-.576.564-.604.563-.72.771-.355.95-.115.958-.02.84.039 1.335.345.682.336.662.5 1.374 1.582 1.068-.192.988.125.406-1.525h-.08l.327-2.39.02-.412-.347-.393-.375-.595-.326-.71-.159-.835.03-.883.287-1.43.237-.508-.296-1.266-.96-1.334-.444-.988-.83-.173-.83-.364h5.91l3.025-.01 5.328.115 2.828.02.316.038 8.165.067 4.923.01 7.176-.01 1.8.086 4.556-.153 1.75-.039 5.407.192 2.53-.46 4.558-.096 2.204-.01 6.8.02 7.513.134 6.653-.346 5.813-.297 2.906-.298 1.285.039 1.285.096 2.372.23 1.374.029 1.434.172 2.768-.01 3.024-.038h4.201l3.025-.048 1.394.01 3.134-.02 2.649.01 4.399-.01 2.876-.038 1.434-.038 3.005-.029 4.448-.192 3.934-.096 7.523-.028 1.473-.039 1.472-.077 2.976.049 5.911.143 1.483-.01 5.891.04 1.483.066 2.946.058 1.522.01 2.916.057 1.048.067 2.926.077 2.946.038 1.344-.028 6.238.086 18.445.345 3.905.077 6.247.077 9.104.144 1.404.029 1.206-.058 2.956-.067 3.281.019 4.468-.01 1.533.02 4.359.143 1.493.02 1.571.038 3.954.173 3.43.038 3.015-.057 10.399-.039 3.025.029 4.419-.01 2.926.058 6 .029 1.404-.029 4.3-.038h1.562l12.316.105.03-.057 3.015.01.178.028 2.105-.02 1.266-.057 3.163-.086 1.483-.02 5.011-.019 6.475-.019h2.205l-.01 8.674.01 3.262.069 12.406-.03 2.897-.01 9.48.04.604-.05 9.595-.039 2.168-.02 12.358.01.94-.03 11.35.02 1.354-.01 5.862.01 2.015-.02 7.157.02 5.968-.01 2.188.04 8.136.01 4.279.049 7.714-.01 1.986.148 14.546.01 2.465.05 2.812.029 12.866-.01 6.073-.049 4.193-.01 1.411.02 4.221v2.936l-.03 4.222-.029 1.401v4.221l-.02 4.126.01 2.917-.06 8.52-.039 2.801-.05 4.481v3.003l-.059 3.598-.049 3.886v2.12l-.04 2.217.01 6.889-.02 4.298.03 2.782-.05 2.792-.039 2.792.02 1.737-.05 3.79-.069 2.792-.217 8.405-.03 9.681.059 2.753v1.737l.089 3.665.06 5.968.207 11.945 3.915 3.358 1.364 1.133 4.25 3.665 3.322 2.83 2.204 1.9 12.584 10.832.949.854 2.965 2.514 2.699 2.341 3.064 2.61.791.738 2.195 1.862.84.681 2.086 1.823 2.491 2.226 1.917 1.698.445.326 2.798 2.361 4.112 3.598 2.174 1.842 1.216 1.113 8.314 7.167.128.134 2.066 1.785 1.127 1.084 4.003 3.425 2.195 2.015 3.914 3.262 2.066 1.794 3.559 3.157 1.176 1.008 4.775 4.25 1.977 1.756 1.918 1.592 2.471 2.15 6.722 6.044.336.317 3.786 3.233 5.407 4.778.375.365 7.434 6.591 1.977 1.766 9.272 8.184 5.566 4.951 5.367 4.768 4.211 3.713 1.117 1.065 3.855 3.407.564.46 3.242 2.984 2.471 2.264 2.185 1.737 9.529 8.721 2.936 2.668 2.422 2.005 3.509 3.243 4.043 3.684 3.094 2.696.316.307 2.729 2.447.059-.01 9.47 8.684.356.297 8.016 7.301 1.612 1.363 3.064 2.802 1.661 1.487 2.412 2.226 1.927 1.727 2.996 2.763 3.706 3.368 2.59 2.331.238.182 9.647 8.837 9.401 8.645 15.925 14.593 3.133 2.917.959.844 8.225 7.733.573.461 9.302 8.539 2.906 2.687 9.104 8.462 4.379 4.068 2.669 2.476.415.403 5.833 5.449.514.461 3.005 2.782 7.087 6.63 1.404 1.315 4.982 4.653.089.106 3.677 3.434 6.811 6.381 5.585 5.267 5.002 4.692 6.741 6.352 3.48 3.3 1.849 1.698 3.064 2.946 4.162 3.924.286.355 4.587 4.385 1.285 1.113 1.245 1.237 5.566 5.191.791.768 6.781 6.399 3.153 3.09 1.394 1.238 2.916 2.772 2.422 2.313 2.599 2.523 4.034 3.876 3.44 3.32.306.902v.777l-.395 1.276-.03.912.395 1.276v.556l-.178.72-.079.854.198.844-.02.413-.346 1.093-.108.854.128.96.158.46.366.566.643.614 1.186.653.909.758.415.499.356.671.435 1.161.158.998.198.71.504.931.099.307.405.787.455.633.939.873.761.518.356.393.692.922.475.287.731.288.741.499.267.739.366.192h.415l.435.134.228.489.039.519.218.959.227.48.514.767.089.547.267.307-.168.451-.386.365.079.22.574.432.543.662.139.365-.06.892.198.777.771.614.336.374-.01.73-.237.278-.682.221.059.268 1.009 1.18 1.304.998 1.197 2.389.662 1.19.207 1.19v.825l-.316 1.036-.049.614.108.988-.148.672-.237.595-.01.528.83.901.356.077.593-.067.564-.182 1.245-.154.415.192.267.365.287.652.761.269 1.216.739.475.479.197.346.079.7.326.394.515.201.958.058.356.192.771.921.317.172 1.087 1.027.356.7.267.269.939.307 1.097.096.633.47.425.154.662.46.613.873.83 1.727.06.211 1.235 1.075.198.24-.089.662.089.652.178.691-.079.336.178.729.267.557-.02.211-.307.22-.711-.153-.653.115-.86-.125.02.72-.158.182-.544.173-.178.192-.158.499-.979.815-1.868 1.957-.613.346-.188.297.07.71-.159.442-.197.182-.84.326-.287.346-.741.498-1.078.317-.534-.173-.87.135-.425.326-.445.595-.593.691-.474.7-.949.72-.88.239-.909-.038-.376.125-.257.24-.306.614-.465.441-.969.23-.86.528-.83-.134-.781.144-.326.211-.781.95-.138.374-.475.489-.128.883-.139.499-.128 1.247.059.691.237.681.04.422-.089.873-.158.49-.425.566-.841.47-.652-.115-.307.432.089.316.534.346.079.316-.148.23-.593.087-.188.345-.909.787-.228.47-.82.806-.287.365-.81.422-.346-.096-.534.221-.504.7-.524 1.17-.02.634.129.211.81.355.682.623.455.73.039.374-.336.307-.296.048-.712-.317.069.509.465.662.652.671.435.346.099.719-.059.269-.989.681-.563-.182-.435.23-.05.192.08.652.464 1.142.267.883-.208.566-.405.365.692 1.573.168.796.732 1.814.168.662.029.844-.276.835-.317.662.623.547.257.518.316.269.168.758v.47l-.158.748-.88.441-.336.058-.879.489-.485.586-.138.844.435.518.712.096.227.24-.326.374h-.514l-.416.134-.197.25v.278l.277.413.316.278.118.537-.187.394-.356.182-.02.374.297.547.375.326.03.25-.366.22-.326.384-.484.854-.238.307-.01.758.366 1.218.326.663.257.211.307.556-.475.269-.099.192-.78.479-1.226.883-.208.729-.01.672-.652.671-.84.24-.663.413-.237.278-.375.71-.188.566-.623.845-.346.355-.148.307-.653.949.05.806-.396 1.353-.168.365-.415.48-.623.527-.474.279-.662.057-1.177-.547-1.087.106-.593.249-.188.413-.277.192-.692.096-.702-.058-.395.249.079.413.811 1.075.484.508-.01.528.633 1.372.079.767-.218 1.363-.326.825-.356.585-1.047.797-.485.566-.099.288.613 1.276.405.259 1.79.47.761.336.563.518.356.854-.158.431-.672.499-.376.183-.099.24.514.911.633.835.059.547-.385 1.4.267 1.353-.05.586-.385 1.103.118.585-.257.672-.356 1.132-.217.374-.504.585-.514 1.536-.326 1.439.009.556.099.269.406.153.494.01.435.192-.01.7.158.461.969 1.218-.059.749.108.595.218.345.642.47.346-.105.524-.902.297-.384.168-.019.405.297.751 1.123.297.278.534.192.949.134.632.029.633-.077.376-.172.494-.634.504-.105.524.134.889.096.762.019.919.125.84.211.662.576.386.527.494 1.19.218 1.209.099.892.207.739.218.163.672-.192.306-.259.356.029.307.269.088.547-.019.777-.238.633-.494.662-.277.499.228.931.188.307.84.806.118.451-.029.777-.148 1.218-.06 1.295-.227 2.246-.524.566-1.394 1.362-1.235.595-.386.441-.376.691-.652.643-.208.451-.019 1.487.197.422.188 1.085-.939.019-.01.623-1.918.02-.009.642h-1.305l-.01.643-2.541.039-.059.527-1.018-.124-.307-.096-.919-.096-.672-.125-.89-.038-.968-.231-.841-.134-.632-.537-.326-.106-.267.336-.297.595-.277.24-.484 1.18-2.382.182-12.07.969-6.979.518-9.529.777-9.529.758-9.52.797-6.81.537-5.21.441-7.038.624-2.768.23-6.761.605-3.895.336-5.624.46-2.452.23-5.644.49-1.434.144-3.489.278-3.717.355-1.522.125-.801.115-3.064.268-3.43.288-4.557.432-6.633.614-2.452.211-8.313.806-3.163.269-5.852.575-2.986.279-4.616.451-3.825.355-2.086.211-4.755.431-3.331.384-2.066.211-1.374.077-1.246.144-1.907.182-2.966.326-3.084.26-4.518.46-6.01.47-.385-2.264v-1.602l-.316-1.919-.307-1.363-.395-.959-.771.393-1.019.163h-.395l-1.275-.403-.623-.355-1.572-1.602-.889-1.286-.89-2.945-.356-3.675-.366-6.428-.889-3.128.178-1.66.534-2.025.721-1.842-4.013-15.178-1.246-2.495-.988-1.909-2.313-4.634-2.462-3.09-2.52-2.629-.524-.691-1.009-1.669-2.174-2.264-1.671-1.583-4.142-2.639-.79-.614-.89-1.286-.455-.105-.939-.912-1.453-1.122-2.155-1.862-.929.115h-.732l-.464-.239-1.809-1.891-.831-1.218-.415-.48-.682-.94-.217-.758-.85-.605-.524-.479-.386-.787-.781-.537-.721-.269-2.867-1.756-4.597-2.619-3.034-2.389-2.007-1.468-1.157-.595-1.393-.883-1.236-.94-1.918-1.746-1.631-1.247-.84-1.344-1.404-2.523-3.044.499-2.007.086h-3.42l-1.335 1.382-1.502 1.036-3.42.336-2.007-.336-2.412-1.382-.672-.69-3.252-1.296-2.926-2.158-1.414-2.505-.168-2.331.247-2.073 1.167-1.381 1.423-1.209.504-.605-.257-.863-.83-1.468-1.424-2.159-1.828-2.6-.593-1.238-1.127-1.832-.761-.777-1.147-1.622-.682-.691-.939-.096-.475.115-.81.048-.574-.095-.425.124-.889.039-1.107-.087-.544.135-.83-.01-.959.173-.761.297-.801.115-.929-.067-.712.163-.465.029-.919-.077-.82-.144-.613.288-.831.144-.247.326-.553.48-.564.249-1.127.816-.998.441-.87.202-.85.009-.771-.163-.751-.307-.485-.259-.889-.643-.317-.307-1.305-1.544-1.008-.346-.761-.057-1.384-.231-.82-.057-.416-.096-.672.057-.909-.134-.89-.336-1.216-.182-.405-.105-1.147-.672-2.056-.662-2.323-.403-4.497-.931-3.213-.93-4.498-1.987-2.511-3.895-.316-.278-.959-1.075-1.374-1.746-.899-1.737-.969-2.437-.504-1.343-.9-2.178-.445-.863-.108-.087-1.127-.24-1.018-.431-.9-.432-.801-.643-1.186-1.362-.721-.125-1.315-.374-1.552-.614-1.374-.806-1.305-1.171-1.275-1.804-.751-.355-.663-.47-.267.019-.375-.259h-.366l-1.156-.499-.603-.057-.574-.278-.86-.509-.781-.71-.415.048-.899-.221-.673-.326-.504-.134-.375.182-1.058.087-1.147-.087-1.127 1.104-1.759.921-1.394.614-.652.105-1.216-.326-1.443-.662-.959-.518-1.671-.624-.88-.489h-.672l-.761.499-.554.24-1.126.249-.594.048-.731-.048-.811-.259-.771.144-1.176-.163-.534-.259-1.097-.816-.277-.288-.286-.009-.584-.202-5.565-2.197-.642-.182-1.147-.7-.89-.058-.662-.221-.919.221-1.028.019-.465-.125-.504.164h-.583l-1.345-.317-1.443-.528-.593-.297-.929-.077-.267.096-.979.134-.978-.057-.594.086h-.573l-.84-.192-.999.077-.612.192-1.276.153-.583-.057-1.255.038-1.176.125-.524-.115-.762.23-1.156.201-.939.269-1.177.029-.672.192h-.504l-.909-.106-1.028.231-.465.019-.277.211-1.364.422-1.334.173-.781.316-1.127.183-.376-.029-.968-.221-.495-.249-.988-.144-.979-.432-1.008-.796-.722-.672-.702-1.228-.207-.566v-1.18l-.445-.394-.583-.729-.307-.528-.395-1.036-.089-.527-.544-.164-1.136-.566-.979-.671-.465.134-.692.058-.939-.106-.82.038-.742-.096-1.047-.431-.564-.403-.593-.518-1.008-.749-.465-.575-.336-.634-.287-.22-.395-.48-.306-.576-.366-1.209-.04-.594.089-.835.386-1.19-.109-.777.099-.912.455-1.237.553-.749.573-.604.307-.71.751-2.13.317-1.036.286-.739-.326-.47-.633-.729-.375-.576-.188-.451-.287-.278-.662-1.037-.277-.671-.109-.461.02-1.343.158-.691.524-1.055.168-.557.485-1.343.276-.911.574-2.236-.831-.528-.879-.911-.712-.317-.603-.431-.563-.576-.287-.403-.504-1.142-.238-.863-.039-.787.069-.489.346-1.018.129-.172-.089-.451.019-.892.178-.749.593-1.218.238-.24.217-.921.702-2.447.168-.873.247-.748.198-.989.237-2.849.198-1.305.099-.24-.109-.873-.03-1.056-1.334-.489-.633-.336-.771-.508-.385.221-.603.134-.594.029-.79-.058-.317-.096-.909.048-.781-.134-1.334-.413-.603-.364-.781-.653-.257-.326-.653-.038-1.275-.547-.731-.451-.613-.451-.514-.528-.297-.508-.929-.576-1.344-1.046-.949-.921-.465-.595-.306-.499-.169-.47-.543-.307-.494-.518-.396-.652-.326-.662-.534-1.392-.079-1.132.148-.844.287-.912.178-.844.148-.48.85-1.592.88-2.082.168-.538.228-1.065-.366-1.142-.198-1.276.04-.729.158-.345-.386-.538-1.305-.153-.701-.182-1.315-.643-.969-.691-.405.125-.811.029-.721-.106-1.276-.441-.751-.403-.82-.777-.544-.835-.425-.442-.306-.422-.356-.211-.702-.556-.702-.998-.603-.384-.85-.95-.524-.844-.297-.269-.474-.182-.316-.393-.613-.586-.811-.911-.652-1.18-.672-1.478-.712-1.42-.751-.71-1.058-1.333-1.414-.288-.889-.653-.287-.086-.84-.489-1.008-.125-.811-.432-1.196-.173-1.819-.786-1.028-.72-1.236-1.593-.454-1.228-.03-.499-.129-.326-.434-.384-.989-1.017-.959-2.331.02-.499.119-.451-.159-.557-.009-.403-.475-.614-.465-.93-.158-.547.02-1.228-.474-.173-2.195-1.881-1.275-1.698-.405-.48-.425-.719-.475-.23-1.463-.835-1.483-1.219-1.384-1.89-.474-1.055-.504-.892-.751-1.545-.989-2.437-.504-1.411-.623-.518-1.492-.892-1.256-.518-1.117-.384-.87-.902-1.245-1.794-.752-2.053-.504-1.679-.741-2.313-2.62-3.473-1.255-2.044-.198-.374-.791-.614-.603-.844-.385-.23-.771-.758-.722-.576-.454-.144-1.246-.7-.712-.643-.711-.25-1.177-.23-.721-.259-1.038-.556-.633-.509-1.651-1.132-.702-.787-.316-.499-.455-.978-.128-.432-.346-.307-.425-.528-.801-.585-.672-.403-1.236-1.123-.454-.614-.475-.787-.217-.575-.208-1.247.03-.778.099-.671-.307-.912-.168-1.189-.207-1.123v-1.909l.108-.442-.395-.844-.089-.883-.267-.796-.059-.806-.989-1.42-.237-.547-.267-1.122-.01-.48.099-.739-.435-.374-.287-.442-.336-.786-.375-1.478-.277-.825-.089-.633.03-.595.168-.892.237-.499-.89-1.027-.642-1.094-.406-1.142-.118-.7.02-1.007.108-.49.643-1.199.81-.988.248-.422.227-.653.366-.604.87-.835-2.284-9.431-2.837-11.552-.613-3.263-.405-.067-1.621-.489-2.096-.844-2.175-1.123-.988-.48-1.216-.7-1.631-1.055-3.183-2.246-.751-.7-.356-.614-.326-.864-.247-.844-.248-.585-1.057-.672-.979-1.094-.82-1.007-.732.086h-.978l-.9-.172-.9-.25-.741-.336-.484-.335-.742-.95-.563-1.046-.168-.614-.158-1.228.039-.269-.573-.374-.366-.355-.494-.662-.425-.94-.544-.25-.83-.643-.475-.499-.454-.767-.297-.768-.247-.297-.415-.749-.297-.94-.039-.729-.149-.585-.138-.941-.514-.873-.316-1.218-.07-1.411.178-1.967.435-2.139.781-4.385-.089-.806-1.562-3.579-1.225-2.187-.317-1.008-.178-1.314.01-.441-1.344-.423-.741-.431-.742-.672-.959-1.113-.652-.873-.356-.931-.168-.997-.346-4.289-.524-1.497-.128-1.631.128-1.228.524-1.766.919-2.59-1.047-11.312-.267-1.775-.257-.95-1.839-2.428-1.058-.594-.484-.586-.811-.24-.949-.508-.899-.547-.633-.643-1.245.336-.969.058-.85-.125-.643-.192-.484-.221-.732-.479-.929-.231-1.087-.767-.534-.47-.415-.49-.603-1.132-.148-.528-1.908-.681-.86-.566-.336-.297-.692-.806-.247-.413-.307-.777-.336-1.314-.306-.192-.722-.902-.662-.49-.257-.364-.228-.019-.78-.71-.989-.307-.247.642-.603 1.008-.435.46-.979.768-.454.211-1.167.317-1.769.086-1.265-.086-1.305-.029-.939-.067-1.414-.317-.692-.24-.672-.451-.682-.547-.475-.585-.395-.662-.346-1.074-.138-1.555.039-.796.307-.988.494-.768.83-.873 3.055-8.309.672-2.283-.623-.845-.316-.566-.247-.787-.07-.844-.266-.422-.238-.614-.079-.47-.524-.701-.286-.882-.178-.144-3.737-4.289-.761-.557-.652-.921-.297-.681-.85-1.132-.514-1.42.03-1.516.197-.921.307-.806-.435-.461-.208-.441-.593-.604-.712-1.248-.375-1.266-.524-.537-.633-.317-.642-.518-.593-.681-.603-1.305-.554-.653-.672-1.046-.593-.22-.643-.585-.425-.01-.88-.202-1.196-.46-1.067-.7-.495-.25-1.295-1.046-.81-.94-.494-.94-.524-.125-.02-.24-1.334-.173-.95-.556-1.344-1.833-.455-.71-.346-.863-.385-.729-.83-.845-1.552-1.89-.386-.844-.514-.585-.85-.797-.593-.806-.326-.748-.396-.576-.375-.921-.524-.345-.85-.883-.495-.863-.276-.787-.396-.374-.514-.758-.949-.634-.672-.556-1.344-.633-1.266-.845-.91-.815-.671-.988-.386-1.152-1.156-.796-.613-.125-.84-.451-.495-.336-.652-.585-.87-1.007-.563-.883-.297-.115-1.433-1.094-.752-1.257-1.057-.71-.86-.969-.574-1.535-.959-1.267-1.008-.94-1.225-.998-1.335-1.506-1.048-3.205-.613-1.237-.257-1.977.287-1.506.672-1.219.9-.959.672-.48.573-.278.455-.077.148-.604-.03-1.008.05-.479-.08-.989-.483-.882-.327-1.229-.435-.623-.296-.835-.297-1.295-.474-.892-.178-.509-.524-.863-.455-1.085-.128-1.314-.396-.557-.968-1.928-.9-1.554-.138-.384.05-.269-.456-.921.02-.441-.099-1.065-.158-.614-.07-.893-.365-.863-.375-.605-.277-.767-.139-.739-.158-.403-.217-1.324-.455-.94-.415-1.89.04-.874-.406-.537-.514-1.199-.158-1.43.07-.422-.14-.672-.049-1.055.07-.499.415-.95-.129-1.084-.02-.796.297-.931.099-.604-.158-.854.03-.893.108-.863.741-2.226.248-.605-.05-.268v-.844l.198-.787.356-.566.326-.288.484-.278.346-.068.465-.959.731-1.765.178-.567-.385-.7-.09-.374-.652-1.718-.237-1.352-.07-1.075.03-1.055.12-1.651-.07-1.4-.148-.355-.198-1.382-.02-.988-.356-.211-1.403-1.171-.771-1.055-.218-.461-.188-.633-.118-.672-.228-2.005-.227-1.027-.06-.69.11-1.085.118-.412.01-.749-.376-.758-.355-1.084-.762-.508-.267-.298-1.117-.671-.8-.739-.633-.883-.672-1.228-.544-.873-.395-.969-.168-.835-.158-.432-1.394-.911-.643-.729-.504-1.315-.553-.796-.416-.787-.494-.7-.939-.95-.257-.461-.949-1.055-1.147-1.506-.583-.077-.77-.192-.93-.365-.504-.345-.573-.614-.258-.47-.543-.605-.603-1.074-.227-.691-.09-.585.01-1.612.08-1.113-.168-.326-.791-.979-.93-.432-2.738-1.074-.998-.48-1.008-.672-1.226-1.688-.8-1.027-.347-.326-.751-.854-1.196-.384-1.68-1.545-1.82-1.314-1.107-1.075-1.551-1.449-.811-.93-1.028-.672-.79-.796-.604-.701-.78-1.151-.416-1.228-.188-1.66.099-2.12.455-1.296.277-1.18-.02-.431-.524-1.248-.188-.7.01-1.823-.129-.71-.988-.902-.168-.211L7 175.37l-.683-1.094-.474-.901-.148-.615-.11-1.151.218-1.199.248-.691.405-.604.366-.394.75-1.362.258-.883-.03-.652.08-1.536.325-1.372.98-1.842.582-1.314.554-1.459.603-1.938.652-1.573.534-1.142 1.542-3.166.554-1.209.613-1.094 1.364-2.725.672-.988.514-.854.563-1.084.653-1.075.92-1.813.177-1.228.336-.691.465-.768.484-.393 1.097-1.967.672-1.276.811-1.353.247-.575.8-1.603.16-.547.71-1.717.475-1.372 1.315-4.318.247-1.093.356-1.209.544-2.677-.623-.317-.573-.393-.505-.499-.346-.518-.267-.614-.158-.605-.682-.969-.316-.758-.138-.547-.09-1.074-.385-.605-.257-1.093-.603-.922-.188-.844-.05-.931.11-.969-.208-.834-.04-.528.248-1.286.375-1.103.307-.509.662-.729.92-.662.612-.316.633-.25.583-.115.366-1.65.445-1.574.642-1.938.099-.537v-1.046l.287-1.266.365-.94.168-.644.277-.7-.207-.384-.633.154-.652.048-.811-.058-.87-.297-.593-.298-.751-.518-.791-.806-.445-.662-.257-.633-.198-.816-.02-1.046.198-1.112.356-.912.307-.499.514-.585.939-.749.702-.345 1.087-.336.92-.105 1.156.134.988.297.643.413.237-2.072.119-1.612.158-1.296-.237-.94-.04-.49.02-1.745z" class="California"/>
    </g>
    <mask id="a" width="792" height="923" x="4" y="0" class="mask0_467_7200" maskUnits="userSpaceOnUse" style="mask-type:alpha">
      <path d="M4.598 0h790.805v923H4.598z" class="Mask"/>
    </mask>
    <g mask="url(#a)">
          <path fill="#fff" d="M159.388 429.152l-5.364-9.67-7.664-24.542 13.028-12.645 45.21 8.925-1.532 11.901-23.755 5.949 23.755 18.595-5.364 35.7-28.353-7.438-9.961-26.775z"/>
          <path fill="#fff" d="M159.388 429.152l-5.364-9.67-7.664-24.542 13.028-12.645 45.21 8.925-1.532 11.901-23.755 5.949 23.755 18.595-5.364 35.7-28.353-7.438-9.961-26.775z"/>
        
          <path fill="#000" d="M170.886 414.215l.583-.105.385.019.188-.058.712.087.415-.221.386-.125-.04-.153.326-.163.366.086.267-.029.148.096.277.317.267.048-.01.24.247.105.05.221.247.019.079.23-.079.106.069.259.524.47.257-.134.583.182.544.288.187.278.307.336.079.278-.217.144-.089.259.662.787.217.384.386.067.267.374.375.345-.039.115.524.442.277.057.089.288-.228.413.099.374-.069.192.059.259.346.115.336.307.326.038.445.221.702-.412.682.383.208.288.128.278.267.288 3.707.327 1.512.115 2.047.172 1.146.969.643.327.326.278.277.096 1.245 1.593-.988.758-.05.105-.029.614.81.787.574.086.276.422.495.259.84.211.89.931.82-.23.534-.173 1.245-.364 1.691-.48 1.749-.499.801-.259 4.488-1.334 2.422-.7 6.158-1.9.405.058.267-.269 1.859-.566 3.212-.816 2.027-.767 2.926-1.084.188-.125-.03.422.01 4.001.02 1.583-.03.912.01 3.991v6.304l-.02 1.823.04 6.188v.71l.474.317.356.633.474.249.762.269.079-.077.484.279.425-.068.613.068.336-.106.425.307-.267.384.346.499.158.441-.039.326.197.24.603-.009.287.239.158.317.247.086.208.269.336.288-.257.7-.02-.019-4.576-.009-2.037-.01-.356.01-7.413-.039h-2.165l-1.898-.077-2.017-.028h-1.848l-1.572-.02-.732.02-5.288-.058-.306.24-.109.24-.218.163-.079.182-.197.029-.149.269-.207.163-.287-.087-.257.096-.158.25-.346.029-.307.182-.692.259-1.047.691-.208.096-.247-.269h-.198l-.029-.326-.257-.01-.01-.134-.297-.096-.099-.125-.276-.096.019-.307-.237-.009-.049.124.039.413-.366.058-.583-.154-.731.24-.455.115-.069-.086-.86-.173.138-.163.544-.432-.099-.096-.573.461-.455-.298-.524-.077-1.384.202-1.502-.163-.979.269-.267-.509.119-.499-.297-1.238 1.275-.096.327.173.158.662.079-.364-.168-.423-.297-.239-1.166.086-.04-.192-.494-.307-.484-.058-.574-.143-.445-.144.188-.403-.099-.336-.257.115-.385.46-1.167.365-.237-.019-.267-.326-.148-.653.069-.163.02-.643-.148-1.007-.722-1.593-.603-1.602-.128.192-.168-.01-.089-.173-.188-.575-.129-.115-.247-.682-.158-.287-.129-.048-.059-.49-.099-.307.06-.153.138-.893-.128-.278v-.278l-.07-.403-.168-.413-.197-1.237-.07-1.094-.089-.489-.227-.912-.267-.719-.118-.538-.277-.201-.218-.461-.306-.307-.257-.077-.564-.853-.395.095-.267-.268.129-.067.128.268.129-.076.098-.384-.158-.039-.069-.431-.109-.346-.543.087-.257-.682.178-.268-.831.259-.099.153.05.691-.218.25-2.194-1.939-.267-.057-.435-.394.109-.191.395.096-1.077-1.344v-.345l.662-.441 1.087.047.801.058.257.077.564.575.345.845.149.038-.386-.988-.346-.72.455.355.04.211.217.068-.425-.662-.079-.682-.148-.259.098-.201-.514.259-.148-.576-.395-.422-.504-.249-.327-.288-.267-.384.06-.211-.089-.182-.237-.269-.485-.182-.405.182-.425-.211-.01-.298-.287.096-.207-.028-.336-.259-.495-.269-.514-.01-.128.125-.425.096h-.732l-.504-.106-1.137-.287-.355-.202.355-.077.168-.518-.247-.077-.326.231-.553.22-.119-.172.652-.557.791.029.188-.355.514-.48.356.019.01-.191-.297-.106-.514.048-.751.125-.01-.135.643-.22.266-.346.228-.144.385.202.712-.086v-.231l.336.115-.178-.297-.128-.374-.89-.01v-.077l.603-.096-.01-.076.386-.087-.159-.566-.069-.096.05-.326-.228-1.007-.197.211-.089-.557-.336.077-.317.202-.168-.125.475-.135-.109-.23-.168-.115-.208.038-.306-.259.415-.153.208.297.474-.115-.217-.633-.445-1.132.563-.278-.286-.442zm-1.127 10.909l-.346-.681.01-.911 2.194.652.643.01.405-.144.682-.029.257.077.178.239.247.116.198.249.474.25.218.009.217.125-.118.249.257-.038.247.058.296.268.297.039.415.287.652.355.376.413.02.806-.623.537-.247.039-1.058-.413-1.137-.518-.771-.413.01-.383-.405-.096-.128-.087-.307-.009-.158.067-.237-.087-.86-.23.059-.125-.395-.191-.613-.077-.188-.259-.405-.01-.159-.134-.197-.01zm6.227.183l-.138-.02-.524-.585.138-.038.267.134.247.278.01.231zm12.337 25.512l.158-.211.218-.058.059.374-.129.134-.217-.048-.089-.191z" class="Vector_70"/>
          <path fill="#000" fill-rule="evenodd" d="M204.178 399.881l.257-.163.247-.25.326-.508.158-.336.05-.24.672.115.524.461.385.748.089.624.198.595.287.393.158.345.306.288.415.259.337.288.375.154.307.028.444-.096.416.039.237.134.464.096.86-.048.94-.403.523-.086.712-.019.85-.211.465-.269.464-.413.663-.364.563-.211.742-.49.622-.777.554-.47.217-.259.129-.365.01-.412-.04-.672-.128-.508.197-.682.475-.393.85-.201.998.527.277.25.544.115.287-.096.128-.134.277-.816.118-.105.584-.096 1.127-.039 1.502.326.297.221.187.422.08.346.049.729.287.412-.109.183-.662.336.019.46-.247.384.089.767-.089.605-.029.604.158.49.178.105.148-.096-.01-.211-.178-.259.03-.316.277-.154.276.125.149.336-.07.585.238.192.197-.125.129.086-.02.346.158.23.277.249.109.221-.178.182-.682-.287-.208.038-.01.221.327.163.069.144-.228.144-.405-.039-.217.106-.119.249.04.221.177.173.435-.01.178.086-.108.365h-.534l-.079.201.197.135-.009.144-.297.441-.079.499.158.23.405.077.139.173-.168.105-.376-.009.04.24.296.211.148.172-.019.413.059.144.247.22.237.116-.029.259-.564.124.06.24.494-.124.207.182-.326.403-.02.307.346.182.188.461-.069.355.306.422-.088.24.039.326.208.307-.712.23-.079.144.079.307.148.173v.249l-.593.442.01.22.287.221.059.278-.059.413-.079.105-.445.183-.119.153.168.432-.346.537-.099.355.119.442.346.335-.089.279-.316.192.079.307.217-.183.485-.134.444.681.119-.029-.059-.307.178-.201.316.086.277-.211.247.509.514-.24-.01.633.079.144.227-.125.238.087-.05.211-.148.096-.01.211-.188.172.079.384-.187.154-.139.24-.405.134-.188.019-.109.134.129.509-.079.115.138.24-.198.019-.069.25-.138.086-.188.125-2.926 1.084-2.026.767-3.213.816-1.858.566-.267.269-.406-.058-6.158 1.9-2.422.7-4.488 1.334-.8.259-1.75.499-1.69.48-1.246.364-.534.173-.82.23-.89-.931-.84-.211-.494-.259-.277-.422-.573-.086-.811-.787.03-.614.049-.106.989-.758-1.246-1.592-.277-.096-.326-.278-.642-.327-1.147-.969-2.046-.172-1.513-.116-3.707-.326-.266-.288-.129-.278-.208-.288-.682-.383-.701.412-.445-.221-.327-.038-.336-.307-.346-.115-.059-.259.069-.192-.099-.374.228-.413-.089-.288-.277-.057-.524-.442.04-.115-.376-.345-.267-.374-.385-.067-.218-.384-.662-.787.089-.259.217-.144-.079-.278-.306-.336-.188-.278-.544-.288-.583-.182-.257.134-.524-.47-.069-.259.079-.106-.079-.23-.247-.019-.05-.221-.247-.105.01-.24-.267-.048-.277-.317-.148-.096-.267.029-.365-.086-.327.163.04.153-.386.125-.415.221-.712-.087-.187.058-.386-.019-.583.105-.297-.201-.425.383-.385-.566.593-.239-.237-.336-.811-.269-.267.134h-.237l-.909.106.019-.115.327-.01-.01-.47h-.495l-.059.461-.435-.02-.109-.738-.089-.183-.306-.019-.069-.115-.386-.374-.286.096.346.192.474.374.198 1.161-.346.077-.267-.048.01-.125-.415-.355-.257-.125-.455.288-.267-.221.237-.921-.336-.192-.01-.259-.791-.575-.612-.029-.02-.106-.307-.326.198-.269-.099-.412-.751-.422.297-.307-.297-.413-.158-.058-.247-.422-.129-.076-.029-.269.148-.086.316.067.356.201.306-.067.198.086.119.25-.03.316.969.346.247-.259-.277-.182.228-.116.187.02-.039-.413.543-.106.178-.345-.098-.365.168-.46.869.163.366-.336.02-.124.297-.48.227-.643-.079-.317-.247-.192-.139-.22-.168-.701.089-.518.218-.048.158.317.385.086.435.01.653.451.622.153.327-.028.227-.154.741-.7.139-.039.435.096.385-.038.366.029.287-.432.356-.211.197-.336.524-.202.564-1.161.089-.326.247.019.415-.143.128-.26.079-.757.149-.087.237.048.405-.125.475-.431.454-.039.455.087.623.048.128-.096.732.038.613.23.198-.009.177.115.87.134.524.413.346.336.307.537.099.384.415.508.959.509.721.163.376-.163.188-.173.514-.067.435-.374.346-.125.177-.211.416-.346 1.275-.479.336-.068.336-.201.524-.106.633-.22.217-.394.158.096.228-.086.741.211.346.029.85-.461.82-.23.317-.01.8.077.386.115.198-.134.326.058.109-.135.82.154.672.086.969-.038.86.076.534.135.514.182.632.298.742.22.781.115.405.02.682-.039.89-.115.711-.192.317-.134zm21.49 20.235l.02.412.188.298.425.316.385-.048.336-.441.277-.067.672-.038.475-.25.089-.211-.089-.336-.406-1.142-.306-.374-.168-.336-.287-.057-.712-.01-.227.451.148.288-.089.144-.435.048-.019.307-.099.374.03.173-.267.019.059.48zm-58.381-6.17l.168-.086.504.672-.465-.115-.039-.336-.168-.135z" class="Vector_71" clip-rule="evenodd"/>
          <path fill="#000" fill-rule="evenodd" d="M118.316 376.767l.129-.163.069-.029.405-.115.099-.096-.089-.576.317.029.217-.211.277-.009.188-.279.514-.028.286.143.159-.086.217-.585.336.019.376.269.385.076.425.192.198-.124.643.278.217-.202.524-.105.306.393.297-.192.049-.259-.197-.105-.109-.192.237-.144.178-.211.356-.058.257.067.02.154-.257.115.168.307.514-.269.148.02.119.23 2.234 1.89 3.588 2.974 1.433 1.2.149.144 3.795 3.185.851.71 1.255-.01.128.029.515.317.069.259.257.134.039.125.238.105.158-.172.296.24.84.144.159-.029.563.47.336.029.672-.02.277.221.03.115.306-.077.455.212.168.211.247.115.781.105.158.144.564-.009.326-.317.306-.048.406.029.098.125.257-.029.465.057.217-.441.277-.201.366-.116.089.24.306-.057.218-.115.326.239.089-.144.376.106.069.25.336-.116.287.211-.247.509.296.163.02.413.079.134.296.067.277-.125.228.029.049.135-.455.441v.316l.238.144.395.125.356-.144.553.691.346.317.702.431.465.461.366.595.138.691.257.642.385.48.139.087-.099.076.573.192.425.365-.069.518v.432l.228.307.266 1.871-.346.729-.168.528-.148.191-.079.595.099.183-.138.086-.416 1.468-.039.364.128.567-.089.364-.207.192.445.019.533.125.554.547.306.182.297.01.415.288.188-.077.287.096.138.336.326.249.317.451.079-.019.217.384.069.297-.721.595-.761-.461-.06-.067-.385.192-.208.345.03.106-.188.451v.115l-.475.038-.069.096-.791.039-.029.249.395.173v.729l.129.211.178.758.286.048.336.365-.553.192-.267.355-.662-.231-.109-.182-.188-.086-.277.211.139 1.046.622.69.465.068.188-.048.593.527.287.039.158.547-.297.057-.01.269.336.249.495.518.306.039.307.297.642-.029.376.586.029.163.465.384-.059.191-.188-.076-.218.211.05.23-.396.173-.098.23-.732-.086-.247.067.03.336.316.355.03.268-.425-.259-.435-.364-.267-.509-.089-.297.197-.336-.089-.211-.385-.442-.514-.326-.218-.288-.474.087-.494-.077.049-.173-.188-.057-.148.297-.01.374.228.279.306.719-.089.154-.306-.25-.218-.259-.514-.125.178-.182-.247-.22-.237.268-.238-.153.05-.317-.346-.106-.079-.307-.119.058.198.326-.04.346.346.431.307.106.197.374.712.566h.188l.148.125.05.221.356.316.276-.009.03.134.237.201.425.212.218-.106.029.297-.158.461-.02.393.099.01.139.393.356.566-.07.451-.138-.144-.306.048-.05.49.05.22-.416-.086-.207.038-.376-.019-.277.355-.316.029-.395.125-.079-.173-.455-.153-.376-.077-.573.048-.139.22-.286.327.138.297-.217.019-.079-.47-.346-.316.138-.164-.257-.431-.198-.135-.701-.24.009-.172-.217-.509-.257-.077.039-.143-.286-.125.01-.25-.139-.019-.099-.345-.346-.202-.089.058-.464-.259-.148-.259-.366-.039-.079.154-.277-.25-.277-.105-.138-.298-.475-.594-.375-.384h-.178l-.771-.259-.317.105-.474-.374-.129.048-.217-.134.119-.413-.159-.096-.187-.326-.633-.633-.761-.461-.415-.182-.712-.182-.544.028-.415-.048-.168-.076.652-.183.633.077.366.087.919.422-.207-.327-.169-.038-.306-.278-.425-.173-.247-.192-.198-.336-.366-.124-.059-.192-.385-.413-.228-.009-.336-.48-.405-.058-.227-.22-.396-.096-.049.144.148.22.099.394.198.297h.217l.148.115-.039.547.296.489.188.077-.02.317-.118.105-.702.355-.544.442-.039.23-.159.048-.365-.106-.188-.115-.218-.355-.276-.086-.079.432-.366-.048-.692-.278-.218-.394-.089-.604-.237-.605-.267-.489.386-.346-.445-.297-.504-.23-.336-.346-.139-.076-.553-.087-.277-.134-.158-.336-.168-.192-.405-.172-.149-.221-.296.009-.139-.086.03-.23-.059-.298-.584-1.4-.434-.672-.297-.355-.633-.489-.178.067-.484-.71-.237-.403-.297-.202-.109.02-.454-.442-.583-.384-.188-.172-.238-.106-.385-.316-.563-.346-.663-.288-1.146-.441-.949-.211-1.196-.106h-.673l-.276-.057h-.376l-.218-.192.01-.25.376.355.425.068.395-.077.238.067.207-.096.198.086.316.02.119-.077.623.077.138-.164-.079-.259-.178.02-.227.191h-.356l-.415-.105-.129-.163.129-.23.178-.567-.198-.153.118-.278-.207-.173-.148.01-.02.441-.237.48.059.201-.05.288-.098.096-.297-.115-.069.125h-.366l-.049-.144-.514-.077-.069-.307.069-.288-.356-.249-.069-.164.148-.307.158-.489.583-.355.247-.115v-.163l.208-.211-.138-.202.375-.249-.395-.24-.307.441-.089.24-.168.125-.276-.154-.089-.518.049-.307-.138-.172.257-.48-.198-.461.227-.144.089-.316-.029-.154-.356.231.049.22-.217.317.079.096-.277.47.059.115-.019.451-.178.432.039.211-.207.326-.307-.029-.366.048-.108-.134.099-.211-.08-.125.08-.547-.248-.288v.336l-.098.461.108.23-.138.201.553.327.188.345-.069.499-.405-.249-.257-.202-.05.202.159.268.326.087.267.201.138.249.356.375.119.23.316.096-.287.374-.445.038-.81.231-.356.153-.366.25-.464.393-.287.345-.425.701-.158.489.039.557.445.153.158.144.435.115.168-.029.139.269-.089.086-.465-.019-.049-.163-.376-.086-.425-.01-.198.087-.346-.24-.306.172-.109-.134-.336.115-.366-.009-.148-.202-.336-.009-.139.153-.761-.144.267-.393.336.057.099-.192.139-.038.444-.902v-.057l.692-1.785.168-.326.277-.816.396-.959.434-1.228.267-.653.129-.479.128-.231.05-.24.168-.441.277-.883.543-1.487.228-.806.148-.614.148-.374.188-.816.218-1.314-.07-.288v-.585l-.197-.24.019-.288-.098-.153-.03-.413-.168-.23-.564-.269-.286-.22.118-.365-.069-1.065-.138-.374-.228-.211-.079-.231-.267-.192-.227-.355-.148-.124-.06-.231.03-.46-.109-.211-.257-.144-.168-.393-.197-.173-.139-.336-.247-.413.178-.028.445.163.217.278.168.115.079.25.228.211.118.22.435.298.079.221.208.22.435.576.178.336.346.23.356.134-.03.202.218.009.148.298-.267.585.474-.058.416.308.187.297.218.115.148.221-.039.23.257.278.039.202.297.134-.01.25.109.057.059.259.119.019.296.375.02.355.455.172.178.259-.03.125-.257.278.217.019.317.269-.01.336.356.259.296.393-.109.221.238.345.326.039.168.211.03.173.296.201.02.25.247.095.119.183.603.537.029.096.277.24.099.211 1.038 1.084.01.134.484.461.188.067.188.288.217.221.178-.231.326-.048.149.058.158-.413-.317-.239-.257-.355-.257-.24-.177-.298-.287-.374-.267.019-.287.144-.188-.326.119-.326-.247-.307-.326.029-.435-.288-.04-.154.158-.316-.029-.317-.386-.317-.217-.23-.129-.374.05-.192-.435-.326-.228-.077-.266-.47-.218-.029-.089-.269-.247-.22-.257-.461.039-.24-.504-.393-.197-.614-.03-.25-.405-.498-.168-.355-.168-.461-.297-.182-.089-.307-.158-.317-.059-.326-.297-.451-.02-.748.228-.71-.376.335-.03.154-.296.326-.267-.01-.069-.239-.317-.365-.365-.144-.188.163-.178.269-.277.009-.01-.355.119-.287-.069-.346.049-.393-.128-.221-.346-.24-.317.135v.23l-.316-.067-.366.028-.059-.163.237-.489.109-.499.069-.556h-1.137l-1.433-3.56v-.585l-.129-.173zm4.864 15.937l-.198-.048-.138.086-.208.307-.277.106-.286.335-.267.039.079.384.287.383.158.068.326-.154-.059-.125-.396-.46.04-.25.385-.048.149-.124.128-.269-.03-.134.307-.096zm36.15 23.554l.019-.172-.138-.307-.297-.135-.039.317.237.249.218.048zm-3.796-14.315l-.238.039v.211l.248-.029-.01-.221zm7.166 15.448l.04.287-.079.154.168.585-.504-.22-.406-.068-.276.183-.633-.231-.099-.335-.188-.125.386-.163.198-.528.108.163.208-.067-.01-.192.297-.259.464.154.326.662zm-19.701-4.51l-.009-.192.365.125-.138.134-.218-.067z" class="Vector_72" clip-rule="evenodd"/>
          <path fill="#000" d="M186.859 356.235l-.01.134-.217.336-.069 1.305.168.163.01.182-.247.451-.238.835-.148.23-.563 1.986-.228.586-.178 1.036-.069.105.03.624.099.46.405.528.138.413.247.009.198.423.198.191v.269l.81 1.007.03.087.435.422.297.413.237.451.623 1.477h.118l.208.269v.23l.277.72-.07.412.168.633.277.595.139-.009.118.364-.049.432-.247.182-.218.442.257.24-3.015.009-2.244.019-3.519-.028-.85.028-1.127-.009-.02.163.159.364.207.202-.089.365.267.374-.227.326-.109.355.138.048.01.288.366.46.03.24.435.413-.04.153.208.403-.554.01-.128-.115-.682.105-.356-.029-.099-.086-.316.643-.03.345.296.307.337.067.425-.076.474.076.267.183-.109.163.04.173-.079.201-.327-.019-.098.144-.277.009-.158-.153-.356-.115-.099.326.168.125.049.24.317.019.079.345.198.058.444.94.07.489.128.375-.217.211-.01.268.178.231-.079.124-.346.163-.149-.096-.316.317.079.326-.079.115.049.48-.069.211-.425.384.158.211-.464.144.197.384-.059.307-.109.125.475.662.326-.01.109.115-.03.269.425.029.267.345-.336.508.079.212.188.191-1.424.01-2.906-.019-.504.019-.929-.029h-2.096l-3.113-.019-5.081-.048-.06-.269 1.196-.249.771.096.722.278.306-.115.168-.768-.227-1.362.099-.154.623.144.178-.191-.05-.797-.227-.345.158-.173.583.48.099-.115-.049-.71-.149-.135-.365-.537-.139-.115.089-.221-.059-.22-.069-.816.089-.211-.692-2.063-.277.01-.01.153-.306.067.059-.268-.257-.096-.277-.413-.267-.163-.099-.211-.316-.345.05-.375-.01-.326.118-.163-.059-.173.089-.172-.198-.096-.543.201-.228-.192-.237-.556-.119-.125.198-.288.099-.479-.129-.413.06-.125-.149-.364.139-.317.543-.211-.128-.422-.425-.47-.138-.518-.109-.144-.326.009-.02-.46-.178-.173-.129-.269.129-.316-.178-.211-.247-.163-.188-.029-.386-.672-.158-.057-.01-.298-.425-.403-.286-.153-.218-.288-.207-.087h-.376l-.445-.355-.109-.268-.257-.221.06-.24.267-.345.267-.067.168-.413-.495-.336.03-.096-.494-.403-.415-.211-.327-.671.159-.24-.208-.259.02-.202-.366-.153-.02-.24-1.512-1.363-.158-.095.306-.442-.049-.182.207-.307.326.249.129-.537.415-.528v-.537l-.227-.374-.415-.154-.277-.019-.119-.192-.277.096-.761-.163-.207-.48.138-.192-.049-.249-.178-.019-.386-.346-.316-.038-.178.106-.524.048v-.327l-.138-.307v-.211l-.356-.355-.168-.403-.178-.163-.03-.316-.296-.432.217-.259.316.076.139-.374-.208-.057-.316-.336-.198-.048-.128-.336.069-.211.296-.058-.108-.642-.257-.173-.257-.029-.159-.326-.346.009-.355-.124-.129.134-.237-.019v-.288l-.247-.134.01-.288-.208-.307-.119-.384-.237-.182-.198-.394-.177-.278-.228.029-.197-.326-.129.048-.514-.307-.316-.039-.228-.288-.336-.076-.257.105-.306-.009-.445-.173.039-.509-.434-.393h-.455l-.02-.23.138-.633-.197-.135-.178-.364.029-.202-.415-.441-.445-.758.119-.394.227-.211.198-.355v-.268l.336-.24.119-.192-.03-.307.405-.298-.138-.355-.217-.076-.089-.883.484-.7.059-.298.208-.22.039-1.373-.276-.307 2.679-.786 5.377-1.535 1.107-.327 3.292-.921 3.667-5.958.989-.46-.465-.327-.089-.873-.168-.029 1.087-1.727 1.424.183.445-1.42-.643-1.593-1.67-2.072.672-.816.118.125.277.575.356.288v.125l.435.307.188.01.267.191.148.24.376.135.346.24.593.335.336.135.099-.029.385-.499.396-.086.227-.125.208.105h.217l.277-.335.158-.029.316.23.178.288.168.125.643-.154.237-.115.109.23.484.115.484-.057.129-.067.386 1.093.098.365.218.24.168.326.148.547.05.326.365.72.168.115.109.365.287.345.02.201.148.106-.01.345.109.077.197.413.109.556.099.25.079.47.138 1.18.248.508.187.106.139.23.089.307.286.096.317.403.118.278.089.394.089.067.356.729-.257.163.257 1.056.148.47-.089.432.277.441.287.058.168.124.484-.201.079.211.208.173.188.297v.182l.178.298-.06.288-.227.287.267.384.109.346.375.355.129.23.662.585.573-.134.564.307.395.796.01.355-.227.125v.153l.366.423-.099.297-.317.096-.286.192.148.47.01.508.178.154.385-.154.257-.326.198-.048.247-.192.05.317.257.297.178.307.069.317.188.24.158-.019.227.489.02.192.217.48-.029.24.138.326.148.125.178.623-.079.173.109.47.119.163.296 1.209.119.24.059.403.138.451.06.412.257.816-.079.393.257.288-.099.154.109.47.158.086-.01.163.356.413.118.355z" class="Vector_73"/>
          <path fill="#000" d="M165.715 427.053l-.049.067.099.604-.05.259-.187.183-.228-.048-.069.182.811-.058.425.701-.297.009-.079.394.059.182h.228l.158.134.306-.431.485.537.237.153-.188 1.277-.306-.192-.208.211-.405-.231-.228-.019-.207-.412-.218-.077-.039.182-.267-.038-.02.153.603.432-.376.441.08.173-.455-.038-.524.124-1.107.01h-4.231l-.702-.01-2.323.02-.188-.845-.118-.614-.109-1.381-.109-.969-.079-.211-.109-1.181-.009-.69-.099-.576-.099-.336.158-.249.366-.24.178-.211.385-.077.247.134.317-.019.543-.249.159-.375.138-.498.138-.26.149-.757.158.095.435.106.494.374 1.354-.278-.079.201.376-.124.484-.077.178.182.079-.278.465.038.178.125.227-.182.158-.269.297.115.168-.086.148.221.326.076.287.202.168.24.158-.115.237.345.119.374.514.739.178.144-.049.326.088.403-.039.614h-.138l.177.489-.108.125-.069.326.395.077.049.202zm1.038-6.458l.317.634-.079.326-.534.278.257.336.652-.24-.247.729-.385-.048-.406-.316.079-.374-.583-1.094.089-.346.376-.182.346.115.118.182zm-48.308 12.541l-.237-.192-.307-.039.386-.259h.158l.119.336-.119.154zm50.967-8.693l.346.681-.326-.086-.02-.595zm-6.672-6.764l-.04-.288.129.125-.089.163z" class="Vector_74"/>
          <path fill="#000" fill-rule="evenodd" d="M156.444 431.927l2.323-.019.701.009h4.231l1.107-.009-.039.115.316 1.861.119.758.089.106.474.009v.758l-.494-.009-.069.105-.346.029.01.24.435.077-.03-.202h.366l.019.23.554.039-.01.278-.405.029v.125l.356.326-.198.153.079.173-.158.144-.079.249-.929.039-.287.547.158.028.198-.259.079.394-.109.172.425-.057.386.374-.396-.01-.237.231.02.23.267.134.395-.144.544.24.089-.077.257.125.089-.172.188.182-.247.537.306.221.702.345-.267.518-1.028-.451-.099.068-.376.681-.019.134.494.23.296.269.238.365.336.335.998.058.03.259.534-.106.118.192-1.028-.028-.188-.154-.237.163 1.463.115.04-.508.237-.01v.48l1.028-.403.425.106.069.46-.168.134.504.586.356.307.198-.067.455.038-.02.365.217.115.297-.432.336-.106.445.211.01.25.405.086.217-.038.495-.24.346.067.662.537.247.231.386.671-.07.317.05.096.365.173.544.028.633.394.039.412.475-.028.069.335.732-.086.761.202.187.45-.177.797.454.316.475.279.118-.346.139.269.257.71.721.537.781.384 1.414-.681.514.24.385.518.257 1.132.06 1.027.227.594.208.125.178.25-.603.498.138.538-.178.211-.237-.086-.059.143-.416-.191-.405-.048-.178-.24-.316-.087-.158.154-.416-.106-.217.288-.237.096-.317-.019-.197.096-.188.374-.336.182-.218.269-.059.182-.296.087-.228.192-.079.364-.336.192-.198.192.079.345-.108.288.207.211.03.221-.178.105.227.183-.019.153-.337.087-.138.259-.059.307.148.364.049.653.139.268-.059.519.009.393-.267.297-.197.451-.188.192-.109.278-.039.499-.089.211.099.547.425.643.019.298.435.575.297.259-.01.077.247.451.573.662-.266.048-.346-.192-.228.441-.464.317.425.336.079.355.247.201.415-.297.435.057.178.202.168.403.346.125-.336.844.405.202.119-.058.425.326.118.355v1.343l-.009 2.543.089 1.353-.119.7.02.643-1.582.029-.603-.01h-2.847l-1.819.01-.01.959.01 1.372-.395.02h-1.601l-1.503.287-2.224-.019.188 1.564.267 2.092 1.581 2.916.129.25-.287.585-.287-.355-.474-.297-.237-.202-.584-.172-.079.124-.276-.019-.267.106-.564.326-.178-.413-.207-.086-.237.01-.099-.298.089-.403.039-.835-.158-.316-.316-.317-.03-.249-.237-.202-.247.058-.247-.135-.149-.191-.346-.087.02-.48-.099-.335-.069-.47-.277-.653-.158-.23-.247-.135-.267-.345-.376-.269-.573-.201-.583.058-.208-.221-.069-.653-.534-.335-.039-.739.029-.326-.138-.077-.079-.288.01-.595.059-.182-.148-.346.01-.191-.277-.336-.316-.633-.139-.672.01-.518.099-.374.198-.317.099-.605.009-.402.119-.096.227-1.296.188-1.765.148-1.689.238-1.967-.02-.623.069-.806-.099-.49-.504-.307-.01-.623-.069-.394-.208-.326-.217-.057-.158-.538-.257-.326-.228-.393.07-.317-.119-.489-.208-.24-.108-.317.029-.23-.306-.192-.049-.249-.119-.096-.129-.403-.009-.24-.159-.24-.158-.413-.286-.614-.178-2.389-.109-.383-.356-1.392-1.206-1.64-.336-.221-.188.096-.198-.259-.474-.086-.237.009-.425.125-.267.23.069.346-.336.028-.059-.278.039-.288-.949-1.151-.356-.71-.079-.25.069-.153-.01-.336-.197-.748.227-.71.139-.115.079-.567-.129-.575.059-.777-.227-.115-.188-.576.149-.192.088-.518-.019-.835-.267-.317.445-.134.079-.211.217.019.267.144.148-.019.317-.317.128-.422-.138-.115v-.182l.286-.135.08-.316-.099-.173.069-.211-.04-.259.079-.201.198-2.14.01-1.094-.049-.767-.089-.221.029-.7-.108-1.171-.277-1.353-.158-.681zm18.228 15.37l-.406-.143-.158.297h.435l.129-.154z" class="Vector_75" clip-rule="evenodd"/>
          <path fill="#000" d="M196.655 455.021l.455-.115.731-.24.583.153.366-.057-.039-.413.049-.124.237.009-.02.307.277.096.099.125.297.096.01.134.257.01.029.326h.198l.247.269.208-.096 1.047-.691.692-.259.307-.183.346-.028.158-.25.257-.096.287.087.207-.164.148-.268.198-.029.079-.182.218-.163.108-.24.307-.24 5.288.057.732-.019 1.572.019h1.848l2.017.029 1.898.077h2.164l7.414.038.356-.009 2.036.009 4.577.01.02.019-.138.259-.139-.086-.198.057-.345.394-.258-.019.198.892.534.259.287.288.029.316.267.096.05.173.375.01.099.499-.059.259.099.316.019.327-.168.115-.444.623-.03.298.089.268-.267.135.484.777.208-.086.553.853.05.528-.198.278.119.24.395.087.079.191.178.077.267-.153.148.057.188-.163.317-.153.346.172.573.058.346.269.524.124.148.307.119.509-.149.211-.365.23-.02.211-.247.854-.238.135-.088.393.286.556-.069.758.89 1.305-.159.288.07.23-.129.058.198.278.138.777.139.202-.247.105-.406.307-.642.691-.02.298h-.326l-.317.086-.197.192-.218.086-.326-.172-.188-.26-.464.25.079.336-.327.326-.079.259-.306-.01-.079.135.385.547-.069 1.266-.178.211.168.499-.059.566.583.921-.049.211.207.125.327.441.435.173.148.269.198-.125.395.393.277.106.089.23.039.47.317.336v.48l.118.652.277.384.109.489-.099.394.158.115.049.307-.178.278.08.192-.159.413.346.22.01.528.079.413.139.268.267.096.089.374.197.029.307.23.108-.201.505-.163.138.048.138-.566-.168-.24.05-.259-.099-.23.128-.221.248-.019.197-.346.277-.182.089-.297.593-.317.099-.297.277-.087.188.106.187-.048.218.172.385.192.238.279.089.259.316.057.296.25.188.076.267.375.396-.039.326-.115.375-.029.178-.192.425.317.267-.144.149.173.227-.01.158-.23.376-.307-.03-.249.257-.231.129-.355.286-.23.158.058.178.316.188.087.168.498.277.202.376.672.178.412.504.058.524.105.375-.077.109.096.356-.009.168.441-.05.288.366 1.036.504.509.158.211-.039.144.109.316.336.259-.326.653-.159.086-.237.403.099.365-.386.182.07.537-.06.202-.603.326-.355.058-.178.297.257.413.138-.096.356-.01.474.441.356.24.129.47.257.116.286.307.475.096-.059.201.168.374-.06.307-.316.336-.425-.192-.356-.029-.03.24-.158.259.099 1.142-.89.259-.207.403-.168.086-.307-.048-.257-.115.06.336.128.394.237.364.099.038.475.73.158.153-.346.163.119.144.089.528.158.307-.198.096-.445.086-.109.288-.168.125-.118.547.059.374.158.269.336.364.158.278.396.394.217.115.396.019.257.355-.02.221-10.112.076-2.274-.019-2.481-.009-.168.019-.999-1.027-.227-.23-.178-.365-.81-.46-.178-.288.049-.192-.237-.057-.346.201-.485.096-.217.317.178.355-.336.144-.267-.116-1.335-.47-.968 1.065-.307.72-.158.019-.138.345-.208.106.168.221-.02.259-.108.086v.432l-.149.268-1.552 1.305-.484.518v.471l-.949.46-.405.384-.168 1.247-.682-.048-.129.067-.296.307-.495-.594.03-1.727h-.692l-.01-.643-1.285.009-1.344-1.324-.099.058-.326-.067-.109.115-.395.019-.396.249.089.384-.366-.009-.227-.461-.326-.412-.069-.279.089-.096-.06-.422-.365-.019-.366-.115-.089-.307.118-.374-.108-.365-.149-.115-.286.067-.208-.173-.158.01-.267-.23-.721.086-.426-.115-.365-.413.029-.47.188-.47-.01-.221-.326-.096h-.425l-.02-.287-.326-.116-.079-.22h-.297l-.237-.24-.969.441-.138.106-.306.038.168-.326.336-.077.109-.297-.099-.106.83-.892-.297-.125-.296-.288-.099.202-.642-.509.375-.652.04.192.356-.058-.999-.566-.415-.633-.129-.086-.108-.279-.504-.767-.109-.288-.148-.058-.228.173-.326-.144.02-.278-.544-.029-.731-.393-.277-.355-.544-.278-.168.067-.435-.394-.316-.105-.218.019-.296-.25.059-.211-.089-.153-.395-.24.109-.355-.228-.163-.306-.47-.742-.039-.168-.249-.356-.096-.158-.163-.227-.048v-.211l-.395-.221-.445.077-.158-.077-.366-.029.059-.383-.692.134-1.127-.518-.217.278-.148-.163-.228-.019-.277-.24-.029-.134-.257.048-.208-.164-.237-.096-.366-.038-1.067-.758-.406-.163-.118.106-1.196-.499-.633-.144-.554-.336-.494-.48-.109-.201-.197-.135-.504.077-.267-.048-.327-.153-.247-.048-.158-.202-.069-.307-.257-.269-.237-.671-.613-.192-.336-.029-.198-.326-.178.058-.168-.173-.158.038-.307-.057.04-.24-.158-.163.059-.259-.148-.307-.01-.163-.208-.164-.098-.527.168-.336-.099-.125-.346-.134-.317-.24-.266-.499-.307-.451-.415-.345-.119-.317h-.375l-.247.25-.208-.058-.138-.336-.534-.528-.198-.124-.119-.211-.375.096-.415-.068-.238-.23-.049-.345-.425-.326-.386-.144-.118-.605-.218-.269-.711-1.036-.445-.46-.317.048-.365-.221-.267-.393-.247-.231-.416-.211-.257-.422-.197-.077.148-.374-.158-.422-.129-.163-.118-.355-.425-.326-.119.057-.405-.201.336-.845-.346-.124-.168-.403-.178-.202-.435-.057-.415.297-.247-.201-.079-.355-.425-.336.464-.317.228-.441.345.192.267-.048-.573-.662-.247-.451.01-.077-.297-.259-.435-.576-.019-.297-.426-.643-.098-.547.089-.211.039-.499.109-.278.188-.192.197-.451.267-.297-.01-.394.06-.518-.139-.268-.049-.653-.148-.364.059-.308.138-.259.336-.086.02-.153-.227-.183.178-.105-.03-.221-.207-.211.108-.288-.079-.345.198-.192.336-.192.079-.365.227-.192.297-.086.059-.182.218-.269.336-.182.188-.374.197-.096.317.019.237-.096.217-.288.416.106.158-.154.316.087.178.239.405.048.415.192.06-.144.237.087.178-.211-.138-.538.603-.499.197.25.267.009.227.202.366-.182.03.364-.257.317-.139-.058-.138.173.455-.067.069-.115.376.249.415.106.346.172.454-.086.228.173.296.086.455-.115.267.441.326-.038.771-.298.05.173.247-.163.692-.221.445.125-.159-.249-.494-.183.712-.604.435.029.306.547.119.796.692-.029.445.576.86.268.049-.048-.87-.326-.455-.556-.662.019-.02-.71-.197-.595 2.184-.278.93.336.395.019zm-9.529.297l.267-.076.227.393-.356-.086-.138-.231z" class="Vector_76"/>
          <path fill="#000" d="M163.788 389.931l5.081.048 3.114.019h2.095l.93.029.504-.019 2.906.019 1.423-.01-.187-.192-.079-.211.336-.508-.267-.346-.425-.028.029-.269-.108-.115-.327.009-.474-.662.109-.124.059-.307-.198-.384.465-.144-.158-.211.425-.384.069-.211-.049-.48.079-.115-.079-.326.316-.317.148.096.346-.163.079-.125-.178-.23.01-.269.218-.211-.129-.374-.069-.489-.445-.94-.198-.058-.079-.345-.316-.02-.049-.239-.169-.125.099-.326.356.115.158.153.277-.009.099-.144.326.019.079-.202-.039-.172.108-.163-.266-.183-.475-.076-.425.076-.336-.067-.297-.307.03-.345.316-.643.099.086.356.029.682-.105.129.115.553-.01-.207-.403.039-.153-.435-.413-.029-.24-.366-.46-.01-.288-.138-.048.108-.355.228-.326-.267-.375.089-.364-.208-.202-.158-.364.02-.163 1.127.009.85-.029 3.519.029 2.244-.019 3.015-.01-.257-.239.217-.442.247-.182.05-.432-.119-.364-.138.009-.277-.595-.168-.633.069-.413-.277-.719v-.23l-.207-.269h-.119l-.623-1.478-.237-.451-.296-.412-.435-.422-.03-.087-.811-1.007v-.269l-.197-.192-.198-.422-.247-.009-.139-.413-.405-.528-.099-.46-.029-.624.069-.105.178-1.037.227-.585.564-1.986.148-.23.237-.835.247-.451-.01-.182-.168-.163.069-1.305.218-.336.01-.134.642.038.336-.269.129.125.583-.029.692.106.939-.23.247-.096.396.46.721.605.198.441.168.269.366.316.544.24.345.23.643.096.524-.47.198-.038.247-.182.306-.442h.218l.326-.172.118-.202.218-.048v-.173l.257-.096.148-.143.01-.269.119-.24.346-.144.099-.307.523-.345h.218l.435-.24.534-.154.217-.182.109-.269.188-.115.425.067.445.211.425.077.356-.029.771.039.652-.259.633-.154.326-.374.217-.096.327.077.771-.048.276.182.277-.009.089-.164.257-.019.465.221.296-.01.771.269.485.317.652.076.83.307.495-.067.83-.067.781.422.178-.019.079-.374.296-.288.178.019.425-.23.208.163v.307l.129.182.276-.067.465-.288.553-.086.297-.144.563-.556.317.019.148.125.514.048.218.076.692-.23.168-.01.098.192.218.077.069.221.129.038.306.451.455.038-.04.288-.029 3.426.148.009-.01 2.773v3.32l-.01.7-.01 3.541.02.383-.02 1.526.01.403-.02.969v1.218l.02.202-.03 1.381 2.916.029h.564l2.461.029h1.671l-.316.297.079.231-.168.268v.25l-.267.317-.149.307.099.546-.118.327.326.499.039.23-.257.777.188.576.099.585-.03.336-.098.172-.01 1.008-.079.422.049.422-.02.653.06.297-.04.211-.415.71-.257.614.01.317-.178.508-.148.173-.633.24-.613-.115-.257.105-.534.307-.277.327-.711.326-.593.115-.257.307-.139.317-.267.259-.385.585-.277.326-.405.298-.02.479-.089.25-.03.355-.237.767-.119.643-.276.71-.317.595-.504.691-.099.633-.049 1.286-.188.47-.227.182-.307.077-.721.125-.336-.029-.238-.096-.494-.326-.128-.01-.959.624-.85.441-1.098.71-1.156.71-.287.115h-.385l-.425-.105-.514-.192-.791-.326-.326-.298-.297-.355-.247-.211-.297-.115-.405.23-.692.211-.296.192-.07.365-.049.24-.158.335-.326.509-.248.249-.257.164v-.845l-.346.25-.593.268-.365-.019-.356-.364-.514-.096-.228-.154-.257-.47-.039-.393.128-.499.228-.048-.089-.269.148-.144-.297-.317-.701.048-.307.135-.405.067-.109-.077-.257.134-.415-.019-.277.192-.366.106-.276-.087-.099.154-.336-.154.158-.268-.761-.019.049.163-.385.422-.248.067-.177-.077-.168-.585-.218.201-.138-.086-.079-.307-.168-.192-.416-.125-.187.077-.92-.451-.099-.009-.711-.518.039-.144-.158-.298.326-.077.287-.182.405-.029.425-.115.346-.048.168-.134-.158-.163.158-.202.524-.23.02-.125-.316-.738-.149-.394-.257-.249-.276-.394-.307-.287-.376.153-.889.154-.307-.01-.444-.154-.297.087-.386-.077-.415.086-.059.202-.435-.154-.336.077-.247-.029-.158-.163-.307.173.06.355-.06.46-.217.144.059.355-.119.183v.355l-.138.595-.89.93-.939.931-.8.767-1.295 1.507-.376.623-.257.797-.198.316-.435.125-.385.067-.9-.038.05-.211-.297-.154-.178.135.05.172-.287.029-.059-.144.089-.422-.208-.23v-.192l-.267-.01-.217-.096-.366-.307-.02-.268-.296-.135-.307-.287.01-.087-.405-.451-.168.048-.208.845-.089.143-.504-.163-.03-.278-.454-.307-.178.202-.198-.068-1.028.135-.326-.106-.079-.153-.326-.183-.336-.335.019-.183-.158-.268-.326-.307-.138-.394-.05-.278-.148.086-.732-.94-.187-.144-.356-.566-.159-.537-.217-.067-.04-.173-.207-.384-.099-.057.01-.336-.386.182.386.595h-.277l.208.336 1.028 1.429.573.672.593.988-.286.595-.129-.201-.198-.02-.217.375-.9.134.099-.134-.069-.317-.208-.326-.316-.298-.277-.182-.257-.384-.277-.336-.602-.997-.495-.49.06-.096-.762-.739-2.688-1.832-.504-.298-3.806-1.583-.198-.297zm30.832 6.783l.108.048-.059.413-.346.192.129.153-.277.067-.514.231-.613-.067-.178-.106.138-.288-.257-.47v-.192l-.247-.038-.346.307h-.168l-.198-.326.109-.135-.217-.384.395.068.277.172.346-.048h.534l.583.096.801.307zm5.486 2.898l-.277-.067.089-.202.504-.019.514-.24.089-.268-.079-.71.277-.173.128.048.05.412.336.576.198.115.434.067.198.135.326.335-.435.25h-1.383l-.02-.106-.307.01-.286-.067-.287.048-.069-.144zm-7.078-1.766l-.484.317-.336-.029-.85-.144-.06-.355.317.02.365-.135.326.096.445.221.277.009zm3.144-.537l-.426.039-.365-.202-.04-.144.336-.268.495.575zm-3.035-1.746l-.277-.202.425-.191.267.249-.059.182-.356-.038zm4.567 1.813l-.336.192-.119-.048.188-.297.02-.211.227.067.02.297zm-.949.518l-.247.02-.159-.259.109-.106.336.288-.039.057zm4.814-1.103l.316.355-.168.096-.158-.211.01-.24z" class="Vector_77"/>
          <path fill="#000" d="M146.924 341.642l.277.307-.04 1.372-.208.22-.059.298-.484.7.089.883.217.077.139.355-.406.297.03.307-.119.192-.336.24v.268l-.198.355-.227.212-.118.393.444.758.416.441-.03.202.178.364.197.135-.138.633.02.23h.455l.435.394-.04.508.445.173.306.009.257-.105.336.077.228.287.316.039.514.307.129-.048.197.326.228-.029.178.279.197.393.237.182.119.384.208.307-.01.288.247.134v.288l.237.019.129-.134.356.125.346-.01.158.326.257.029.257.173.108.643-.296.057-.069.211.128.336.198.048.316.336.208.057-.139.375-.316-.077-.217.259.296.432.03.316.178.163.168.403.356.355v.211l.138.307v.327l.524-.048.178-.106.316.039.386.345.178.019.049.25-.138.191.207.48.761.163.277-.096.119.192.277.019.415.154.227.374v.537l-.415.528-.129.537-.326-.249-.207.307.049.182-.306.442.158.096 1.512 1.362.02.24.366.153-.02.202.208.259-.159.24.327.671.415.211.494.403-.03.096.495.336-.168.413-.267.067-.267.345-.06.24.258.221.108.269.445.355h.376l.207.086.218.288.286.153.425.403.01.298.159.057.385.672.188.029.247.163.178.211-.129.316.129.269.178.173.02.46.326-.009.109.144.138.518.425.47.129.422-.544.211-.139.317.149.364-.06.125.129.413-.099.479-.198.288.119.125.237.556.228.192.543-.201.198.096-.089.172.059.173-.118.163.01.327-.05.374.316.345.099.211.267.163.277.413.257.096-.059.268.306-.067.01-.153.277-.01.692 2.063-.089.211.069.816.059.22-.089.221.139.115.365.537.149.135.049.71-.099.115-.583-.48-.158.173.227.345.05.797-.178.192-.623-.144-.099.153.228 1.363-.169.767-.306.115-.722-.278-.771-.096-1.196.25-.118.067.049.403.168.288.079.278-.188.575-.237.413-.237.249-.524.432-.188.221-.395.192-.158.192-.277.192-.316.134-.129.201-.297.173-.622-.105-.149-.269-.375.173-.623.134-.494.038-.514.096-.86.317-.04.201-.731-.201-.139-.087-.385-.479-.257-.643-.139-.691-.365-.595-.465-.46-.702-.432-.346-.317-.553-.69-.356.143-.396-.124-.237-.144v-.317l.455-.441-.049-.134-.228-.029-.277.124-.296-.067-.079-.134-.02-.413-.297-.163.248-.508-.287-.211-.336.115-.069-.25-.376-.105-.089.144-.326-.24-.218.115-.306.058-.089-.24-.366.115-.277.201-.217.442-.465-.058-.257.029-.099-.125-.405-.029-.306.048-.326.317-.564.01-.158-.144-.781-.106-.247-.115-.168-.211-.455-.211-.306.077-.03-.116-.277-.22-.672.019-.336-.029-.563-.47-.159.029-.84-.144-.296-.24-.159.173-.237-.106-.039-.125-.257-.134-.07-.259-.514-.317-.128-.028-1.256.009-.85-.71-3.795-3.185-.149-.144-1.433-1.199-3.588-2.975-2.234-1.89-.119-.23-.148-.019-.514.268-.168-.307.257-.115-.02-.153-.257-.067-.356.057-.178.211-.237.144.109.192.197.106-.049.259-.297.191-.306-.393-.524.106-.218.201-.642-.278-.198.125-.425-.192-.385-.077-.376-.269-.336-.019-.218.585-.158.087-.286-.144-.514.029-.188.278-.277.009-.217.212-.317-.029.089.575-.099.096-.405.115-.069.029-.129.163-.257-.182-.692-.681-.573-.393-.119-.144-.434-.154-.663-.125-.623.087-.316.182-.128.249-.168-.019.296-.556.267-.125.198.077.484-.048-.099-.442.149-.22-.208-.355-.326-.24-.366-.528-.662-.172-.089.23.128.47.228.23.009.653-.138.172.01.259-.336.154-.01.105.257.384.02.24.247.067.158.211-.079.25-.395.125-.248-.135-.098-.23-.168-.058-.03-.345-.504-.94-.218-.317-.197-.125.336-.278.356-1.055.039-.701.03-1.343-.06-.278-.316-.643-.089-.288-.207-.201-.198-.288-.02-.192-.178-.077-.02-.336-.316-.902-.484-.364-.228.173-.108-.116.039-.46-.168-.461v-.278l-.109-.288-.296-.537-.307-.24-.089-.211-.405-.115-.128-.298-.07-.364-.207-.096-.178-.374-.04-.346-.108-.278-.178-.019-.119-.748-.109-.25-.405-.336-.346-.105-.316-.173-.198-.221-.534-.278-.029-.173-.524-.364-.247-.029-.07-.413-.415-.316-.277-.087-.217-.259-.267-.201-.188-.048-.089-.192-.178-.077-.533-.384-.505-.201-.237-.24-.277-.125-.356-.076-.385-.25-.356.048-.287-.125-.355-.239-.208-.01.01-.24-.277-.125-.01-.239-.583-.116-.682-.019-.257-.163.07-.307-.327-.125.01-.172-.485-.317.01-.182-.346-.135-.702-.575-.069-.432-.276-.01-.208-.345-.316-.077-.346-.259-.336-.096.079-.259-.208.029-.247-.086-.158-.375-.425-.527-.475-.154-.237-.153-.227-.029-.04-.307-.118-.01-.396-.22-.237.048-.158-.451-.307-.173.109-.096-.138-.461.168-.316-.416-.72.01-.115-.168-.211-.593-.556-.277.134-.187-.019-.11-.24-.207-.192-.395-.173-.228-.268.09-.144.276-.01-.04-.163.1-.221-.08-.144-.395-.163-.474-.499-.198-.422-.425-.211-.198-.201v-.183l.168-.038-.257-.384-.366-.163.139-.211-.267-.269-.247-.163-.198-.48.02-.134-.228-.23-.177-.087.168-.268-.129-.087-.158-.431-.465-.547-.059-.24-.237-.192v-.173l-.267-.028-.316-.288-.406-.077-.059-.326.079-.087-.07-.556-.207-.134-.079-.192-.198-.125-.01-.307-.088-.182-.317-.279-.227-.067-.336-.259-.05-.297-.158-.106-.079-.307-.277-.192-.118-.24-.218-.067-.178-.163-.583-.163-.553-.46-.238-.106-.03-.144-.316-.134-.237-.509-.138-.096-1.008-.412-.238.096-.276-.144-.277-.317-.02-.134-.277-.278-.267-.02-.168-.307.08-.192-.04-.23-.396-.182.07-.346-.149-.527.346.374.218.144.356.412.158-.076.059-.394.168-.431.494.009.168-.537.139-.067.445.028.03-.402.227-.029 1.393.048 2.58.124.989.02 1.977-.01 2.214-.048.593.01-.01-2.802 1.364-.029 4.261-.029.989-.028.75-.087h1.573l3.232-.048 3.054.01h2.007l.465-.029-.03-2.878.801.009.613-.019 1.423.067 1.384.039.02-1.324 1.433.009 2.629-.057.683.048.899.105.613.01 1.433-.029 2.402.077.455.019.84-.01 1.532.02 2.146-.01 1.67.019h1.908l1.127.01.138.115.158-.086.06.287-.109.211.415.125.138.192-.079.269.257.172.682-.028.089-.231.208.039v.201l.346.605.148.009.247.288.455.048.396.48.425.211.039.278.198.086-.03.173.405.259.119.259.415.25.425.153.198.47-.148.691-.01.394.326.287.129.231.257.048.276.403-.049.297.247.336.237.019.188.441.198.173.089.202.02.335.227.48.642.259.238.365-.287.451.089.192-.059.24.118.527.247.029.475.278.02.24.158.154.178.431-.079.202.148.355.267.317.316.047.405.24.426-.009.336.163.227-.202.554.231.365-.01.247-.086.574.076.207.682.247.163.168.307-.079.47.287.297.138.058.06.297.504.595.079.144-.148.653z" class="Vector_78"/>
    </g>
</svg>
