<?xml version="1.0"?>
<svg xmlns="http://www.w3.org/2000/svg" version="1.2" baseProfile="tiny" width="800" height="923" viewBox="0 0 800 923" stroke-linecap="round" stroke-linejoin="round">
<g id="CA_State_TIGER2016">
<path d="M 374.7 854.11 374.58 853.41 374.6 852.7 374.77 851.9 375.38 850.45 375.71 850.07 376.66 849.24 377.44 848.77 377.96 848.54 378.72 848.35 379.32 848.31 380.08 848.37 381.28 847.89 382.45 847.67 383.14 847.7 385.02 848.23 385.47 848.41 387.3 849.37 389.46 850.39 390.49 850.82 390.78 851.02 392.38 852.44 394.36 853.9 395.18 855 395.52 855.53 395.81 856.26 395.87 856.92 395.83 858.16 395.7 858.77 395.23 859.9 394.66 860.86 394.23 861.11 393.22 861.9 390.2 863.18 389.33 863.34 387.23 863.42 386.73 863.48 385.75 863.18 384.3 863.14 383.33 862.82 383.03 862.66 381.91 862.3 380.99 861.86 380.29 861.75 379.37 861.38 378.85 861.04 378.36 860.55 377.85 860.23 376.97 859.5 376.5 858.96 375.97 858.07 375.85 857.67 375.44 857.15 374.97 855.99 374.99 855.02 374.7 854.11 Z M 448.71 877.43 448.42 876.12 448.45 874.89 448.65 874.01 449.02 873.21 449.55 872.4 450.29 871.65 451.29 871.01 451.96 870.77 452.96 870.57 454.3 870.63 455.28 870.53 456.15 870.61 458.13 871.31 458.94 871.76 460.36 873.03 461.03 873.96 461.47 874.72 461.6 875.06 462.12 875.73 462.53 876.12 462.87 876.9 463 877.57 463.62 878.54 464.41 879.54 465.26 880.82 465.48 881.22 466.13 882.06 467.76 883.18 469.03 884.38 470.13 885.66 471.32 886.64 472.21 887.27 472.79 887.72 473.26 888.24 474.72 889.59 475.14 889.86 475.62 890.33 476.26 891.06 476.81 891.45 477.82 892.77 478.19 893.57 478.38 894.21 478.47 895 478.38 895.94 478.16 896.56 477.72 897.43 477.39 897.93 476.62 898.67 475.77 899.34 474.28 899.93 473.48 900.04 472.13 899.82 471.56 899.64 471.02 900.25 470.47 900.71 469.25 901.32 468.37 901.49 467.08 901.49 465.75 901.02 464.91 900.56 464.2 899.95 463.6 899.23 463.39 898.87 462.63 898.24 462.21 897.73 461.6 897.19 460.61 896.73 459.24 895.74 458.58 895.01 458.09 894.27 457.6 892.92 457.37 892.37 456.68 891.47 456.4 890.88 455.92 890.35 455.41 889.67 455.09 889.1 454.71 888.61 454.21 887.4 454.07 886.95 454.05 886.06 453.8 885.19 453.04 884.35 452.48 883.39 451.74 881.71 451.57 880.81 451.45 880.56 451.13 879.2 451.03 878.54 449.07 878.54 449 878.01 448.71 877.43 Z M 415.37 832.45 414.47 832.45 414.6 831.93 415.03 831.02 415.26 830.67 416.03 830 416.66 829.65 417.74 829.2 418.54 829.05 419.28 829.12 420.01 829.01 420.84 828.79 421.79 828.75 423.02 828.98 423.57 829.13 424.41 829.65 425.01 830.21 425.73 831.17 426.26 832.45 426.51 833.82 426.51 834.92 426.43 835.52 426.2 836.34 425.96 836.8 425.74 837.7 425.3 838.82 425.14 839.05 424.51 839.52 423.95 839.85 423.57 839.72 422.9 840.14 421.55 840.5 419.55 840.67 418.1 840.41 416.97 839.71 416.38 839.21 415.87 838.43 415.24 836.96 415.18 835.94 415.19 834.83 415.37 832.45 Z M 449.72 836.49 449.39 835.47 449.26 834.53 449.22 833.75 449.33 833.05 449.56 832.45 450.18 831.45 451.08 830.48 452.48 829.77 453.54 829.5 454.5 829.46 455.27 829.49 456.08 829.82 456.38 829.74 457.32 829.74 457.73 829.83 458.59 829.6 459.59 829.54 460.39 829.66 461.66 830.15 462.12 830.45 462.7 831 463.53 830.96 463.94 831.02 464.58 831.25 465.51 831.81 466.23 832.45 467.06 833.43 467.81 833.64 468.29 834.13 469.65 834.37 470.97 834.9 472.27 835.31 473.03 835.69 473.68 836.35 474.36 836.71 475.08 837.25 475.7 837.81 476.34 838.54 476.76 839.37 477.1 841.03 477.29 841.35 478.02 841.91 478.7 842.63 479.36 843.47 480.06 844 480.48 844.42 480.87 845 481.35 845.99 481.84 847.38 482.13 848.79 482.15 849.72 482.02 850.63 481.77 851.74 481.39 852.63 480.75 853.45 479.98 854.08 479.09 854.69 478.19 855.15 477.39 855.44 476.17 855.67 475.45 855.71 474.23 855.53 472.72 855.06 471.32 854.4 471.01 854.11 470.35 854.06 469.7 853.88 468.97 854.03 467.77 854.06 465.65 853.78 463.21 853.05 461.9 852.27 461.39 851.87 460.8 851.23 459.5 849.52 459.04 848.6 458.91 848.05 458.53 847.18 458.36 846.25 458.26 845.23 458.24 844.52 458.49 843.83 458.07 843.52 457.28 843.44 456.54 843.21 455.16 842.53 453.92 841.85 453.04 841.12 452.48 840.37 452.11 839.55 450.23 837.5 449.72 836.49 Z M 387.55 780.21 388.85 779.91 389.92 779.79 390.97 779.79 392.08 779.87 393.03 780.15 393.59 779.94 395.28 779.54 396.16 779.5 397.24 779.67 398.13 780.04 398.88 780.45 399.58 781.03 400.11 781.67 400.69 782.69 400.94 783.53 401.04 784.21 400.97 785.06 400.78 786.09 400.8 786.34 400.19 787.34 399.09 788.42 397.98 789.09 397.31 789.3 396.51 789.39 396.14 789.67 395.13 790.15 394.31 790.4 393.62 790.43 393.31 790.3 392.57 790.38 391.93 790.23 391.49 790.39 390.26 790.19 388.6 789.5 387.2 788.82 386.22 788.16 385.68 787.65 385.02 788.74 384.15 789.6 383.29 790.28 382.56 790.75 382.09 790.95 381.2 791.21 380.21 791.21 379.5 791.56 378.8 791.7 378.1 791.7 377.22 791.97 376.58 791.93 375.95 792.05 375.38 792.03 374.55 791.83 373.25 792.59 372.67 792.75 372.05 793.23 371.17 793.57 370.63 793.93 370.2 794.11 369.09 794.42 368.22 794.49 367.25 794.43 366.48 794.21 366.16 794.32 365.16 794.38 364.06 794.23 363.63 794.4 362.78 794.44 362.19 794.79 361.17 795.26 360.17 795.44 359.31 795.31 358.3 794.99 357.19 794.38 356.11 793.4 355.48 792.97 354.54 792.06 353.88 791.7 353.73 792.37 353.4 793.16 352.79 794.05 352.03 794.87 351.23 795.51 350.37 795.9 348.67 796.18 348.02 796.1 346.47 796.75 345.88 797.35 345.35 797.69 345.05 798.12 344.4 798.49 343.88 798.68 342.85 798.76 342.04 799.13 341.1 799.42 340.37 799.98 339.57 800.37 338.52 800.73 337.5 800.81 336.83 800.74 335.75 800.51 335.01 800.21 334.43 799.71 333.41 799.34 332.43 798.51 332.03 798.51 331.63 798.3 331.16 797.7 330.54 797.34 329.97 797.17 329.49 796.85 328.84 796.09 328.32 795.37 328.14 795 327.46 794.76 326.78 794.3 326.15 793.62 325.49 792.63 325 790.86 324.95 790.37 324.04 789.6 323.49 789.02 322.78 789.21 321.33 789.18 320.93 789.02 319.8 789.48 318.89 789.68 318.24 789.71 316.88 789.38 316.04 789.12 314.8 788.22 313.96 788.42 313.22 788.44 312.62 788.36 312.14 788.19 311.4 788.29 310.56 788.31 309.48 787.92 308.91 787.55 308.17 786.91 307.92 786.51 307.52 786.09 306.55 784.78 306.21 783.97 306 783.02 305.96 782.23 306.19 781.33 305.6 781.28 304.14 780.76 303.42 780.29 302.83 779.7 302.3 779.02 301.71 777.58 301.65 776.08 301.9 775.05 302.21 774.32 302.76 773.47 303.29 773 304.24 772.46 305.06 772.09 305.92 771.94 306.76 771.87 308.2 772.14 309.43 772.86 310.18 773.61 311.31 772.52 311.92 772.07 312.54 771.71 313.65 771.26 314.26 771.14 315.61 771.31 316.33 771.5 316.58 771.66 318.11 772.03 318.64 772.24 319.52 772.92 320.12 773.85 320.44 774.76 320.86 774.99 321.54 775.5 321.79 775.81 322.51 775.9 323.58 776.4 324.6 777.27 325.4 778.48 325.61 779.19 326.31 780.03 327.05 780.69 327.19 780.61 328.73 780.4 329.85 780.39 330.65 780.49 331.31 780.68 331.58 780.63 332.24 779.93 333.35 779.27 334.28 779.05 334.97 779.01 335.76 778.78 337.28 778.74 337.89 778.97 338.61 779.16 339.92 778.25 340.35 778.05 341.66 777.74 343.06 777.66 344.5 777.81 345.04 777.93 345.76 778.27 346.47 778.77 346.47 778.94 347.19 780.05 347.32 779.54 347.93 777.77 348.52 777.09 348.67 776.47 349.2 775.61 350.56 774.46 351.46 774.11 352.03 774 353.22 773.98 353.82 774.05 354.7 774.38 355.15 774.33 356.1 774.34 357.41 774.65 357.95 774.83 359.04 774.9 359.71 775.04 361.07 775.53 362.53 776.19 363.27 775.94 364.35 775.67 364.98 775.61 366.18 775.77 367.67 776.59 368.94 776.72 369.59 776.94 370.21 777.26 371.29 778.04 373.15 779.46 373.9 778.64 374.66 778.02 375.21 777.71 375.38 777.46 376.28 776.84 377.39 776.41 378.11 776.26 378.77 776.25 379.38 776.03 380.04 775.96 381.37 776.06 382.13 776.28 384.16 777.39 385.02 778.1 385.28 778.39 385.96 778.72 386.84 779.41 387.55 780.21 Z M 102.15 428.59 101.92 427.84 101.85 426.66 102.22 425.03 102.46 424.59 102.85 424.09 103.91 423.12 104.51 422.66 105.53 422.17 106.14 422.04 107.91 422.15 108.96 422.52 109.82 422.94 111.49 424.31 112.27 425.37 112.65 426.4 114.44 426.73 115.45 427.14 116.23 427.81 116.69 428.3 117.15 428.91 117.32 429.3 117.78 429.53 118.75 430.45 119.11 430.9 119.7 431.99 119.9 432.54 120.2 433.8 120.21 434.27 119.96 435.35 119.78 436.32 119.18 437.61 118.11 438.72 117.34 439.24 116.28 439.71 115.19 439.89 115.17 439.71 114.36 439.74 113.16 439.37 112.12 438.88 111.13 438.07 110.35 437.22 109.97 436.66 109.62 435.74 109.48 435.01 108.62 433.97 108.1 432.7 107.17 432.81 106.35 432.67 105.53 432.41 105.03 432.15 103.17 430.35 102.71 429.8 102.15 428.59 Z M 27.63 57.31 27.44 56.44 27.05 55.01 26.5 53.67 26.46 52.81 25.98 51.7 25.82 50.63 25.79 49.19 25.48 49 24.88 48.41 24.29 47.65 23.9 46.88 23.64 46.03 23.61 45.52 23.73 44.49 23.57 44.2 23.47 43.48 23.5 42.51 23.06 42 22.64 41.35 22.17 40.33 21.86 39.05 21.93 38.25 21.83 37.92 21.83 36.97 22.08 35.74 21.84 34.98 21 34.56 19.9 33.59 19.51 33.55 18.93 33.35 17.93 32.84 16.72 32.04 15.66 31.17 15.01 30.54 13.98 30.2 12.67 29.55 10.33 27.26 9.7 26.48 8.53 25.99 7.93 25.56 6.88 24.45 6.22 23.43 5.97 22.7 5.07 21.7 4.62 20.99 4.32 20.17 4.21 19.47 4.18 18.69 4.41 17.6 4.62 16.86 4.94 16.19 5.31 15.59 5.88 14.96 6.45 14.21 7.23 13.84 8.19 13.72 9.16 13.7 10.01 13.74 11.36 14.1 12.05 14.45 12.72 14.97 14.11 16.62 15.19 16.42 16.19 16.55 16.6 14.96 16.52 14.96 16.85 12.47 16.87 12.04 16.52 11.63 16.14 11.01 15.81 10.27 15.65 9.4 15.68 8.48 15.97 6.99 16.21 6.46 15.91 5.14 14.94 3.75 14.49 2.72 13.65 2.54 12.81 2.16 18.79 2.16 21.85 2.15 27.24 2.27 30.1 2.29 30.42 2.33 38.68 2.4 43.66 2.41 50.92 2.4 52.74 2.49 57.35 2.33 59.12 2.29 64.59 2.49 67.15 2.01 71.76 1.91 73.99 1.9 80.87 1.92 88.47 2.06 95.2 1.7 101.08 1.39 104.02 1.08 105.32 1.12 106.62 1.22 109.02 1.46 110.41 1.49 111.86 1.67 114.66 1.66 117.72 1.62 121.97 1.62 125.03 1.57 126.44 1.58 129.61 1.56 132.29 1.57 136.74 1.56 139.65 1.52 141.1 1.48 144.14 1.45 148.64 1.25 152.62 1.15 160.23 1.12 161.72 1.08 163.21 1 166.22 1.05 172.2 1.2 173.7 1.19 179.66 1.23 181.16 1.3 184.14 1.36 185.68 1.37 188.63 1.43 189.69 1.5 192.65 1.58 195.63 1.62 196.99 1.59 203.3 1.68 221.96 2.04 225.91 2.12 232.23 2.2 241.44 2.35 242.86 2.38 244.08 2.32 247.07 2.25 250.39 2.27 254.91 2.26 256.46 2.28 260.87 2.43 262.38 2.45 263.97 2.49 267.97 2.67 271.44 2.71 274.49 2.65 285.01 2.61 288.07 2.64 292.54 2.63 295.5 2.69 301.57 2.72 302.99 2.69 307.34 2.65 308.92 2.65 321.38 2.76 321.41 2.7 324.46 2.71 324.64 2.74 326.77 2.72 328.05 2.66 331.25 2.57 332.75 2.55 337.82 2.53 344.37 2.51 346.6 2.51 346.59 11.55 346.6 14.95 346.67 27.88 346.64 30.9 346.63 40.78 346.67 41.41 346.62 51.41 346.58 53.67 346.56 66.55 346.57 67.53 346.54 79.36 346.56 80.77 346.55 86.88 346.56 88.98 346.54 96.44 346.56 102.66 346.55 104.94 346.59 113.42 346.6 117.88 346.65 125.92 346.64 127.99 346.79 143.15 346.8 145.72 346.85 148.65 346.88 162.06 346.87 168.39 346.82 172.76 346.81 174.23 346.83 178.63 346.83 181.69 346.8 186.09 346.77 187.55 346.77 191.95 346.75 196.25 346.76 199.29 346.7 208.17 346.66 211.09 346.61 215.76 346.61 218.89 346.55 222.64 346.5 226.69 346.5 228.9 346.46 231.21 346.47 238.39 346.45 242.87 346.48 245.77 346.43 248.68 346.39 251.59 346.41 253.4 346.36 257.35 346.29 260.26 346.07 269.02 346.04 279.11 346.1 281.98 346.1 283.79 346.19 287.61 346.25 293.83 346.46 306.28 350.42 309.78 351.8 310.96 356.1 314.78 359.46 317.73 361.69 319.71 374.42 331 375.38 331.89 378.38 334.51 381.11 336.95 384.21 339.67 385.01 340.44 387.23 342.38 388.08 343.09 390.19 344.99 392.71 347.31 394.65 349.08 395.1 349.42 397.93 351.88 402.09 355.63 404.29 357.55 405.52 358.71 413.93 366.18 414.06 366.32 416.15 368.18 417.29 369.31 421.34 372.88 423.56 374.98 427.52 378.38 429.61 380.25 433.21 383.54 434.4 384.59 439.23 389.02 441.23 390.85 443.17 392.51 445.67 394.75 452.47 401.05 452.81 401.38 456.64 404.75 462.11 409.73 462.49 410.11 470.01 416.98 472.01 418.82 481.39 427.35 487.02 432.51 492.45 437.48 496.71 441.35 497.84 442.46 501.74 446.01 502.31 446.49 505.59 449.6 508.09 451.96 510.3 453.77 519.94 462.86 522.91 465.64 525.36 467.73 528.91 471.11 533 474.95 536.13 477.76 536.45 478.08 539.21 480.63 539.27 480.62 548.85 489.67 549.21 489.98 557.32 497.59 558.95 499.01 562.05 501.93 563.73 503.48 566.17 505.8 568.12 507.6 571.15 510.48 574.9 513.99 577.52 516.42 577.76 516.61 587.52 525.82 597.03 534.83 613.14 550.04 616.31 553.08 617.28 553.96 625.6 562.02 626.18 562.5 635.59 571.4 638.53 574.2 647.74 583.02 652.17 587.26 654.87 589.84 655.29 590.26 661.19 595.94 661.71 596.42 664.75 599.32 671.92 606.23 673.34 607.6 678.38 612.45 678.47 612.56 682.19 616.14 689.08 622.79 694.73 628.28 699.79 633.17 706.61 639.79 710.13 643.23 712 645 715.1 648.07 719.31 652.16 719.6 652.53 724.24 657.1 725.54 658.26 726.8 659.55 732.43 664.96 733.23 665.76 740.09 672.43 743.28 675.65 744.69 676.94 747.64 679.83 750.09 682.24 752.72 684.87 756.8 688.91 760.28 692.37 760.59 693.31 760.59 694.12 760.19 695.45 760.16 696.4 760.56 697.73 760.56 698.31 760.38 699.06 760.3 699.95 760.5 700.83 760.48 701.26 760.13 702.4 760.02 703.29 760.15 704.29 760.31 704.77 760.68 705.36 761.33 706 762.53 706.68 763.45 707.47 763.87 707.99 764.23 708.69 764.67 709.9 764.83 710.94 765.03 711.68 765.54 712.65 765.64 712.97 766.05 713.79 766.51 714.45 767.46 715.36 768.23 715.9 768.59 716.31 769.29 717.27 769.77 717.57 770.51 717.87 771.26 718.39 771.53 719.16 771.9 719.36 772.32 719.36 772.76 719.5 772.99 720.01 773.03 720.55 773.25 721.55 773.48 722.05 774 722.85 774.09 723.42 774.36 723.74 774.19 724.21 773.8 724.59 773.88 724.82 774.46 725.27 775.01 725.96 775.15 726.34 775.09 727.27 775.29 728.08 776.07 728.72 776.41 729.11 776.4 729.87 776.16 730.16 775.47 730.39 775.53 730.67 776.55 731.9 777.87 732.94 779.08 735.43 779.75 736.67 779.96 737.91 779.96 738.77 779.64 739.85 779.59 740.49 779.7 741.52 779.55 742.22 779.31 742.84 779.3 743.39 780.14 744.33 780.5 744.41 781.1 744.34 781.67 744.15 782.93 743.99 783.35 744.19 783.62 744.57 783.91 745.25 784.68 745.53 785.91 746.3 786.39 746.8 786.59 747.16 786.67 747.89 787 748.3 787.52 748.51 788.49 748.57 788.85 748.77 789.63 749.73 789.95 749.91 791.05 750.98 791.41 751.71 791.68 751.99 792.63 752.31 793.74 752.41 794.38 752.9 794.81 753.06 795.48 753.54 796.1 754.45 796.94 756.25 797 756.47 798.25 757.59 798.45 757.84 798.36 758.53 798.45 759.21 798.63 759.93 798.55 760.28 798.73 761.04 799 761.62 798.98 761.84 798.67 762.07 797.95 761.91 797.29 762.03 796.42 761.9 796.44 762.65 796.28 762.84 795.73 763.02 795.55 763.22 795.39 763.74 794.4 764.59 792.51 766.63 791.89 766.99 791.7 767.3 791.77 768.04 791.61 768.5 791.41 768.69 790.56 769.03 790.27 769.39 789.52 769.91 788.43 770.24 787.89 770.06 787.01 770.2 786.58 770.54 786.13 771.16 785.53 771.88 785.05 772.61 784.09 773.36 783.2 773.61 782.28 773.57 781.9 773.7 781.64 773.95 781.33 774.59 780.86 775.05 779.88 775.29 779.01 775.84 778.17 775.7 777.38 775.85 777.05 776.07 776.26 777.06 776.12 777.45 775.64 777.96 775.51 778.88 775.37 779.4 775.24 780.7 775.3 781.42 775.54 782.13 775.58 782.57 775.49 783.48 775.33 783.99 774.9 784.58 774.05 785.07 773.39 784.95 773.08 785.4 773.17 785.73 773.71 786.09 773.79 786.42 773.64 786.66 773.04 786.75 772.85 787.11 771.93 787.93 771.7 788.42 770.87 789.26 770.58 789.64 769.76 790.08 769.41 789.98 768.87 790.21 768.36 790.94 767.83 792.16 767.81 792.82 767.94 793.04 768.76 793.41 769.45 794.06 769.91 794.82 769.95 795.21 769.61 795.53 769.31 795.58 768.59 795.25 768.66 795.78 769.13 796.47 769.79 797.17 770.23 797.53 770.33 798.28 770.27 798.56 769.27 799.27 768.7 799.08 768.26 799.32 768.21 799.52 768.29 800.2 768.76 801.39 769.03 802.31 768.82 802.9 768.41 803.28 769.11 804.92 769.28 805.75 770.02 807.64 770.19 808.33 770.22 809.21 769.94 810.08 769.62 810.77 770.25 811.34 770.51 811.88 770.83 812.16 771 812.95 771 813.44 770.84 814.22 769.95 814.68 769.61 814.74 768.72 815.25 768.23 815.86 768.09 816.74 768.53 817.28 769.25 817.38 769.48 817.63 769.15 818.02 768.63 818.02 768.21 818.16 768.01 818.42 768.01 818.71 768.29 819.14 768.61 819.43 768.73 819.99 768.54 820.4 768.18 820.59 768.16 820.98 768.46 821.55 768.84 821.89 768.87 822.15 768.5 822.38 768.17 822.78 767.68 823.67 767.44 823.99 767.43 824.78 767.8 826.05 768.13 826.74 768.39 826.96 768.7 827.54 768.22 827.82 768.12 828.02 767.33 828.52 766.09 829.44 765.88 830.2 765.87 830.9 765.21 831.6 764.36 831.85 763.69 832.28 763.45 832.57 763.07 833.31 762.88 833.9 762.25 834.78 761.9 835.15 761.75 835.47 761.09 836.46 761.14 837.3 760.74 838.71 760.57 839.09 760.15 839.59 759.52 840.14 759.04 840.43 758.37 840.49 757.18 839.92 756.08 840.03 755.48 840.29 755.29 840.72 755.01 840.92 754.31 841.02 753.6 840.96 753.2 841.22 753.28 841.65 754.1 842.77 754.59 843.3 754.58 843.85 755.22 845.28 755.3 846.08 755.08 847.5 754.75 848.36 754.39 848.97 753.33 849.8 752.84 850.39 752.74 850.69 753.36 852.02 753.77 852.29 755.58 852.78 756.35 853.13 756.92 853.67 757.28 854.56 757.12 855.01 756.44 855.53 756.06 855.72 755.96 855.97 756.48 856.92 757.12 857.79 757.18 858.36 756.79 859.82 757.06 861.23 757.01 861.84 756.62 862.99 756.74 863.6 756.48 864.3 756.12 865.48 755.9 865.87 755.39 866.48 754.87 868.08 754.54 869.58 754.55 870.16 754.65 870.44 755.06 870.6 755.56 870.61 756 870.81 755.99 871.54 756.15 872.02 757.13 873.29 757.07 874.07 757.18 874.69 757.4 875.05 758.05 875.54 758.4 875.43 758.93 874.49 759.23 874.09 759.4 874.07 759.81 874.38 760.57 875.55 760.87 875.84 761.41 876.04 762.37 876.18 763.01 876.21 763.65 876.13 764.03 875.95 764.53 875.29 765.04 875.18 765.57 875.32 766.47 875.42 767.24 875.44 768.17 875.57 769.02 875.79 769.69 876.39 770.08 876.94 770.58 878.18 770.8 879.44 770.9 880.37 771.11 881.14 771.33 881.31 772.01 881.11 772.32 880.84 772.68 880.87 772.99 881.15 773.08 881.72 773.06 882.53 772.82 883.19 772.32 883.88 772.04 884.4 772.27 885.37 772.46 885.69 773.31 886.53 773.43 887 773.4 887.81 773.25 889.08 773.19 890.43 772.96 892.77 772.43 893.36 771.02 894.78 769.77 895.4 769.38 895.86 769 896.58 768.34 897.25 768.13 897.72 768.11 899.27 768.31 899.71 768.5 900.84 767.55 900.86 767.54 901.51 765.6 901.53 765.59 902.2 764.27 902.2 764.26 902.87 761.69 902.91 761.63 903.46 760.6 903.33 760.29 903.23 759.36 903.13 758.68 903 757.78 902.96 756.8 902.72 755.95 902.58 755.31 902.02 754.98 901.91 754.71 902.26 754.41 902.88 754.13 903.13 753.64 904.36 751.23 904.55 739.02 905.56 731.96 906.1 722.32 906.91 712.68 907.7 703.05 908.53 696.16 909.09 690.89 909.55 683.77 910.2 680.97 910.44 674.13 911.07 670.19 911.42 664.5 911.9 662.02 912.14 656.31 912.65 654.86 912.8 651.33 913.09 647.57 913.46 646.03 913.59 645.22 913.71 642.12 913.99 638.65 914.29 634.04 914.74 627.33 915.38 624.85 915.6 616.44 916.44 613.24 916.72 607.32 917.32 604.3 917.61 599.63 918.08 595.76 918.45 593.65 918.67 588.84 919.12 585.47 919.52 583.38 919.74 581.99 919.82 580.73 919.97 578.8 920.16 575.8 920.5 572.68 920.77 568.11 921.25 562.03 921.74 561.64 919.38 561.64 917.71 561.32 915.71 561.01 914.29 560.61 913.29 559.83 913.7 558.8 913.87 558.4 913.87 557.11 913.45 556.48 913.08 554.89 911.41 553.99 910.07 553.09 907 552.73 903.17 552.36 896.47 551.46 893.21 551.64 891.48 552.18 889.37 552.91 887.45 548.85 871.63 547.59 869.03 546.59 867.04 544.25 862.21 541.76 858.99 539.21 856.25 538.68 855.53 537.66 853.79 535.46 851.43 533.77 849.78 529.58 847.03 528.78 846.39 527.88 845.05 527.42 844.94 526.47 843.99 525 842.82 522.82 840.88 521.88 841 521.14 841 520.67 840.75 518.84 838.78 518 837.51 517.58 837.01 516.89 836.03 516.67 835.24 515.81 834.61 515.28 834.11 514.89 833.29 514.1 832.73 513.37 832.45 510.47 830.62 505.82 827.89 502.75 825.4 500.72 823.87 499.55 823.25 498.14 822.33 496.89 821.35 494.95 819.53 493.3 818.23 492.45 816.83 491.03 814.2 487.95 814.72 485.92 814.81 482.46 814.81 481.11 816.25 479.59 817.33 476.13 817.68 474.1 817.33 471.66 815.89 470.98 815.17 467.69 813.82 464.73 811.57 463.3 808.96 463.13 806.53 463.38 804.37 464.56 802.93 466 801.67 466.51 801.04 466.25 800.14 465.41 798.61 463.97 796.36 462.12 793.65 461.52 792.36 460.38 790.45 459.61 789.64 458.45 787.95 457.76 787.23 456.81 787.13 456.33 787.25 455.51 787.3 454.93 787.2 454.5 787.33 453.6 787.37 452.48 787.28 451.93 787.42 451.09 787.41 450.12 787.59 449.35 787.9 448.54 788.02 447.6 787.95 446.88 788.12 446.41 788.15 445.48 788.07 444.65 787.92 444.03 788.22 443.19 788.37 442.94 788.71 442.38 789.21 441.81 789.47 440.67 790.32 439.66 790.78 438.78 790.99 437.92 791 437.14 790.83 436.38 790.51 435.89 790.24 434.99 789.57 434.67 789.25 433.35 787.64 432.33 787.28 431.56 787.22 430.16 786.98 429.33 786.92 428.91 786.82 428.23 786.88 427.31 786.74 426.41 786.39 425.18 786.2 424.77 786.09 423.61 785.39 421.53 784.7 419.18 784.28 414.63 783.31 411.38 782.34 406.83 780.27 404.29 776.21 403.97 775.92 403 774.8 401.61 772.98 400.7 771.17 399.72 768.63 399.21 767.23 398.3 764.96 397.85 764.06 397.74 763.97 396.6 763.72 395.57 763.27 394.66 762.82 393.85 762.15 392.65 760.73 391.92 760.6 390.59 760.21 389.02 759.57 387.63 758.73 386.31 757.51 385.02 755.63 384.26 755.26 383.59 754.77 383.32 754.79 382.94 754.52 382.57 754.52 381.4 754 380.79 753.94 380.21 753.65 379.34 753.12 378.55 752.38 378.13 752.43 377.22 752.2 376.54 751.86 376.03 751.72 375.65 751.91 374.58 752 373.42 751.91 372.28 753.06 370.5 754.02 369.09 754.66 368.43 754.77 367.2 754.43 365.74 753.74 364.77 753.2 363.08 752.55 362.19 752.04 361.51 752.04 360.74 752.56 360.18 752.81 359.04 753.07 358.44 753.12 357.7 753.07 356.88 752.8 356.1 752.95 354.91 752.78 354.37 752.51 353.26 751.66 352.98 751.36 352.69 751.35 352.1 751.14 346.47 748.85 345.82 748.66 344.66 747.93 343.76 747.87 343.09 747.64 342.16 747.87 341.12 747.89 340.65 747.76 340.14 747.93 339.55 747.93 338.19 747.6 336.73 747.05 336.13 746.74 335.19 746.66 334.92 746.76 333.93 746.9 332.94 746.84 332.34 746.93 331.76 746.93 330.91 746.73 329.9 746.81 329.28 747.01 327.99 747.17 327.4 747.11 326.13 747.15 324.94 747.28 324.41 747.16 323.64 747.4 322.47 747.61 321.52 747.89 320.33 747.92 319.65 748.12 319.14 748.12 318.22 748.01 317.18 748.25 316.71 748.27 316.43 748.49 315.05 748.93 313.7 749.11 312.91 749.44 311.77 749.63 311.39 749.6 310.41 749.37 309.91 749.11 308.91 748.96 307.92 748.51 306.9 747.68 306.17 746.98 305.46 745.7 305.25 745.11 305.25 743.88 304.8 743.47 304.21 742.71 303.9 742.16 303.5 741.08 303.41 740.53 302.86 740.36 301.71 739.77 300.72 739.07 300.25 739.21 299.55 739.27 298.6 739.16 297.77 739.2 297.02 739.1 295.96 738.65 295.39 738.23 294.79 737.69 293.77 736.91 293.3 736.31 292.96 735.65 292.67 735.42 292.27 734.92 291.96 734.32 291.59 733.06 291.55 732.44 291.64 731.57 292.03 730.33 291.92 729.52 292.02 728.57 292.48 727.28 293.04 726.5 293.62 725.87 293.93 725.13 294.69 722.91 295.01 721.83 295.3 721.06 294.97 720.57 294.33 719.81 293.95 719.21 293.76 718.74 293.47 718.45 292.8 717.37 292.52 716.67 292.41 716.19 292.43 714.79 292.59 714.07 293.12 712.97 293.29 712.39 293.78 710.99 294.06 710.04 294.64 707.71 293.8 707.16 292.91 706.21 292.19 705.88 291.58 705.43 291.01 704.83 290.72 704.41 290.21 703.22 289.97 702.32 289.93 701.5 290 700.99 290.35 699.93 290.48 699.75 290.39 699.28 290.41 698.35 290.59 697.57 291.19 696.3 291.43 696.05 291.65 695.09 292.36 692.54 292.53 691.63 292.78 690.85 292.98 689.82 293.22 686.85 293.42 685.49 293.52 685.24 293.41 684.33 293.38 683.23 292.03 682.72 291.39 682.37 290.61 681.84 290.22 682.07 289.61 682.21 289.01 682.24 288.21 682.18 287.89 682.08 286.97 682.13 286.18 681.99 284.83 681.56 284.22 681.18 283.43 680.5 283.17 680.16 282.51 680.12 281.22 679.55 280.48 679.08 279.86 678.61 279.34 678.06 279.04 677.53 278.1 676.93 276.74 675.84 275.78 674.88 275.31 674.26 275 673.74 274.83 673.25 274.28 672.93 273.78 672.39 273.38 671.71 273.05 671.02 272.51 669.57 272.43 668.39 272.58 667.51 272.87 666.56 273.05 665.68 273.2 665.18 274.06 663.52 274.95 661.35 275.12 660.79 275.35 659.68 274.98 658.49 274.78 657.16 274.82 656.4 274.98 656.04 274.59 655.48 273.27 655.32 272.56 655.13 271.23 654.46 270.25 653.74 269.84 653.87 269.02 653.9 268.29 653.79 267 653.33 266.24 652.91 265.41 652.1 264.86 651.23 264.43 650.77 264.12 650.33 263.76 650.11 263.05 649.53 262.34 648.49 261.73 648.09 260.87 647.1 260.34 646.22 260.04 645.94 259.56 645.75 259.24 645.34 258.62 644.73 257.8 643.78 257.14 642.55 256.46 641.01 255.74 639.53 254.98 638.79 253.91 637.4 252.48 637.1 251.58 636.42 251.29 636.33 250.44 635.82 249.42 635.69 248.6 635.24 247.39 635.06 245.55 634.24 244.51 633.49 243.26 631.83 242.8 630.55 242.77 630.03 242.64 629.69 242.2 629.29 241.2 628.23 240.23 625.8 240.25 625.28 240.37 624.81 240.21 624.23 240.2 623.81 239.72 623.17 239.25 622.2 239.09 621.63 239.11 620.35 238.63 620.17 236.41 618.21 235.12 616.44 234.71 615.94 234.28 615.19 233.8 614.95 232.32 614.08 230.82 612.81 229.42 610.84 228.94 609.74 228.43 608.81 227.67 607.2 226.67 604.66 226.16 603.19 225.53 602.65 224.02 601.72 222.75 601.18 221.62 600.78 220.74 599.84 219.48 597.97 218.72 595.83 218.21 594.08 217.46 591.67 214.81 588.05 213.54 585.92 213.34 585.53 212.54 584.89 211.93 584.01 211.54 583.77 210.76 582.98 210.03 582.38 209.57 582.23 208.31 581.5 207.59 580.83 206.87 580.57 205.68 580.33 204.95 580.06 203.9 579.48 203.26 578.95 201.59 577.77 200.88 576.95 200.56 576.43 200.1 575.41 199.97 574.96 199.62 574.64 199.19 574.09 198.38 573.48 197.7 573.06 196.45 571.89 195.99 571.25 195.51 570.43 195.29 569.83 195.08 568.53 195.11 567.72 195.21 567.02 194.9 566.07 194.73 564.83 194.52 563.66 194.52 561.67 194.63 561.21 194.23 560.33 194.14 559.41 193.87 558.58 193.81 557.74 192.81 556.26 192.57 555.69 192.3 554.52 192.29 554.02 192.39 553.25 191.95 552.86 191.66 552.4 191.32 551.58 190.94 550.04 190.66 549.18 190.57 548.52 190.6 547.9 190.77 546.97 191.01 546.45 190.11 545.38 189.46 544.24 189.05 543.05 188.93 542.32 188.95 541.27 189.06 540.76 189.71 539.51 190.53 538.48 190.78 538.04 191.01 537.36 191.38 536.73 192.26 535.86 189.95 526.03 187.08 513.99 186.46 510.59 186.05 510.52 184.41 510.01 182.29 509.13 180.09 507.96 179.09 507.46 177.86 506.73 176.21 505.63 172.99 503.29 172.23 502.56 171.87 501.92 171.54 501.02 171.29 500.14 171.04 499.53 169.97 498.83 168.98 497.69 168.15 496.64 167.41 496.73 166.42 496.73 165.51 496.55 164.6 496.29 163.85 495.94 163.36 495.59 162.61 494.6 162.04 493.51 161.87 492.87 161.71 491.59 161.75 491.31 161.17 490.92 160.8 490.55 160.3 489.86 159.87 488.88 159.32 488.62 158.48 487.95 158 487.43 157.54 486.63 157.24 485.83 156.99 485.52 156.57 484.74 156.27 483.76 156.23 483 156.08 482.39 155.94 481.41 155.42 480.5 155.1 479.23 155.03 477.76 155.21 475.71 155.65 473.48 156.44 468.91 156.35 468.07 154.77 464.34 153.53 462.06 153.21 461.01 153.03 459.64 153.04 459.18 151.68 458.74 150.93 458.29 150.18 457.59 149.21 456.43 148.55 455.52 148.19 454.55 148.02 453.51 147.67 449.04 147.14 447.48 147.01 445.78 147.14 444.5 147.67 442.66 148.6 439.96 147.54 428.17 147.27 426.32 147.01 425.33 145.15 422.8 144.08 422.18 143.59 421.57 142.77 421.32 141.81 420.79 140.9 420.22 140.26 419.55 139 419.9 138.02 419.96 137.16 419.83 136.51 419.63 136.02 419.4 135.28 418.9 134.34 418.66 133.24 417.86 132.7 417.37 132.28 416.86 131.67 415.68 131.52 415.13 129.59 414.42 128.72 413.83 128.38 413.52 127.68 412.68 127.43 412.25 127.12 411.44 126.78 410.07 126.47 409.87 125.74 408.93 125.07 408.42 124.81 408.04 124.58 408.02 123.79 407.28 122.79 406.96 122.54 407.63 121.93 408.68 121.49 409.16 120.5 409.96 120.04 410.18 118.86 410.51 117.07 410.6 115.79 410.51 114.47 410.48 113.52 410.41 112.09 410.08 111.39 409.83 110.71 409.36 110.02 408.79 109.54 408.18 109.14 407.49 108.79 406.37 108.65 404.75 108.69 403.92 109 402.89 109.5 402.09 110.34 401.18 113.43 392.52 114.11 390.14 113.48 389.26 113.16 388.67 112.91 387.85 112.84 386.97 112.57 386.53 112.33 385.89 112.25 385.4 111.72 384.67 111.43 383.75 111.25 383.6 107.47 379.13 106.7 378.55 106.04 377.59 105.74 376.88 104.88 375.7 104.36 374.22 104.39 372.64 104.59 371.68 104.9 370.84 104.46 370.36 104.25 369.9 103.65 369.27 102.93 367.97 102.55 366.65 102.02 366.09 101.38 365.76 100.73 365.22 100.13 364.51 99.52 363.15 98.96 362.47 98.28 361.38 97.68 361.15 97.03 360.54 96.6 360.53 95.71 360.32 94.5 359.84 93.42 359.11 92.92 358.85 91.61 357.76 90.79 356.78 90.29 355.8 89.76 355.67 89.74 355.42 88.39 355.24 87.43 354.66 86.07 352.75 85.61 352.01 85.26 351.11 84.87 350.35 84.03 349.47 82.46 347.5 82.07 346.62 81.55 346.01 80.69 345.18 80.09 344.34 79.76 343.56 79.36 342.96 78.98 342 78.45 341.64 77.59 340.72 77.09 339.82 76.81 339 76.41 338.61 75.89 337.82 74.93 337.16 74.25 336.58 72.89 335.92 71.61 335.04 70.69 334.19 70.01 333.16 69.62 331.96 68.45 331.13 67.83 331 66.98 330.53 66.48 330.18 65.82 329.57 64.94 328.52 64.37 327.6 64.07 327.48 62.62 326.34 61.86 325.03 60.79 324.29 59.92 323.28 59.34 321.68 58.37 320.36 57.35 319.38 56.11 318.34 54.76 316.77 53.7 313.43 53.08 312.14 52.82 310.08 53.11 308.51 53.79 307.24 54.7 306.24 55.38 305.74 55.96 305.45 56.42 305.37 56.57 304.74 56.54 303.69 56.59 303.19 56.51 302.16 56.02 301.24 55.69 299.96 55.25 299.31 54.95 298.44 54.65 297.09 54.17 296.16 53.99 295.63 53.46 294.73 53 293.6 52.87 292.23 52.47 291.65 51.49 289.64 50.58 288.02 50.44 287.62 50.49 287.34 50.03 286.38 50.05 285.92 49.95 284.81 49.79 284.17 49.72 283.24 49.35 282.34 48.97 281.71 48.69 280.91 48.55 280.14 48.39 279.72 48.17 278.34 47.71 277.36 47.29 275.39 47.33 274.48 46.92 273.92 46.4 272.67 46.24 271.18 46.31 270.74 46.17 270.04 46.12 268.94 46.19 268.42 46.61 267.43 46.48 266.3 46.46 265.47 46.76 264.5 46.86 263.87 46.7 262.98 46.73 262.05 46.84 261.15 47.59 258.83 47.84 258.2 47.79 257.92 47.79 257.04 47.99 256.22 48.35 255.63 48.68 255.33 49.17 255.04 49.52 254.97 49.99 253.97 50.73 252.13 50.91 251.54 50.52 250.81 50.43 250.42 49.77 248.63 49.53 247.22 49.46 246.1 49.49 245 49.61 243.28 49.54 241.82 49.39 241.45 49.19 240.01 49.17 238.98 48.81 238.76 47.39 237.54 46.61 236.44 46.39 235.96 46.2 235.3 46.08 234.6 45.85 232.51 45.62 231.44 45.56 230.72 45.67 229.59 45.79 229.16 45.8 228.38 45.42 227.59 45.06 226.46 44.29 225.93 44.02 225.62 42.89 224.92 42.08 224.15 41.44 223.23 40.76 221.95 40.21 221.04 39.81 220.03 39.64 219.16 39.48 218.71 38.07 217.76 37.42 217 36.91 215.63 36.35 214.8 35.93 213.98 35.43 213.25 34.48 212.26 34.22 211.78 33.26 210.68 32.1 209.11 31.51 209.03 30.73 208.83 29.79 208.45 29.28 208.09 28.7 207.45 28.44 206.96 27.89 206.33 27.28 205.21 27.05 204.49 26.96 203.88 26.97 202.2 27.05 201.04 26.88 200.7 26.08 199.68 25.14 199.23 22.37 198.11 21.36 197.61 20.34 196.91 19.1 195.15 18.29 194.08 17.94 193.74 17.18 192.85 15.97 192.45 14.27 190.84 12.43 189.47 11.31 188.35 9.74 186.84 8.92 185.87 7.88 185.17 7.08 184.34 6.47 183.61 5.68 182.41 5.26 181.13 5.07 179.4 5.17 177.19 5.63 175.84 5.91 174.61 5.89 174.16 5.36 172.86 5.17 172.13 5.18 170.23 5.05 169.49 4.05 168.55 3.88 168.33 2.43 165.78 1.74 164.64 1.26 163.7 1.11 163.06 1 161.86 1.22 160.61 1.47 159.89 1.88 159.26 2.25 158.85 3.01 157.43 3.27 156.51 3.24 155.83 3.32 154.23 3.65 152.8 4.64 150.88 5.23 149.51 5.79 147.99 6.4 145.97 7.06 144.33 7.6 143.14 9.16 139.84 9.72 138.58 10.34 137.44 11.72 134.6 12.4 133.57 12.92 132.68 13.49 131.55 14.15 130.43 15.08 128.54 15.26 127.26 15.6 126.54 16.07 125.74 16.56 125.33 17.67 123.28 18.35 121.95 19.17 120.54 19.42 119.94 20.23 118.27 20.39 117.7 21.11 115.91 21.59 114.48 22.92 109.98 23.17 108.84 23.53 107.58 24.08 104.79 23.45 104.46 22.87 104.05 22.36 103.53 22.01 102.99 21.74 102.35 21.58 101.72 20.89 100.71 20.57 99.92 20.43 99.35 20.34 98.23 19.95 97.6 19.69 96.46 19.08 95.5 18.89 94.62 18.84 93.65 18.95 92.64 18.74 91.77 18.7 91.22 18.95 89.88 19.33 88.73 19.64 88.2 20.31 87.44 21.24 86.75 21.86 86.42 22.5 86.16 23.09 86.04 23.46 84.32 23.91 82.68 24.56 80.66 24.66 80.1 24.66 79.01 24.95 77.69 25.32 76.71 25.49 76.04 25.77 75.31 25.56 74.91 24.92 75.07 24.26 75.12 23.44 75.06 22.56 74.75 21.96 74.44 21.2 73.9 20.4 73.06 19.95 72.37 19.69 71.71 19.49 70.86 19.47 69.77 19.67 68.61 20.03 67.66 20.34 67.14 20.86 66.53 21.81 65.75 22.52 65.39 23.62 65.04 24.55 64.93 25.72 65.07 26.72 65.38 27.37 65.81 27.61 63.65 27.73 61.97 27.89 60.62 27.65 59.64 27.61 59.13 27.63 57.31 Z" data-name="California" data-geoid="06"/>
</g>
</svg>