<?xml version="1.0" encoding="utf-8"?><svg xmlns="http://www.w3.org/2000/svg" version="1.1" baseProfile="tiny" width="1200" height="800" viewBox="0 0 1200 800"><g><g stroke="#000000" stroke-width=".98" fill="#FFFFFF"><path d="m578.3 736.97l.12.51.12.28-.03.17-.02.26.01.09-.01.11.03.2.23.63.13.19.05.17.1.16.11.13.07.07.06.08.03.15.09.2.22.41.22.36.41.46.34.29.41.33.32.18.13.1.41.42.18.13.27.16.32.15.47.17.48.07.12.02.11.06.1.02.21.12.37.18.59.21.22.05.15.04.26.14.39.15.32.1.12.03.15 0 .47 0 .63.03.13.03.65.22.05.02.15.01.08-.01.2-.06.26-.02 1.55-.05.74-.14 2.59-1.09.56-.43.31-.25.16-.1.2-.12.14-.22.13-.21.23-.39.2-.47.2-.5.11-.52.04-.55 0-.51-.05-.57-.08-.25-.17-.38-.17-.27-.12-.19-.46-.59 0-.12-.25-.22-.36-.27-.38-.27-.59-.45-.36-.27-.53-.48-.61-.53-.22-.2-.02-.01-.13-.09-.04-.02-.08-.06-.88-.37-1.85-.88-1.28-.66-.3-.16-.38-.15-.51-.15-.7-.21-.41-.1-.28-.02-.3-.01-.27.04-.35.05-.39.11-.34.13-.34.14-.35.14-.28-.04-.38-.01-.22.01-.29.02-.36.07-.29.09-.45.2-.37.23-.29.17-.35.27-.26.23-.21.21-.28.34-.21.45-.31.79-.07.27-.08.41-.02.61.11.6z" /><path d="m641.79 756.98l.25.49.06.46 1.68 0 .03.18.03.23.03.16.1.46.09.35.09.35.1.22.04.23.04.26.06.28.11.27.16.4.12.27.14.26.11.25.25.45.23.36.26.32.26.28.13.13.04.12.1.41.08.21-.02.21.02.25.01.31.06.15.04.14.02.1.17.45.26.58.32.43.07.09.11.19.1.21.23.3.21.27.27.28.14.18.24.5.27.38.22.25.1.15.2.47.16.48.11.33.15.35.17.27.25.37.28.32.29.3.2.17.22.14.13.07.33.25.29.22.31.19.37.13.17.08.19.18.26.2.08.08.36.43.36.33.25.17.04.05.18.3.25.32.26.3.37.34.24.19.38.19.34.2.42.16.43.17.14.05.15.02 1.11 0 .24-.04.24-.04.28-.06.28-.11.3-.15.24-.16.22-.1.24-.21.24-.19.16-.18.11-.18.15-.11.04-.05.16.06.14.04.19.05.44.09.35.08.37.02.68-.1.74-.27.54-.23.35-.26.38-.32.66-.63.29-.43.17-.31.2-.44.19-.53.07-.44.01-.37-.08-.67-.16-.55-.32-.69-.51-.66-.36-.47-.46-.34-.2-.19-.36-.43-.26-.26.05 0-.2-.14-.36-.24-.41-.36-.44-.42-.4-.38-.41-.44-.49-.39-.4-.29-.11-.07-.26-.17-.32-.26-.29-.22-.41-.37-.6-.73-.23-.21-.12-.15-.17-.17-.32-.28-.3-.34-.29-.25-.45-.28-.51-.38-.25-.18-.19-.12-.1-.15-.28-.34-.18-.23-.19-.34-.37-.57-.36-.53-.24-.31-.19-.21-.16-.22-.08-.12.09 0-.32-.36-.04-.11-.11-.17-.16-.19-.11-.58-.29-.66-.35-.34-.26-.32-.19-.25-.11-.29-.37-.66-.58-.8-.7-.62-.52-.47-.7-.38-.58-.19-.23-.09-.89-.32-.74-.07-.84.09-.4-.03-.75-.03-.41.09-.45.09-.57.2-.87.55-.62.64-.46.7-.32.68-.17.76-.03 1.06.18.86.07.26z" /><path d="m613.19 718.39l-.05.38.03-.02-.03.34-.03.42-.05.46-.03.46.04.42-.04.53.05.47 0 .41.18.49.16.36.2.41.44.67.5.43.53.37.44.23.51.1.73.12.89-.09.83-.06.6-.17.56-.13.57-.36 0 .22.33-.12.48-.27.54-.41.14-.2.38-.96.19-.77.2-.4.2-.7.07-.52-.01-.94-.14-.8-.07-.37-.15-.44-.18-.41-.12-.25-.25-.31-.17-.23-.2-.29-.27-.25-.25-.23-.18-.12-.11-.07-.23-.12-.2-.13 0 0-.47-.13-.27-.06-.35-.07-.43-.07-.45-.01-.37.04-.34.08-.37.11-.09 0-.16.01-.21.03-.17.06-.25-.03-.38-.03-.27.03-.42.1-.48.18-.44.2-.55.31-.36.28-.3.29-.19.3-.23.44-.14.34-.12.45.78 0z" /><path d="m642.66 721.85l.44.87.8.87.4.45.41.44.32.64 0 .06.48.64.75.63 1.07.59 1.18.58.64.2.41.02.26.04.37.27-.05.14-.07 0-.1.45.01.62.09.86.15.81.32.75.11.47.4.78 1.11 1.47.51.55.44.35.19.09.94.57 1 .32 1.09.31.96.12.19.03.67.09 1.02-.03.63-.13.56.16.33.06.23-.02.28.25.36.17.84.4.88.27.41.13.15 0 .45.11.44.04.62-.03.32-.05.34-.07-.06 0 .45-.08.68-.24.78-.4.76-.52.67-.54.54-.71 0 .08.12-.29.21-.55.22-.95.1-.79-.01-.79-.25-1.21-.39-1.06-.03-.13-.16-.31-.26-.54-.33-.5-.36-.37-.21-.13-.39-.32-.16-.19-.41-.53-.58-.61-.63-.48-.16-.28-.04-.2-.09-.53-.01-.03-.15-.67-.36-.71-.55-.62-.53-.48-.62-.47-.58-.31-.11-.12-.45-.44-.65-.32-.45-.17-.13-.04-.54-.15-.22-.08-.38-.18-.53-.2-.57-.12-.6-.08-.13-.16-.28-.26-.35-.15-.3-.04-.7-.83-.31-.27-.31-.28-.4-.28-.4-.2-.55-.2-.35-.05-.35 0-.36.03-.23-.21-.27-.26-.12-.08-.27-.18-.37-.16-.35-.14-.37-.12-.41-.08-.28-.02-.35.02-.51.03-.28.05-.27.08-.18.07-.36-.08-.27-.01-.29 0-.24.02-.26.06-.44-.19-.26-.09-.26-.02-.4-.01-.35.01-.47.03-.45.09-.46.14-.44.2-.39.19-.37.22-.25.24-.28.33-.25.26-.16.23-.11.17-.15.32-.1.14-.2.51-.1.6.04.67.11.81.28.87z" /><path d="m589.32 673.57l-.61-.69-.76-.59-.58-.29-.23-.24-.73-.61-.52-.3-.31-.12-.29-.2-.62-.34-.65-.19-.61-.06-.54-.02-.57.06-.51.19-.1-.01-.47.01-.62.14-.95.36-.78.54-.04.08-.1.13-.09.03-.38.24-.27.22-.39.31-.39.38-.25.32-.29-.22-.72-.55-.58-.45-.47-.3-.46-.36-.54-.28-.55-.19-.57-.08-.52-.03-.17-.1-.54-.32-.56-.29-.38-.13 0 .07-.66-.07-.54.05-.59.16-.33.07-.41.12-.23.1-.36-.19-.89-.38-1.17-.42-.58-.12-.49-.03-.44-.03-.46-.15-.65-.17-.47-.1 0 .05-.26-.04-.56-.02-.39.05-.28-.11-.47-.18-.52-.06-.43.01-.59.01-.48.1-.43.16-.35.13-.71.59-.45.4-.25.36-.21.38-.12.31-.01.22-.5.58-.23.73-.3.79-.11.44-.62-.95 0-.15-.23-.14-.38-.29-.62-.29-.46-.11-.64-.08-.59-.04-.51.02-.7.05-.5.1-.62.16-.37.18-.43.29-.41.31-.28.17-.22-.08-.18-.05-.22-.03-.18-.12-.34-.07-.39.01-.26 0-.34 0-.32.02-.35.06-.33.14-.58.03-.81.19-.53.3-.41.26-.38.39-.2.21-.23.05-.15-.06-.41-.11-.28-.05-.41-.03-.55 0-.41.01-.41.07-.36.03-.55.08-.12.07-.01-.01-.19-.14-.13-.19-.3-.23-.27-.32-.34-.4-.06-.32-.12-.29-.29-.48-.4-.56-.43-.39-.43-.35-.48-.24-.45-.19-.62-.08-.21-.27-.23-.18-.36-.25-.35-.2-.04-.13-.05-.13-.19-.52-.25-.42-.26-.38-.31-.28-.45-.3-.45-.18-.48-.11-.74-.2-.09-.01-.22-.14-.61-.16-.66-.11-.51-.03-.52.1-.4.14-.55.24-.53.31-.53.39-.55.52-.42.41-.37-.33-.27-.31-.37-.24-.33-.16-.36-.22-.24-.05-.41-.07-.58-.11-.72.06-.74.13-.7.32-.82.46-.45.4-.31.43-.17.3-.04.12-.22.51-.21.88.02.72.02.57.22.58.3.65.45.59.5.5.62.41.96.34.29.1.51.05-.2.77.04.68.18.81.29.7.48.66.35.46.21.21.13.08 0 .07.22.34.63.55.49.32.42.15.51.18.72-.01.64-.09.41.15.52.07.63-.02.25-.07.47-.1.4.31.66.46.72.22.58.14.59.15.56-.03.78-.17.97-.39.34.13.64.03.61 0 .61-.16 0 0 .47.49.41.38.37.28.04.42.11.43.31 1.1.57.85.53.57.36.26.23.14.58.21.16.31.44.62.57.65.4.27.49.15.35.24.19.08.4.51.34.17.35.01.4.38.44.33.31.14.56.17.5.44.64.25.57.13.35.07.58.06.87-.07.9-.31.68-.33.63-.48.81-.25.69-.32.36-.05.53-.02.44-.16.56-.32.26-.36 0 0 0-.01.45-.29.51-.51 1.33-.56.56.07.64-.08.82-.16.74-.34.68-.54.66-.71.52-.76.28-.68.07-.33.06-.24 0-.01.57.31.36.4.44.38.39.27.15.1.42.38.5.46.45.27.52.26.86.27.74.11.86-.15.87-.4.51-.3.37.01.36-.05.36-.15.34.08.6.05.51-.05.36 0 .27-.09.66.18.83.06.75-.06.95-.27.37-.15.34-.23.12-.08.32-.09.44-.2.34-.26.19-.16.5-.14.41-.21.45-.28.25-.16.44.1.28.08.49.01.32-.04.22-.06.54.03.41-.1.35-.12.6-.01.61-.12.6-.3.85 0 .76-.22.41-.17.63-.41.73-.58.43-.41.31-.33.27-.38.16-.3.15-.25.46.44.84.56.49.26.71.33.9.34.52.25.67.14.39.03.37-.13.56.13.45-.01.18-.07.26.12.32-.01.28-.02.21-.06.08-.04.41-.12.46-.19.41-.22.32-.24.68-.07.58-.19.95-.57.45-.41.5-.52.35-.55.15-.27.02-.03-.02-.22.16-.89.06-.72-.08-.59-.22-.72-.49-.87-.46-.55-.6-.5-.65-.35-.76-.32-.92-.14-.76.03-.54.14-.91.21-.48.18-.82-.24-.95-.07-.9-.01-.92.11-.58.13-.52.15-.01-.02z" /><path d="m344.44 371.87l.22.5.26.54.4.47.5.47.51.51.59.57.43.22.42.11.27.11.71.12.35-.08.32-.04.13.03.07.16.2.5.18.43.27.32.31.38.15.19.13.62.29.8.33.48.66.72.86.7.89.43 1.03.31.69-.03 0 .17.02-.01.55-.09.38-.07.42-.17.49-.23.67-.45.53-.53.39-.42.27-.53.24-.57.11-.49.04-.35.11-.36.11-.56-.01-.41-.12-.56-.02-.06-.11-.45-.17-.48-.22-.36-.29-.57-.31-.39-.25-.24-.18-.19-.2-.19-.21-.17-.21-.13-.18-.07-.06-.11-.09-.22-.14-.2-.25-.33-.4-.41-.51-.44-.16-.14-.24-.11-.33-.12-.29-.12-.42-.09-.59-.09-.37 0-.16-.11-.08-.17-.24-.71-.67-.91-1.43-1.18-.74-.36-.9-.31-.86-.05-.67-.05-.51.12-.41.17-.48.24-.51.4-.4.38-.04.03-.47.43-.33.42-.21.38-.3 1.36-.01.03 0 .33.06.69.19.64z" /><path d="m280.51 53.32l0 .01-.02.68-.01.86.04.3 0 .14.05.27.04.18.04.18.04.14.04.07-.04.2-.03.22-.04.37-.03.37-.03.43-.03.45-.05.56-.11.92-.06.53-.03.41-.16-.13-.11-.08-.13-.07-.16-.09-.16-.06-.22-.09-.23-.06-.25-.06-.29-.05-.33-.04-.38-.03-.31.02-.27.05-.22.03-.29.08-.31.1-.34.12-.24.1-.21.12-.15.09-.26.18-.22.18-.34.3-.08.1-.08.1-.1.1-.06.08-.07.08-.06.07-.05.1-.06.09-.05.07-.05.08-.06.1-.04.1-.09.18-.07.17-.05.17-.06.2-.03.15-.02.17-.03.12-.03.14-.01.1-.01.1-.01.1-.03.11.01.12-.01.12-.01.13 0 .1 0 .14.02.22.01.11.04.17.02.13.03.12.04.17.04.14.05.15.04.11.05.1.04.11.05.09.06.11.05.09.07.11.06.08.07.11.07.1.06.06.1.11.12.15.07.08.09.1.12.11.13.11.09.06.09.07.08.05.06.06.09.06.1.07.06.03.08.06.09.05.07.03.12.07.06.05.1.03.07.04.1.03.09.04.11.04.1.03.07.03.08.03.12.04.09.02.13.01.15.03.15 0 .11.01.17.01.15-.01.12-.01.13-.02.16-.01.14-.03.12-.02.11-.03.11-.02.07-.03.03.05.03.07.04.09.03.06.05.07-.11.28-.14.35-.05.19-.05.18-.04.2-.11.26-.07.17-.06.2-.07.21-.13.45-.05.18-.02.17-.03.13-.03.21-.02.29 0 .03 0 .04 0 .06 0 .1 0 .08.01.17.02.16-.04.14-.03.14-.02.13 0 .07-.06.15-.05.17-.07.24-.16.47-.22.7-.08.28-.11.41-.19.72-.19.85-.1.48-.03.15-.16.02-.15.03-.2.05-.23.09-.11.04-.08.04-.13.05-.13.08-.16.08-.12.06-.11.06-.08.06-.09.06-.09.06-.08.07-.11.08-.12.08-.07.05-.07.08-.09.06-.12.12-.09.09-.11.13-.09.1-.09.1-.08.11-.08.11-.07.13-.06.11-.06.11-.11.26-.08.22-.06.2-.07.3-.03.19-.04.2-.03.17-.02.17-.02.11-.05.13-.03.18.01.13.01.1 0 .11.02.06 0 .07.01.04.03.07 0 .12.02.06.01.05.01.03.02.08.04.14.04.16-.03.1-.01.12-.02.13-.02.15-.01.15-.01.13 0 .08.01.16-.01.15.01.16.01.15.02.21.03.16.04.18.07.25.03.17.09.19.11.18.1.14.08.14.1.12.04.05.02.13.02.16.03.16.04.17.05.17.07.19.09.19.11.15.06.11.07.1.02.19 0 .17.02.24.02.15 0 .02.02.18.05.24.06.25.08.21.1.23.1.24.12.2.12.19.15.23.14.17.06.08.03.09.01.11.04.1.01.05.01.05.02.09 0 0 .02.05.04.12.05.11.08.18.06.14.1.16.09.14.11.16.12.14.1.1.11.1.11.11.13.09.15.11.22.15.18.09.15.09.13.05.08.05-.02.13-.22 1.1-.23 1.16-.26.91-.01.01-.05.17-.09.43-.11.54-.38 1.29-.05.16-.05.17-.38 1.28-.29.97-.41 1.22-.29.77-.32.76-.01.01-.14.48-.24.52-.09.18-.36.74-.21.52-.32.52-.39.68-.58 1.15-.43.81-.52.95-.08.07-.35.28-.4.68-.29.63-.08.47-.05.39-.02.23-.8 1.62-.56.96-.5.97-.44.77-.58.88-.62 1.27-.04.07-.53 1.09-.41.76-.1.19-.02.04-.48 1.08-.53 1.08-.58 1.27-.23.48-.46 1.02-.57 1.4-.52 1.74-.49 1.31-.5 1.16-.58 1.14-.27.51-.28 1.23-.07 1.37.02.16 0 .43-.06.23-.07.24-.09.32-.2.42-.28.53-.17.27-.29.32-.03.03-.35.54-.22.62-.18 1.07.04.39.05.64.13.55.41.81.59.97.51.89.38.7.35.6.11.13.04.06.25.21.4.36.21.24.09.27.03.36-.01.53-.01.62 0 .48.06.27.11.36.16.36.18.42.11.33.02.39-.08.48-.16.58-.18.44-.12.37-.09.34-.01.41-.05.73-.03.76.06.76.1.72.36 1.1.68 1.03.52.63.69.71.49.32.4.28.21.2.49.63.58.56.77.74.97.96.78.6.79.57.51.47.52.51.43.4.32.13.37.13.35.09.65.76.13.11.17.18.16.22.08.11.14.19.06.08.26.32.48.69.58.82.87.6.88.43.02.01.07.03 1.13.47 1.15.45.81.39.19.2.49.67.15.3.01.05-.03.36-.05.58-.01.54-.01.49.01.42.08.51.2.63.26.54.15.19.17.22-.06 0 .47.55.22.42.5.54.44.31.8.33.67.17.51.07.29.36.4.56.3.43.44.47.39.47.23.41.41.4.4.45.43.63.36.7.28.43.2.28.26.7.17.48.28.39.28.26.62.44.01 0 .18.11.14.06.11.11.15.09.07.17.07.22.09.35.06.4.17.48.16.38.23.38.13.26.12.15.2.36.23.45.15.28.26.41.29.38.35.33.35.33.44.31.53.3.23.26.35.23.31.22.13.43.18.55.23.55.09.12-.01.67-.1.37-.04.46-.05.51.05.62.11.53.09.38.01.22.01.17.05.29.05.55.08.57.1.6.16.57.19.41.33.46.34.48.26.24.01.02.15.13.18.14.25.19.19.17.18.16.16.08.15.11-.01.2.02.33.01.35.02.25.04.38.04.32.07.29.13.31.03.31 0 .43.02.52-.01.35-.01.24-.05.38-.03.5-.01.48-.01.47.02.51.04.45.12.68.08.53.2.56.19.49.18.49.08.33.08.13.12.2.13.29-.16.51-.35.86-.28.72-.04.08-.36.78-.3.06-.43.25-.28.25-.22.31-.09.2-.05.21-.03.15-.04.15-.05.19-.01.15-.01.18.02.43.05.24-.12.22 0 .08-.1.24-.03.24-.09.2-.01.02-.1.27-.09.29-.16.52-.16.45-.04.42-.06.36-.01.52-.02.27.08.39.03.19.04.18-.05.28-.05.27-.07.19-.03.09-.08.24-.07.3-.01.24.01.23.02.24.03.27.06.28.02.24 0 .19-.07.06-.09.21-.12.32-.08.26-.04.23-.01.13-.01.09.01.43.02.23.02.27.07.32.04.29-.06.38.02.35.12.93.2.44.24.62.36.49 0 .02-.04.76.1.51.06.24.2.84 0 .1.08.16.32.68.07.4 0 .25.06.27.05.26.14.36.05.39.08.28.17.41.07.27.19.28.09.18.04.08.04.18.08.17.08.21.12.21-.01.23.03.28.04.29.05.29.08.26 0 .32.02.32.03.2.04.11 0 .21-.01.19.03.13.1.25.1.18.08.17.08.09-.05.25.13.34.13.24.19.34.2.38.16.27.09.16.09.18.16.33.15.28.34.7.11.23.19.26.15.23.04.28.03.36.02.33.03.21.07.2.05 0 .06.28.11.26.09.23.19.35.16.27.11.15.06.23.07.16.03.07.06.1.1.22.09.14.13.27.03.06.07.33.03.23.08.33.07.28.09.25.1.24.07.25.13.23.11.17.14.16.09.36.06.24.08.27.05.23.13.26.12.28.18.24-.01.23.02.36.02.2.03.1-.03.17-.01.26.03.27-.02.27-.01.28.03.08-.06.18-.04.19-.03.17-.4.07-.49.24-.22.18 0 0 0 0-.37.26 0 0-.64.71-.14.14-.58 1.1-.25 1.34.22 1.77.53 1.1.43 1.31.48 1.56 1.16 1.35.34.25.72.64.88.84.83 1.14.5 1.37.74.87.92.63.05.07.61 1.05 1.24.98.26.11.49.79.75.89.57.53.01 0 .08.06.26.18.08.06.72.4.07 0 .47.12.46.32.54.38.33 1.03.35.52.24.37.79.73 1.1.75 1.16.57.59.5.82.56.36.55.09.13.18.2.16.13.24.71.43.78.09.08.65.7.45.31.01.02.32.8.2.33.15.19.27.67.52.72.74.71.44.53.02.04.32.7.52.68.22.28.39.48.22.26.72.75.33.66.3.77.02.03.38.6.16.23.35.51.15.2.5.7.82.5.59.08.58.08.01.21.02 0 .07 0 .02 0 .11.05.19.05.05.01.43.84.7.84 1.13.94.43.22.12.04.07.09.73.5 1.04.41.16.05.1.02.48.11.02 0 .37.01.11.17.45.35.51.2.1.17.49.77.47.57.01.01.09.25.05.11.38.8.19.23.24.29.08.1.23.18.33.27.55.29.07.12.04.04.13.14.17.14.05.04.04.09.02.08.12.5.07.23.07.23.2.4.08.15.34.57.1.12.18.22.24.2 0 .1.18.3.27.31.1.09-.05.14-.21.59-.18.82-.02 1.21 0 .15.45 1.27.56.75 0 0 .15.13.02.12.26.61.57.83.5.42.16.08.82.96 2.42 2.87.16.13.04.24.21.55.36.55.09.07.07.43.21.54.12.26.11.13-.02.28.07.47.22.7.27.51.22.33.33.43-.59 2.03-2.65 7.43-.23.21-.49.57-.43.69-.12.31-.14.58-.04.71.03.27.01.11.03.62.01.09.04.26 0 .04.13.39.17.57.34.59.41.53.59.48.45.31.15.1.59.21.71.18.52.11.81.06.6 0 .53.02.56.05.55.03.55-.01.56-.03.42-.04.49-.13.52-.15.4-.19.38-.33.47-.35.38-.42.05-.08.22-.33.25-.49.21-.58.32.14.31.09.23.05.45.44.23.19.19.02.06.13.17.2.27.25.23.13.08.06.09.16.2.25.15.2.01.01.17.18.27.17.07.32.1.36.12.5.12.35.14.34.22.37.37.46.23.26.29.27.43.32.31.18.44.17.08.03.4.14.47.17.27.11.06.23.08.24.04.1.06.14.04.07.17.34.16.27.05.09.07.1.29.34.46.42.43.33.15.12.36.23.09.03.64.16.08.02.63.43.42.2.56.17.74.11.51-.03.33-.03.93-.24.15-.05.03.02.49.52.03.03.78.49.82.45.1.03.61.19.01.01.18.28.23.23 0 0 0 0 .91.54.8 1.06.8 1.1.23.86.09.66.09.6.05.32.09 1.02.1 1.18.21 2.28.01.11.03.36.01.11.05.58.16 1.72.05.58.01.15.05.45.01.15.02.19.05.58.01.19.03.25.02.22-.18.5-.08.24-.04.12-.04.12-.09.23-.04.12-.06.18-.18.55-.06.18-.03.07-.04.14-.19.66-.06.22-.06.19-.11.38-.02.21-.02.2-.02.23-.05.45.02.25.02.23.07.98.18.52.28.82.11 1.46.19 2.28 0 .09.06.12.05.41.04.37.12.39.04.09.1.23.05.12.28.41.06.08.14.18.09.11.43.49.22.29.17.22.64.59.65.39.86.3.31.08 0 .13-.01.26.04.45.07.36.02.2.02.17.03.13.09.34.16.43.03.06.13.25.29.53.61 1.12.22.52.25.58 0 .01.01.01.39.92.18.44.31.72.07.72-.2 1.15-.18 1.05-.04.24 0 .01-.01.02 0 0-.04.23-.11.68-.04.23-.06.31-.37 1.91-.09 1.02-.06.74.02.65.04.61.09.47.18.62.23.46.22.33.04.4.07.43.07.23.07.3-.01.19.04.46.14.51.12.33.2.38.16.29.21.26.14.41.12.29.39.68.03.03.38.41.72.58.48.22.1.26.13.23.14.35.15.26.27.34.28.27.05.04.49.34-.03.24.03.35.1.75.15.54.25.52.2.35.04.07.27.36.37.49.42.3.34.16.3.14.78.22.78.15.65 0 .2 0 .64-.07.7.89.01.01.85.98.92.6.22.53.11.38.1.37.28.77.01.01.16.28.14.26.44.43.22.2.18.13.54.4.18.13.39.28.63.45.84.62 1.41.94.84.5.22.12.86.44.69.37 1.19.63.92.38.71.29.19.08.2.06 1.17.36.04.02.35.06 0 0 .27 1.46.01.06.26 1.4.54 2.28.19.8.35 1.49.4 1.65.97 4.1 0 .01 1.99 8.43-.15.11-.15.16-.16.17-.19.2-.11.11-.1.16-.12.2-.1.18-.12.35-.07.23.02.18-.13.1-.11.1-.1.15-.17.21-.14.15-.11.17-.18.2-.17.33-.11.24-.15.22-.13.29-.03.19-.06.24 0 .22-.02.21 0 .22 0 .25.02.18.04.2.04.26.11.37.1.29.15.36.14.24.12.22.15.23.15.28.13.16.01.02.01 0 .01.01.09.09.11.15.14.17.13.14.1.07.03.11-.1.17-.1.28-.04.28-.06.26-.05.26 0 .24-.02.28.02.32.05.25.08.3.06.17.11.27.16.7.16.62.29.71.05.08.2.31.28.19.02.03.08.12-.01.1-.01.04-.03.14-.02.16-.02.22 0 .22.02.2.03.18.04.24.05.2.05.2.06.19.07.19.06.14.07.16.07.13.12.17.08.14.1.15.07.1.11.13.07.08.09.1.04.05.05.06.04.05.02.11 0 .09 0 .13.01.11.02.14.02.08 0 .16.06.17.03.17.06.15.04.13.04.09-.04.08.01.1.02.16.03.2.04.17.02.09.08.22.08.16.07.19.06.1.06.09-.04.07-.03.18-.03.14-.01.14.01.13.01.03-.04.17.02.07.01.12.01.06-.02.15-.01.16 0 .18 0 .15 0 .16.02.18.03.2.03.16.03.19.04.16.02.11.02.08.02.05-.01.06 0 .1 0 .13.02.17.03.11.01.12.04.15.01.12.01.04.02.12.05.14.05.17.04.13.04.16.05.12.04.1-.04.21-.01.18-.04.2-.01.24 0 .24-.01.22.02.23.05.23.02.21.06.24.03.21.09.27.1.24.09.16.08.15.14.22.1.18.12.17.16.21.11.17.18.18.17.15.16.15.12.11.13.14.15.14.07.06.09.07.07.03.15.08.18.14.19.11.09.01.1.09.09.12.08.08.09.08.1.05.15.1.08.12.15.16.13.19.14.12.16.15.05.15.07.24.09.21.09.2.08.18.13.28.13.21.15.24.13.17.16.2.17.17.14.16.13.1.14.09.46.31.08.06.19.13.44.32.22.12.06.1.27.24.25.17.32.17.33.16.32.14.31.09.29.07.35.08.23.03.15.02.18.08.17.06.26.08.1.11.26.26.26.21.33.23.4.2.35.2.21.09.18.04.32.25.13.14.18.12.12.18.24.2.23.22.08.08.15.08.1.04.08.08.31.47.22.29.27.22.18.19.14.1.09.04.05.12.07.13.06.08 1.08 1.83 1.19 1.61 1.09 1.5.65 2.07.43 1.49.65 1.84 1.08 1.61.76.8.97.35 1.09.46 1.29.8.55.46.43 1.26.86 2.18.65 1.38.44.8.41.95 1.2 1.68 1.29 1.1 1.27.74.41.21.37.64.35.43.47.64.64.88.97.85.93.83.42.15-.02 1.1.13.5.41.83.41.54.01.37.07.31.07.18-.11.4-.01.45.19.45.32.82.32.82.86.91.37.34 0 .16.11.13.03.45.4 1.1 1.07 1.42.89.64.93.42.65.29 1.04.15.7.39.58.09.29.02.73.44.25.08.77.58 1.18.25.05.01.91 1.17.01.02.07.06.59.57.62 1.27.58 1.32.56 1.06.1.12.6.69.53.52.28.36.15.1.26.06.26.25.46.75.73.85.4.26.12.08.24.4.38.49.6.5.21.15.11.04.26.38.27.27.1.12.05.1.11.19.03.06.28.39.3.29.41.41.31.18.35.18.14.06.42.16.06.02.48.16.31.06.32.03.3-.01.23-.01.17-.01.16-.05.19-.05.3.24.07.04.48.33.58.33.55.25.62.16.66.1.47.04.15.24.18.24-.13.3-.05.28 0 .13 0 .12.01.13.06.48.03.16.08.5.01.02.14.48.02.04.15.48-.1.4-.1.55-.08.26-.06.22-.25.61-.26.61-.26.65-.04.07-.26.53-.23.39-.2.43-.14.43 0 0-.12.52-.03.24-.1.31-.15.5-.04.22-.02.16-.07.38 0 .31.01.19.06.51.24.67.23.57.28.59.34.59.43.46.3.2.17.08.15.42.26.44.41.53.38.4.45.43.56.47.6.46.48.33.3.15.03.03.25.46.45.47.53.41.64.4.52.26.58.22.35.05.22-.01.22.29.16.15.11.08.41.36.53.32.61.22.54.15.68.12 0 0 .5.01.29-.05.27.09.28.04.1 0 .31.01.51-.03.52-.12.34-.2.21.17.22.14.08.04.16.11.5.27.05.03.36.15.17.07.25.08.34.12.04.02-.01.18.02.49.01.27.1.78-.09.21-.08.47-.09.71-.1 1.15-.02.24-.05.69-.03.46-.06.31-.12.57-.21.67-.15.78-.34 1.23-.27.96-.02.11-.1.39-.04.26-.02.07-.21.21-.15.3-.13.25-.14.29-.09.25-.07.22-.04.18-.05.27-.02.26-.01.25 0 .02.01.26.01.01.03.23.04.17-.11.16-.09.26-.11.31-.1.33-.06.44 0 .26 0 .06 0 .01.02.15.01.22.03.15.03.13.06.21.09.29.1.28.12.27.11.23.07.14.03.1.11.15.15.21.12.15.16.17.2.19.23.17.3.22.29.14.23.1.1.04.32.36.18.18.26.28.2.14.23.17.19.11.1.05-.4 1.6-.1.4-.11.39-.13.43-.12.34-.15.4-.15.45-.11.38-.03.12-.12.23-.06.1-.07.13-.1.21-.11.28-.08.35-.05.27-.03.24-.01.22.01.17 0 .04.01.2.01.19-.01.13.04.23.05.19.08.2.08.23.08.17.26.46.2.31.11.16.07.07.11.1.07.08.05.13.06.14.06.13.1.17.1.15.12.19.25.31.16.18.15.17.12.11.08.06.08.25-.05.09-.2.57-.23.77-.04.15-.36 1.04-.3.87-.08.17-.1.25-.06.13-.03.09-.27.28-.22.25-.2.25-.15.23-.14.19-.08.19-.08.22-.1.28-.07.24-.06.18-.04.25-.03.26-.02.3.04.26.04.23.02.21-.13.33-.12.4-.08.33-.03.26-.04.28-.01.21.01.23.03.3.03.15.06.22.06.22.09.26.07.23.1.24.17.27.16.22.18.21.13.13.12.07.05.15.13.22.11.2.12.18.14.17.14.17.16.14.26.21.17.12.13.06.09.04.07.09.2.19.16.14.16.14.17.13.18.13.14.1.22.11.14.06.16.07.18.06.2.08.32.05.33.04.31-.01.12 0 0 .01.28-.03.05 0 .1.02.21.04.46.03.36-.01.23-.04.21-.06.2-.06.41.33.44.27.4.21.26.11.17.03.15.16.18.07.18.05.12.02.07.47.15.48.2.45.27.47.29.4.2.25.22.22.17.13-.02.48.03.58.17.51.18.34.23.39.2.36.29.28.34.32.4.3.27.22.2.2.39.16.47.23.61.12.24.01.43.21.43.12.41.08.33.02.49-.06.49-.1.34-.11.33-.17.52-.06.03-.01.61-.08.7-.19.49-.19.24-.19.4-.02.24-.03.08-.03.44-.09.13-.05.46.05.33.05.44-.01.13-.09.33-.04.12-.04.47.02.56-.04.5-.15.31-.1.39-.03.61-.14.44-.13.22-.08.46.1.44-.05.28-.02.3-.04.34 0 .37.01.2-.03.1 0 .08-.01.16.04.2.01.15 0 .26-.04.33-.02.25-.05.16-.01.1-.02.24-.09.29-.08.39-.03.3-.03.18-.01.31.11.42.06.5.01.25-.05.26-.03.42.05.43-.01.35-.05.25-.03.25-.04.23-.08.3.05.22.04.15 0 .14-.02.26.12.26.15.08.03.33.13.37.13.47.17.61.18.56.11.5 0 .23-.06.21-.08.4.1.47.02.43-.03.36-.06.21-.08.22-.06.21.08.36.12.33.05.26.03.19-.03.14.08.22.13.29.21.34.2.27.1.29.07 2.92 1.18.3.13 1.61.65.3.13.2.05.25.01.06.07.19.19.49.4.46.32.46.24.5.1.53.04.23-.02.32-.06.11-.04.38.12.21.07.12.04.1.01.53.03.41-.03.1-.01.51-.1.47-.12.27-.12.21-.1.37-.24.3-.2.28.04.3-.04.63.36.13.07.54.19.56.24.35.13.5.28.02.01.32.18.04.02.65.29.08.04.26.13.22.11.67.19.22.06.16.04.17 0 .2-.05.2-.05.64-.28.56-.26 0 0 .35-.18.29-.15.9-.5.4-.41.05-.04.53-.53.55.07.44 0 .01 0 .68-.03.22-.05.34-.16.2.09.14.02.1.02.05.02.53.26.77.2.37-.04.5.46.18.17.74.45.17.09.32.16.53.06.12.08.42.18.03.01.3.12.14.05.15 0 .16 0 .12.14.21.09.23-.01.57.42.65.31 1.11 1.62 1.14 1.05 1.19.72 1.35.55 1.14.33.62.11.47.55.57.67.67.56.01 0 0 .01.79.39.78.34.1.05.71.15.27.06.02.02.05.03.01.01 0 .01.02.01.07.15.1.2.06.11.06.13.04.08.01.01 0 .01 0 .01.04.07.78 1.95.11.29.27.74.03.08.03.09.42 1.06.16.43.26.69.55 1.11.23.44.96 1.27.23.3.44.48.4.47.27.25.36.57.2.33.6.95.03.06.4.63.59.95 3.91 1.78 2.79.83 3.89.83.01 0 2.01.36 1.78.59 1 .6.14.04.22.05.5.09.4.06.15.02.38.16.39.14.05.01.4.07.34.04.35-.03.17-.02.06 0 .36.09.46.04.26 0 .32.08.55.08.33.05.33.03.3.02.03 0 .16.09.23.09.36.09.13.04.02.02.18.19.03.05.43.56.31.38.16.18.27.28.33.25.44.32.42.24.36.16.29.1.27.07.41.08.32.02.3-.02.11 0 .39-.08.37-.1.37-.16.5-.24.34-.24.38-.26.25-.23.12-.06.13-.05.24-.11.17-.11.23-.26.08-.06.22-.3.03 0 .16-.03.23-.05.15-.02.15-.02.31-.14.22-.12.32.07.39.06.43.04.04.01.33.02.4-.03.12-.03.18-.05.32-.06.34.06.22 0 .25-.01.3-.05.39-.05.34-.13.33-.13.23-.05.18-.05.12-.13.29.07.28.01.44 0 .28-.04.17-.02.03-.06.33.03.05-.01.28.04.3.02.46-.01.31-.03.37-.11.21.07.29.01.37-.02.33-.02.39-.09.03-.01.03.01.18.05.25.02 0 0 .23.01.12 0 .03.04.37.38.19.2.04.05.16.24.26.37.27.4.26.39.47.46.04.05.15.17 0 .01.18.31.02.04.16.27.29.5.01.01.33.51.14.36.37.75.12.18.94 1.36.53.78.07.1 1.07 1.68.09.15.17.31.48.87.07.14.13.45.09.32-.19.24-.24.3-.43.38-.8.7-.18.22-.75.91-.09.11-.05.44-.17 1.41.15 2.09.22.39.57 1.03.44.81 2.54 1.93 2.82 1.16.58.62 1.67.97.43.26.68.12 1.06.19 1.7-.18 1.27-.13 0 0 1.3-.92.22-.23.01-.02.01-.01.25-.26.24-.26.43-.46.68 0 .1 0 2.19 0 1.07-.05.24-.01.24-.01.19-.01.66-.11 1.98-.33 0 0 .08.15.23.43.08.14.53.98.3.56.73 1.2.93.74.48.37.32.29.12.12.36.33.12.11.06.06.17.15.06.06.01.01.03.02.01.01.41.4.52.41.56.44.57.37.64.41.68.39.27.12 0-.01 0 0 .04.04.03.02.08.06.03.02.01.01.06.04.01.01.11.08.31.23.1.08.01 0 .01.01 0 .01.41.3.58.44.62.5.4.32.59.48 1.02.84.81.47.64.38.09.05.26.15.08.05.45.26.54.32.8.47.18.1.14.09.13.08.03.01.07.05.02.02.44.27 1.29.81.43.27.02.01.05.03.02.01.12.05.36.14.12.05.02.01.02.01.1.1.03.03.05.05.05.02.31.2.1.06.02.01.1.29.02.04.21.37.44.42.02.01.25.19.03.03.1.08 0 0 .04.02.23.16.09.06.06.36.12.32.07.11.16.23.02.02.21.29.14.19.35.43.15.24.1.16.1.15.24.34.14.2.51.57.14.14.29.28.48.54.15.16.4.22.63 0 .71-.1.1-.01.45.4.2.18.61.54.21.18.04.04.14.12.04.04.18.17.07.05.19.15.07.05.15.12.44.36.15.12.19.15.43.44.11.1.28.27.26.07.13.03.23.33.22.29.14.28.18.24.11.08.2.16.38.32.19.13.59.38.2.13 1.47.97 1.14.75 1.45 1.42 1.4 1.49.49.53.59 1 .06.1.17.29.06.1.09.12.28.38.09.12.03.03.02.03.82.88 1.31 1.41 1.21 1.57.8 1.03.13.16.26.55.06.11.68 1.41.32.67.36.74.06.13.2.4.06.14.01 0 .39.78.01.02.45.9.7 1.44.38.79.01.03.03.1.01.03 0 .03.01.02 0 .02.14.55.24.9.06.27.16.6.15.59 0 0 0 .02.01.01.08.32.25.99.09.33.06.24.19.74.06.25.06.24.18.7.06.24.03.11.09.34.03.11.15.58.45 1.76.15.58.41 1.63.32 1.25-.57 1.53-.05.11-.46 1.82-.01.09-.14 1.39.08.28.05.18.14.51.05.17.05.2.09.3.08.29.05.2.05.2.13.46.01.14.01.21.01.16.02.46.01.15.03.59.02.42.06 1 .02.33 0 .13.03.46 0 .03 0 .11.01.04.01.19.03.55.01.19.02.41.01.19.1 1.06.04.42.11 1.2.06.61.77 2.62.13.19.63.95.02.01.23.25.54.57.21.23.26.27.12.12.06.03.13.07.03.01.07.04.09.07.16.1.1.04.15.06.12.04.16.06.26.08.02 0 .09.03.21.05.07 0 .27 0 .06-.01.35-.06.47-.08.16-.06.18-.08.12-.08.05-.02.12-.09.05-.02.01.02.03.08.01.03.21.54.07.19.28 1.21.05.33.05.36.03.17.01.06.13.8 0 .05 0 1.39.19 1.17.14.82 0 .01 0 .02 1.05-.08 3.13-.25 1.04-.09.02 0 .05 0 .01 0 .01 0 .02 0 .05-.01.23-.03.07-.01.01 0 .22-.03.7-.07.23-.02.14-.02.32-.03.55-.06.83-.09.46-.05.06 0 .16-.01.06-.01 0 0 0 0 .01.01 0-.01.27-.02.81-.07.27-.02.03-.01.09 0 .03 0 .05-.01.14-.01.04-.01.08 0 .21-.03.07-.01.01 0 .01 0 0 0 .01 0 .04 0 .01 0 0 0 0 0 .01 0 0-.01 0 0 0 0 0 0 0 0 0 0 0-.01 0 0 .01 0 0 0 0 0 .02 0 0 0 .03-.01.01 0 .06 0 .02 0 .01 0 .04.01 0 0 .01 0 .19-.02.59-.07.2-.02.19-.02.56-.07.19-.02.13-.01.39-.05.13-.01.33-.03.84-.08.15-.01.02-.01.32-.03.3-.03.78-.1.14 0 .26-.02.04 0 .02-.01 0 0 .04-.01.01 0 .14-.01.4-.01.14-.01.13-.01.41-.05.14-.01.22-.02.67-.08.22-.02.11-.01.32-.04.11-.01.22-.03.67-.07.23-.03.05-.01.13-.01.12-.01.9-.11.04-.01.26-.02.01 0 .31-.03.08-.01.39-.04.49-.05.32-.03.06 0 .2-.02.05-.01.02 0 .02 0 .07-.01.03 0 .04 0 .15-.01.04-.01.14-.01.16-.01.21-.02.35-.04.35-.03.3-.03.07-.01.07-.01.41-.04.02 0 .11-.01 0 0 .01 0 .01 0 0 0 .17-.02.03 0 .17-.02.81-.09.3-.03.37-.03.02 0 .07-.01.02 0 .11-.01.51-.05.04-.01.17-.01.48-.05.01 0 1.22-.11.56-.06.19-.02.83-.08.05 0 .16-.02.06 0 .23-.03.12-.01.46-.05.73-.07.62-.07.55-.05.4-.04.16-.01.53-.05.29-.03.02 0 .07 0 .01 0 0 0 .01 0 .12-.01.37-.05.06 0 .07-.01.55-.05.04-.01.24-.02.47-.05.31-.03.12-.01.49-.05.56-.06.14-.01.26-.03.16-.01.15-.02.3-.03.91-.1.31-.03 0 0 .07 0 .2-.02.06 0 .01 0 0 0 .01 0 0 0 .27-.03.66-.06.14-.01.26-.03.01 0 .29-.03.5-.05.16-.01.11 0 .79-.08 1.31-.13.6-.06.2-.02 1.03-.1 0 0 .02 0 0 0 .26-.04.01 0 .24-.02.22-.02.49-.05.24-.02.05-.01.14-.01.05-.01.15-.01.15-.01.24-.03.54-.04.07-.01.03 0 .29-.03.02 0 .07-.02 0 0 .02 0 .28-.03.4-.03.03-.01.01 0 .2-.02.21-.02.98-.08.24-.02.22-.02.19-.02.54-.05.44-.04 1.12-.11.07-.01.54-.05.08-.01.14-.01.1-.01.08-.01.28-.02.85-.08.22-.02.07-.01.11-.01.35-.03.12-.01.04-.01.01 0 .59-.06.15-.02.53-.05.45-.05 1.15-.11.25-.02.79-.08.01 0 .02 0 .07 0 .03 0 .07 0 .21-.02.07-.01.04 0 .04-.01.23-.02.08-.01.14-.01.42-.04.14-.01.02-.01.06 0 .02 0 .21-.02.61-.05.2-.02.06 0 .16-.02.06 0 0 0 .11-.01.35-.03.11-.01.68-.07 1.41-.13.62-.08.07-.01.61-.06.04 0 .1-.01.04 0 .01 0 .36-.03.04-.01.13-.01.93-.09.37-.03 0 0 .12-.01.43-.04.08-.01.31-.03.65-.07.33-.03.28-.02.45-.03.1-.01 0-.01.07 0 .31-.03.3-.02.07-.01.05 0 1.4-.13.55-.05.68-.07.01 0 .56-.05.35-.03.07-.01 2.94-.26.99-.09.04 0 .13-.01.04-.01.81-.08 1.1-.11 1.34-.11.81-.07 1.65-.13.35-.03.73-.07 3.39-.3 1.89-.17 2-.18.39-.04 1.19-.11.38-.04.01 0 1.7-.14.71-.06 4.4-.41 1.71-.15.88-.08.27-.03.02 0 .07-.01.04 0 .01 0 .04 0 .08-.01.09-.01.08 0 .03-.01.06 0 .06-.01.01 0 .01 0 .01 0 .01 0 .07-.01 0 0 .01 0 .07 0 .08-.01.06-.01.01 0 .05 0 .01 0 .02-.01.01 0 .08 0 0 0 .03-.01.13-.01 0 0 .03 0 .01 0 .01 0 .02 0 .01 0 0 0 0 0 .01 0 0-.01.01 0 .01 0 .04 0 .01 0 .06 0 .17-.02.06 0 .06-.01.18-.01.06-.01.08 0 .26-.03.09 0 .08-.01.05-.01.16-.01.05 0 .04-.01.08 0 .36-.04.12-.01 1.01-.08.84-.07 2.22-.17 1.01-.09.03 0 .09-.01.03 0 .3-.02.37-.03.55-.05.3-.03.35-.03 1.05-.09.35-.03.01 0 .05 0 .01 0 4.69-.41.91-.08 8.27-.67 4.89-.41 3.38-.29 1.32-.1.8-.06.85-.06 1.55-.12.8-.07.74-.05 1.51-.13.7-.06 6.03-.5 2.24-.18.18-.02.56-.04.18-.01.09-.01.28-.02.09 0 .02-.01.05 0 .02-.01.02 0 .07 0 .01 0 .01 0 0 0 .02 0 0-.01.01 0 .01 0 .01 0 0 0 .08-.01.24-.02.07 0 .01 0 .01 0 .01-.01.01 0 .01-.02.02-.03.01-.03.02-.04.02-.02.02-.03.01-.01.01-.02.01-.02 0 0 .01-.05.01-.03.01-.04.01-.04.01-.02.01-.03 0-.02.01-.03.01-.03.01-.03 0-.03.01-.04.01-.03.01-.03 0-.03.01-.03.01-.01.02-.05 0-.01.01-.03.01-.01.01-.03.02-.04.02-.04.02-.03.02-.03.01-.02.02-.02.02-.02.01-.02.03-.02.02-.02.03-.03.03-.01.01-.01.02-.01.02-.02.01-.02.02-.02.02-.01.01-.02.01-.02.01-.01.01-.03.02-.02.01-.04.02-.04.02-.04.02-.05.01-.04.02-.06.02-.03.02-.04.02-.04.03-.05.02-.03.03-.03.03-.05.03-.04.03-.03.02-.03.02-.03 0-.01.01-.01.02-.02.02-.02.02-.01.02-.01.03 0 .03 0 .03.02.03.01.02 0 .02.01.01.01.02.01.03.02.03.03.03.03.03.03.03.03.02.02.03.02.02.03.04.02.03.02.03.02.03.02.03.02.03.03.03.02.02.01.02.02.02.02.02.02 0 0 .01.01.02.02.01.02.03.02.02.03.02.02.01.01.02.01.02 0 .02.01.02 0 .02.01.02 0 .02 0 .02 0 .08-.01.09 0 .05.01.03.01.01-.01.01 0 .06.02.06.01.04.01.01 0 .05.01.03.01.01 0 .05.01.05.02.05.01.05.02.06.02.05.01.04.02.04.01.05.01.05.01.04 0 .05.01.04.01.04.01.03.01.03 0 .01.01.01 0 .06 0 .04.01.03.01.03 0 .05 0 .05 0 .06 0 .05.01.04-.01.04 0 .03.01.05 0 .02 0 .02 0 .02 0 .02 0 .05.01.05 0 .06.01.06 0 .01 0 .04 0 .04.01.06.01.05.01.06.01.03 0 .01 0 .01 0 .05.01.04.01.03.01.03.01.12.02.01 0 .04.01.08.01.1 0 .15.01.05.01.06 0 .05.01.06.01.05 0 .05.01.01 0 .03 0 .03.01.02 0 0 0 .02.01.04.01.04.01.04.02.05.02.05.01.01 0 .03.01.05.02.03 0 .03.01.03 0 .04.01.03 0 .01 0 .03.01.1.01.01 0 0 0 0 0 .02 0 .03.01.04.01.05 0 .04.01.04.01.01 0 .01.01.02 0 .02 0 0 .01.01 0 .01 0 .01 0 .02.01.01 0 .07.01.06.01.02-.01.03 0 .02-.01.03 0 .02 0 0 0 0 0 0-.02 0-.01 0-.01 0 0 0-.01 0 0 0 0 0-.01 0 0-.01 0 0 0 0-.01 0 0 0 0 0 0-.01-.02 0 0 0-.01.01-.01 0-.01.01 0 .01 0 0-.02 0-.01 0-.02 0-.01 0-.01 0-.02 0-.02 0-.02.01 0 0-.02 0-.01 0 0 .01-.01 0-.01.01-.01.01-.01 0-.01 0-.01.01 0 0-.02 0-.02 0-.03 0-.02 0-.01-.02-.02-.01-.02.05 0 .03 0 .03 0 .03 0 .02 0 .01 0 1.7-.02.08 0 .07-.01.1 0 0 0 .09 0 0 0 0-.13 0-.28 0-.17.19 0 .36 0 .02 0 .01 0 .55 0 .01 0 .01-.57.81-.01.04 0 .09 0 .13 0 .59-.01.01-.02.01-.06-.01-.22 0-.26.01 0 .01 0 .01 0 .02 0 .06 0 .07 0 .15 0 .01 0 .2-.01.23 0 .03 0 .01 0-.02-.26-.03-.22-.05-.27 0-.05-.06-.18-.08-.16-.09-.21-.04-.21 0-.14.04-.25.01-.05.01-.37-.01-.31.06-.18.08-.16.05-.07.24-.2.21-.22.11-.15 0-.06.04-.1.08-.11.13-.2.02-.04.06-.11.06-.07.08-.11.03-.03.05-.05.01-.01.11-.12 0-.01.16-.06.04-.02.05-.03.32-.16.06-.03.15-.07.01-.01.1-.06.03-.01.05-.03.09-.05.01 0 .05-.05 0-.01.12-.11 0-.01.04-.03.01-.02.04-.04.01 0 .01-.02.04-.04.05-.04.02-.03.03-.03.33-.33.01-.01.44-.44.46-.51 0 0 .2-2.01.02-.24 0-.03 0-.06.01-.04 0-.11 0-.1 0-.01 0-.08 0-.02.01-.18 0-.05 0-.06.01-.17.03-.22 0-.03 0 0 .02-.08.01-.11.01-.13.03-.24.03-.28 0-.01 0-.07.01-.14.01-.18 0-.13 0-.17-.02-.1-.01-.09-.02-.1-.02-.06-.03-.06-.07-.07-.08-.09-.07-.07-.11-.08-.17-.17-.11-.1-.12-.13-.08-.11-.08-.17-.04-.1-.03-.1-.04-.15-.02-.08-.03-.09-.03-.1-.01-.13 0-.08.01-.06.04-.07.05-.1.06-.11.08-.11.09-.11.07-.08.06-.06.05-.08.04-.07.06-.08.06-.11.05-.1.06-.13.04-.12.03-.11.03-.11.02-.1 0-.08 0-.09 0-.12 0-.1 0-.09 0-.1-.02-.13-.03-.15-.02-.15-.01-.07-.03-.04-.03-.06-.03-.04-.04-.03-.05-.03-.09-.04-.07-.01-.1-.02-.09-.01-.05.02-.07.03-.07.03-.06.04-.03.03-.02.03-.01.04-.01.03-.03.01-.04.01-.07.02-.09.02-.09.03-.1.05-.06.03-.06.01-.04-.01-.05-.03-.08-.06-.05-.06-.06-.1-.03-.09-.02-.07-.01-.1-.02-.08-.03-.12-.02-.09-.01-.11-.02-.11-.02-.13-.02-.16-.01-.17-.01-.12-.01-.1-.02-.09-.03-.15-.03-.2-.06-.24-.02-.16-.01-.14-.06-.19-.03-.1-.11-.28-.12-.27 0 0 0 0-.02-.03 0-.01-.08-.15 0-.01-.01-.03-.1-.16-.01-.01 0-.01-.22-.29-.24-.25-.1-.08-.01-.01-.08-.07-.15-.11-.23-.08-.26-.06-.24-.05-.49-.08-.3-.03-.45 0-.22-.01-.29-.08-.22-.03-.26.02-.29-.09-.16-.03-.23 0-.15.07-.01.01-.05.02-.05.04-.02.02-.14.16-.1.19-.12.15-.05.04-.02.01-.07.05-.08.02-.01.01-.1.03-.33.03-.07.01-.02 0-.13.02-.05 0 0 0-.14 0-.02 0-.03 0-.02 0-.01 0-.02 0-.02-.01-.04 0 0 0-.19-.01-.35-.04-.48-.08-.33-.12-.13-.06-.11-.07-.06-.05-.09-.12-.11-.2-.15-.25-.01-.02-.01 0-.02-.04 0-.01-.1-.15-.05-.06-.09-.11-.01-.01-.05-.08 0-.01-.05-.07-.14-.12-.21-.14-.08-.02-.07.04-.13.13-.13.2-.11.24 0 0-.01.03-.02.05-.02.02-.11.22-.18.26-.13.09-.17 0-.18-.1-.21-.16-.17-.16-.09-.17-.1-.14-.07-.27-.01-.01 0-.03-.01-.1 0-.03 0-.09.04-.44.01-.23-.07-.11-.08-.06-.17-.21-.11-.17-.01-.01-.02-.03-.06-.08-.01-.02-.31-.4-.14-.41-.01-.24.04-.29-.02-.1-.24-.13-.14-.04-.16-.01-.27 0-.23-.05-.12-.09-.09-.23-.02-.23.02-.27.05-.35.06-.28.17-.66.29-.89.09-.29.06-.19.14-.19.3-.34.19-.33.17-.46.14-.55.19-.34.04-.27-.09-.37-.02-.15.05-.05.02-.14.05-.25 0 0 .01-.01.07-.16.14-.38.03-.31.01-.21-.03-.18-.06-.23-.01-.05-.09-.4-.01-.04 0 0-.03-.31.07-.28.1-.3.04-.24.12-.43 0-.3-.05-.19-.24-.38-.23-.28-.08-.09-.1-.2-.21-.36-.13-.25 0 0-.01-.1.09-.12.18-.09.15-.07.16-.18.21-.17.21-.09.1-.12.06-.11-.03-.16-.14-.39-.16-.38-.23-.27-.26-.19-.28-.14-.38-.16-.18-.05-.38-.12-.55-.11-.44-.14-.25-.15-.11-.08-.11-.24-.22-.44-.14-.32-.06-.14 0-.13.09-.13.23-.2.12-.15.07-.15.05-.05.12-.11.16-.13.1-.08.27-.17.15-.13.01 0 .05-.05.13-.17.18-.35.18-.46 0 0 0-.01.05-.12.02-.07.03-.08.05-.32.05-.36.02-.29.07-.25-.01-.33-.06-.36-.05-.12-.03-.08-.11-.27-.15-.33-.09-.16-.08-.14-.01-.05-.01-.01-.02-.06-.01-.08 0-.06.01-.02 0-.01.01-.01.01-.05.01-.09-.01-.06-.01-.06 0-.03-.08-.13-.03-.03-.02-.02-.06-.05-.01-.01-.04-.04 0 0-.01-.01 0 0 0 0-.08-.08-.03-.03-.03-.03-.03-.02 0 0-.04-.06-.09-.14-.15-.19-.02-.02-.06-.09-.01-.02-.01-.01-.07-.1-.02-.02-.04-.04-.03-.05-.02-.02-.05-.08-.09-.13-.04-.09-.02-.04-.01-.02-.02-.14.02-.08.09-.11.11-.07.01 0 .01-.01.07-.02.01 0 .04-.01.16 0 .12.02.16.03.17 0 .16-.02.17-.03.09-.01.02 0 .09-.01.03-.01.04-.01.07-.04.07-.05.1-.07.03-.04.03-.04 0-.01.02-.03.01-.01 0 0 .01-.05.01-.09 0-.02.06-.08.15-.08.16-.06.2-.09.06.01.14-.01.49-.06.04-.01 0 0 .09-.01.05-.01.07 0 .04.02.22.1.03.01.05.02.07.04.04.01.02.02.02.01.01 0 .03.02.04.03.1.04.09.03.12.05.09.06.05.02.03.01.07.01.16-.01.1 0 .22-.06.41-.24.15-.14.39-.34.12-.18.16-.14.08-.1.15-.34.02-.08 0-.01.02-.07.01-.05.06-.17.17-.6.02-.06.04-.16-.02-.27-.05-.28 0-.06.03-.11.3-.49.27-.36.01-.07.01 0 0-.01 0-.01.01-.03 0-.02.05-.07.02-.03.02-.03.04-.05.13-.13.14-.15.19-.28.01-.02.09-.16.02 0 0-.01.02-.01.01 0 .01 0 .05-.04.13-.23.07-.2.09-.3.19-.35.05-.07.06-.15.03-.07.05-.06.04-.05.08-.09.04-.05.06-.05.3-.19.22-.13.27-.05.17-.03.13-.05.15-.08.14-.15.13-.15.19-.17.04-.04.07-.09.01-.07.01-.05.01-.23-.01-.08-.02-.17.05-.19.02-.19.02-.13.04-.09.06-.06.78-.58.28-.2.68-.43.06-.11.03-.07.09-.05.2-.06.09-.06.02-.05.01-.01-.01-.04 0 0 0-.01-.06-.1-.02-.03 0-.01-.08-.12-.01-.04-.05-.09-.04-.06-.04-.05-.02-.01-.02 0-.04-.05-.04-.03-.06-.05-.05-.09-.01-.08-.01-.03 0-.01-.04-.11 0-.01-.04-.08-.03-.04-.06-.07-.03-.04-.02-.03-.05-.14-.01-.04-.02-.1 0-.03 0-.01 0-.05-.01-.02-.01-.05-.01-.04-.01-.03-.07-.08-.01-.02-.05-.13-.03-.15-.01-.02-.02-.14 0-.04.01-.12 0-.12.01-.04.01-.05.01-.11-.01-.01-.01-.02-.01-.06-.01-.01 0-.01 0-.07 0-.06.03-.04.02-.02.04-.07.02-.02 0 0 0 0 .02-.02 0-.01.03-.03.01-.01.03-.04.01-.01 0 0 0-.02.01 0 .02-.07.02-.03.09-.16.04-.06.09-.15.03-.06.01-.02.04-.07.08-.13.01-.01 0 0 .01-.01.1-.15.03-.03.03-.03.02-.03.08-.08.18-.09.13-.11.01-.07 0-.03-.01-.06-.02-.07-.15-.13 0 0-.07-.06-.11-.1-.03-.05-.01-.03-.04-.09-.03-.13-.04-.04-.09-.11-.02-.03 0-.06.01-.03 0-.23.01-.02.04-.07.03-.01.03-.01.03-.02.17-.05.17-.36-.07-.33-.03-.14-.22-.2-.06-.05-.18-.27-.06-.1 0-.25.07-.13.11-.1.35-.11.46 0 .25-.17.03-.17-.09-.15-.11-.07-.24.02-.08-.02-.3-.08-.25-.23-.13-.23.04-.43.04-.13.04-.2.17-.27.25-.25.32-.21.45-.22.17-.04.12-.02.2-.08.14-.1.14-.06.14-.07.14-.08.05-.12.01-.25.03-.11.05-.2.01-.2 0-.01-.01-.2-.02-.16-.01-.14-.02-.07-.02-.09-.04-.13-.03-.09-.06-.07-.05-.05-.07-.04-.06-.04-.04-.04-.13-.19-.1-.28-.17-.19-.2-.11-.03-.02-.02-.02-.02-.03 0 0-.1-.12.03-.06.08-.2.01-.02.16-.3.14-.38.08-.29.02-.08 0-.11.01-.12 0-.08 0-.12-.02-.18-.01-.06 0-.07 0-.02-.02-.05 0-.03-.03-.13-.03-.13-.04-.14-.02-.09-.01-.02-.01-.02-.04-.1-.06-.17-.08-.17-.07-.21-.07-.19-.08-.21-.07-.16-.06-.12-.05-.13-.05-.14-.03-.15-.04-.16-.04-.22-.01-.12-.02-.07-.04-.08-.04-.09-.05-.11-.05-.09-.03-.08-.02-.1-.03-.08-.04-.07-.04-.11-.04-.12-.05-.1-.07-.1-.03-.06-.02-.03-.03-.08-.01-.06-.02-.04.01-.06.05-.04.08-.05.09-.06.13-.11.08-.15.05-.1.04-.14.01-.12-.03-.19-.03-.11-.09-.25-.03-.09-.05-.15-.03-.07-.05-.07-.06-.13-.03-.11-.08-.2-.05-.15-.07-.18-.04-.11-.02-.11-.01-.08-.01-.07.01-.07 0-.04-.01-.03-.01-.06 0-.04-.01-.05-.01-.04.02-.09.02-.05.01-.03.07-.05.06-.05.06-.04.09-.05.09-.01.1.01.07.03.06.03.05.02.07.03.08.02.02.01.05.01.08-.01.06-.03.04-.03.05-.07.05-.06.08-.07.09-.06.09-.04.07-.03.06-.03.07-.06.06-.07.05-.05.03-.05.02-.06.01-.07 0-.06-.02-.06-.02-.08-.02-.05 0-.06.01-.05.01-.06 0-.06.01-.08-.02-.08-.04-.06-.06-.07-.09-.08-.1-.07-.13-.1-.06-.05-.1-.11-.08-.11-.12-.11-.08-.09-.13-.12-.08-.12-.1-.12-.09-.11-.05-.08-.08-.16 0 0-.03-.11-.02-.11-.01-.08-.01-.07 0-.06.01-.03.04-.02.05.01.09.03.08.05.07.05.09.05.13.07.07.04.09.01.08-.01.09-.04.1-.06.08-.05.06-.07.05-.09.01-.08 0-.08-.02-.09-.03-.09-.04-.09-.04-.1-.05-.09-.06-.12-.06-.08-.05-.06 0-.01-.09-.1-.09-.09-.08-.08-.09-.09-.05-.05-.06-.05-.06-.06-.08-.06-.08-.08-.06-.04-.07-.04-.09-.05-.11-.06-.07-.03-.11-.05-.08-.02-.06-.01-.03-.01-.03 0 0 0-.03-.02-.02-.03-.02-.04-.01-.05-.03-.05 0-.01 0-.04 0-.05 0-.12 0-.08.01-.18.01-.09.04-.09.03-.09.05-.08.04-.07.04-.1.04-.08.03-.08.06-.12.04-.14.04-.11.04-.09.04-.06.06-.09.03-.05.03-.05.03-.04.04-.06.03-.03.03-.04.02-.03.02-.03.01-.03.02-.02.01-.01.03-.03.02-.03.02-.02.03-.02.03-.02.03-.01.03-.01.04-.02.04-.02.05-.03.04-.03.06-.02.06-.02.06 0 .04.01.06.02.06.03.02.01.02 0 .05.02.05 0 .06-.02.05-.02.01 0 .03-.03.05-.03.03-.01.04-.03.04-.02.05-.03.01 0 .04-.03.06-.03.05-.04.06-.04.05-.03.01-.01.03 0 .01 0 .02-.01.01-.02.03-.04.02-.03.01-.01.04-.06.06-.07.08-.1.07-.08.06-.07.09-.08.04-.04 0-.01.04-.02.01-.02.04-.03.02-.03.02-.02.03-.04.01-.01.02-.04.05-.06.07-.06.02-.03.04-.04.08-.04.04-.05.04-.06.04-.06.03-.06.02-.06.01-.08.02-.05.02-.04.04-.05.03-.03.05-.04.03-.02.03-.02.05-.03.02-.01.05-.04.06-.03.04-.03.09-.07.03-.03.06-.05.03-.03.03-.03.01 0 .07-.08.02-.03 0 0 .03-.04.01-.03.02-.06.02-.04.03-.05.02-.05.03-.05.03-.03.04-.03.03-.01.05-.01.04 0 .04 0 .09 0 .09 0 .07-.01.07-.02.05-.07.05-.07.02-.07.02-.05 0-.06-.01-.02-.02-.05-.02-.04-.03-.06-.04-.03-.06-.06-.02-.01-.14-.08-.16-.1-.05-.03-.03-.04-.04-.07 0-.08 0-.1 0-.02.02-.06.02-.07.06-.13.09-.08.07-.02.08.01.15.02.34.07.3-.12.23-.14.2-.15.21-.25.15-.27.1-.27.04-.16.05-.4.03-.38-.03-.38 0 0-.03-.09-.09-.31-.09-.21-.05-.29 0-.32.02-.25.04-.48.05-.39.05-.19.04-.15.03-.11.03-.18.07-.54.01-.07.06-.08.11-.1.24-.25.05-.15.01-.01 0-.01.02-.06.04-.11.04-.03.02-.02.07-.06 0 0 .01-.01.08-.09.05-.1.02-.03.09-.17.18-.2.12-.13.07-.05.02-.01.19-.14.1-.03.01 0 .02 0 .11-.04.08-.03 0 0 .06-.01.05 0 .19-.01.05 0 .02 0 .01 0 .02 0 .01.01.04 0 .04.01.02 0 .04.01.03.01.01 0 0 0 .01 0 .01 0 .02 0 0 0 .13.02.17.02.15.04.1-.05.08-.05.02-.01.03-.02.02-.01.04-.03 0 0 .01-.01.02-.01.11-.07.17-.12.04-.03.01 0 0 0 .1-.06.23-.05.08-.01.15-.02.2-.04.1-.05.08-.04.13-.11.13-.14.08-.09.06-.06.03-.05.01-.02 0 0 .01-.02.02-.02.01-.03 0-.03.01-.02.01-.02.01-.04.03-.07.04-.08.05-.08.04-.07.05-.05.05-.05.04-.04.05-.04.03-.03.09-.04.08-.04.09-.02.04 0 .03-.01.15 0 .01.01 0 0 .1 0 .01 0 .16.01.1 0 .06.01.03 0 .03.01.14 0 .12-.03.08-.03.07-.02.02 0 .01 0 .06-.01.05-.03.01 0 .02-.01.18-.06.04-.01.02 0 .03-.01.05-.01.02-.01.18-.1.05-.04.06-.05.11-.1.35-.3.03-.02.02-.02.02-.03.02-.02.02-.05.02-.04.05-.09.02-.02.02-.03.04-.04.03-.06.01-.01 0-.01.04-.07.05-.06.04-.05.04-.05.04-.04.04-.06.04-.03.04-.06.06-.06.02-.04.01-.01 0 0 .03-.05.01-.01.07-.08.06-.06.03-.05.01-.01.03-.03.02-.03.05-.07.26-.37.03-.04.01-.03.03-.02.11-.09.09-.07 0-.01.1-.08.04-.03.02-.01.02-.01.51-.07.23-.04.01 0 .03.01 0 0 .39.14.03.01.02-.01.29-.08.1-.02.07-.02.07-.03.08-.02.07-.02.06-.02.06-.02.07-.03.06-.03.05-.02.03-.02.02-.01.02-.02.1-.08.43-.29.01-.02.16-.18.07-.11.08-.03.27-.12.38-.14.04-.04.14-.12.08-.19.05-.21 0-.2-.01-.03-.04-.2-.01-.2.05-.15.12-.12.52-.3.25-.21.23-.32.09-.09.05-.05.09-.1.38-.39.54-.6.83-.71.02-.02.1-.12.03-.09 0-.12.01-.11.02-.05.06-.09.07-.03.01-.01.12-.04.02 0 .18-.06.14-.05.02-.03.11-.13.04-.14 0-.16-.06-.15-.03-.1 0-.05.04-.04.24.03.28.07.23.01.2-.05.21-.05.16-.01.2.05.26.07.15.02.15-.05.04-.05.05-.07.03-.03.01-.11 0-.08-.01-.04-.02-.03-.07-.14-.13-.29-.09-.26-.04-.17-.02-.21.03-.15.03-.16-.04-.24-.11-.37-.04-.33-.01-.05-.02-.14-.01-.07.01-.04 0-.02 0 0 0-.01.02-.11.06-.23 0-.18-.04-.05-.12-.14-.02-.02-.02-.02-.2-.17-.12-.13-.09-.08-.14-.1-.26-.23-.06-.06-.11-.1-.01-.01-.01-.01-.02-.01-.01-.01-.03-.03-.04-.19-.17-.35-.12-.24-.02-.04-.11-.22-.18-.39-.01-.03-.11-.28-.27-.43-.11-.14-.04-.06-.05-.06-.03-.04-.03-.03-.01-.02-.18-.15-.1-.08-.29-.18-.37-.14-.09-.06-.02-.01-.03-.02 0-.01-.07-.04-.07-.05-.07-.05-.2-.18-.11-.01-.14-.01-.18-.02-.42-.04-.1 0-.4-.12-.05-.02-.36-.14-.07-.07-.17-.17-.07-.16-.06-.12-.05-.12-.01-.02-.03-.05 0-.02-.04-.05-.04-.08-.15-.14-.05-.06-.11-.12-.06-.06-.09-.08-.1-.11-.16-.15-.01 0-.16-.14-.06-.06-.15-.09-.03-.02-.04-.02-.06-.03-.09-.1-.07-.07-.2-.23-.14-.18-.06-.1-.03-.04-.08-.1-.09-.08-.1-.05-.11-.04-.08-.01-.12-.02-.11-.01-.33 0-.08-.01 0 0-.12 0-.11-.04-.03 0-.12-.05-.11-.06-.07-.03 0 0-.12-.1-.01-.01-.09-.13-.07-.12-.03-.08-.01-.02-.01-.08 0-.22 0-.01 0-.03 0-.07-.02-.11-.07-.16-.02-.03-.08-.12-.28-.3-.1-.1-.03-.03-.02-.02-.04-.02-.04-.02-.11-.07-.02-.01-.27-.16-.12-.09-.12-.09-.09-.05-.11-.07-.11-.06-.14-.07-.12-.03-.02-.01-.11-.03-.06-.01-.07-.02-.09-.01-.02-.02-.02-.03-.01-.01-.02-.06-.06-.15-.01-.03-.05-.1-.11-.24-.05-.08-.02-.03-.08-.12-.09-.1 0 0-.07-.06-.04-.02-.05-.02-.05-.03-.04-.01-.08-.02-.02-.01-.08 0-.12 0-.12.02-.04.01-.1.03-.02 0-.14.04-.02.01-.17.01-.09 0-.06 0-.12.02-.01 0-.02.01-.05.01-.04.01-.11.04-.05.01-.15.05-.07.03-.06.01-.01 0 0 0-.18.02-.26.03-.12.01-.05-.01-.04-.01-.06-.03-.01-.01-.02-.02-.21-.2-.27-.29-.1-.12-.05-.06-.01-.02-.09-.12-.03-.1-.01-.07 0-.03.01-.13.01-.04.03-.1.02-.05.05-.12.05-.14.08-.22.04-.11.01-.03.01-.03.01-.05.05-.22 0-.01.01-.02 0-.13 0-.01-.01-.08 0-.08-.01-.08-.02-.11-.03-.21 0-.03-.01-.11-.01-.13 0-.04 0-.18 0-.03.01-.06.01-.12.01-.09.01-.07 0-.02.04-.15 0-.02.02-.08 0-.01.03-.07.01-.04.01-.01 0-.02.04-.1.01-.04.02-.06.1-.31 0-.05-.01-.69-.07-.47-.06-.38-.04-.21-.08-.15-.01-.02-.45-.82-.04-.08-.03-.06-.12-.27-.13-.26-.07-.15-.07-.14-.01-.03-.01-.03-.02-.04-.02-.04-.13-.27-.04-.08-.13-.25-.22-.43-.03-.09-.05-.03-1.06-.84-.03-.02-.79-.95-.09-.1-.05-.13-.02-.04 0-.01.03-.06.58-.19 0 0 .15-.13.01-.02.01-.01 0-.02.04-.07.01-.08 0-.17 0-.12 0-.04 0-.25-.12-.13-.08-.1-.08-.09-.01-.01-.41-.33-.21-.18-.05-.04-.01-.07 0-.04-.01-.04-.01-.08 0-.01 0-.02 0-.03-.02-.06-.03-.08-.04-.11-.01-.02-.01-.02-.03-.12-.01-.07 0-.02 0-.02 0 0 0-.01.03-.12.02-.13.02-.13.01-.15-.02-.14 0-.01-.03-.09-.03-.1-.01-.03-.01-.01 0-.01-.01-.01 0-.01-.03-.06-.06-.1-.06-.1-.1-.08-.06-.07-.07-.09-.07-.08-.01-.01-.03-.04-.01-.02-.1-.08-.1-.09-.1-.07-.08-.06-.12-.09-.06-.07-.01-.06-.01-.01 0 0 .01-.05.02-.05.01 0 .03-.06.06-.04.12-.11.1-.08.03-.03.02-.02.01-.01.02-.02.04-.06.01-.02.02-.07.01 0 0-.09-.02-.08-.04-.06-.1-.1-.09-.11-.03-.08 0-.01-.01-.06 0-.02 0-.03.01-.06-.01-.1-.03-.09-.01-.04-.06-.13-.11-.18-.03-.04-.01-.02-.01-.01-.02-.03-.01-.02-.05-.07-.14-.18-.02-.04-.01-.02-.01-.02-.02-.03-.02-.04-.02-.03-.01-.02-.06-.16-.03-.08-.03-.08-.02-.08-.01-.08-.02-.1-.02-.11-.02-.06-.01-.04-.02-.09-.01-.02-.02-.11-.01-.08-.01-.12.01-.09-.02-.13 0-.02-.02-.11-.03-.1-.04-.09-.05-.11-.03-.07-.04-.06-.02-.01 0 0-.01-.01-.04-.03-.07-.03-.08-.02-.07-.01-.09-.01-.09-.01-.13 0-.11 0-.03.01-.01-.01-.12-.05-.12-.07-.06-.04-.02-.04 0 0 0-.01 0 0-.05-.11 0-.02-.01-.01-.01-.02 0-.01-.01-.02-.01-.01 0-.02-.01-.02-.01-.01-.08-.29-.01-.04-.01-.02 0-.02-.02-.01-.01-.02-.04-.03-.03-.03-.02-.01-.12-.08-.05-.04-.04-.03-.06-.03-.01 0-.08-.03-.06-.03-.05-.04-.02-.02-.04-.04-.17-.07-.09-.04-.09-.03-.15-.07-.13-.05-.12-.07-.14-.07-.09-.06-.01-.01-.01 0-.05-.04-.11-.13-.11-.13-.07-.1-.07-.11-.03-.07-.01-.03-.08-.1-.12-.16-.06-.07-.01-.02-.07-.06-.08-.09-.04-.06 0-.01-.05-.04-.07-.04-.03-.01-.07-.05-.02-.01-.01-.01-.02-.01-.01-.01-.14-.1-.29-.22-.22-.19-.21-.19-.16-.17-.05-.07-.09-.08-.09-.09-.14-.19-.12-.17-.13-.2-.09-.19-.04-.08-.08-.14 0-.01-.02-.03-.02-.04-.02-.04-.01-.03-.07-.15-.05-.13-.01-.03-.01-.03 0-.02-.01-.06-.01-.02 0 0-.07-.12 0 0-.07-.11-.13-.2-.01-.02-.06-.12-.04-.08-.04-.13-.01-.03-.05-.2-.05-.2-.06-.2-.02-.04 0 0 0 0 0-.03 0-.03 0-.06-.01-.12 0-.01 0-.01-.01-.04 0 0 0-.01-.03-.17-.04-.17-.02-.13-.02-.11-.04-.12-.01-.03 0-.03-.03-.06-.01-.03-.06-.19-.08-.22-.08-.19-.07-.17-.04-.07-.04-.07-.01-.01 0-.01 0 0-.05-.09-.09-.19-.06-.12 0-.01 0 0 0-.01-.01-.02-.01 0-.05-.08-.08-.1-.08-.1-.12-.13-.03-.03-.07-.08-.05-.05-.1-.08-.02-.03-.13-.12-.06-.05-.01 0-.11-.09-.08-.07-.05-.03-.02-.02-.01 0 0-.01-.06-.04-.02-.01-.09-.06-.14-.07 0 0-.08-.04-.01 0-.05-.04-.07-.04-.11-.06-.01-.01-.03-.02-.04-.02-.06-.03-.15-.08-.03-.02-.06-.03-.1-.07-.02-.02-.12-.09-.13-.12-.08-.1-.03-.03-.01-.02-.01-.01-.04-.02-.02-.03-.04-.04-.01-.01-.03-.04-.02-.01-.02-.03-.06-.09-.01-.01-.04-.07-.03-.02-.03-.06-.06-.12-.06-.12-.02-.04-.02-.06-.04-.1-.01-.03-.05-.16 0-.01-.02-.15-.03-.26-.03-.25-.01-.08-.02-.12 0-.28.01-.03.02-.15.02-.08.02-.15.02-.07 0-.01.01-.03.03-.11.02-.07.09-.25.04-.11.05-.13 0-.01.06-.26.01-.15.01-.14 0-.08-.02-.11-.04-.24-.06-.18-.03-.14-.01-.01 0-.01 0-.02-.01-.05 0-.1 0-.03-.01-.08 0-.03 0-.01 0-.02.01-.02 0-.01 0-.03.02-.11 0-.04 0-.02.01-.06.01-.07.02-.13.04-.12.01-.03.01-.03.02-.09.01-.05.03-.1.02-.13.03-.1 0-.01-.01-.34 0-.04 0-.1-.01-.05-.11-.48-.05-.13-.11-.27-.01-.03-.05-.18-.01-.23 0-.02 0-.07 0-.06 0-.04-.01-.04 0-.04.02-.19.01-.03 0-.01 0-.03.01-.03 0-.03.07-.2.08-.25.1-.27.01-.01.01-.05.05-.17.01-.07.02-.12 0-.02.02-.2 0-.02-.01-.23-.01-.23-.06-.23-.09-.28-.01-.04-.06-.09-.05-.16 0-.01-.01-.01-.02-.02-.01-.01-.01 0-.01-.01 0-.01-.12-.11-.33-.33-.11-.11-.01-.01-.03-.02 0-.01-.01-.01-.14-.13-.4-.4-.13-.13 0 0-.03-.03-.02-.02-.13-.13-.05-.05-.04-.05-.04-.03-.25-.25-.08-.08-.01-.01-.07-.07-.21-.21-.06-.06-.01-.01-.08-.08-.26-.26-.09-.09-.04-.04-.13-.13-.04-.04-.03-.03-.1-.09 0-.01-.03-.03-.03-.03-.11-.1-.03-.03 0 0-.03-.04-.09-.09-.03-.03-.29-.28-.22-.22-.15-.15-.46-.45-.03-.03-.24-.24-.05-.04-.01-.01-.03-.04-.01-.01-.07-.06-.13-.13-.06-.06-.06-.06-.06-.06-.1-.09-.46-.47-.16-.15-.01-.01-.03-.03-.01-.01-.04-.04-.12-.13-.05-.04-.06-.06-.01-.01-.11-.1-.11-.11-.07-.07-.02-.03-.07-.06-.02-.03-.03-.03-.09-.09-.03-.02-.04-.04-.05-.05-.26-.27-.08-.08-.01-.01-.02-.02-.06-.06-.03-.02 0-.01-.03-.03-.01-.01-.14-.14-.02-.02-.48-.48-.16-.16-.17-.17-.25-.25-.26-.26-.17-.17-.02-.02-.05-.04-.01-.02-.19-.19-.23-.22-.04-.04-.23-.22-.06-.06-.03-.03-.18-.18-.01-.01-.05-.05-.02-.01-.15-.15-.04-.05-.07-.07-.29-.28-.26-.25-.17-.17-.05-.05-.02-.02-.01-.01-.05-.05-.01-.01-.08-.08-.04-.04-.19-.18-.06-.06-.02-.02-.11-.11-.11-.1-.24-.23-.02-.03-.09-.09-.2-.19-.06-.06-.11-.11-.1-.09-.02-.02-.32-.31-.2-.2-.18-.17-.12-.11-.42-.39-.18-.16-.06-.06-.17-.16-.01-.01 0 0-.06-.05-.41-.41-.14-.14-.1-.1-.7-.7-.04-.04-.27-.28-.42-.42-.12-.12-.1-.1-.35-.35-.1-.1-.03-.04-.11-.1-.26-.25-.09-.09-.08-.08 0 0-.01-.01-.06-.05-.03-.03-.02-.02-.04-.04-.04-.04-.13-.13-.01-.01-.03-.03-.17-.16-.08-.08-.13-.13-.16-.15-.15-.15-.18-.17-.01-.01-.02-.02-.06-.06-.04-.04-.03-.03 0 0-.01-.01 0 0 0 0-.3-.29-.1-.1-.33-.32-.45-.43-.23-.23-.06-.06-.01 0-.02-.02-.01-.01-.08-.08-.24-.23-.08-.08-.03-.04-.12-.11-.04-.04-.19-.18-.57-.56-.19-.18-.66-.65-.09-.08-.1-.1-.39-.39-.29-.3-1.13-1.08-.28-.27-.39-.38-.22-.21-.47-.45-.2-.19-.2-.2-.02-.02-.08-.07-.02-.02-.21-.2-.05-.05-.02-.02-.06-.05-.12-.13-.13-.12-.18-.17-.11-.1-.24-.23-.38-.37-.31-.3-.01-.01-.21-.21-.65-.67-.22-.23-.02-.01-.05-.05-.02-.01-.06-.06-.11-.09-.06-.05-.03-.03 0 0-.18-.16-.06-.04-.03-.03-.07-.07-.1-.08-.04-.04-.05-.05-.07-.06-.04-.04-.03-.03-.04-.04-.06-.06-.16-.15-.07-.06-.15-.16-.4-.39-.08-.08-.15-.15-.23-.22-.3-.3-.36-.36-.22-.21-.18-.18-.43-.42-.12-.12-.18-.18-.03-.03-.09-.09-.03-.03-.14-.14-.44-.43-.15-.14-.04-.05-.03-.02-.01-.02-.06-.07-.18-.23-.03-.03-.1-.09 0 0-.03-.03-.13-.13-.4-.39-.11-.11-.03-.02-.22-.22-.01-.01-.23-.22-.42-.41-.18-.17-.04-.04-.01-.01-.06-.07-.18-.16-.38-.37-.06-.07-.31-.3-.25-.23 0-.01-.09-.09-.08-.08-.19-.17-.08-.08 0-.01-.08-.08-.12-.12-.11-.1-.06-.07-.01-.01-.07-.06-.01-.02-.18-.17-.02-.03-.04-.03-.16-.16-.04-.04-.3-.3-.14-.13-.13-.13-.03-.03-.07-.07-.12-.11-.09-.1 0 0-.07-.06-.04-.04-.12-.13-.28-.27-.16-.17-.04-.04-.06-.05-.11-.11-.11-.11-.01-.01-.22-.2-.04-.04-.05-.06-.07-.06-.03-.03-.1-.1-.01-.01-.02-.01-.07-.07-.01-.01-.03-.03 0 0 0 0-.01 0-.26-.25-.05-.05-.19-.18-.22-.2-.1-.09 0 0-1.32-1.29-.1-.11-.13-.12 0 0-.14-.14-.14-.13-.22-.22-.35-.34-.09-.09-.13-.12-.05-.05-.08-.09-.2-.19-.07-.06-.09-.09-.2-.2-.18-.17-.01-.02-.36-.34-.28-.28-.39-.38-.29-.27-.17-.17-.11-.11-.27-.26-.11-.1-.12-.12-.03-.02-.01-.02-.01 0 0-.01 0 0-.01 0-.01-.02-.01 0 0-.01-.01 0 0 0-.01-.02-.04-.03-.01-.02 0 0-.01 0 0 0 0-.01-.02-.02-.01 0-.05-.05-.01-.01-.03-.02-.19-.19-.06-.06-.08-.08-.15-.14-.04-.05-.39-.37-.14-.14-.01-.02-.04-.03-.01-.01-.06-.05-.03-.03-.01-.01-.02-.02-.17-.18-.07-.06-.01-.01-.03-.03-.01 0-.09-.09-.26-.26-.09-.09-.02-.02-.01 0-.08-.08-.02-.02-.01-.02-.01-.01-.01 0-.04-.04-.01 0-.02-.01 0-.02-.1-.1-.01-.01-.06-.06-.63-.61-.16-.15-.26-.26-.34-.32-.21-.21-.42-.4-.14-.14-.24-.23-.15-.14-.21-.21-.27-.26-.26-.25-.25-.24-.04-.04-.55-.53-.13-.13-.54-.52-.09-.09-.08-.07-.03-.03-.06-.06-.87-.85-.54-.52-.1-.1-.15-.15-.29-.28-.03-.02-.18-.18-.28-.27-.17-.16-.06-.06-.02-.02-.21-.21-.8-.77-.59-.57-.47-.46-1.03-1-.11-.1-.66-.64-.22-.21-.09-.09-.07-.07-.1-.1 0 0-.02-.02-.14-.13-.29-.28-.2-.2-.01 0-.57-.56-.72-.69-.02-.02 0 0 0 0-.31-.3-.03-.02-.12-.12-.49-.47-.11-.11-.47-.46-.1-.09-.03-.03-.02-.02-.07-.07-.04-.03 0 0-.03-.02 0-.01-.01 0 0-.01 0 0-.02-.01-.01-.01 0-.01-.04-.03-.01-.01-.01-.02-.1-.09-.01-.01-.03-.02-.03-.04 0 0-.08-.07-.04-.04-.03-.03-.03-.03-.01-.01-.02-.02-.01-.01-.05-.05-.01-.01-.02-.01 0 0-.01-.02-.01 0 0-.01-.01 0 0-.01-.02-.02 0 0-.03-.02-.01-.01-.03-.03-.01-.01-.08-.08-.05-.05-.02-.02-.04-.03-.01-.02-.01-.01-.04-.03-.03-.03-.1-.1-.12-.12-.02-.02-.01-.01-.11-.1-.05-.05-.04-.04-.01-.01-.05-.05 0 0-.02-.01-.13-.13-.28-.27-.06-.06-.09-.09-.02-.02-.06-.05-.05-.05-.1-.09-.01-.02-.13-.12-.01-.01-.01-.01 0 0-.01-.01-.06-.06-.08-.07-.03-.03-.04-.04-.01-.01 0-.01-.01 0 0 0-.02-.02-.04-.04-.1-.1-.03-.02-.03-.04-.03-.02-.02-.02-.01 0-.01-.02-.02-.02-.02-.02 0-.01-.01-.01-.01-.01-.02-.02-.02-.02-.02-.02-.46-.44-.01-.01-.3-.29-.11-.11-2.18-2.1-.9-.86-.01-.01-.16-.16-.19-.18-.93-.9-.29-.28-.33-.32-.3-.28-.01-.03-.55-.52-1.91-1.84-.03-.02-.49-.47-.02-.03-.09-.08-.63-.61-.04-.04-.53-.51-.24-.23-.54-.52-.22-.21-.1-.1-.13-.12-.06-.05-.02-.03-.51-.49-.13-.12 0 0-.03-.03-.06-.06-.17-.16-.06-.05-.11-.11-.04-.03 0 0-.03-.03 0 0-.03-.03-.09-.09-.03-.03-.04-.03-.02-.02 0-.01-.01-.01-.05-.04 0 0-.03-.03-.04-.04-.08-.08-.01-.01-.03-.02-.01-.02-.09-.08-.07-.07-.01-.01-.04-.04-.13-.12-.05-.05-.17-.16-.07-.07-.05-.04-.02-.02-.04-.05-.16-.15 0 0-.01-.01-.02-.01-.01-.02 0 0 0 0 0 0-.01 0-.09-.09 0 0-.28-.25-.04-.04 0 0-.17-.17-.03-.03 0 0-.12-.11-.02-.02-.01-.01-.01-.01-.01-.01 0 0 0 0-.01 0-.03-.04-.13-.12-.2-.2-.44-.42-.05-.05-.11-.11-.03-.02 0 0 0 0-.01-.01-.03-.03-.09-.09-.11-.11-.1-.09-.14-.13-.05-.05 0 0 0 0 0 0 0 0-.03-.03-.06-.05-.19-.19-.39-.37-.32-.32-.26-.25-.82-.79-.44-.42-.17-.16-.06-.05 0-.01-.28-.26-.14-.14-.36-.36-.28-.27-.03-.03-.01-.01 0 0 0 0-.01-.01-.01-.01-.24-.23-.04-.04-.13-.12 0 0 0 0-.01-.01 0 0 0 0-.22-.21-.51-.49-.41-.39-.15-.15-.26-.24-.09-.09-.05-.05-.24-.22-.36-.35-1.13-1.08-.13-.13-.02-.02-.12-.11 0-.01-.01 0 0-.01-.01 0-.08-.08-.08-.08-.03-.03-.03-.02 0 0 0-.01-.02-.01-.04-.05-.02-.01 0 0-.2-.2-.02-.01-.23-.22-.01-.01-.04-.04-.02-.02 0 0 0 0-.03-.03-.09-.09-.02-.02-.01 0 0 0 0 0 0-.01-.03-.02-.05-.05-.02-.01-.01-.01-.18-.18-.07-.07-.02-.02-.04-.03 0-.01-.11-.1-.11-.1-.03-.04 0 0-.04-.03-.03-.04-.04-.03-.16-.14-.1-.09-.43-.42-.22-.21-.12-.11-.35-.34 0 0-.42-.41-.13-.13-.09-.08-.04-.04-.21-.21-.01 0-.06-.06-.26-.25-.77-.73-.04-.04-.15-.14 0-.01-.36-.34-.03-.03-.05-.04-.01-.01 0 0 0 0-.03-.03-.17-.16-.06-.06 0 0-.01-.01-.28-.27-.33-.32-.03-.02-.49-.47-.49-.47-.38-.36-.1-.1 0 0-.17-.16-.02-.02 0 0 0 0-.06-.06-.27-.25-.24-.24-.04-.03-.04-.04-.02-.02 0-.01 0 0 0 0-.01 0 0 0-.01-.01-.03-.03-.23-.22-.28-.27-.16-.15 0 0-.04-.04-.24-.23-.63-.6-.01 0-.1-.1-.72-.68-.3-.29-.25-.24-.01-.02-.01 0 0 0-.05-.05 0 0 0-.01-.72-.68-.01 0-3.91-3.7-.02-.01-.38-.37-.06-.05-.51-.48-.03-.03-.46-.44-.17-.16-.23-.22-.01-.01 0 0 0 0-.01-.01-.04-.04-.01 0-.33-.32 0 0-.7-.66-.22-.21-.15-.14-.1-.1-.08-.08-.03-.03-.04-.05-.01-.01-.01 0 0 0 0-.01-.01 0 0 0-.03-.04 0 0-.13-.09-.16-.1-1.61-1.56 0 0-.47-.45-.22-.21 0-.01-.12-.11-.02-.02-.09-.09 0 0-.01-.01-.04-.04-.2-.19-1.15-1.11-.17-.18-.19-.18 0 0-1.78-1.73-.03-.02-.06-.06-.98-.95-.01-.01 0 0-.83-.74-1.25-1.2-.18-.17 0-.01 0 0-.01 0 0 0 0 0 0 0 0 0-.01-.01-.01-.01 0-.01 0 0-.01 0-.43-.42-.02-.01-.3-.29-.49-.48-.11-.1-.07-.07-1-.94-.08-.07-1.62-1.54-.33-.3-.23-.22-.08-.08-.01-.01-.09-.08-.75-.71-.68-.64-.51-.48-2.05-1.93-.03-.03-.06-.06-.22-.21-1.1-1.04-.75-.71-.15-.14-.95-.9-.04-.03-.23-.22-.11-.1-.43-.41-.61-.58-.17-.16-1.37-1.29-.14-.14 0 0-.4-.37-.08-.08 0 0 0 0 0-.01-.01 0-.01-.01-.01-.01-.01-.01-.13-.12-.79-.76-.74-.69-.05-.05-.01-.01-.3-.28-.07-.07-.35-.33-.91-.86-.02-.02-.46-.44-.09-.08-.07-.07-.33-.31-.27-.25-.42-.4-.04-.05-.01-.01-.01 0-.04-.04-.31-.29-.04-.04-.1-.1-.01-.01-.01-.01-.06-.05-.07-.07-.06-.06-.07-.06-.49-.47-.1-.1-.38-.35-.16-.15-.34-.33-.04-.04-.01 0 0-.01 0 0 0 0-.01 0-.09-.09-.03-.03-.11-.1-.32-.3-.57-.54-.31-.29-2.24-2.12-.09-.08-.05-.04 0-.01-.83-.77-.5-.48-.01-.01 0 0 0 0 0 0-.01-.01 0 0-.01-.01-.01-.01-.15-.14-.03-.03-.3-.28-.04-.04-.01-.01-.64-.6-.45-.43-.01-.01 0 0-.78-.73-.01-.01-.04-.03-.46-.44-.02-.02-.22-.21 0 0-.01-.01 0 0-.02-.01-.01-.01 0-.01-.02-.01 0-.01-.1-.09-.21-.17-.16-.15-.43-.4-.74-.7-.07-.07-.84-.76-1.25-1.16-.51-.48-.25-.23-1.21-1.14-.54-.51-.24-.23-.01-.01-.11-.1-.36-.35-.34-.32-.62-.59-.38-.36-.19-.18-.01-.02-.18-.16-.02-.02-.08-.07-.03-.03-.26-.25-.44-.4-.02-.02-.44-.4-.98-.93-.2-.19-.03-.03 0 0 0 0-.01 0 0 0-.23-.23-.65-.61-.14-.12-.1-.1-.06-.06-.21-.19-.02-.02-.01-.01-.01 0 0 0-.01-.01-.06-.06-.16-.15-.01-.01-.08-.07-.02-.02 0 0 0 0-.01 0 0-.01-.07-.07-.11-.1-.09-.07-.01-.02-.03-.02-.05-.05-.06-.05-.1-.1-.02-.02-.02-.02-1.43-1.35-.92-.86-.29-.28-.4-.36 0 .01-1-.86-.02-.02-.95-.9-.35-.32-.03-.03-1.42-1.33-.72-.68-.26-.24-1.41-1.32-.92-.86-.88-.83-.08-.07-.06-.04-.17-.16-.69-.65-1.26-1.2-.8-.75-.93-.88-.85-.81-.28-.26-.4-.37-.4-.38-.9-.85-.01-.01-.08-.08-.05-.05-.17-.15-1.16-1.1 0 0 0 0 0-.01-.01 0-.14-.13-.08-.08-.06.01-.34-.33-.44-.4-.96-.88-.45-.42 0 0-.18-.16-.27-.28-.24-.22-.44-.39-.05-.04 0 0-.01-.01-1.94-1.75-1.65-1.55-.2-.18-.1-.1-.96-.9-.03-.02-.57-.54-.85-.82-.4-.38-1.07-1.01-.01-.01-.01-.01 0 0 0 0-.14-.13-.04-.04-.01-.01-.49-.46-.01-.01-.01-.01 0 0-.01-.01 0 0-.32-.28-.33-.27-.1-.09-.11-.09-.03-.03-.03-.02-.26-.22-.26-.22-.01-.02-.01-.01-.11-.09-.11-.09-.21-.18-.21-.18-.03-.04-.02-.02-.03-.02-.02-.02-.17-.16-.23-.22-.14-.13-.24-.22-.19-.18-.06-.06-.13-.12-.19-.18-.31-.29 0 0 0 0-.01-.01 0 0 0 0-.01-.01-.05-.04-.56-.53-.01-.01-.15-.13-.09-.08 0 0-.05-.05-.02-.02-.01 0-.08-.08-.08-.08-.3-.28-.29-.28-.1-.09-.02-.02-.08-.08-.05-.04-.1-.1 0 0-.01 0 0 0-.01-.01-.04-.04-.15-.15-.06-.05-.05-.05-.04-.04-.04-.04-.72-.67-.06-.06-.47-.45-.04-.04-.25-.23-.02-.02-.02-.02-.01-.01 0 0 0 0-.14-.13 0 0-.06-.05-.17-.17-.18-.17-.41-.38-.14-.13-.35-.33-.08-.08-.26-.25-.02-.02 0 0-.26-.24 0 0-.09-.08-.31-.3-.06-.06-.01 0-.04-.04-.3-.29-.02-.01 0 0-.15-.14 0 0 0 0-.33-.32-.09-.08-.01-.01 0 0-.23-.21-.13-.13-.03-.03-.5-.47-.02-.02-.02-.02 0 0-.3-.28-.3-.29-.16-.12-1.74-1.42-.23-.22-.33-.32-.02-.01-.01-.01-.14-.14-.27-.25-.27-.26-.51-.48-.3-.27-.06-.07-.38-.35 0-.01-2.17-2.05-.02-.02-.01-.01-.05-.05-.19-.18-.23-.19 0 0-.02-.02-.23-.19-.01-.01-.06-.06-.07-.06-.18-.16 0-.01 0 0-.06-.06-.01 0-.19-.19-.01-.02-.15-.12-.14-.13-.05-.05-.02-.02-.2-.17-.21-.18 0 0-.05-.04-.04-.05-.02-.01-.02-.02-.03-.03-.04-.03-.13-.12 0-.01-.06-.04-.06-.06-.06-.06-.08-.07-.19-.17-.01-.02-.01 0 0 0 0 0 0 0 0 0-.25-.23-.02-.02-.03-.02-.03-.03 0-.01-.23-.21-.04-.03-.22-.2-.01-.01-.04-.04-.03-.02-.01-.01-.1-.09-.18-.17-.16-.15 0 0 0 0-.02-.02 0 0-.01 0 0-.01-.06-.06-.04-.04-.14-.13-.01-.02-.02-.01 0 0-.09-.09-.09-.09-.08-.08-.09-.09-.03-.03-.05-.05-.03-.02 0 0-.01-.02-.04-.04-.07-.06-.07-.06 0-.01-.02-.01-.01-.01-.01-.01-.26-.24 0 0-.07-.06-.22-.2-.03-.03-.08-.07-.13-.12-.01 0-.02-.02-.04-.04-.01-.01-.08-.07-.03-.03-.08-.07-.07-.07 0 0-.02-.01-.01-.02-.07-.06-.07-.06-.15-.14-.26-.23-.1-.09 0 0-.06-.06 0 0-.03-.02-.01-.01-.37-.34-.01-.01-.51-.47-.01 0-.12-.11-.12-.12-.06-.05 0 0-.35-.32-.01-.01-.41-.37-.4-.36-.26-.24 0 0-.15-.14-.17-.15-.07-.06 0-.01 0 0-.05-.04 0 0 0 0-.03-.03-.04-.03-.01-.01-.14-.14-.07-.06-.22-.2-.02-.02-.83-.76-.01 0-.03-.04-.18-.15-.2-.19-.04-.03-.12-.12-.03-.02-.04-.04-.04-.04-.01 0-.07-.07-.04-.03 0-.01-.07-.06 0 0 0 0-.12-.11-.14-.12-.38-.36-.02-.01-.12-.12-.11-.11-.02 0 0-.01-.01 0-.08-.08-.07-.07-.01 0-.14-.12-.05-.05-.08-.08-.02-.01-.03-.03-.01-.01 0-.01-.08-.07-.09-.08-.1-.09 0 0-.13-.12-.02-.02 0 0-.03-.02-.02-.02-.05-.05-.52-.48-.01 0-.49-.46-.17-.16-.15-.13-.01-.01-.78-.7-.28-.25 0-.01-.01 0 0-.01 0 0-.19-.17-.01-.01-.04-.04-.02-.01 0-.01-.29-.26-.07-.07-.03-.02-.15-.14-.03-.03-.02-.02-.02-.02 0 0-.02-.01-.02-.02-.04-.04-.03-.03-.01 0 0 0 0 0 0-.01-.01-.01-.22-.2-.18-.17-.05-.05-.12-.11-.2-.18-.02-.01-.02-.02-.18-.17-.18-.16-.47-.43-.1-.09 0 0 0 0-.15-.13-.01-.02-.06-.05-.23-.21 0 0 0 0 0 0 0 0-.01-.01-.03-.03-.01-.01-.34-.31-.06-.05-.02-.01-.28-.26-.08-.07-.32-.3-.02-.02-.04-.03-.01-.01-.02-.02-.32-.29-.56-.51-.02-.02 0 0-.18-.16-.02-.02-.02-.02-.32-.29-.6-.54-.07-.06-.23-.22-.16-.14-.26-.24-.4-.36-.4-.36-.22-.2-.22-.2-.13-.12-.13-.12-.38-.34-.38-.35-.22-.22-.1-.1-.18-.16-1.21-1.1-.36-.32 0-.01-.17-.15 0 0-1.43-1.31-.38-.35-.09-.07-.13-.13-.13-.11-.32-.3-.44-.4-.07-.06-.01-.01-.01-.01 0 0 0 0 0 0-.62-.56 0 0-.01-.02-.02-.01-.01-.01-.01-.01-.57-.52-.19-.17 0-.01-.12-.1-.44-.41 0 0 0 0-.01 0 0 0-.28-.26-.02-.02-.15-.14-.23-.21-.2-.18-.03-.03-.33-.33-1.01-.91-.06-.06 0 0-.34-.3 0-.01 0 0-.18-.17-.18-.16-.18-.16 0 0-.11-.1-.11-.1-.2-.18-.2-.19-.11-.09-.1-.1-.13-.11-.07-.07-.05-.04-.22-.2-.22-.2-.04-.04-.04-.04-1.14-1.04-.13-.11-.08-.06 0-.01 0 0 0 0 0 0 0 0-.01 0-.01-.01-3.06-2.7-.29-.28-.69-.64-.3-.28-.27-.26 0 0-.16-.14-.03-.03-.01-.01-.01-.01 0 0 0 0-.01 0-.26-.25-.79-.73-.13-.12-.13-.12-1.17-1.09-.03-.03-1.68-1.55-.02-.01-.14-.14-.01 0-.07-.07-.08-.07 0 0-.44-.39-.44-.39-.03-.03-.03-.03-.04-.03-.19-.17-.18-.17-.15-.13-.14-.13-.17-.15-.18-.16-.37-.32-1.29-1.1-.01 0-.36-.34-.01-.01-.23-.21-.06-.05 0-.01-.01 0-.01-.01 0-.01 0 0-.01 0 0 0-.06-.05-.08-.08-.44-.4-.43-.41-.01 0-1.19-1.1-.02-.01-1.28-1.17-.04-.04-.02-.02-.04-.04-1.17-1.07-.02-.01-.08-.08-.01-.01-.01-.01-.17-.15-.01-.01-.01-.01-.08-.07-.1-.09-.92-.81-.8-.73-.01-.01-.13-.11 0-.01 0 0 0 0 0 0-.03-.03-.33-.29-.36-.34-.02-.01-.6-.55-.32-.29-.48-.45-.7-.62-.79-.7 0 0 0-.01-.02-.01-.26-.23-.01-.01-.02-.02 0 0-3.39-2.93-.29-.26-.01-.01-.35-.33-.02-.02 0 0-.01 0 0-.01-.05-.04-.11-.11-.96-.9 0 0-.01-.01-.03-.03 0 .01-.05-.05-.01-.02-.01-.01 0 0 0 0 0-.01 0 0-.01 0-.02-.02 0-.01-.01 0 0 0 0 0-.01-.01-.08-.07 0 0 0 0-.78-.68-.9-.8-.67-.59-.46-.4 0 0-.54-.47 0-.01-.38-.39-.57-.56-.03-.02-.2-.18-1.59-1.41-.01-.02-.1-.11-.05-.04 0 0-.05-.04-.03-.03-.01-.01-.01-.01-.88-.78 0 0-.71-.63-.31-.28-.21-.18-.01-.01-.05-.05-.03-.02-1.34-1.19-.01-.02-.88-.78-.01 0-.54-.48 0 0-.03-.03 0 0-.07-.06 0 0-.13-.12-.04-.04-.25-.21-.07-.06-.02-.02 0-.01-.01 0-1.11-.99-.13-.11-.04-.03 0-.01-.1-.09-.02-.02-.03-.02-.03-.03-.96-.9-.02-.03-.04-.03-.04-.03-.85-.74 0 0-.01 0-.02-.02-.22-.2-.77-.66-.02-.04-1.2-1.08-.67-.6-.06-.06-1.3-1.17-.05-.04-.05-.05-.01-.01-.22-.2-1.4-1.22-.03-.02 0-.01-.13-.11-.21-.18-.01-.01 0 0-.65-.56-.01-.01-.38-.29-.17-.16-.04-.02-.02-.02 0-.01-.56-.51-.73-.66-.02-.03-.13-.11-.01-.01-1.71-1.58-.04-.03-.02-.02-.02-.02-.35-.32-.09-.07-1.03-.93 0 0-.2-.2-.01 0 0-.01-.24-.21-.11-.1-.01 0-.13-.12-.18-.15 0 0-.02-.01 0-.01-.53-.43-.09-.09-.24-.21-.02-.02-.69-.62-.23-.2-.02-.01-.05-.04 0-.01-.06-.04-.04-.04 0 0-.01-.01-.02-.02-.03-.02 0-.01-.39-.33-.01 0-.69-.66-.01-.01-.01-.01-1.25-1.09 0-.01-.68-.59-.12-.11-.23-.2-.02-.02-.06-.05-.01-.01-.01 0 0-.01-.01-.01-.01-.01-.01 0-.02-.02-.01-.01-.2-.17-.02-.02-.04-.04-.41-.36-.01-.01-1.75-1.57-.11-.09-.01-.01-.02-.02 0 0 0 0-.01-.01-.17-.14-.25-.23-.02-.01-.4-.35-.6-.53-.25-.22-.42-.37-.09-.07-.06-.06-.19-.16-.08-.07-.01-.01-.05-.05-.2-.17-.06-.06-.05-.04-.14-.13-.04-.04-.01 0-.05-.05-.21-.22-.25-.22-.96-.84-.3-.27-.14-.13-.05-.04-.13-.12-.04-.04-.01 0 0-.01-.02-.01 0 0-.13-.12-.4-.35-.14-.12-.02-.02-.07-.07-.03-.02-.04-.04-.13-.11-.04-.04-.12-.1-.35-.31-.12-.11-.03-.02-.02-.02-.23-.21 0 0-.01 0 0-.01 0 0 0 0-.01 0-.54-.49-1.47-1.29-.05-.06-.17-.14-.83-.74-.15-.13-.02-.02-.37-.32 0-.01-.07-.06-.19-.17 0 0-.05-.04-.14-.12-.04-.04-.01-.01-.19-.17 0 0-.21-.18-.07-.07-.01-.01-.32-.28-.62-.55-.01-.01-.5-.44 0 0-.27-.24-.01-.01-.42-.37-.01-.01-.34-.3-.06-.06-.46-.4-.2-.18-.05-.04-.16-.14-.28-.24-.01-.01-.07-.06-.55-.5-.05-.05-.05-.05 0 0-.03-.03-.08-.06 0-.01-.1-.08-.21-.18-.08-.08-.02-.01-.01-.01-.05-.04-.15-.13-.05-.05-.03-.03-.1-.08-.03-.03-.01 0-.05-.05-.17-.15-.06-.05 0 0-.1-.08-.36-.32 0 0-.46-.41 0 0-.38-.33-.39-.34-.11-.1 0-.01-.63-.55-.16-.14-.49-.44-.16-.15-.02-.01-.04-.04-.01-.01-.01 0-.01-.01 0 0-.05-.04-.13-.13-.05-.04-.01-.01-.05-.04-.02-.02-.12-.11-.36-.31-.12-.11-.23-.2-.68-.61-.23-.2-.02-.02-.05-.04-.01-.01-.01-.01-.04-.03-.13-.11-.04-.04-.03-.02-.08-.08-.03-.02-.01 0 0-.01-.01 0 0 0-.01-.02-.04-.03-.02-.02 0 0-.01-.01 0 0-.01-.01-.02-.02-.03-.02-.06-.06-.01-.01-.01 0-.05-.05-.02-.02-.12-.1-.01-.01-.05-.04 0-.01-.05-.04-.15-.12-.05-.04-.02-.02-.07-.06-.02-.02-.07-.06-.07-.07-.04-.03-.34-.3-.21-.19-.17-.14-.01-.01-.01-.01-.01-.01-.03-.02-.01-.01-.01-.02-.05-.04-.02-.02-.12-.11-.38-.33-.13-.11-.2-.18-.6-.53-.21-.18-.12-.11-.35-.32-.12-.1 0-.01 0-.01 0-.01-.01-.12 0-.38 0-.12-.01-.12 0-.33 0-.12 0-.06-.01-.07 0-.25-.01-.63-.01-.51-.01-.38 0-.31 0-.16-.01-.15-.01-.88-.01-.4 0-.47-.01-.06 0-.18 0-.06 0-.19-.01-.57-.01-.19 0-.05 0-.04 0-.49-.02-.92-.01-.82-.01-.58-.02-.61 0-.43-.01-.57-.01-.83 0-.61 0-.02-.02-1.44-.01-1.06-.01-.8-.06-2.47 0-.15 0-.05 0-.12-.01-.14 0-.08-.01-.27 0-.02 0-.03 0-.05.01-.04 0-.05 0-.03 0-.04 0-.04 0-.04 0-.29 0-.26 0-.67 0-.02-.01-.17 0-.03 0-.09 0-.03-.01-.38-.01-.51-.01-.63-.01-.38 0-.16 0-.06 0-.41 0-.1 0-.06 0-.02 0-.07 0-.02 0-.17 0-.49 0-.08 0-.09 0-.01 0-.03 0-.01 0-.01 0-.04 0-.01 0-.36 0-1.09 0-.36 0-.01 0-.02 0-.01 0-.01 0-.02 0-.01 0 0 0-.03 0 0 0-.01 0-.01 0-.01 0-.02 0-.06 0-.02 0-.01 0-.04 0-.01.01-.18 0-.53 0-.18 0-.09 0-.23 0-.02 0-.09 0-.31 0-.51 0-.41 0-.24 0-.07 0-.43.01-1.3 0-.34 0-.09 0-.01 0-.02 0-.01 0-.07.01-.2 0-.07 0-.02 0-.06 0-.02 0 0 0-.01 0 0 .01-.09 0-.04.01-.4 0-.13 0-.05 0-.15.01-.25.01-.29 0-.04 0-.2.01-.22.02-.65 0-.21.01-.18 0-.22.01-.33.01-.18 0-.07.01-.29 0-.28.01-.43.01-.36.01-.36 0-.01 0-.05 0-.01.03-.99 0-.02.01-.43.01-.11 0-.03.01-.08 0-.02 0-.03 0-.01 0-.04 0-.03 0-.01 0-.02 0-.01 0-.01 0-.01 0-.08 0-.03 0-.01 0-.01 0-.06 0 0 .01-.31 0 0 0-.02 0-.14 0-.02 0-.16.01-.64 0-.04.01-.23 0-.03.01-.31 0-.2 0-.11 0-.07 0-.03 0-.04 0-.01.01-.36 0-.06 0-.01 0-.03 0-.01 0-.06 0-.03 0-.12 0-.01 0-.08 0 0 0 0 0-.01 0-.05 0-.01 0-.11 0-.08 0-.02.01-.04 0-.24 0-.02 0-.05 0-.19 0 0 .01-.36 0-.05 0-.02 0-.01 0-.08 0-.12 0-.07 0-.02 0-.1 0-.09 0-.15 0-.01 0-.01.01-.08 0-.04 0-.01 0-.12 0-.33 0-.2-.01-.09 0-.1 0-.1 0-.02 0 0 0-.12 0-.32-.01-.28.02-1.28.01-.19 0-.01 0-.04 0-.01 0-.02 0-.32 0-.18 0-.24 0-.16 0-.04.01-.09 0 0 .01-.97 0-.05 0-.01 0-.02 0-.02.03-1.21 0-.04 0-.01 0-.02 0 0 0 0 0-.02 0-.03 0-.36 0-.01-.01-.87 0-.29 0-.02-.01-.24 0-.01 0-.07 0-.58 0-.04 0-.01 0-.02 0-.02 0-.6 0-.01 0-.02 0-.02 0-.07 0 0 0 0 0-.48 0-.08 0-1.01 0-.02 0-.11 0-.02 0-.02 0-.17 0 0 .01-.24 0-.17 0-.02 0-.02 0-.03 0-.04 0-.03 0-.02 0-.04 0-.02 0 0 0-.07 0-.35 0-.12 0-2.9-.01-.7.01-.87 0-.12 0-.02 0-.1 0 0-.01-.38 0-.2 0-.87 0-.03.01-.45.01-.07 0-.11.01-.54 0-.12 0-.1 0-.06 0-.12.01-.38 0-.41 0-.07 0-.01 0-.05 0-.05 0-.07 0-.69 0-.05 0-.01 0-.01 0-.34 0 0 0-.14 0-.07 0 0 0-.11 0 0 .01-.78 0-.01.01-.58.01-.3 0-.03 0-.09 0-.16 0-.11.01-1.14 0-.09 0-.5.01-.35 0-.17 0-.11 0-.03 0-.08.01-.47 0-.02.01-.68.02-.81 0-1.07 0-.03 0-.53 0 0 0-.08 0-.05 0 0 0-.67 0-.06 0-.01 0 0 0-.02 0-.01 0-.16.02-1.5 0-.06 0-.02.01-.51 0-.04 0-.04 0-.05 0-.05 0-.06 0-.05 0-.05 0-.1 0-.02 0-.01 0-.03 0-.16.01-1.25.01-.17 0-.05 0-.29 0-.03 0-.14 0-.02 0-.06.01-.08 0-.05 0-.02 0-.01 0-.06 0-.01 0-.06 0-.15 0-.09 0-.02 0-.03.01-.17 0 0 0 0 0 0 0-.01 0-.12 0-.05 0-.17.01-.61 0-.02 0-.02 0-.23 0-.03.01-.57 0-.75.01-.93.01-1.05 0-.18 0-.61 0-.62 0-.21 0-.24 0 0 .01-.65 0-.01 0-.35 0-.13 0 0 0 0 0-.23.01-.83 0-.03-.01-.07 0-.06 0-.01 0-.03 0-.23 0-.21 0 0 0-.05 0-.05 0-.01 0-.06 0-.08 0-.14 0-.01 0-.17 0-.01 0-.05 0-.11 0-.02 0-.08 0-.2 0-.01 0-.1 0 0 0-.03 0-.06 0-.02 0-.03 0-.05 0-.31 0-.32 0-.33 0-.01 0-.04 0-.02 0-.04 0-.01 0-.01 0-.01 0 0 0-.02 0-.16 0-.29.01-.04 0-.17 0-.1 0-.19 0-.27 0-.02 0-.42 0-.1 0-.03.01-.26 0-1.14 0-.93 0-.01 0-.08 0-.01 0-.13 0-.1 0-.13 0-.02 0-.03.01-1.07-.01-1.02 0-.02 0-.23 0-.11.01-.11.01-1.01 0-.02.01-.47 0-.12 0-.52 0-.47 0-.01.01-.92 0-.11.01-1.16 0-.09 0-.01 0 0 0-.39 0-.71 0-.01 0-.04 0-.04 0-.01 0 0 0 0 0 0 0-.04 0-.02 0-.03 0-.18 0-.01 0-.08 0-.01 0-.05 0-.01 0-.89 0-.26 0-.22 0-.01 0-.03 0-.01-.01-1.09-.01-1.72 0 0 0-.01 0-.05 0-.05 0-.04 0-.01 0-.08 0-.02 0-.18 0-.04 0-.11 0-.1 0-.01 0-.01 0 0 0-.05 0-.04 0-.16 0-.01.01-.08 0-.01 0-.64.01-.57 0 0 0-.01 0-.03 0-.64 0-.08.02-1.06 0-.02 0-.01 0-.08 0-.07.01-.88 0 0 .01-.14 0-.16 0-.78 0-.49 0-.34 0-.25 0-.03 0-.23 0-.11 0-.04 0-.01 0-.01 0-.01 0-.01 0-.07 0-.13 0-.02 0-.11 0-.89 0 0 0-.18 0-.14 0-.02 0-.33 0-.36 0-.05 0-.82 0-.09 0-.54 0-.01 0-.63 0-1.5 0-1-.01-1.27 0-.31 0-.94 0-1.05 0-.02 0-.34 0-.73 0-.03 0-.52 0-.65 0-.01-.01-.3 0-.02 0-.12 0-.01 0-.14 0-.01 0 0 0-.04 0-.01 0-1.21-.01-.9 0-.02-.01-.28 0-.06-.02-1.2 0-.06-.01-.99 0-.04 0-.13 0-.03 0-.02 0-.05 0-.03 0-.03 0-.15 0-.39-.01-.35 0-.01 0-.02 0 0 0-.03 0-.03 0-.04 0 0 0-.08 0-.05 0-.05 0-.14-.01-.55 0-.53 0-.05-.01-1.22 0-.04-.02-1.22 0 0 0-.05 0-.09 0-.02-.01-.9-.01-1.6 0-.01 0-.04 0-.02-.02-1.55 0-.02 0-.03 0-.02-.02-1.87 0-.14-.01-.49 0-.05 0-.09-.01-.68 0-1.08-.01-.19 0-.15.01-.35 0-.28 0-.5 0-.5 0-.17 0-.01 0-.18 0 0 0-.57 0-.17 0 0 0-.01 0-.01-.01-.64 0-.65 0-.84 0-.01 0-.03 0-.01 0-.01-.02-2.26-.01-.52 0-.18 0 0 0-.13 0-.17 0-.15 0-.01 0-.01 0-.01 0-.01 0-.07 0-.07 0 0 0 0 0-.05 0-.01 0-.01 0-.09 0-.04 0-.02 0-.02 0-.01 0-.69 0-.45-.01-1.08 0-1.08 0 0 0-.01 0-.05 0-.05 0-.06 0 0 0-.1 0-.03 0-.32 0-.83-.01-1.62 0-.04 0-.27 0-.67 0 0-.01-.36-.01-3.14 0-.5 0 0 .01-.1 0-.01-.01-.06 0-.38 0-.01 0-.24.01-.32 0-.14 0 0 0-.16 0-.01 0-.03-.01-1.52 0-1.27 0-1.03 0-.24-.01-1.27 0-1.7 0-.01 0-.64 0-.21 0-.01 0-.05 0-.85 0-.21 0-.14.01-1 0-.01 0-.01 0 0 0 0 0 0 0-.02 0-.08 0-.05 0-.03 0-.38 0-.01.01-.99 0-.56 0 0 0-.01 0 0 0-.17 0-.08 0-.02 0-.03-.01-.42 0-.24 0 0 0-.28 0-.66 0-.07 0-.78 0-.08 0-.61 0-.04 0-.27 0-.07.01-.08 0 0 0-.02 0-.03 0-.11 0-.11 0-.06 0-.06 0-.2 0-.2 0-.43 0-.43 0-.11 0-.12 0-.27 0-.27 0-.16 0-.05 0-.46 0-.01-.01-.2 0-.14-.01-.34 0-.58 0-.04 0-.58 0-.06 0-.21 0-.01 0-.08 0 0 0-.65 0-.02.01-1.53 0-.03 0-.61 0-.65 0-.53 0-.83 0-.01 0-.09.01-.32 0-.01 0-2.48 0-.84 0-.02 0-.22 0-.6 0-2.08 0-.72 0-.37.01-.37 0-.25 0-.26 0-.14 0-.09 0-.01 0-.28 0-.28 0-.25 0-.25 0-.05 0-.02 0-.02 0-.01 0-.42 0-.42 0-.12 0-.17 0-.22 0-.37 0-.63 0-.63.01-.74 0-.01 0-.19 0-.17 0-.19 0-.2 0-.07 0-.07 0-.02 0 0 0-.33 0-.33 0 0 0-.15 0-.15 0-.03.03-1.91 0-.09 0-.28 0-.27 0-.4 0-.39.01-.25 0-.25 0-.09 0-.08 0-.02.01-1.06 0-.01 0-.19.01-1.89.02-3.02 0-.05 0-.12 0-.12-.04-.54 0-2.61 0-.3 0-.06 0-.46 0 0 0-.05 0 0 0-.08 0 0 .01-.54 0-.31 0-.01 0-.09 0-1.4 0-2.56.03-2.6-.01-.5-.01-1.6 0-.01 0-.28 0-.01-.01-1.48 0-.5 0-.01 0-.23 0-.01 0 0-.01-2.24 0-.01-.01-.68 0 0 0-.85-.01-1.99-.01-.69 0-.64 0-.82 0-.72 0-.02 0-.25 0-.03 0-.31 0-.02 0-.1 0 0 0-1.3 0-.03 0-.1 0-.11 0-1.65 0-1.64 0-.01.01-1.16 0-.34 0-.01 0-1.31-.01-.1-.07 0-.26-.01-.06.01-.04 0-.03 0-.08-.01-.05 0-.15 0-.09 0-.04 0-.07 0-.02 0-.06 0-.07 0-.03 0-.1 0-.06 0-.06 0-.06 0-.06 0-.03 0-.08 0-.14 0-.04 0-.11 0-.05 0-.07 0-.07 0-.06 0-.04 0-.09 0-.1 0-.04 0-.05 0-.06 0-.26 0-.08 0-.03 0-.01 0-.01 0 0 0-.04 0-.05 0-.01 0-.03 0-.02 0-.06 0-.03 0-.02 0-.01.01-.04 0-.01 0-.11 0-.15 0-.09 0-.09 0-.06 0-.05 0-.02 0-.01 0-.02 0-.12 0-.08 0-.01 0-.03 0-.09 0-.1 0-.02 0-.08 0-.04 0-.05 0-.05 0-.02 0-.07 0-.08 0-.03 0-.06 0-.05 0-.02 0-.04 0-.01 0-.05 0-.04 0-.06 0-.05 0-.08 0-.05 0-.08 0-.06 0-.08 0-.06 0-.05 0-.04 0-.11 0-.07 0-.09 0-.06 0-.19.01 0 0-.01 0-.11 0-.03 0-.08 0-.08 0-.05 0-.04 0-.05 0-.02 0-.02 0-.03 0-.03 0-.05 0-.08 0-.12 0-.11 0-.01 0-.08 0-.04 0-.08 0-.06 0-.06 0-.05 0-.05 0-.05 0-.05 0-.01 0-.01 0-.05 0-.05 0-.06 0-.04 0-.02 0-.02 0-.04 0-.1 0-.13 0-.1 0-.1 0-.04 0-.09 0-.14 0-.04.01-.08 0-.04 0-.06 0-.04 0-.04 0-.02 0-.05 0-.02 0-.05 0-.1 0-.04 0-.07 0-.05 0-.1 0-.06 0-.08 0-.05 0-.1 0-.06 0-.09 0-.05 0-.07 0-.08 0-.1 0-.05 0 0 0-.04 0-.04 0-.03 0-.04 0-.03 0-.04 0-.05.01-.04 0-.03 0-.02 0-.03 0-.01 0-.02 0-.01 0-.02 0-.01 0-.02 0-.01 0-.01 0-.04 0-.01 0-.01 0-.02 0 0 0-.01 0-.01 0-.02 0-.02 0-.01 0-.02 0-.01 0-.01 0-.01 0-.02 0-.01 0-.02 0-.02 0-.01 0-.02 0-.03 0-.03 0-.01 0-.03 0-.01 0-.02 0-.06 0-.06 0-.03 0-.02 0-.03 0-.03 0-.01 0-.06 0-.05 0-.05 0-.06 0-.05 0-.05 0-.05 0-.05 0-.05 0-.04 0-.02 0-.03 0-.03 0-.02 0-.01 0-.17 0-.13.01-.09 0-.2 0-.17 0-.16 0-.18.01-.1 0-.08 0-.03 0-.03 0-.02 0-.05 0-.05.01-.02 0-.04 0-.04 0 0 0-.07 0-.02 0-.04 0-.12 0-.19.01-.24.01-.14 0-.14 0-.06.01-.12 0-.04 0-.1 0-.13.01-.12 0-.18 0-.01 0-.11.01-.04 0-.01 0-.1 0-.08 0-.03 0-.07.01-.02 0-.08 0-.03 0-.07 0-.06 0-.04 0-.07.01-.05 0-.02 0-.17.01-.01 0-.03 0-.09 0-.06.01-.04 0-.13 0-.23.01-.06.01-.09 0-.05 0-.04 0-.04 0-.32.01-.05 0-.48 0-.11 0-.31 0-.13 0-.02 0-.1 0-.1.01-.13 0-.15-.03-.06 0-.13.01-.09 0-.05 0-.05 0-.04-.01-.01.01-.05 0-.01 0-.04 0-.01 0-.13 0-.07 0-.03 0-.12 0 0 0-.12 0-.16-.01-.17 0-.02 0-.02 0-.09-.01-.1 0-.26.01-.23 0-.06 0 0 0-.18 0-.18 0-.12 0-.02 0-.03.05-.13-.01-.01.01-.57-.01-1.27-.01-.76-.01-.67 0-.31-.01-.54 0-.29 0-.39-.01-.48 0-.37 0-2.41-.02-.08 0-2.4-.03-.07 0-.14 0-.01 0-.09 0-.87 0-.18 0-.12 0-.02 0-.02 0-.46.01-.18 0-.11 0-.68.01-.03 0-.2 0-.1 0-.33.01-.23 0-.32 0-.13 0-.38.01-.15 0-.27 0-.15 0-.14 0-.05 0-.02 0-.14.01-.07 0-.26 0-.08 0-.17.01-.15 0-.07 0-.14 0-.09 0-.04 0-.11 0-.05 0-.04 0-.02 0-.02 0-.71 0-.02 0 0 0-.02 0-.03 0-.02 0-.01 0-.06 0-.01 0-.04 0-.03 0-.62 0-.02 0 0 0-.23 0-.01 0-.07-.01-.02 0-.05 0-.15 0-.06 0-.02 0-.01 0-.02 0-.03 0-.02 0-.02 0-.02 0-.03 0-.02 0-.03 0-.02 0-.02 0-.07 0-.02 0-.1 0-.09 0-.02 0-.07 0-.02 0-.1 0-.08 0-.1 0-.09 0-.05 0-.08 0-.1 0-.02 0-.02 0-.18 0-.09-.01-.07 0-.04 0-.07 0-.13 0-.09 0-.18 0-.31 0-.22-.01-.16 0-.52-.01-.34-.01-.64-.01-.04 0-.01 0-.03 0-.04 0-.03-.01-.04 0-.05 0-.01 0-.03 0-.12 0-.11 0-.06 0-.06 0-.02 0-.02 0-.35 0-.04 0-.05 0-.05 0-.08 0-.1 0-.08 0-.09 0-.09 0-.09 0-.08 0-.1 0-.1 0-.07 0-.11 0-.08 0-.08 0-.1 0-.12 0-.07 0-.05 0-.14 0-.1 0-.08 0-.15 0-.09 0-.11 0-.13 0-.06 0-.08.01-.09 0-.03 0-.08 0-.02 0 0 0-.01 0-.03 0-.1 0-.02 0-.03 0-.04 0-.05 0-.08 0-.08 0-.08 0-.03 0-.08 0-.04 0-.06 0-.05 0-.05 0-.02 0-.05 0-.05 0-.05 0-.04 0-.04 0-.04 0-.33 0-.02 0-.01 0-.03 0-.14 0-.21 0-.1 0-.02-.01-.06 0-.02 0-.31 0-.04 0-.1 0-.06 0-.06 0-.1-.01-.1 0-.06 0-.07 0-.09 0-.1 0-.13-.01-.02 0-.09 0-.08.01-.07 0-.06 0-.1 0-.09 0-.13 0-.09 0-.1 0-.01 0-.01 0-.05 0-.32 0-.2 0-.16 0-.32 0-.23 0-.55 0-.02 0-.28 0-.08.01-.08 0-.4 0-.12 0-.01 0-.05 0-.03 0-.02 0-.01 0-.01 0-.09 0-.02 0-.07 0-.01 0-.07 0-.02 0-.05 0-.03 0-.04 0-.03 0-.06 0-.03 0-.04 0-.04 0-.04 0-.04 0-.05 0-.04 0-.05 0-.03 0-.04 0-.04 0-.04 0-.03 0-.04 0-.03 0-.03 0-.01 0-.04 0-.07 0-.03 0-.06 0-.04 0-.04 0-.02 0-.03 0-.02 0-.03 0-.04 0-.03 0-.03 0-.02 0-.02 0-.01 0-.01 0-.54 0-.19 0-.3.01-.06 0 0 0-.32 0-.09 0-.1 0-.07 0-.06 0-.05 0-.01 0-.91 0-.32 0-.11 0-.47 0-.06.01-.2 0-.04 0-.08.01-.09 0-.1 0-.07 0-.06.01-.05 0-.05 0-.16 0-.16.01-.18 0-.24.01-.04 0-.02 0-.03 0-.04 0-.19 0-.06 0-.02 0-.21 0-.47.01-.01 0-.41 0-.01 0-.1 0-.06 0-.07 0-.09 0-.1-.01-.06 0-.07 0-.07 0-.01 0-.21 0-1.24-.02-.33 0-.14-.01-.18.01-.01 0-.01 0-.11-.02-.19 0-.16-.01-.02 0-.03 0-.04 0-.1 0-.04 0-.05-.01-.01 0-.07 0-.04 0-.01 0-.07-.01-.19-.01-.16 0-.15-.01-.05 0-.18-.01-.08 0-.08-.01-.06 0-.06 0 0 0-.16-.01-.09 0-.02 0-.06-.01-.06 0-.1-.01-.08 0-.14-.01-.04 0-.11-.01-.02 0-.03 0-.06 0-.1-.01-.22-.01-.03 0-.06 0-.15-.01-.2 0-.06 0-.08 0-.07-.01-.09 0-.1 0-.04 0-.05-.01-.13 0-.05 0-.05 0-.1-.01-.09 0-.01 0-.12.02-.1 0-.1-.01-.04 0-.09 0-.1 0-.1 0-.11-.01-.14 0-.05 0-.08 0-.08 0-.08-.01-.1 0-.91-.04-.02 0-.32-.01-.33-.01 0 0 0 0-.32-.01-.08-.01-.25 0-.1-.01-.19 0-.03 0 0 0-.01 0 0 0-.28-.01-.95-.03-.06 0-.01 0-.01 0-.23-.01-.06 0-.03 0-.22 0-.07 0-.16 0-.16-.01-.32 0-.03 0 0 0-.29 0-.03 0-.46-.01-.04.01-.07 0-.19-.01-.09.01-.14 0-.07 0-.16-.01-1.44.01-.15 0-.05 0-.06 0-.11 0-.05 0-.1 0-.06 0-.26.01-.03 0-.04 0-.16-.01-.01.01-.15-.01-.56 0-.42-.01-.04 0-.6 0-.45 0-.09 0-.07 0-.12 0-.13 0-.34.01-.08 0-.02 0-.03 0-.18.01-.01-.01-.04.01-.27 0-.1 0-.22.01-.02 0-.3.01-.01 0-.1 0-.02 0-.07 0-.02 0-.09 0-.02 0-.1.01-.1 0-.1 0-.01 0-.09 0-.22.01-.01 0-.11.01-.19.01-.05 0-.27.02-.01 0-.01 0-.04 0-.03 0 0 0-.02 0-.01 0-.03 0-.02 0-.15.01-.01 0-.01 0-.09 0-.21 0-.11-.01-.32-.01-.04 0-.1 0-.06 0 0 0-.12-.01-.04 0-.02 0-.07 0-.12.01-.07 0-.11-.01-.11 0-.1 0 0 0-.22 0-.11 0-.11-.01-.09 0-.01 0-.05 0-.05 0 0 0-.01 0-.01 0-.01 0-.11 0-.08 0-.12 0-.33-.01-.32 0 0 0-.19-.01-.12 0-.01 0 0 0-.19 0-.04 0-.08 0-.01 0-.19-.01-.01 0-.03 0-.06 0-.04 0-.05 0-.06 0-.08 0-.12 0-.01 0-.19-.01-.06 0-.02 0-.01 0 0 0 0 0 0 0-.03 0-.02 0-.18 0-.04 0-.09 0-.01 0-.18-.01-.13 0-.09 0-.04 0-.05 0-.01 0-.1 0-.03 0-.07 0-.12-.01 0 0-.13 0-.18 0-.01 0 0 0-.02 0-.02 0-.01 0-.09 0-.18-.01-.09 0-.05 0-.01 0-.01 0 0 0-.01 0-.03 0 0 0-.01 0-.25 0-.01 0-.3-.01-.23 0-.14-.01-.05 0 0 0-.12 0-.14 0-.21 0-.13-.01-.7-.01-.03 0-.22 0-.11 0-.28 0-.02 0-.3-.01-.34 0-.02-.01-.21 0-.41 0-.49-.01-.07 0-.12 0-.21-.01-.31 0-.32-.01-.01 0-.01 0-.03 0-.26 0-.35 0-.08 0-.6-.01-.27-.01-.11 0-.19 0-.05 0-.85-.02-.22-.01-.59-.01-.09 0-.28-.01-.15 0-.03 0-.02 0-.12-.01-.07 0-.03 0-.03 0-.1 0-.17 0-.09 0-.19 0-.14-.01-.22 0-.24 0-.2-.01-.05 0-.22 0-.1 0-.02 0-.01 0-.01-.01-.01 0-.02 0-.22 0-.06 0-.05 0-.02 0-.2-.01-.09 0-.02 0-.08 0-.01 0-.01 0 0 0-.07 0 0 0-.01 0-.14 0-.14-.01-.22 0-.18 0-.15-.01-.07 0-.04 0-.05 0-.04 0-.07 0-.1 0-.06-.01-.07 0-.07 0-.02 0-.01 0-.16 0-.17 0-.03-.01-.04 0-.05 0-.03 0-.01 0-.13 0-.03 0-.01 0-.05 0-.09 0-.07-.01-.1 0-.01 0-.15 0-.18-.01-.14 0-.18 0-.06 0-.09 0-.17-.01-.01 0-.1 0-.04 0-.19 0-.09 0-.04-.01-.02 0-.06 0-.01 0-.11 0-.07 0-.05 0-.01 0-.01 0-.06 0-.04 0-.05 0-.02 0-.02-.01 0 0-.12 0-.17 0-.03 0-.21-.01-.11 0-.04 0-.03 0-.22 0-.01 0-.02 0-.48-.01-.47-.01-.02 0-.19-.01-.11 0-.25 0-.39-.01-.34-.01-.01 0-.44 0-.09-.01-.11 0-.21 0-.05 0-.15-.01-.08 0-.16 0-.08 0-.01 0-.01 0-.01 0-.01 0-.1 0-.05-.01-.16 0-.16 0-.06 0-.25-.01-.07 0-.24 0-.09 0-.22-.01-.11 0-.1 0-.1 0-.12-.01-.11 0-.11 0-.11 0-.17-.01-.08 0-.03 0-.02 0-.02 0-.02 0-.01 0-.09 0-.14-.01-.07 0-.22 0-.04 0-.03 0 0 0 0 0-.01 0-.35-.01-.16 0-.1-.01-.07 0-.15 0-.17 0-.16-.01-.1 0-.07 0-.16 0-.17-.01-.05 0-.12 0-.34 0-.14-.01-.19 0-.38 0-.08 0-.26-.01-.16 0-.08 0-.13 0-.02 0-.07 0-.1 0-.15-.01-.31 0-.13 0-.03 0-.02-.01-.32 0-.17-.01-.14 0-.01.01-.01-.01-.42 0-.06 0-.05 0-.18-.01-.15 0-.19-.01-.07 0-.25 0-.23 0-.05 0-.11 0-.14 0-.1-.01-.09 0-.12 0-.2 0-.1 0-.11 0-.11 0-.08 0-.12.01-.11 0-.03 0-.03 0-.15 0-.1 0-.05 0-.06 0-.15.01-.07.01 0 0-.36-.01-.33-.01-.17 0-.05 0-.23-.01-.03 0-.07 0-.1 0-.24 0-.09 0-.24-.01-.09 0-.23 0-.2 0-.13 0-.1 0-.09-.01-.07 0-.02 0-.03 0-.1 0-.1 0-.11-.01-.1 0-.08 0-.07 0-.1-.01-.26-.01-.17 0-.4-.02-.11 0-.11 0-.13-.01-.19 0-.11 0-.09 0-.12-.01-.18-.01-.15-.01-.1-.01-.09 0-.13-.01-.07-.01-.06 0-.06-.01-.14 0-.11 0-.07 0-.18-.01-.08 0-.07 0-.13 0-.19-.01-.06 0-.06 0-.15 0-.07 0-.7-.01-.46-.01-.05 0-.37 0-.35 0-.46-.01-.1 0-.21-.01-.41 0-.18 0-.07 0-.32-.01-.09 0-.02 0-.12 0-.06 0-.03 0-.13-.01-.08 0-.65-.01-.11-.01-.02 0-.05 0-.08 0-.08-.01-.01 0-.09 0-.11-.01-.1 0-.04-.01-.07 0-.09 0-.02 0-.09-.01-.01 0 0 0-.11 0 0 0-.05-.01-.03 0-.12 0-.02-.01-.1 0-.07 0-.25-.01-.06 0-.1 0-.09 0-.03 0-.06 0-.1 0-.06 0-.05 0-.16 0-.08 0-.11-.01-.02 0-.1 0-.02 0-.09 0 0 0-.01 0-.02 0-.02 0 0 0-.01 0-.01 0-.01 0-.02 0-.11 0 0 0-.01 0 0 0-.02 0-2.09-.01-.07 0-.96 0-.13 0-.08-.01-.11 0-.05 0-.09.01-.11-.01-.08.01-.1 0-.09 0-.07 0-.06 0-.32 0-.33 0-.04 0-.06-.01-.22 0-.21 0-.14-.01-.29 0-.11-.01-.11 0-.1 0-.05 0-.09 0-.17-.01-.13 0-.09 0-.06 0-.05 0-.43-.02-.54-.01-.02 0-.13 0-.17-.01-.02 0-.31 0-.01 0-.39-.01-.25-.01-.33-.01-.32-.01-.34 0-.28-.01-.45 0-.13-.01-.26 0-.28 0-.25-.01-.13 0-.09 0-.04 0-.01 0-.01 0-.03-.01-.12 0-.27 0-.23-.01-.01 0-.01 0-.01 0-.27.02-.36.02-.61.03-.03 0-.09 0-.15.01-.05 0-.09 0-.28.01-.59.01-.98.01-.84 0-.1 0-.06 0-.11 0-.15 0-.06 0-.21 0-.02 0-.03 0-.06 0-.08 0-.02 0-.11 0-.11 0-.11 0-.16.01-.04 0-.13 0-.14 0-.06 0-.11 0-.09 0-.06 0-.06 0-.12 0-.85 0-.13 0-.08 0-.85.01-.19 0-.12 0-.09 0-.11 0-.09 0-.02 0-.12 0-.09 0-.02.01-.09 0-.09 0-.04 0-.01 0-1 .03-.74.01-.07 0-.62.02-.07 0-.13.01-.31.01-.46.02-.02 0-.63.03-.44.02-.08 0-.08 0-.1.01-.05 0-.06 0-.76.04-.27.01-.25.01-.02 0-.18.01-.13 0-.1.01-.09 0-.14.01-.34 0-.07.01-.21 0-.21 0-.48 0-.02 0-.02 0-.02 0-.02 0-.02 0-.06.01-.03 0-.03 0-.04 0-.03 0-.1 0-.1 0-.09 0-.03 0-.04 0-.07 0-.16 0-.16 0-.03 0-.06 0-.17 0-.51.02-.08 0-.14.01-.09 0-.05 0-.02 0-.35.01-.82.01-.45.01-.09 0-.15 0-.03 0-.11 0-.08 0-.06 0-.02 0-.09 0-.05 0-.14 0-.03.01-.04 0-.02 0-.02 0-.14-.01-.07 0-.02 0-.02.01-.01 0-.04 0-.04 0 0 0-.19-.01-.06.01-.01 0-.72 0-.09 0-.01 0 0 0-.1 0-.24 0-.07 0-.18 0-.04 0-.13 0-.26 0-.02 0-.04 0-.2 0-.15 0-.05 0-.03 0-.03 0 0 0-.04 0-.26 0-.13 0-.05 0-.55.01-.13 0-.09 0-.02 0-.01 0-.01 0-.11 0-.06 0-.03 0-.01 0-.02 0-.23 0-.1 0-.06 0-.05 0-.08-.01-.01 0-.11 0-.12 0-.02 0-.06 0-.06 0-.06 0-.05 0-.11 0-.09 0-.52 0-.21 0-.41 0-.1 0-.23 0-.09 0-.01 0-.22 0-.02 0-.47.01-.02 0-.04 0-.06 0 0 0-.04 0-.13 0-.87.01-.5 0-.32-.01-.06 0-.18 0-.16 0-.15 0-.3.01-.55.01-.1 0-.24 0-.56.01-.01 0-.01 0-.02 0-.68.01-1.89.01-.72 0-.44 0-.01 0-.15-.01-.02 0-.08 0-.06 0-.26 0-.01 0-.04 0-.27.01-.06 0-.26 0-.06 0-.26.01-.36 0-.03 0-.29.01-.06 0-.09-.01-.04.01-.18 0 0 0-.19 0-.44.01-.34 0-.33 0-.39 0-.53 0-.04 0-.36 0-.33 0-.03 0-.05 0-.09-.01-.39-.05-.32-.04-.45-.05-.06 0-.06-.01-.14 0-.37 0-.57-.01-.08-.01-.23-.03-.55-.05-.44-.05-.05 0-.1-.01-.08-.01-.53-.05-.26-.02-.29-.03-.31-.02-.25-.02-.09 0-.1-.01-.92-.02-.41.04-.1.01-.01 0-.01 0-.03.01-.02 0-.09.01-.04 0-.65.07-.37.04-.25.02-.38.04-.17.02-.13.01-.27.01-.09.01-.06 0-.26.01-.37.02-.63.04-.22 0-.1.01-.41.02-.14.01-.04 0-.23.02-.15 0-.02 0-.11.01-.01 0-.1.01-.05 0-.04 0-.13.01-.1 0-.1.01-.1 0-.11.01-.02 0-.09.01-.1 0-.11.01-.11 0-.1.01-.09 0-.11.01-.02 0-.1.01-.11 0-.11.01-.11 0-.1.01-.11.01-.11 0-.1.01-.11 0-.07.01-.04 0-.03 0-.05 0-.05.01-.01 0-.01 0-.06 0-.1.01-.11 0-.11.01-.1.01-.11 0-.11.01-.09 0-.02 0-.03 0-.07.01-.1 0-.11.01-.05 0-.06.01-.11 0-.11.01-.1 0-.11.01 0 0 0 0-.11 0-.09.01-.12 0-.11.01-.09 0-.08.01-.04 0-.11.01-.14 0-.08.01-.09 0-.13.01-.1 0-.11.01-.09.01-.12 0-.09.01-.08 0-.01 0-.05.01-.09 0-.17.01-.08 0 0 0-.05.01-.65.03-.02 0-.11.01-.07.01-.1 0-.04 0-.09 0-.12 0-.11-.01-.07 0-.14 0-.05 0-.05 0-.01 0 0 0 0 0-.06 0-.09 0-.06-.01-.11 0-.04 0-.07 0-.1 0-.12 0-.01 0-.08-.01-.1 0-.13 0-.1 0-.11 0-.1-.01-.01 0-.1 0-.11 0-.08 0-.03 0 0 0-.1 0-.18-.01-.05 0-.1 0-.15 0-.07 0-.03 0-.08-.01-.13 0-.07 0-.01 0-.1 0-.14 0 0 0-.09-.01-.09 0-.11 0-.1 0-.02 0-.05 0-.01 0-.07 0-.02 0-.39-.01-.01 0-.03 0-.05 0-.01 0-.16-.01-.17 0-.14 0-.08 0-.09 0-.01 0-.12-.01-.08 0-.12 0-.11 0-.09 0-.09-.01-.13 0-.1 0-.02 0-.02 0-.02 0-.03 0-.03 0 0 0-.08 0-.12-.01-.11 0-.01 0-.07 0-.02 0-.1 0-.13 0-.06 0-.14 0-.11 0-.01 0-.03 0-.07 0-.22 0-.02 0-.21 0-.1 0-.06 0-.25 0-.07 0-.06 0-.18 0-.08 0-.24 0-.07 0-.01 0-.13 0-.02 0-.01 0-.07 0-.09-.01-.23 0-.1 0 0 0-.01 0-.02 0-.18 0-.11 0-.21 0-.04 0-.02 0-.02 0-.03 0-.02 0-.06 0-.08 0-.01 0-.03 0-.13 0-.01 0-.08 0-.05 0-.04 0-.13 0-.02 0-.03 0-.01 0-.06 0-.04 0-.03 0-.13 0-.01 0-.17 0-.06 0-.03 0-.06 0-.02 0-.3 0-.16 0-.16 0-.1 0-.02 0-.03 0-.17 0-.07 0-.03 0-.02 0-.2 0-.14 0-.18 0-.05.01-.02 0-.02 0-.02 0-.03 0-.01 0-.17 0-.04 0-.09 0-.15 0-.04 0-.14-.01-.1 0-.06 0-.17 0-.18 0-.11 0-.04 0-.17.01-.13 0-.01 0-.03 0-.03 0-.09 0-.01 0-.02 0-.09.01-.03 0-.15 0-.06 0-.1 0-.3.01-.01 0-.31.01-.23 0-.04 0-.02 0-.03 0-.01 0-.3.01-.03 0-.28.01-.05 0-.26 0-.05 0-.14.01-.02 0-.01 0-.02 0-.07 0-.06 0-.13 0-.08 0-.03.01-.01 0-.07 0-.18 0-.06 0-.07 0-.01 0-.01 0-.06.01-.04 0-.01 0-.08.01-.01 0-.01.01-.04 0-.05.01-.04.01-.19.04-.08.01-.02 0-.21.04-.11.03-.2.03-.05.01-.07.02-.19.03-.13.03-.19.03-.13.03-.18.03-.14.03-.08.01-.1 0-.14-.01-.17 0-.16-.01-.08 0-.07 0-.17-.01-.14 0-.18-.01-.13-.01-.19 0-.1-.01-.12 0-.1-.01-.33-.01-.34-.01-.33-.02-.01 0-.3-.01-.32-.01-.01 0-.31-.01-.23-.01-.01 0-.02 0-.18-.01-.45-.01-.29 0-.06.01-.01 0-.1 0-1.06.02-.18.01-.02 0-.22.01-.04 0-.28.01-.23.01-.01 0-.08 0-.32.01-.18.01-.01 0-.83.02-.07 0-.05 0-.02 0-.01 0-.01 0-.02 0-.07.01 0 0-.02 0-.05 0-.09 0-.01 0-.14.01-.33.01-.22.01 0 0-.03 0-.01 0-.08 0-.32.02-.01 0-.04-.01-.09 0-.04 0-.08-.01-.03 0-.02 0-.15-.01-.05 0-.01 0-.11-.01-.07 0-.04 0-.29-.02-.11 0 0 0-.2-.01-.12-.01-.1 0-.1 0-.12 0-.23 0-.09 0-.21 0-.11 0-.21 0-.12-.01-.2 0-.04 0-.08 0-.01 0-.57 0-.06 0-.21.01-.03 0-.04 0-.05 0-.2 0-.11 0-.21 0-.12 0-.12 0-.12 0-.05 0-.03 0-.32 0-.13 0-.11 0-.08 0-.8.01-.25 0-.11 0-.12 0-.32 0-.33 0-.22 0-.1 0-.31 0-.1 0-.22-.01-.14 0-.03 0-.15 0-.3 0-.02 0-.33 0-.13 0-.19 0-.32 0-.19 0-.01 0 0 0-.05 0-.04 0-.03 0-.32 0-.33 0-.32 0-.32 0-.16 0-.16 0-.4-.01-.04 0-.09 0-.96-.01-1.15 0-.84-.01-.05 0-.74 0-.01 0-.64-.01-.64-.01-.14 0 0 0-.37-.01 0 0-.15 0-.01 0-.01 0-.01 0-.01-.01 0 0-.01 0-.82.01-.01-.01 0 0-.01 0-.02 0-.02 0-.02 0-.01 0 0 .01-.01 0-.01 0-.01 0-.01 0-.01-.01-.01-.01-.01-.01-.08 0-.04-.01-.79.01-.15 0-.15 0-.02 0 0 0-1.34-.02-.09 0-.22-.01-.02 0-1.03-.02-.38-.01-.67-.02-.05 0-.18 0-.36-.01-.11 0-.27-.01-.01 0 0 0 0 0-.01 0 0 0-.23 0-.01 0-.01 0 0 0 0 0-.01 0 0 0 0 0-.01 0-.09-.01 0 0-.65-.01 0 0-.08 0-.14-.01-.02 0-.22 0-.12 0-.04 0-1.03.01-1.19 0 0 0-5.13 0 .03.03.07.03.62.27.72.16.15.37.24.51.43.67.4.52.09.5.16.64-.2.45-.14.56-.11.72 0 0 0 .09-.02.7.13.75.28.63.33.53.31.35-.02.37-.1.69-.12.96-.07.49.03 0 .04 0-.09.35-.26 1.01-.28-.06-.29-.02-.29-.03-.43.05-.49.12-1.2-1.42 0 0 0 0-.2-.2-.37-.24-.6-.3-.59-.18-.57-.13-.45-.01-.1-.01-.18-.01 0 0-.83.02-.82.1-.67.31-.48.65-.25.22-.25.31-.31.53-.28.56-.17.64-.2.94.02.67.06.36.04.24.25.7.39.61.45.53.32.33.09.27.13.35.23.42.33.46.41.46.5.49.5.37.55.23-.01.09.1.02.12.04.2.04.05.01.24.33.3.33.33.33.24.21.01 0 .45.47.98.95.96.48.16.08.89.3.55.53.51.42.41.33 1.03.69.74.39.12.05.26.09.24.08.33.03.06.04 0 .01.4.39.48.39.5.27.23.09.2.66-.09.39-.12.66 0 .82.09.28-.07.69.11.57.16.53.19.39.21.48.37.55.37.44-.02.32 0 .52.09.62.13.24-.07.48-.03.41.01.28.01.16.22.73.34.65.5.65.52.51.26.16 0 .48.03.76.14.92.29.73.12.22 0 .38.03.36.26.6.22.55.1.36.13.49.1.38.08.41.09.34z" /></g></g></svg>