<?xml version="1.0" encoding="utf-8"?>
<!-- Generator: Adobe Illustrator 27.1.1, SVG Export Plug-In . SVG Version: 6.00 Build 0)  -->
<svg version="1.1" id="Layer_1" xmlns="http://www.w3.org/2000/svg" xmlns:xlink="http://www.w3.org/1999/xlink" x="0px" y="0px"
	 viewBox="0 0 75 75" style="enable-background:new 0 0 75 75;" xml:space="preserve">
<style type="text/css">
	.st0{fill:none;}
	.st1{fill:#9A431B;}
	.st2{fill:#064E66;}
	.st3{fill:#998675;}
	.st4{fill:#3D6937;}
	.st5{fill:#78297E;}
	.st6{fill:#8F2F02;}
	.st7{fill:#E7C089;}
	.st8{fill:none;stroke:#000000;stroke-width:2;stroke-miterlimit:10;}
	.st9{fill:#FEC02F;}
	.st10{fill:#999999;}
	.st11{fill:#CCCCCC;}
	.st12{fill:none;stroke:#000000;stroke-width:2;stroke-linecap:round;stroke-linejoin:round;stroke-miterlimit:10;}
	.st13{fill:#E1E0E3;}
</style>
<rect x="-0.2" y="0.2" class="st0" width="75" height="75"/>
<g>
	<path class="st11" d="M16.7,63.3H7l13.1-20.5l4.9,7.6L16.7,63.3z M10.6,61.3h5l7-10.9l-2.5-3.9L10.6,61.3z"/>
	<path class="st11" d="M67.6,63.3H55L43.7,45.7l6.3-9.8L67.6,63.3z M56.1,61.3h7.8L50,39.6l-3.9,6.1L56.1,61.3z"/>
	<path class="st10" d="M48.5,23.8l-13.8-4.2v7v1.3v3.9h2v-4.5L48.5,23.8z M36.7,22.3l4.9,1.5l-4.9,1.5V22.3z"/>
	<path class="st9" d="M9.5,41.9C9.5,26.5,21.9,14,37.3,14s27.8,12.5,27.8,27.8c0,3.5-0.7,6.8-1.8,9.9l1.2,2.3
		c1.7-3.7,2.6-7.9,2.6-12.2C67.1,25.4,53.7,12,37.3,12S7.5,25.4,7.5,41.9c0,4.2,0.9,8.2,2.4,11.8l1.3-2.1
		C10.1,48.5,9.5,45.3,9.5,41.9z"/>
	<path class="st10" d="M57.2,63.3H14.3L35.7,30L57.2,63.3z M18,61.3h35.5L35.7,33.7L18,61.3z"/>
</g>
</svg>
