<?xml version="1.0" encoding="utf-8"?>
<!-- Generator: Adobe Illustrator 27.1.1, SVG Export Plug-In . SVG Version: 6.00 Build 0)  -->
<svg version="1.1" id="Layer_1" xmlns="http://www.w3.org/2000/svg" xmlns:xlink="http://www.w3.org/1999/xlink" x="0px" y="0px"
	 viewBox="0 0 75 75" style="enable-background:new 0 0 75 75;" xml:space="preserve">
<style type="text/css">
	.st0{fill:none;}
	.st1{fill:#9A431B;}
	.st2{fill:#064E66;}
	.st3{fill:#998675;}
	.st4{fill:#3D6937;}
	.st5{fill:#78297E;}
	.st6{fill:#8F2F02;}
	.st7{fill:#E7C089;}
	.st8{fill:none;stroke:#000000;stroke-width:2;stroke-miterlimit:10;}
	.st9{fill:#FEC02F;}
	.st10{fill:#999999;}
	.st11{fill:#CCCCCC;}
	.st12{fill:none;stroke:#000000;stroke-width:2;stroke-linecap:round;stroke-linejoin:round;stroke-miterlimit:10;}
	.st13{fill:#E1E0E3;}
</style>
<g>
	<rect x="39.2" y="25.6" class="st10" width="19.8" height="2"/>
	<rect x="15.3" y="25.6" class="st10" width="19.8" height="2"/>
	<path class="st9" d="M37.2,9.4c12.7,0,23.4,8.5,26.8,20.2l2.9,4.9c-1.4-15.1-14.2-27-29.7-27C21.5,7.4,8.7,19.5,7.4,34.8l2.8-4.6
		C13.3,18.2,24.2,9.4,37.2,9.4z"/>
	<path class="st9" d="M37.2,65c-10.3,0-19.2-5.6-24-13.8l-2.8-0.9c4.8,9.9,15,16.8,26.8,16.8c11.7,0,21.9-6.8,26.8-16.7l-2.8,0.9
		C56.3,59.5,47.4,65,37.2,65z"/>
	<path class="st11" d="M37.2,29.6c-1.7,0-3-1.3-3-3s1.3-3,3-3s3,1.3,3,3S38.8,29.6,37.2,29.6z M37.2,25.6c-0.6,0-1,0.4-1,1
		s0.4,1,1,1s1-0.4,1-1S37.7,25.6,37.2,25.6z"/>
	<rect x="36.2" y="17.3" class="st11" width="2" height="7.3"/>
	<circle class="st11" cx="37.2" cy="17.3" r="2"/>
	<rect x="36.2" y="28.6" class="st11" width="2" height="24.9"/>
	<rect x="27.9" y="54.6" class="st10" width="18.5" height="2"/>
	<rect x="25.6" y="58.1" class="st10" width="23.2" height="2"/>
	<g>
		<path class="st10" d="M68.6,41.3c-0.1-0.1-0.2-0.2-0.3-0.3L59,25.7l-9.4,15.4c-0.1,0.1-0.2,0.1-0.3,0.3c-0.2,0.3-0.2,0.6-0.1,0.9
			c1.4,4.2,5.3,7.1,9.8,7.1c4.5,0,8.4-2.8,9.8-7.1C68.9,41.9,68.8,41.6,68.6,41.3z M65.9,40.9H52.1L59,29.5L65.9,40.9z M59,47.3
			c-3.1,0-5.9-1.7-7.3-4.4h14.6C64.9,45.6,62.1,47.3,59,47.3z"/>
		<path class="st10" d="M24.7,41.1l-9.4-15.4L6,41.1c-0.1,0.1-0.2,0.1-0.3,0.3c-0.2,0.3-0.2,0.6-0.1,0.9c1.4,4.2,5.3,7.1,9.8,7.1
			c4.5,0,8.4-2.8,9.8-7.1c0.1-0.3,0-0.6-0.1-0.9C24.9,41.2,24.8,41.2,24.7,41.1z M22.2,40.9H8.4l6.9-11.4L22.2,40.9z M15.3,47.3
			c-3.1,0-5.9-1.7-7.3-4.4h14.6C21.2,45.6,18.4,47.3,15.3,47.3z"/>
	</g>
</g>
<rect x="-0.3" y="-0.3" class="st0" width="75" height="75"/>
</svg>
