<?xml version="1.0" encoding="utf-8"?>
<!-- Generator: Adobe Illustrator 27.1.1, SVG Export Plug-In . SVG Version: 6.00 Build 0)  -->
<svg version="1.1" id="Layer_1" xmlns="http://www.w3.org/2000/svg" xmlns:xlink="http://www.w3.org/1999/xlink" x="0px" y="0px"
	 viewBox="0 0 75 75" style="enable-background:new 0 0 75 75;" xml:space="preserve">
<style type="text/css">
	.st0{fill:none;}
	.st1{fill:#9A431B;}
	.st2{fill:#064E66;}
	.st3{fill:#998675;}
	.st4{fill:#3D6937;}
	.st5{fill:#78297E;}
	.st6{fill:#8F2F02;}
	.st7{fill:#E7C089;}
	.st8{fill:none;stroke:#000000;stroke-width:2;stroke-miterlimit:10;}
	.st9{fill:#FEC02F;}
	.st10{fill:#999999;}
	.st11{fill:#CCCCCC;}
	.st12{fill:none;stroke:#000000;stroke-width:2;stroke-linecap:round;stroke-linejoin:round;stroke-miterlimit:10;}
	.st13{fill:#E1E0E3;}
</style>
<rect y="0.1" class="st0" width="75" height="75"/>
<g>
	<path class="st9" d="M44,58.3H31l0-2c-0.1-2-1.6-4.4-3-6.5c-0.6-1-1.3-2-1.7-2.9c-0.9-1.8-1.7-3.8-1.9-6.1c-0.5-6.1,4-12.4,10.1-14
		c2-0.5,4-0.5,6,0c6.1,1.6,10.6,7.9,10.1,14c-0.2,2.3-1,4.3-1.9,6.1c-0.4,0.9-1.1,1.9-1.7,2.9c-1.3,2.1-2.8,4.5-3,6.5L44,58.3z
		 M33,56.3l9,0c0.2-2.5,1.8-5.2,3.3-7.5c0.6-1,1.2-1.9,1.6-2.7c0.8-1.6,1.5-3.4,1.7-5.3c0.5-5.6-4.1-10.7-8.6-11.9
		c-1.6-0.4-3.3-0.4-5,0c-4.5,1.2-9.1,6.3-8.6,11.9c0.2,2,0.9,3.7,1.7,5.3c0.4,0.8,1,1.7,1.6,2.7c1.5,2.3,3.1,5,3.3,7.4L33,56.3
		L33,56.3z"/>
	<rect x="31.3" y="59.2" class="st10" width="12.3" height="2"/>
	<rect x="32.3" y="62.1" class="st11" width="10.4" height="2"/>
	<rect x="33.2" y="65" class="st10" width="8.5" height="2"/>
	<path class="st9" d="M29.3,66.8C16.6,63.2,7.7,51.4,7.7,38.1C7.7,21.7,21,8.3,37.5,8.3s29.8,13.4,29.8,29.8
		c0,13.2-8.5,24.7-21.1,28.5l-0.6-1.9c11.8-3.6,19.7-14.3,19.7-26.6c0-15.3-12.5-27.8-27.8-27.8S9.7,22.8,9.7,38.1
		c0,12.4,8.3,23.4,20.2,26.8L29.3,66.8z"/>
	<rect x="36.5" y="17.9" class="st9" width="2" height="7"/>
	<g>
		<rect x="52.2" y="39.6" class="st9" width="7" height="2"/>
		<rect x="47" y="26.4" transform="matrix(0.7071 -0.7071 0.7071 0.7071 -4.5616 43.7522)" class="st9" width="7" height="2"/>
		<rect x="49" y="50.3" transform="matrix(0.7071 -0.7071 0.7071 0.7071 -23.3962 51.1476)" class="st9" width="2" height="7"/>
	</g>
	<g>
		<rect x="15.9" y="39.6" class="st9" width="7" height="2"/>
		<rect x="23.5" y="23.9" transform="matrix(0.7071 -0.7071 0.7071 0.7071 -12.1933 25.3277)" class="st9" width="2" height="7"/>
		<rect x="21.5" y="52.8" transform="matrix(0.7071 -0.7071 0.7071 0.7071 -30.7407 33.4164)" class="st9" width="7" height="2"/>
	</g>
</g>
</svg>
