<svg width="24" height="24" viewBox="0 0 24 24" fill="none" xmlns="http://www.w3.org/2000/svg">
<path d="M22.919 6.35202C22.855 5.36602 22.074 4.58602 21.089 4.52002C21.046 4.51802 21.005 4.50702 20.962 4.50702V4.52002L3.00401 4.50702C2.96101 4.50702 2.92001 4.51802 2.87701 4.52002C1.87901 4.58602 1.09001 5.38402 1.04201 6.38602C1.04101 6.41602 1.03201 6.44802 1.03201 6.47902C1.03201 6.51002 1.04101 6.54002 1.04201 6.57002V19.341H22.919V6.60502C22.922 6.56202 22.933 6.52202 22.933 6.47902C22.933 6.43502 22.923 6.39502 22.92 6.35202H22.919ZM19.335 6.46702L11.98 12.73L4.62701 6.46702H19.335V6.46702ZM2.98801 8.44902C2.99301 8.44902 2.99901 8.45002 3.00401 8.45002V7.64202L7.83201 11.753L2.98801 16.313V8.44902V8.44902ZM3.97801 17.395L8.84901 12.547L11.98 15.284L15.131 12.529L19.976 17.396H3.97801V17.395ZM20.974 16.312L16.129 11.752L20.961 7.63802V8.45002C20.966 8.45002 20.971 8.44902 20.975 8.44902V16.313L20.974 16.312Z" fill="#691808"/>
</svg>
