<svg width="24" height="24" viewBox="0 0 24 24" fill="none" xmlns="http://www.w3.org/2000/svg">
<path fill-rule="evenodd" clip-rule="evenodd" d="M11.9989 0.545439C5.37328 0.545439 0 5.80358 0 12.2902C0 17.4784 3.43804 21.8807 8.20651 23.4344C8.8069 23.5419 9.02569 23.1792 9.02569 22.8678C9.02569 22.5887 9.01538 21.8504 9.00949 20.8706C5.67163 21.5801 4.96737 19.296 4.96737 19.296C4.4215 17.9391 3.63474 17.5779 3.63474 17.5779C2.5452 16.8497 3.71725 16.8641 3.71725 16.8641C4.9217 16.9471 5.55524 18.0747 5.55524 18.0747C6.62562 19.8692 8.36417 19.3508 9.0478 19.0501C9.15682 18.2917 9.46696 17.774 9.80951 17.4806C7.14497 17.1835 4.34342 16.1763 4.34342 11.676C4.34342 10.3933 4.8112 9.34576 5.57881 8.52456C5.45505 8.22752 5.04325 7.03355 5.69668 5.41639C5.69668 5.41639 6.7037 5.10059 8.99622 6.6197C9.95316 6.35943 10.9801 6.22965 12.0004 6.22461C13.0199 6.22965 14.0461 6.35943 15.0045 6.6197C17.2956 5.10059 18.3011 5.41639 18.3011 5.41639C18.956 7.03355 18.5442 8.22752 18.4212 8.52456C19.1903 9.34576 19.6544 10.3933 19.6544 11.676C19.6544 16.1879 16.8484 17.1807 14.1758 17.4712C14.606 17.8339 14.9898 18.5505 14.9898 19.6464C14.9898 21.216 14.975 22.4828 14.975 22.8678C14.975 23.1821 15.1916 23.5476 15.8001 23.433C20.5649 21.8764 24 17.4777 24 12.2902C24 5.80358 18.6267 0.545439 11.9989 0.545439Z" fill="#1B1817"/>
</svg>
