<svg width="24" height="24" viewBox="0 0 24 24" fill="none" xmlns="http://www.w3.org/2000/svg">
<path d="M19.783 2.427H4.43801C3.16701 2.427 2.13901 3.435 2.13901 4.68V19.704C2.13901 20.948 3.16701 21.957 4.43801 21.957H19.783C21.053 21.957 22.083 20.948 22.083 19.704V4.68C22.083 3.435 21.053 2.427 19.783 2.427V2.427ZM6.97001 8.438C6.07101 8.438 5.34401 7.71 5.34401 6.812C5.34401 5.914 6.07201 5.185 6.97001 5.185C7.86601 5.185 8.59501 5.915 8.59501 6.812C8.59501 7.709 7.86601 8.438 6.97001 8.438V8.438ZM8.37201 9.67V18.693H5.56401V9.67H8.37201V9.67ZM18.872 18.694H16.071V14.308C16.071 13.258 16.051 11.915 14.612 11.915C13.153 11.915 12.932 13.052 12.932 14.231V18.693H10.129V9.67H12.819V10.903H12.857C13.23 10.194 14.146 9.445 15.51 9.445C18.347 9.445 18.872 11.313 18.872 13.743V18.694Z" fill="#691808"/>
</svg>
