<svg width="24" height="24" viewBox="0 0 24 24" fill="none" xmlns="http://www.w3.org/2000/svg">
<path d="M22.962 6.64699C22.962 6.64699 22.707 5.03299 22.112 4.43799C21.262 3.58799 20.327 3.58799 19.903 3.50299C16.674 3.24799 12 3.24799 12 3.24799C12 3.24799 7.326 3.24799 4.097 3.50299C3.672 3.50299 2.737 3.50299 1.888 4.43799C1.208 5.11799 1.038 6.64699 1.038 6.64699C1.038 6.64699 0.783005 8.60099 0.783005 10.386V12.085C0.783005 14.039 1.038 15.824 1.038 15.824C1.038 15.824 1.293 17.438 1.888 18.033C2.738 18.883 3.84201 18.883 4.35201 18.968C6.137 19.053 12 19.223 12 19.223C12 19.223 16.674 19.223 19.903 18.968C20.328 18.968 21.263 18.968 22.112 18.033C22.792 17.353 22.962 15.824 22.962 15.824C22.962 15.824 23.217 14.039 23.217 12.085V10.386C23.217 8.43199 22.962 6.64699 22.962 6.64699ZM8.686 15.909V6.64699L17.438 11.236L8.686 15.91V15.909Z" fill="black"/>
</svg>
